<?xml version="1.0" encoding="utf-8" standalone="no"?>
<!DOCTYPE svg PUBLIC "-//W3C//DTD SVG 1.1//EN"
  "http://www.w3.org/Graphics/SVG/1.1/DTD/svg11.dtd">
<svg xmlns:xlink="http://www.w3.org/1999/xlink" width="586.228489pt" height="268.361625pt" viewBox="0 0 586.228489 268.361625" xmlns="http://www.w3.org/2000/svg" version="1.1">
 <metadata>
  <rdf:RDF xmlns:dc="http://purl.org/dc/elements/1.1/" xmlns:cc="http://creativecommons.org/ns#" xmlns:rdf="http://www.w3.org/1999/02/22-rdf-syntax-ns#">
   <cc:Work>
    <dc:type rdf:resource="http://purl.org/dc/dcmitype/StillImage"/>
    <dc:date>2022-12-19T07:26:29.019927</dc:date>
    <dc:format>image/svg+xml</dc:format>
    <dc:creator>
     <cc:Agent>
      <dc:title>Matplotlib v3.5.3, https://matplotlib.org/</dc:title>
     </cc:Agent>
    </dc:creator>
   </cc:Work>
  </rdf:RDF>
 </metadata>
 <defs>
  <style type="text/css">*{stroke-linejoin: round; stroke-linecap: butt}</style>
 </defs>
 <g id="figure_1">
  <g id="patch_1">
   <path d="M 0 268.361625 
L 586.228489 268.361625 
L 586.228489 0 
L 0 0 
z
" style="fill: #ffffff"/>
  </g>
  <g id="axes_1">
   <g id="patch_2">
    <path d="M 21.028489 241.763721 
L 579.028489 241.763721 
L 579.028489 20.003721 
L 21.028489 20.003721 
z
" style="fill: #ffffff"/>
   </g>
   <g id="patch_3">
    <path d="M 174.983804 241.763721 
L 212.851909 241.763721 
L 212.851909 33.602779 
L 174.983804 33.602779 
z
" clip-path="url(#pddc1576739)" style="fill: #4c72b0; opacity: 0.35"/>
   </g>
   <g id="patch_4">
    <path d="M 212.851909 241.763721 
L 250.720014 241.763721 
L 250.720014 116.936164 
L 212.851909 116.936164 
z
" clip-path="url(#pddc1576739)" style="fill: #4c72b0; opacity: 0.35"/>
   </g>
   <g id="patch_5">
    <path d="M 250.720014 241.763721 
L 288.588119 241.763721 
L 288.588119 197.870042 
L 250.720014 197.870042 
z
" clip-path="url(#pddc1576739)" style="fill: #4c72b0; opacity: 0.35"/>
   </g>
   <g id="patch_6">
    <path d="M 288.588119 241.763721 
L 326.456224 241.763721 
L 326.456224 229.112951 
L 288.588119 229.112951 
z
" clip-path="url(#pddc1576739)" style="fill: #4c72b0; opacity: 0.35"/>
   </g>
   <g id="patch_7">
    <path d="M 326.456224 241.763721 
L 364.324328 241.763721 
L 364.324328 238.566804 
L 326.456224 238.566804 
z
" clip-path="url(#pddc1576739)" style="fill: #4c72b0; opacity: 0.35"/>
   </g>
   <g id="patch_8">
    <path d="M 364.324328 241.763721 
L 402.192433 241.763721 
L 402.192433 241.032693 
L 364.324328 241.032693 
z
" clip-path="url(#pddc1576739)" style="fill: #4c72b0; opacity: 0.35"/>
   </g>
   <g id="patch_9">
    <path d="M 402.192433 241.763721 
L 440.060538 241.763721 
L 440.060538 241.601582 
L 402.192433 241.601582 
z
" clip-path="url(#pddc1576739)" style="fill: #4c72b0; opacity: 0.35"/>
   </g>
   <g id="patch_10">
    <path d="M 440.060538 241.763721 
L 477.928643 241.763721 
L 477.928643 241.732523 
L 440.060538 241.732523 
z
" clip-path="url(#pddc1576739)" style="fill: #4c72b0; opacity: 0.35"/>
   </g>
   <g id="patch_11">
    <path d="M 477.928643 241.763721 
L 515.796747 241.763721 
L 515.796747 241.758357 
L 477.928643 241.758357 
z
" clip-path="url(#pddc1576739)" style="fill: #4c72b0; opacity: 0.35"/>
   </g>
   <g id="patch_12">
    <path d="M 515.796747 241.763721 
L 553.664852 241.763721 
L 553.664852 241.762884 
L 515.796747 241.762884 
z
" clip-path="url(#pddc1576739)" style="fill: #4c72b0; opacity: 0.35"/>
   </g>
   <g id="patch_13">
    <path d="M 137.679215 241.763721 
L 153.708153 241.763721 
L 153.708153 233.159337 
L 137.679215 233.159337 
z
" clip-path="url(#pddc1576739)" style="fill: #55a868; opacity: 0.35"/>
   </g>
   <g id="patch_14">
    <path d="M 153.708153 241.763721 
L 169.737092 241.763721 
L 169.737092 216.632488 
L 153.708153 216.632488 
z
" clip-path="url(#pddc1576739)" style="fill: #55a868; opacity: 0.35"/>
   </g>
   <g id="patch_15">
    <path d="M 169.737092 241.763721 
L 185.76603 241.763721 
L 185.76603 199.874118 
L 169.737092 199.874118 
z
" clip-path="url(#pddc1576739)" style="fill: #55a868; opacity: 0.35"/>
   </g>
   <g id="patch_16">
    <path d="M 185.76603 241.763721 
L 201.794969 241.763721 
L 201.794969 185.380574 
L 185.76603 185.380574 
z
" clip-path="url(#pddc1576739)" style="fill: #55a868; opacity: 0.35"/>
   </g>
   <g id="patch_17">
    <path d="M 201.794969 241.763721 
L 217.823908 241.763721 
L 217.823908 177.974247 
L 201.794969 177.974247 
z
" clip-path="url(#pddc1576739)" style="fill: #55a868; opacity: 0.35"/>
   </g>
   <g id="patch_18">
    <path d="M 217.823908 241.763721 
L 233.852846 241.763721 
L 233.852846 177.935029 
L 217.823908 177.935029 
z
" clip-path="url(#pddc1576739)" style="fill: #55a868; opacity: 0.35"/>
   </g>
   <g id="patch_19">
    <path d="M 233.852846 241.763721 
L 249.881785 241.763721 
L 249.881785 185.060233 
L 233.852846 185.060233 
z
" clip-path="url(#pddc1576739)" style="fill: #55a868; opacity: 0.35"/>
   </g>
   <g id="patch_20">
    <path d="M 249.881785 241.763721 
L 265.910723 241.763721 
L 265.910723 199.338297 
L 249.881785 199.338297 
z
" clip-path="url(#pddc1576739)" style="fill: #55a868; opacity: 0.35"/>
   </g>
   <g id="patch_21">
    <path d="M 265.910723 241.763721 
L 281.939662 241.763721 
L 281.939662 216.08594 
L 265.910723 216.08594 
z
" clip-path="url(#pddc1576739)" style="fill: #55a868; opacity: 0.35"/>
   </g>
   <g id="patch_22">
    <path d="M 281.939662 241.763721 
L 297.968601 241.763721 
L 297.968601 232.536517 
L 281.939662 232.536517 
z
" clip-path="url(#pddc1576739)" style="fill: #55a868; opacity: 0.35"/>
   </g>
   <g id="patch_23">
    <path d="M 159.348899 241.763721 
L 171.100053 241.763721 
L 171.100053 202.325786 
L 159.348899 202.325786 
z
" clip-path="url(#pddc1576739)" style="fill: #c44e52; opacity: 0.35"/>
   </g>
   <g id="patch_24">
    <path d="M 171.100053 241.763721 
L 182.851207 241.763721 
L 182.851207 202.400434 
L 171.100053 202.400434 
z
" clip-path="url(#pddc1576739)" style="fill: #c44e52; opacity: 0.35"/>
   </g>
   <g id="patch_25">
    <path d="M 182.851207 241.763721 
L 194.602361 241.763721 
L 194.602361 202.457613 
L 182.851207 202.457613 
z
" clip-path="url(#pddc1576739)" style="fill: #c44e52; opacity: 0.35"/>
   </g>
   <g id="patch_26">
    <path d="M 194.602361 241.763721 
L 206.353515 241.763721 
L 206.353515 202.42489 
L 194.602361 202.42489 
z
" clip-path="url(#pddc1576739)" style="fill: #c44e52; opacity: 0.35"/>
   </g>
   <g id="patch_27">
    <path d="M 206.353515 241.763721 
L 218.104668 241.763721 
L 218.104668 202.38454 
L 206.353515 202.38454 
z
" clip-path="url(#pddc1576739)" style="fill: #c44e52; opacity: 0.35"/>
   </g>
   <g id="patch_28">
    <path d="M 218.104668 241.763721 
L 229.855822 241.763721 
L 229.855822 202.369039 
L 218.104668 202.369039 
z
" clip-path="url(#pddc1576739)" style="fill: #c44e52; opacity: 0.35"/>
   </g>
   <g id="patch_29">
    <path d="M 229.855822 241.763721 
L 241.606976 241.763721 
L 241.606976 202.398268 
L 229.855822 202.398268 
z
" clip-path="url(#pddc1576739)" style="fill: #c44e52; opacity: 0.35"/>
   </g>
   <g id="patch_30">
    <path d="M 241.606976 241.763721 
L 253.35813 241.763721 
L 253.35813 202.387246 
L 241.606976 202.387246 
z
" clip-path="url(#pddc1576739)" style="fill: #c44e52; opacity: 0.35"/>
   </g>
   <g id="patch_31">
    <path d="M 253.35813 241.763721 
L 265.109284 241.763721 
L 265.109284 202.394283 
L 253.35813 202.394283 
z
" clip-path="url(#pddc1576739)" style="fill: #c44e52; opacity: 0.35"/>
   </g>
   <g id="patch_32">
    <path d="M 265.109284 241.763721 
L 276.860437 241.763721 
L 276.860437 202.434682 
L 265.109284 202.434682 
z
" clip-path="url(#pddc1576739)" style="fill: #c44e52; opacity: 0.35"/>
   </g>
   <g id="patch_33">
    <path d="M 46.392125 241.763721 
L 93.939547 241.763721 
L 93.939547 241.628154 
L 46.392125 241.628154 
z
" clip-path="url(#pddc1576739)" style="fill: #8172b2; opacity: 0.35"/>
   </g>
   <g id="patch_34">
    <path d="M 93.939547 241.763721 
L 141.486968 241.763721 
L 141.486968 237.577733 
L 93.939547 237.577733 
z
" clip-path="url(#pddc1576739)" style="fill: #8172b2; opacity: 0.35"/>
   </g>
   <g id="patch_35">
    <path d="M 141.486968 241.763721 
L 189.03439 241.763721 
L 189.03439 172.517671 
L 141.486968 172.517671 
z
" clip-path="url(#pddc1576739)" style="fill: #8172b2; opacity: 0.35"/>
   </g>
   <g id="patch_36">
    <path d="M 189.03439 241.763721 
L 236.581812 241.763721 
L 236.581812 30.563721 
L 189.03439 30.563721 
z
" clip-path="url(#pddc1576739)" style="fill: #8172b2; opacity: 0.35"/>
   </g>
   <g id="patch_37">
    <path d="M 236.581812 241.763721 
L 284.129234 241.763721 
L 284.129234 144.802648 
L 236.581812 144.802648 
z
" clip-path="url(#pddc1576739)" style="fill: #8172b2; opacity: 0.35"/>
   </g>
   <g id="patch_38">
    <path d="M 284.129234 241.763721 
L 331.676655 241.763721 
L 331.676655 230.808053 
L 284.129234 230.808053 
z
" clip-path="url(#pddc1576739)" style="fill: #8172b2; opacity: 0.35"/>
   </g>
   <g id="patch_39">
    <path d="M 331.676655 241.763721 
L 379.224077 241.763721 
L 379.224077 240.880248 
L 331.676655 240.880248 
z
" clip-path="url(#pddc1576739)" style="fill: #8172b2; opacity: 0.35"/>
   </g>
   <g id="patch_40">
    <path d="M 379.224077 241.763721 
L 426.771499 241.763721 
L 426.771499 241.680708 
L 379.224077 241.680708 
z
" clip-path="url(#pddc1576739)" style="fill: #8172b2; opacity: 0.35"/>
   </g>
   <g id="patch_41">
    <path d="M 426.771499 241.763721 
L 474.31892 241.763721 
L 474.31892 241.755847 
L 426.771499 241.755847 
z
" clip-path="url(#pddc1576739)" style="fill: #8172b2; opacity: 0.35"/>
   </g>
   <g id="patch_42">
    <path d="M 474.31892 241.763721 
L 521.866342 241.763721 
L 521.866342 241.761998 
L 474.31892 241.761998 
z
" clip-path="url(#pddc1576739)" style="fill: #8172b2; opacity: 0.35"/>
   </g>
   <g id="patch_43">
    <path d="M 218.097505 241.763721 
L 221.489822 241.763721 
L 221.489822 202.415786 
L 218.097505 202.415786 
z
" clip-path="url(#pddc1576739)" style="fill: #ccb974; opacity: 0.35"/>
   </g>
   <g id="patch_44">
    <path d="M 221.489822 241.763721 
L 224.882139 241.763721 
L 224.882139 202.344337 
L 221.489822 202.344337 
z
" clip-path="url(#pddc1576739)" style="fill: #ccb974; opacity: 0.35"/>
   </g>
   <g id="patch_45">
    <path d="M 224.882139 241.763721 
L 228.274455 241.763721 
L 228.274455 202.386557 
L 224.882139 202.386557 
z
" clip-path="url(#pddc1576739)" style="fill: #ccb974; opacity: 0.35"/>
   </g>
   <g id="patch_46">
    <path d="M 228.274455 241.763721 
L 231.666772 241.763721 
L 231.666772 202.387246 
L 228.274455 202.387246 
z
" clip-path="url(#pddc1576739)" style="fill: #ccb974; opacity: 0.35"/>
   </g>
   <g id="patch_47">
    <path d="M 231.666772 241.763721 
L 235.059088 241.763721 
L 235.059088 202.449346 
L 231.666772 202.449346 
z
" clip-path="url(#pddc1576739)" style="fill: #ccb974; opacity: 0.35"/>
   </g>
   <g id="patch_48">
    <path d="M 235.059088 241.763721 
L 238.451405 241.763721 
L 238.451405 202.342172 
L 235.059088 202.342172 
z
" clip-path="url(#pddc1576739)" style="fill: #ccb974; opacity: 0.35"/>
   </g>
   <g id="patch_49">
    <path d="M 238.451405 241.763721 
L 241.843722 241.763721 
L 241.843722 202.397137 
L 238.451405 202.397137 
z
" clip-path="url(#pddc1576739)" style="fill: #ccb974; opacity: 0.35"/>
   </g>
   <g id="patch_50">
    <path d="M 241.843722 241.763721 
L 245.236038 241.763721 
L 245.236038 202.452889 
L 241.843722 202.452889 
z
" clip-path="url(#pddc1576739)" style="fill: #ccb974; opacity: 0.35"/>
   </g>
   <g id="patch_51">
    <path d="M 245.236038 241.763721 
L 248.628355 241.763721 
L 248.628355 202.383851 
L 245.236038 202.383851 
z
" clip-path="url(#pddc1576739)" style="fill: #ccb974; opacity: 0.35"/>
   </g>
   <g id="patch_52">
    <path d="M 248.628355 241.763721 
L 252.020672 241.763721 
L 252.020672 202.417459 
L 248.628355 202.417459 
z
" clip-path="url(#pddc1576739)" style="fill: #ccb974; opacity: 0.35"/>
   </g>
   <g id="matplotlib.axis_1">
    <g id="xtick_1">
     <g id="line2d_1">
      <path d="M 82.404823 241.763721 
L 82.404823 20.003721 
" clip-path="url(#pddc1576739)" style="fill: none; stroke: #b0b0b0; stroke-width: 0.8; stroke-linecap: square"/>
     </g>
     <g id="line2d_2">
      <defs>
       <path id="mad6a92bbdd" d="M 0 0 
L 0 3.5 
" style="stroke: #000000; stroke-width: 0.8"/>
      </defs>
      <g>
       <use xlink:href="#mad6a92bbdd" x="82.404823" y="241.763721" style="stroke: #000000; stroke-width: 0.8"/>
      </g>
     </g>
     <g id="text_1">
      <!-- $\mathdefault{−4}$ -->
      <g transform="translate(73.566461 258.449597)scale(0.14 -0.14)">
       <defs>
        <path id="CMSY10-0" d="M 4218 1472 
C 4326 1472 4442 1472 4442 1600 
C 4442 1728 4326 1728 4218 1728 
L 755 1728 
C 646 1728 531 1728 531 1600 
C 531 1472 646 1472 755 1472 
L 4218 1472 
z
" transform="scale(0.015625)"/>
        <path id="CMR17-34" d="M 2150 4147 
C 2150 4281 2144 4288 2029 4288 
L 128 1254 
L 128 1088 
L 1779 1088 
L 1779 460 
C 1779 230 1766 166 1318 166 
L 1197 166 
L 1197 0 
C 1402 12 1747 12 1965 12 
C 2182 12 2528 12 2733 0 
L 2733 166 
L 2611 166 
C 2163 166 2150 230 2150 460 
L 2150 1088 
L 2803 1088 
L 2803 1254 
L 2150 1254 
L 2150 4147 
z
M 1798 3723 
L 1798 1254 
L 256 1254 
L 1798 3723 
z
" transform="scale(0.015625)"/>
       </defs>
       <use xlink:href="#CMSY10-0" transform="scale(0.996264)"/>
       <use xlink:href="#CMR17-34" transform="translate(77.487468 0)scale(0.996264)"/>
      </g>
     </g>
    </g>
    <g id="xtick_2">
     <g id="line2d_3">
      <path d="M 150.251163 241.763721 
L 150.251163 20.003721 
" clip-path="url(#pddc1576739)" style="fill: none; stroke: #b0b0b0; stroke-width: 0.8; stroke-linecap: square"/>
     </g>
     <g id="line2d_4">
      <g>
       <use xlink:href="#mad6a92bbdd" x="150.251163" y="241.763721" style="stroke: #000000; stroke-width: 0.8"/>
      </g>
     </g>
     <g id="text_2">
      <!-- $\mathdefault{−2}$ -->
      <g transform="translate(141.412801 258.449597)scale(0.14 -0.14)">
       <defs>
        <path id="CMR17-32" d="M 2669 990 
L 2554 990 
C 2490 537 2438 460 2413 422 
C 2381 371 1920 371 1830 371 
L 602 371 
C 832 620 1280 1073 1824 1596 
C 2214 1966 2669 2400 2669 3033 
C 2669 3788 2067 4224 1395 4224 
C 691 4224 262 3603 262 3027 
C 262 2777 448 2745 525 2745 
C 589 2745 781 2783 781 3007 
C 781 3206 614 3264 525 3264 
C 486 3264 448 3257 422 3244 
C 544 3788 915 4057 1306 4057 
C 1862 4057 2227 3616 2227 3033 
C 2227 2477 1901 1998 1536 1583 
L 262 147 
L 262 0 
L 2515 0 
L 2669 990 
z
" transform="scale(0.015625)"/>
       </defs>
       <use xlink:href="#CMSY10-0" transform="scale(0.996264)"/>
       <use xlink:href="#CMR17-32" transform="translate(77.487468 0)scale(0.996264)"/>
      </g>
     </g>
    </g>
    <g id="xtick_3">
     <g id="line2d_5">
      <path d="M 218.097504 241.763721 
L 218.097504 20.003721 
" clip-path="url(#pddc1576739)" style="fill: none; stroke: #b0b0b0; stroke-width: 0.8; stroke-linecap: square"/>
     </g>
     <g id="line2d_6">
      <g>
       <use xlink:href="#mad6a92bbdd" x="218.097504" y="241.763721" style="stroke: #000000; stroke-width: 0.8"/>
      </g>
     </g>
     <g id="text_3">
      <!-- $\mathdefault{0}$ -->
      <g transform="translate(214.683259 258.449597)scale(0.14 -0.14)">
       <defs>
        <path id="CMR17-30" d="M 2688 2038 
C 2688 2430 2682 3099 2413 3613 
C 2176 4063 1798 4224 1466 4224 
C 1158 4224 768 4082 525 3620 
C 269 3137 243 2539 243 2038 
C 243 1671 250 1112 448 623 
C 723 -39 1216 -128 1466 -128 
C 1760 -128 2208 -7 2470 604 
C 2662 1048 2688 1568 2688 2038 
z
M 1466 -26 
C 1056 -26 813 328 723 816 
C 653 1196 653 1749 653 2109 
C 653 2604 653 3015 736 3407 
C 858 3954 1216 4121 1466 4121 
C 1728 4121 2067 3947 2189 3420 
C 2272 3054 2278 2623 2278 2109 
C 2278 1691 2278 1176 2202 797 
C 2067 96 1690 -26 1466 -26 
z
" transform="scale(0.015625)"/>
       </defs>
       <use xlink:href="#CMR17-30" transform="scale(0.996264)"/>
      </g>
     </g>
    </g>
    <g id="xtick_4">
     <g id="line2d_7">
      <path d="M 285.943844 241.763721 
L 285.943844 20.003721 
" clip-path="url(#pddc1576739)" style="fill: none; stroke: #b0b0b0; stroke-width: 0.8; stroke-linecap: square"/>
     </g>
     <g id="line2d_8">
      <g>
       <use xlink:href="#mad6a92bbdd" x="285.943844" y="241.763721" style="stroke: #000000; stroke-width: 0.8"/>
      </g>
     </g>
     <g id="text_4">
      <!-- $\mathdefault{2}$ -->
      <g transform="translate(282.5296 258.449597)scale(0.14 -0.14)">
       <use xlink:href="#CMR17-32" transform="scale(0.996264)"/>
      </g>
     </g>
    </g>
    <g id="xtick_5">
     <g id="line2d_9">
      <path d="M 353.790184 241.763721 
L 353.790184 20.003721 
" clip-path="url(#pddc1576739)" style="fill: none; stroke: #b0b0b0; stroke-width: 0.8; stroke-linecap: square"/>
     </g>
     <g id="line2d_10">
      <g>
       <use xlink:href="#mad6a92bbdd" x="353.790184" y="241.763721" style="stroke: #000000; stroke-width: 0.8"/>
      </g>
     </g>
     <g id="text_5">
      <!-- $\mathdefault{4}$ -->
      <g transform="translate(350.37594 258.449597)scale(0.14 -0.14)">
       <use xlink:href="#CMR17-34" transform="scale(0.996264)"/>
      </g>
     </g>
    </g>
    <g id="xtick_6">
     <g id="line2d_11">
      <path d="M 421.636525 241.763721 
L 421.636525 20.003721 
" clip-path="url(#pddc1576739)" style="fill: none; stroke: #b0b0b0; stroke-width: 0.8; stroke-linecap: square"/>
     </g>
     <g id="line2d_12">
      <g>
       <use xlink:href="#mad6a92bbdd" x="421.636525" y="241.763721" style="stroke: #000000; stroke-width: 0.8"/>
      </g>
     </g>
     <g id="text_6">
      <!-- $\mathdefault{6}$ -->
      <g transform="translate(418.222281 258.449597)scale(0.14 -0.14)">
       <defs>
        <path id="CMR17-36" d="M 678 2198 
C 678 3712 1395 4076 1811 4076 
C 1946 4076 2272 4049 2400 3782 
C 2298 3782 2106 3782 2106 3558 
C 2106 3385 2246 3328 2336 3328 
C 2394 3328 2566 3353 2566 3571 
C 2566 3987 2246 4224 1805 4224 
C 1043 4224 243 3411 243 2011 
C 243 257 966 -128 1478 -128 
C 2099 -128 2688 431 2688 1295 
C 2688 2101 2170 2688 1517 2688 
C 1126 2688 838 2430 678 1979 
L 678 2198 
z
M 1478 25 
C 691 25 691 1212 691 1450 
C 691 1914 909 2585 1504 2585 
C 1613 2585 1926 2585 2138 2140 
C 2253 1889 2253 1624 2253 1302 
C 2253 954 2253 696 2118 438 
C 1978 173 1773 25 1478 25 
z
" transform="scale(0.015625)"/>
       </defs>
       <use xlink:href="#CMR17-36" transform="scale(0.996264)"/>
      </g>
     </g>
    </g>
    <g id="xtick_7">
     <g id="line2d_13">
      <path d="M 489.482865 241.763721 
L 489.482865 20.003721 
" clip-path="url(#pddc1576739)" style="fill: none; stroke: #b0b0b0; stroke-width: 0.8; stroke-linecap: square"/>
     </g>
     <g id="line2d_14">
      <g>
       <use xlink:href="#mad6a92bbdd" x="489.482865" y="241.763721" style="stroke: #000000; stroke-width: 0.8"/>
      </g>
     </g>
     <g id="text_7">
      <!-- $\mathdefault{8}$ -->
      <g transform="translate(486.068621 258.449597)scale(0.14 -0.14)">
       <defs>
        <path id="CMR17-38" d="M 1741 2289 
C 2144 2494 2554 2803 2554 3298 
C 2554 3884 1990 4224 1472 4224 
C 890 4224 378 3800 378 3215 
C 378 3054 416 2777 666 2533 
C 730 2469 998 2276 1171 2154 
C 883 2006 211 1652 211 945 
C 211 282 838 -128 1459 -128 
C 2144 -128 2720 366 2720 1022 
C 2720 1607 2330 1877 2074 2051 
L 1741 2289 
z
M 902 2855 
C 851 2887 595 3086 595 3388 
C 595 3781 998 4076 1459 4076 
C 1965 4076 2336 3716 2336 3298 
C 2336 2700 1670 2359 1638 2359 
C 1632 2359 1626 2359 1574 2398 
L 902 2855 
z
M 2080 1536 
C 2176 1466 2483 1253 2483 861 
C 2483 385 2010 25 1472 25 
C 890 25 448 443 448 951 
C 448 1459 838 1884 1280 2083 
L 2080 1536 
z
" transform="scale(0.015625)"/>
       </defs>
       <use xlink:href="#CMR17-38" transform="scale(0.996264)"/>
      </g>
     </g>
    </g>
    <g id="xtick_8">
     <g id="line2d_15">
      <path d="M 557.329206 241.763721 
L 557.329206 20.003721 
" clip-path="url(#pddc1576739)" style="fill: none; stroke: #b0b0b0; stroke-width: 0.8; stroke-linecap: square"/>
     </g>
     <g id="line2d_16">
      <g>
       <use xlink:href="#mad6a92bbdd" x="557.329206" y="241.763721" style="stroke: #000000; stroke-width: 0.8"/>
      </g>
     </g>
     <g id="text_8">
      <!-- $\mathdefault{10}$ -->
      <g transform="translate(550.500717 258.449597)scale(0.14 -0.14)">
       <defs>
        <path id="CMR17-31" d="M 1702 4083 
C 1702 4217 1696 4224 1606 4224 
C 1357 3927 979 3833 621 3820 
C 602 3820 570 3820 563 3808 
C 557 3795 557 3782 557 3648 
C 755 3648 1088 3686 1344 3839 
L 1344 467 
C 1344 243 1331 166 781 166 
L 589 166 
L 589 0 
C 896 6 1216 12 1523 12 
C 1830 12 2150 6 2458 0 
L 2458 166 
L 2266 166 
C 1715 166 1702 236 1702 467 
L 1702 4083 
z
" transform="scale(0.015625)"/>
       </defs>
       <use xlink:href="#CMR17-31" transform="scale(0.996264)"/>
       <use xlink:href="#CMR17-30" transform="translate(45.690477 0)scale(0.996264)"/>
      </g>
     </g>
    </g>
   </g>
   <g id="matplotlib.axis_2">
    <g id="ytick_1">
     <g id="line2d_17">
      <path d="M 21.028489 241.763721 
L 579.028489 241.763721 
" clip-path="url(#pddc1576739)" style="fill: none; stroke: #b0b0b0; stroke-width: 0.8; stroke-linecap: square"/>
     </g>
     <g id="line2d_18">
      <defs>
       <path id="mcd7ce52944" d="M 0 0 
L -3.5 0 
" style="stroke: #000000; stroke-width: 0.8"/>
      </defs>
      <g>
       <use xlink:href="#mcd7ce52944" x="21.028489" y="241.763721" style="stroke: #000000; stroke-width: 0.8"/>
      </g>
     </g>
     <g id="text_9">
      <!-- $\mathdefault{0}$ -->
      <g transform="translate(7.2 246.606659)scale(0.14 -0.14)">
       <use xlink:href="#CMR17-30" transform="scale(0.996264)"/>
      </g>
     </g>
    </g>
    <g id="ytick_2">
     <g id="line2d_19">
      <path d="M 21.028489 192.556167 
L 579.028489 192.556167 
" clip-path="url(#pddc1576739)" style="fill: none; stroke: #b0b0b0; stroke-width: 0.8; stroke-linecap: square"/>
     </g>
     <g id="line2d_20">
      <g>
       <use xlink:href="#mcd7ce52944" x="21.028489" y="192.556167" style="stroke: #000000; stroke-width: 0.8"/>
      </g>
     </g>
     <g id="text_10">
      <!-- $\mathdefault{1}$ -->
      <g transform="translate(7.2 197.399106)scale(0.14 -0.14)">
       <use xlink:href="#CMR17-31" transform="scale(0.996264)"/>
      </g>
     </g>
    </g>
    <g id="ytick_3">
     <g id="line2d_21">
      <path d="M 21.028489 143.348614 
L 579.028489 143.348614 
" clip-path="url(#pddc1576739)" style="fill: none; stroke: #b0b0b0; stroke-width: 0.8; stroke-linecap: square"/>
     </g>
     <g id="line2d_22">
      <g>
       <use xlink:href="#mcd7ce52944" x="21.028489" y="143.348614" style="stroke: #000000; stroke-width: 0.8"/>
      </g>
     </g>
     <g id="text_11">
      <!-- $\mathdefault{2}$ -->
      <g transform="translate(7.2 148.191552)scale(0.14 -0.14)">
       <use xlink:href="#CMR17-32" transform="scale(0.996264)"/>
      </g>
     </g>
    </g>
    <g id="ytick_4">
     <g id="line2d_23">
      <path d="M 21.028489 94.141061 
L 579.028489 94.141061 
" clip-path="url(#pddc1576739)" style="fill: none; stroke: #b0b0b0; stroke-width: 0.8; stroke-linecap: square"/>
     </g>
     <g id="line2d_24">
      <g>
       <use xlink:href="#mcd7ce52944" x="21.028489" y="94.141061" style="stroke: #000000; stroke-width: 0.8"/>
      </g>
     </g>
     <g id="text_12">
      <!-- $\mathdefault{3}$ -->
      <g transform="translate(7.2 98.983999)scale(0.14 -0.14)">
       <defs>
        <path id="CMR17-33" d="M 1414 2176 
C 1984 2176 2234 1673 2234 1094 
C 2234 322 1824 25 1453 25 
C 1114 25 563 193 390 691 
C 422 678 454 678 486 678 
C 640 678 755 780 755 947 
C 755 1132 614 1216 486 1216 
C 378 1216 211 1164 211 927 
C 211 335 787 -128 1466 -128 
C 2176 -128 2720 432 2720 1087 
C 2720 1718 2208 2176 1600 2246 
C 2086 2347 2554 2776 2554 3353 
C 2554 3856 2048 4224 1472 4224 
C 890 4224 378 3862 378 3347 
C 378 3123 544 3084 627 3084 
C 762 3084 877 3167 877 3334 
C 877 3500 762 3584 627 3584 
C 602 3584 570 3584 544 3571 
C 730 3999 1235 4076 1459 4076 
C 1683 4076 2106 3966 2106 3347 
C 2106 3167 2080 2851 1862 2574 
C 1670 2329 1453 2316 1242 2297 
C 1210 2297 1062 2284 1037 2284 
C 992 2278 966 2272 966 2227 
C 966 2182 973 2176 1101 2176 
L 1414 2176 
z
" transform="scale(0.015625)"/>
       </defs>
       <use xlink:href="#CMR17-33" transform="scale(0.996264)"/>
      </g>
     </g>
    </g>
    <g id="ytick_5">
     <g id="line2d_25">
      <path d="M 21.028489 44.933507 
L 579.028489 44.933507 
" clip-path="url(#pddc1576739)" style="fill: none; stroke: #b0b0b0; stroke-width: 0.8; stroke-linecap: square"/>
     </g>
     <g id="line2d_26">
      <g>
       <use xlink:href="#mcd7ce52944" x="21.028489" y="44.933507" style="stroke: #000000; stroke-width: 0.8"/>
      </g>
     </g>
     <g id="text_13">
      <!-- $\mathdefault{4}$ -->
      <g transform="translate(7.2 49.776445)scale(0.14 -0.14)">
       <use xlink:href="#CMR17-34" transform="scale(0.996264)"/>
      </g>
     </g>
    </g>
    <g id="text_14">
     <!-- $\times\mathdefault{10^{6}}\mathdefault{}$ -->
     <g transform="translate(21.028489 17.003721)scale(0.14 -0.14)">
      <defs>
       <path id="CMSY10-2" d="M 2490 1775 
L 1210 3046 
C 1133 3123 1120 3136 1069 3136 
C 1005 3136 941 3078 941 3008 
C 941 2963 954 2950 1024 2880 
L 2304 1596 
L 1024 313 
C 954 243 941 230 941 185 
C 941 115 1005 57 1069 57 
C 1120 57 1133 70 1210 147 
L 2483 1418 
L 3808 95 
C 3821 89 3866 57 3904 57 
C 3981 57 4032 115 4032 185 
C 4032 198 4032 223 4013 255 
C 4006 268 2989 1271 2669 1596 
L 3840 2765 
C 3872 2803 3968 2886 4000 2925 
C 4006 2937 4032 2963 4032 3008 
C 4032 3078 3981 3136 3904 3136 
C 3853 3136 3827 3110 3757 3040 
L 2490 1775 
z
" transform="scale(0.015625)"/>
      </defs>
      <use xlink:href="#CMSY10-2" transform="scale(0.996264)"/>
      <use xlink:href="#CMR17-31" transform="translate(77.487468 0)scale(0.996264)"/>
      <use xlink:href="#CMR17-30" transform="translate(123.177945 0)scale(0.996264)"/>
      <use xlink:href="#CMR17-36" transform="translate(168.868422 36.153639)scale(0.697382)"/>
     </g>
    </g>
   </g>
   <g id="patch_53">
    <path d="M 21.028489 241.763721 
L 21.028489 20.003721 
" style="fill: none; stroke: #000000; stroke-width: 0.8; stroke-linejoin: miter; stroke-linecap: square"/>
   </g>
   <g id="patch_54">
    <path d="M 579.028489 241.763721 
L 579.028489 20.003721 
" style="fill: none; stroke: #000000; stroke-width: 0.8; stroke-linejoin: miter; stroke-linecap: square"/>
   </g>
   <g id="patch_55">
    <path d="M 21.028489 241.763721 
L 579.028489 241.763721 
" style="fill: none; stroke: #000000; stroke-width: 0.8; stroke-linejoin: miter; stroke-linecap: square"/>
   </g>
   <g id="patch_56">
    <path d="M 21.028489 20.003721 
L 579.028489 20.003721 
" style="fill: none; stroke: #000000; stroke-width: 0.8; stroke-linejoin: miter; stroke-linecap: square"/>
   </g>
   <g id="legend_1">
    <g id="patch_57">
     <path d="M 471.697382 128.763863 
L 569.228489 128.763863 
Q 572.028489 128.763863 572.028489 125.963863 
L 572.028489 29.803721 
Q 572.028489 27.003721 569.228489 27.003721 
L 471.697382 27.003721 
Q 468.897382 27.003721 468.897382 29.803721 
L 468.897382 125.963863 
Q 468.897382 128.763863 471.697382 128.763863 
z
" style="fill: #ffffff; opacity: 0.8; stroke: #cccccc; stroke-linejoin: miter"/>
    </g>
    <g id="patch_58">
     <path d="M 474.497382 42.403721 
L 502.497382 42.403721 
L 502.497382 32.603721 
L 474.497382 32.603721 
z
" style="fill: #4c72b0; opacity: 0.35"/>
    </g>
    <g id="text_15">
     <!-- feature 0 -->
     <g transform="translate(513.697382 42.403721)scale(0.14 -0.14)">
      <defs>
       <path id="CMR17-66" d="M 979 2585 
L 1709 2585 
L 1709 2752 
L 966 2752 
L 966 3539 
C 966 4076 1235 4377 1510 4377 
C 1594 4377 1690 4363 1754 4339 
C 1702 4326 1568 4281 1568 4121 
C 1568 3955 1696 3904 1786 3904 
C 1875 3904 2003 3955 2003 4121 
C 2003 4353 1773 4480 1517 4480 
C 1152 4480 653 4211 653 3526 
L 653 2752 
L 141 2752 
L 141 2585 
L 653 2585 
L 653 441 
C 653 198 627 166 218 166 
L 218 0 
C 371 12 666 12 832 12 
C 1018 12 1344 12 1517 0 
L 1517 166 
C 1056 166 979 166 979 454 
L 979 2585 
z
" transform="scale(0.015625)"/>
       <path id="CMR17-65" d="M 2438 1503 
C 2464 1529 2464 1542 2464 1606 
C 2464 2251 2118 2816 1389 2816 
C 710 2816 173 2175 173 1394 
C 173 554 781 -64 1459 -64 
C 2176 -64 2458 619 2458 755 
C 2458 800 2419 800 2406 800 
C 2362 800 2355 787 2330 709 
C 2189 270 1837 51 1504 51 
C 1229 51 954 206 781 490 
C 582 819 582 1200 582 1503 
L 2438 1503 
z
M 589 1600 
C 634 2511 1126 2713 1382 2713 
C 1818 2713 2112 2308 2118 1600 
L 589 1600 
z
" transform="scale(0.015625)"/>
       <path id="CMR17-61" d="M 2304 1656 
C 2304 2048 2304 2275 2035 2534 
C 1798 2751 1523 2816 1306 2816 
C 800 2816 435 2408 435 1977 
C 435 1740 627 1728 666 1728 
C 749 1728 896 1779 896 1958 
C 896 2118 774 2188 666 2188 
C 640 2188 608 2182 589 2176 
C 723 2594 1069 2713 1293 2713 
C 1613 2713 1965 2421 1965 1875 
L 1965 1632 
C 1587 1619 1133 1568 774 1373 
C 371 1147 256 822 256 576 
C 256 77 832 -64 1171 -64 
C 1523 -64 1850 135 1990 505 
C 2003 219 2182 -39 2464 -39 
C 2598 -39 2938 51 2938 563 
L 2938 926 
L 2822 926 
L 2822 557 
C 2822 161 2650 109 2566 109 
C 2304 109 2304 446 2304 732 
L 2304 1656 
z
M 1965 887 
C 1965 323 1568 38 1216 38 
C 896 38 646 278 646 576 
C 646 771 730 1114 1101 1322 
C 1408 1497 1760 1523 1965 1536 
L 1965 887 
z
" transform="scale(0.015625)"/>
       <path id="CMR17-74" d="M 966 2585 
L 1862 2585 
L 1862 2752 
L 966 2752 
L 966 3968 
L 851 3968 
C 838 3292 614 2700 70 2687 
L 70 2585 
L 627 2585 
L 627 778 
C 627 655 627 -64 1370 -64 
C 1747 -64 1965 308 1965 784 
L 1965 1151 
L 1850 1151 
L 1850 790 
C 1850 347 1677 51 1408 51 
C 1222 51 966 179 966 765 
L 966 2585 
z
" transform="scale(0.015625)"/>
       <path id="CMR17-75" d="M 1882 2745 
L 1882 2579 
C 2259 2579 2317 2540 2317 2229 
L 2317 1053 
C 2317 510 2029 38 1555 38 
C 1030 38 986 355 986 691 
L 986 2816 
L 211 2745 
L 211 2579 
C 467 2579 640 2579 646 2320 
L 646 1079 
C 646 646 646 368 813 187 
C 896 103 1056 -64 1517 -64 
C 2061 -64 2272 400 2323 536 
L 2330 536 
L 2330 -64 
L 3091 -13 
L 3091 154 
C 2714 154 2656 193 2656 503 
L 2656 2816 
L 1882 2745 
z
" transform="scale(0.015625)"/>
       <path id="CMR17-72" d="M 960 1517 
C 960 2134 1222 2713 1702 2713 
C 1747 2713 1792 2707 1837 2687 
C 1837 2687 1696 2642 1696 2475 
C 1696 2321 1818 2257 1914 2257 
C 1990 2257 2131 2302 2131 2482 
C 2131 2687 1926 2816 1709 2816 
C 1222 2816 1011 2340 947 2115 
L 941 2115 
L 941 2816 
L 198 2745 
L 198 2578 
C 576 2578 634 2540 634 2231 
L 634 443 
C 634 198 608 166 198 166 
L 198 0 
C 352 12 646 12 813 12 
C 998 12 1325 12 1498 0 
L 1498 166 
C 1037 166 960 166 960 455 
L 960 1517 
z
" transform="scale(0.015625)"/>
      </defs>
      <use xlink:href="#CMR17-66" transform="scale(0.996264)"/>
      <use xlink:href="#CMR17-65" transform="translate(27.473512 0)scale(0.996264)"/>
      <use xlink:href="#CMR17-61" transform="translate(67.959173 0)scale(0.996264)"/>
      <use xlink:href="#CMR17-74" transform="translate(113.64965 0)scale(0.996264)"/>
      <use xlink:href="#CMR17-75" transform="translate(148.930418 0)scale(0.996264)"/>
      <use xlink:href="#CMR17-72" transform="translate(199.825788 0)scale(0.996264)"/>
      <use xlink:href="#CMR17-65" transform="translate(235.106555 0)scale(0.996264)"/>
      <use xlink:href="#CMR17-30" transform="translate(305.668182 0)scale(0.996264)"/>
     </g>
    </g>
    <g id="patch_59">
     <path d="M 474.497382 61.915749 
L 502.497382 61.915749 
L 502.497382 52.115749 
L 474.497382 52.115749 
z
" style="fill: #55a868; opacity: 0.35"/>
    </g>
    <g id="text_16">
     <!-- feature 1 -->
     <g transform="translate(513.697382 61.915749)scale(0.14 -0.14)">
      <use xlink:href="#CMR17-66" transform="scale(0.996264)"/>
      <use xlink:href="#CMR17-65" transform="translate(27.473512 0)scale(0.996264)"/>
      <use xlink:href="#CMR17-61" transform="translate(67.959173 0)scale(0.996264)"/>
      <use xlink:href="#CMR17-74" transform="translate(113.64965 0)scale(0.996264)"/>
      <use xlink:href="#CMR17-75" transform="translate(148.930418 0)scale(0.996264)"/>
      <use xlink:href="#CMR17-72" transform="translate(199.825788 0)scale(0.996264)"/>
      <use xlink:href="#CMR17-65" transform="translate(235.106555 0)scale(0.996264)"/>
      <use xlink:href="#CMR17-31" transform="translate(305.668182 0)scale(0.996264)"/>
     </g>
    </g>
    <g id="patch_60">
     <path d="M 474.497382 81.427777 
L 502.497382 81.427777 
L 502.497382 71.627777 
L 474.497382 71.627777 
z
" style="fill: #c44e52; opacity: 0.35"/>
    </g>
    <g id="text_17">
     <!-- feature 2 -->
     <g transform="translate(513.697382 81.427777)scale(0.14 -0.14)">
      <use xlink:href="#CMR17-66" transform="scale(0.996264)"/>
      <use xlink:href="#CMR17-65" transform="translate(27.473512 0)scale(0.996264)"/>
      <use xlink:href="#CMR17-61" transform="translate(67.959173 0)scale(0.996264)"/>
      <use xlink:href="#CMR17-74" transform="translate(113.64965 0)scale(0.996264)"/>
      <use xlink:href="#CMR17-75" transform="translate(148.930418 0)scale(0.996264)"/>
      <use xlink:href="#CMR17-72" transform="translate(199.825788 0)scale(0.996264)"/>
      <use xlink:href="#CMR17-65" transform="translate(235.106555 0)scale(0.996264)"/>
      <use xlink:href="#CMR17-32" transform="translate(305.668182 0)scale(0.996264)"/>
     </g>
    </g>
    <g id="patch_61">
     <path d="M 474.497382 100.939806 
L 502.497382 100.939806 
L 502.497382 91.139806 
L 474.497382 91.139806 
z
" style="fill: #8172b2; opacity: 0.35"/>
    </g>
    <g id="text_18">
     <!-- feature 3 -->
     <g transform="translate(513.697382 100.939806)scale(0.14 -0.14)">
      <use xlink:href="#CMR17-66" transform="scale(0.996264)"/>
      <use xlink:href="#CMR17-65" transform="translate(27.473512 0)scale(0.996264)"/>
      <use xlink:href="#CMR17-61" transform="translate(67.959173 0)scale(0.996264)"/>
      <use xlink:href="#CMR17-74" transform="translate(113.64965 0)scale(0.996264)"/>
      <use xlink:href="#CMR17-75" transform="translate(148.930418 0)scale(0.996264)"/>
      <use xlink:href="#CMR17-72" transform="translate(199.825788 0)scale(0.996264)"/>
      <use xlink:href="#CMR17-65" transform="translate(235.106555 0)scale(0.996264)"/>
      <use xlink:href="#CMR17-33" transform="translate(305.668182 0)scale(0.996264)"/>
     </g>
    </g>
    <g id="patch_62">
     <path d="M 474.497382 120.451834 
L 502.497382 120.451834 
L 502.497382 110.651834 
L 474.497382 110.651834 
z
" style="fill: #ccb974; opacity: 0.35"/>
    </g>
    <g id="text_19">
     <!-- feature 4 -->
     <g transform="translate(513.697382 120.451834)scale(0.14 -0.14)">
      <use xlink:href="#CMR17-66" transform="scale(0.996264)"/>
      <use xlink:href="#CMR17-65" transform="translate(27.473512 0)scale(0.996264)"/>
      <use xlink:href="#CMR17-61" transform="translate(67.959173 0)scale(0.996264)"/>
      <use xlink:href="#CMR17-74" transform="translate(113.64965 0)scale(0.996264)"/>
      <use xlink:href="#CMR17-75" transform="translate(148.930418 0)scale(0.996264)"/>
      <use xlink:href="#CMR17-72" transform="translate(199.825788 0)scale(0.996264)"/>
      <use xlink:href="#CMR17-65" transform="translate(235.106555 0)scale(0.996264)"/>
      <use xlink:href="#CMR17-34" transform="translate(305.668182 0)scale(0.996264)"/>
     </g>
    </g>
   </g>
  </g>
 </g>
 <defs>
  <clipPath id="pddc1576739">
   <rect x="21.028489" y="20.003721" width="558" height="221.76"/>
  </clipPath>
 </defs>
</svg>
