<?xml version="1.0" encoding="utf-8" standalone="no"?>
<!DOCTYPE svg PUBLIC "-//W3C//DTD SVG 1.1//EN"
  "http://www.w3.org/Graphics/SVG/1.1/DTD/svg11.dtd">
<svg xmlns:xlink="http://www.w3.org/1999/xlink" width="395.879153pt" height="312.713625pt" viewBox="0 0 395.879153 312.713625" xmlns="http://www.w3.org/2000/svg" version="1.1">
 <metadata>
  <rdf:RDF xmlns:dc="http://purl.org/dc/elements/1.1/" xmlns:cc="http://creativecommons.org/ns#" xmlns:rdf="http://www.w3.org/1999/02/22-rdf-syntax-ns#">
   <cc:Work>
    <dc:type rdf:resource="http://purl.org/dc/dcmitype/StillImage"/>
    <dc:date>2022-12-18T20:23:30.061628</dc:date>
    <dc:format>image/svg+xml</dc:format>
    <dc:creator>
     <cc:Agent>
      <dc:title>Matplotlib v3.5.1, https://matplotlib.org/</dc:title>
     </cc:Agent>
    </dc:creator>
   </cc:Work>
  </rdf:RDF>
 </metadata>
 <defs>
  <style type="text/css">*{stroke-linejoin: round; stroke-linecap: butt}</style>
 </defs>
 <g id="figure_1">
  <g id="patch_1">
   <path d="M 0 312.713625 
L 395.879153 312.713625 
L 395.879153 0 
L 0 0 
z
" style="fill: #ffffff"/>
  </g>
  <g id="axes_1">
   <g id="patch_2">
    <path d="M 21.028489 286.115721 
L 378.148489 286.115721 
L 378.148489 20.003721 
L 21.028489 20.003721 
z
" style="fill: #ffffff"/>
   </g>
   <g id="patch_3">
    <path d="M 37.261216 286.115721 
L 65.336748 286.115721 
L 65.336748 286.109125 
L 37.261216 286.109125 
z
" clip-path="url(#p687fdbae39)" style="fill: #4c72b0"/>
   </g>
   <g id="patch_4">
    <path d="M 65.336748 286.115721 
L 93.412279 286.115721 
L 93.412279 286.001165 
L 65.336748 286.001165 
z
" clip-path="url(#p687fdbae39)" style="fill: #4c72b0"/>
   </g>
   <g id="patch_5">
    <path d="M 93.412279 286.115721 
L 121.487811 286.115721 
L 121.487811 285.012326 
L 93.412279 285.012326 
z
" clip-path="url(#p687fdbae39)" style="fill: #4c72b0"/>
   </g>
   <g id="patch_6">
    <path d="M 121.487811 286.115721 
L 149.563343 286.115721 
L 149.563343 275.755019 
L 121.487811 275.755019 
z
" clip-path="url(#p687fdbae39)" style="fill: #4c72b0"/>
   </g>
   <g id="patch_7">
    <path d="M 149.563343 286.115721 
L 177.638874 286.115721 
L 177.638874 208.592948 
L 149.563343 208.592948 
z
" clip-path="url(#p687fdbae39)" style="fill: #4c72b0"/>
   </g>
   <g id="patch_8">
    <path d="M 177.638874 286.115721 
L 205.714406 286.115721 
L 205.714406 32.675721 
L 177.638874 32.675721 
z
" clip-path="url(#p687fdbae39)" style="fill: #4c72b0"/>
   </g>
   <g id="patch_9">
    <path d="M 205.714406 286.115721 
L 233.789938 286.115721 
L 233.789938 209.036712 
L 205.714406 209.036712 
z
" clip-path="url(#p687fdbae39)" style="fill: #4c72b0"/>
   </g>
   <g id="patch_10">
    <path d="M 233.789938 286.115721 
L 261.865469 286.115721 
L 261.865469 283.705518 
L 233.789938 283.705518 
z
" clip-path="url(#p687fdbae39)" style="fill: #4c72b0"/>
   </g>
   <g id="patch_11">
    <path d="M 261.865469 286.115721 
L 289.941001 286.115721 
L 289.941001 286.029131 
L 261.865469 286.029131 
z
" clip-path="url(#p687fdbae39)" style="fill: #4c72b0"/>
   </g>
   <g id="patch_12">
    <path d="M 289.941001 286.115721 
L 318.016533 286.115721 
L 318.016533 286.109705 
L 289.941001 286.109705 
z
" clip-path="url(#p687fdbae39)" style="fill: #4c72b0"/>
   </g>
   <g id="patch_13">
    <path d="M 167.258232 286.115721 
L 186.723985 286.115721 
L 186.723985 259.582222 
L 167.258232 259.582222 
z
" clip-path="url(#p687fdbae39)" style="fill: #55a868; opacity: 0.35"/>
   </g>
   <g id="patch_14">
    <path d="M 186.723985 286.115721 
L 206.189738 286.115721 
L 206.189738 269.218074 
L 186.723985 269.218074 
z
" clip-path="url(#p687fdbae39)" style="fill: #55a868; opacity: 0.35"/>
   </g>
   <g id="patch_15">
    <path d="M 206.189738 286.115721 
L 225.655491 286.115721 
L 225.655491 279.608589 
L 206.189738 279.608589 
z
" clip-path="url(#p687fdbae39)" style="fill: #55a868; opacity: 0.35"/>
   </g>
   <g id="patch_16">
    <path d="M 225.655491 286.115721 
L 245.121244 286.115721 
L 245.121244 284.081266 
L 225.655491 284.081266 
z
" clip-path="url(#p687fdbae39)" style="fill: #55a868; opacity: 0.35"/>
   </g>
   <g id="patch_17">
    <path d="M 245.121244 286.115721 
L 264.586997 286.115721 
L 264.586997 285.525953 
L 245.121244 285.525953 
z
" clip-path="url(#p687fdbae39)" style="fill: #55a868; opacity: 0.35"/>
   </g>
   <g id="patch_18">
    <path d="M 264.586997 286.115721 
L 284.05275 286.115721 
L 284.05275 285.957633 
L 264.586997 285.957633 
z
" clip-path="url(#p687fdbae39)" style="fill: #55a868; opacity: 0.35"/>
   </g>
   <g id="patch_19">
    <path d="M 284.05275 286.115721 
L 303.518503 286.115721 
L 303.518503 286.081898 
L 284.05275 286.081898 
z
" clip-path="url(#p687fdbae39)" style="fill: #55a868; opacity: 0.35"/>
   </g>
   <g id="patch_20">
    <path d="M 303.518503 286.115721 
L 322.984256 286.115721 
L 322.984256 286.106539 
L 303.518503 286.106539 
z
" clip-path="url(#p687fdbae39)" style="fill: #55a868; opacity: 0.35"/>
   </g>
   <g id="patch_21">
    <path d="M 322.984256 286.115721 
L 342.450008 286.115721 
L 342.450008 286.113874 
L 322.984256 286.113874 
z
" clip-path="url(#p687fdbae39)" style="fill: #55a868; opacity: 0.35"/>
   </g>
   <g id="patch_22">
    <path d="M 342.450008 286.115721 
L 361.915761 286.115721 
L 361.915761 286.114929 
L 342.450008 286.114929 
z
" clip-path="url(#p687fdbae39)" style="fill: #55a868; opacity: 0.35"/>
   </g>
   <g id="patch_23">
    <path d="M 147.067585 286.115721 
L 155.768683 286.115721 
L 155.768683 284.889645 
L 147.067585 284.889645 
z
" clip-path="url(#p687fdbae39)" style="fill: #c44e52; opacity: 0.35"/>
   </g>
   <g id="patch_24">
    <path d="M 155.768683 286.115721 
L 164.46978 286.115721 
L 164.46978 282.716626 
L 155.768683 282.716626 
z
" clip-path="url(#p687fdbae39)" style="fill: #c44e52; opacity: 0.35"/>
   </g>
   <g id="patch_25">
    <path d="M 164.46978 286.115721 
L 173.170878 286.115721 
L 173.170878 280.51353 
L 164.46978 280.51353 
z
" clip-path="url(#p687fdbae39)" style="fill: #c44e52; opacity: 0.35"/>
   </g>
   <g id="patch_26">
    <path d="M 173.170878 286.115721 
L 181.871975 286.115721 
L 181.871975 278.621597 
L 173.170878 278.621597 
z
" clip-path="url(#p687fdbae39)" style="fill: #c44e52; opacity: 0.35"/>
   </g>
   <g id="patch_27">
    <path d="M 181.871975 286.115721 
L 190.573073 286.115721 
L 190.573073 277.648851 
L 181.871975 277.648851 
z
" clip-path="url(#p687fdbae39)" style="fill: #c44e52; opacity: 0.35"/>
   </g>
   <g id="patch_28">
    <path d="M 190.573073 286.115721 
L 199.274171 286.115721 
L 199.274171 277.62136 
L 190.573073 277.62136 
z
" clip-path="url(#p687fdbae39)" style="fill: #c44e52; opacity: 0.35"/>
   </g>
   <g id="patch_29">
    <path d="M 199.274171 286.115721 
L 207.975268 286.115721 
L 207.975268 278.549518 
L 199.274171 278.549518 
z
" clip-path="url(#p687fdbae39)" style="fill: #c44e52; opacity: 0.35"/>
   </g>
   <g id="patch_30">
    <path d="M 207.975268 286.115721 
L 216.676366 286.115721 
L 216.676366 280.422297 
L 207.975268 280.422297 
z
" clip-path="url(#p687fdbae39)" style="fill: #c44e52; opacity: 0.35"/>
   </g>
   <g id="patch_31">
    <path d="M 216.676366 286.115721 
L 225.377463 286.115721 
L 225.377463 282.629456 
L 216.676366 282.629456 
z
" clip-path="url(#p687fdbae39)" style="fill: #c44e52; opacity: 0.35"/>
   </g>
   <g id="patch_32">
    <path d="M 225.377463 286.115721 
L 234.078561 286.115721 
L 234.078561 284.778097 
L 225.377463 284.778097 
z
" clip-path="url(#p687fdbae39)" style="fill: #c44e52; opacity: 0.35"/>
   </g>
   <g id="patch_33">
    <path d="M 158.600083 286.115721 
L 165.035922 286.115721 
L 165.035922 280.807491 
L 158.600083 280.807491 
z
" clip-path="url(#p687fdbae39)" style="fill: #8172b2; opacity: 0.35"/>
   </g>
   <g id="patch_34">
    <path d="M 165.035922 286.115721 
L 171.471762 286.115721 
L 171.471762 280.883369 
L 165.035922 280.883369 
z
" clip-path="url(#p687fdbae39)" style="fill: #8172b2; opacity: 0.35"/>
   </g>
   <g id="patch_35">
    <path d="M 171.471762 286.115721 
L 177.907602 286.115721 
L 177.907602 280.824956 
L 171.471762 280.824956 
z
" clip-path="url(#p687fdbae39)" style="fill: #8172b2; opacity: 0.35"/>
   </g>
   <g id="patch_36">
    <path d="M 177.907602 286.115721 
L 184.343442 286.115721 
L 184.343442 280.849915 
L 177.907602 280.849915 
z
" clip-path="url(#p687fdbae39)" style="fill: #8172b2; opacity: 0.35"/>
   </g>
   <g id="patch_37">
    <path d="M 184.343442 286.115721 
L 190.779281 286.115721 
L 190.779281 280.822529 
L 184.343442 280.822529 
z
" clip-path="url(#p687fdbae39)" style="fill: #8172b2; opacity: 0.35"/>
   </g>
   <g id="patch_38">
    <path d="M 190.779281 286.115721 
L 197.215121 286.115721 
L 197.215121 280.831499 
L 190.779281 280.831499 
z
" clip-path="url(#p687fdbae39)" style="fill: #8172b2; opacity: 0.35"/>
   </g>
   <g id="patch_39">
    <path d="M 197.215121 286.115721 
L 203.650961 286.115721 
L 203.650961 280.837304 
L 197.215121 280.837304 
z
" clip-path="url(#p687fdbae39)" style="fill: #8172b2; opacity: 0.35"/>
   </g>
   <g id="patch_40">
    <path d="M 203.650961 286.115721 
L 210.0868 286.115721 
L 210.0868 280.824165 
L 203.650961 280.824165 
z
" clip-path="url(#p687fdbae39)" style="fill: #8172b2; opacity: 0.35"/>
   </g>
   <g id="patch_41">
    <path d="M 210.0868 286.115721 
L 216.52264 286.115721 
L 216.52264 280.879358 
L 210.0868 280.879358 
z
" clip-path="url(#p687fdbae39)" style="fill: #8172b2; opacity: 0.35"/>
   </g>
   <g id="patch_42">
    <path d="M 216.52264 286.115721 
L 222.95848 286.115721 
L 222.95848 280.830391 
L 216.52264 280.830391 
z
" clip-path="url(#p687fdbae39)" style="fill: #8172b2; opacity: 0.35"/>
   </g>
   <g id="patch_43">
    <path d="M 96.868143 286.115721 
L 118.887368 286.115721 
L 118.887368 286.103426 
L 96.868143 286.103426 
z
" clip-path="url(#p687fdbae39)" style="fill: #ccb974; opacity: 0.35"/>
   </g>
   <g id="patch_44">
    <path d="M 118.887368 286.115721 
L 140.906593 286.115721 
L 140.906593 285.926554 
L 118.887368 285.926554 
z
" clip-path="url(#p687fdbae39)" style="fill: #ccb974; opacity: 0.35"/>
   </g>
   <g id="patch_45">
    <path d="M 140.906593 286.115721 
L 162.925817 286.115721 
L 162.925817 283.125142 
L 140.906593 283.125142 
z
" clip-path="url(#p687fdbae39)" style="fill: #ccb974; opacity: 0.35"/>
   </g>
   <g id="patch_46">
    <path d="M 162.925817 286.115721 
L 184.945042 286.115721 
L 184.945042 269.377428 
L 162.925817 269.377428 
z
" clip-path="url(#p687fdbae39)" style="fill: #ccb974; opacity: 0.35"/>
   </g>
   <g id="patch_47">
    <path d="M 184.945042 286.115721 
L 206.964267 286.115721 
L 206.964267 262.645407 
L 184.945042 262.645407 
z
" clip-path="url(#p687fdbae39)" style="fill: #ccb974; opacity: 0.35"/>
   </g>
   <g id="patch_48">
    <path d="M 206.964267 286.115721 
L 228.983491 286.115721 
L 228.983491 278.061747 
L 206.964267 278.061747 
z
" clip-path="url(#p687fdbae39)" style="fill: #ccb974; opacity: 0.35"/>
   </g>
   <g id="patch_49">
    <path d="M 228.983491 286.115721 
L 251.002716 286.115721 
L 251.002716 284.964362 
L 228.983491 284.964362 
z
" clip-path="url(#p687fdbae39)" style="fill: #ccb974; opacity: 0.35"/>
   </g>
   <g id="patch_50">
    <path d="M 251.002716 286.115721 
L 273.021941 286.115721 
L 273.021941 285.976734 
L 251.002716 285.976734 
z
" clip-path="url(#p687fdbae39)" style="fill: #ccb974; opacity: 0.35"/>
   </g>
   <g id="patch_51">
    <path d="M 273.021941 286.115721 
L 295.041165 286.115721 
L 295.041165 286.098202 
L 273.021941 286.098202 
z
" clip-path="url(#p687fdbae39)" style="fill: #ccb974; opacity: 0.35"/>
   </g>
   <g id="patch_52">
    <path d="M 295.041165 286.115721 
L 317.06039 286.115721 
L 317.06039 286.111974 
L 295.041165 286.111974 
z
" clip-path="url(#p687fdbae39)" style="fill: #ccb974; opacity: 0.35"/>
   </g>
   <g id="patch_53">
    <path d="M 190.770067 286.115721 
L 192.62776 286.115721 
L 192.62776 280.871918 
L 190.770067 280.871918 
z
" clip-path="url(#p687fdbae39)" style="fill: #64b5cd; opacity: 0.35"/>
   </g>
   <g id="patch_54">
    <path d="M 192.62776 286.115721 
L 194.485454 286.115721 
L 194.485454 280.862684 
L 192.62776 280.862684 
z
" clip-path="url(#p687fdbae39)" style="fill: #64b5cd; opacity: 0.35"/>
   </g>
   <g id="patch_55">
    <path d="M 194.485454 286.115721 
L 196.343147 286.115721 
L 196.343147 280.826012 
L 194.485454 280.826012 
z
" clip-path="url(#p687fdbae39)" style="fill: #64b5cd; opacity: 0.35"/>
   </g>
   <g id="patch_56">
    <path d="M 196.343147 286.115721 
L 198.200841 286.115721 
L 198.200841 280.822424 
L 196.343147 280.822424 
z
" clip-path="url(#p687fdbae39)" style="fill: #64b5cd; opacity: 0.35"/>
   </g>
   <g id="patch_57">
    <path d="M 198.200841 286.115721 
L 200.058534 286.115721 
L 200.058534 280.855455 
L 198.200841 280.855455 
z
" clip-path="url(#p687fdbae39)" style="fill: #64b5cd; opacity: 0.35"/>
   </g>
   <g id="patch_58">
    <path d="M 200.058534 286.115721 
L 201.916228 286.115721 
L 201.916228 280.811501 
L 200.058534 280.811501 
z
" clip-path="url(#p687fdbae39)" style="fill: #64b5cd; opacity: 0.35"/>
   </g>
   <g id="patch_59">
    <path d="M 201.916228 286.115721 
L 203.773921 286.115721 
L 203.773921 280.832871 
L 201.916228 280.832871 
z
" clip-path="url(#p687fdbae39)" style="fill: #64b5cd; opacity: 0.35"/>
   </g>
   <g id="patch_60">
    <path d="M 203.773921 286.115721 
L 205.631615 286.115721 
L 205.631615 280.854769 
L 203.773921 280.854769 
z
" clip-path="url(#p687fdbae39)" style="fill: #64b5cd; opacity: 0.35"/>
   </g>
   <g id="patch_61">
    <path d="M 205.631615 286.115721 
L 207.489309 286.115721 
L 207.489309 280.818044 
L 205.631615 280.818044 
z
" clip-path="url(#p687fdbae39)" style="fill: #64b5cd; opacity: 0.35"/>
   </g>
   <g id="patch_62">
    <path d="M 207.489309 286.115721 
L 209.347002 286.115721 
L 209.347002 280.835299 
L 207.489309 280.835299 
z
" clip-path="url(#p687fdbae39)" style="fill: #64b5cd; opacity: 0.35"/>
   </g>
   <g id="matplotlib.axis_1">
    <g id="xtick_1">
     <g id="line2d_1">
      <defs>
       <path id="m32b5a5f252" d="M 0 0 
L 0 3.5 
" style="stroke: #000000; stroke-width: 0.8"/>
      </defs>
      <g>
       <use xlink:href="#m32b5a5f252" x="51.442886" y="286.115721" style="stroke: #000000; stroke-width: 0.8"/>
      </g>
     </g>
     <g id="text_1">
      <!-- $\mathdefault{−7.5}$ -->
      <g transform="translate(37.293478 302.801597)scale(0.14 -0.14)">
       <defs>
        <path id="CMSY10-0" d="M 4218 1472 
C 4326 1472 4442 1472 4442 1600 
C 4442 1728 4326 1728 4218 1728 
L 755 1728 
C 646 1728 531 1728 531 1600 
C 531 1472 646 1472 755 1472 
L 4218 1472 
z
" transform="scale(0.015625)"/>
        <path id="CMR17-37" d="M 2886 3955 
L 2886 4096 
L 1382 4096 
C 634 4096 621 4166 595 4288 
L 480 4288 
L 294 3104 
L 410 3104 
C 429 3226 474 3552 550 3673 
C 589 3724 1062 3724 1171 3724 
L 2579 3724 
L 1869 2670 
C 1395 1961 1069 1003 1069 166 
C 1069 89 1069 -128 1299 -128 
C 1530 -128 1530 89 1530 172 
L 1530 466 
C 1530 1514 1709 2204 2003 2644 
L 2886 3955 
z
" transform="scale(0.015625)"/>
        <path id="CMMI12-3a" d="M 1178 307 
C 1178 492 1024 620 870 620 
C 685 620 557 467 557 313 
C 557 128 710 0 864 0 
C 1050 0 1178 153 1178 307 
z
" transform="scale(0.015625)"/>
        <path id="CMR17-35" d="M 730 3750 
C 794 3724 1056 3641 1325 3641 
C 1920 3641 2246 3961 2432 4140 
C 2432 4191 2432 4224 2394 4224 
C 2387 4224 2374 4224 2323 4198 
C 2099 4102 1837 4032 1517 4032 
C 1325 4032 1037 4055 723 4191 
C 653 4224 640 4224 634 4224 
C 602 4224 595 4217 595 4090 
L 595 2231 
C 595 2113 595 2080 659 2080 
C 691 2080 704 2093 736 2139 
C 941 2435 1222 2560 1542 2560 
C 1766 2560 2246 2415 2246 1293 
C 2246 1087 2246 716 2054 422 
C 1894 159 1645 25 1370 25 
C 947 25 518 319 403 812 
C 429 806 480 793 506 793 
C 589 793 749 838 749 1036 
C 749 1209 627 1280 506 1280 
C 358 1280 262 1190 262 1011 
C 262 454 704 -128 1382 -128 
C 2042 -128 2669 441 2669 1267 
C 2669 2054 2170 2662 1549 2662 
C 1222 2662 947 2540 730 2304 
L 730 3750 
z
" transform="scale(0.015625)"/>
       </defs>
       <use xlink:href="#CMSY10-0" transform="scale(0.996264)"/>
       <use xlink:href="#CMR17-37" transform="translate(77.487468 0)scale(0.996264)"/>
       <use xlink:href="#CMMI12-3a" transform="translate(123.177945 0)scale(0.996264)"/>
       <use xlink:href="#CMR17-35" transform="translate(150.275122 0)scale(0.996264)"/>
      </g>
     </g>
    </g>
    <g id="xtick_2">
     <g id="line2d_2">
      <g>
       <use xlink:href="#m32b5a5f252" x="97.885276" y="286.115721" style="stroke: #000000; stroke-width: 0.8"/>
      </g>
     </g>
     <g id="text_2">
      <!-- $\mathdefault{−5.0}$ -->
      <g transform="translate(83.735868 302.801597)scale(0.14 -0.14)">
       <defs>
        <path id="CMR17-30" d="M 2688 2038 
C 2688 2430 2682 3099 2413 3613 
C 2176 4063 1798 4224 1466 4224 
C 1158 4224 768 4082 525 3620 
C 269 3137 243 2539 243 2038 
C 243 1671 250 1112 448 623 
C 723 -39 1216 -128 1466 -128 
C 1760 -128 2208 -7 2470 604 
C 2662 1048 2688 1568 2688 2038 
z
M 1466 -26 
C 1056 -26 813 328 723 816 
C 653 1196 653 1749 653 2109 
C 653 2604 653 3015 736 3407 
C 858 3954 1216 4121 1466 4121 
C 1728 4121 2067 3947 2189 3420 
C 2272 3054 2278 2623 2278 2109 
C 2278 1691 2278 1176 2202 797 
C 2067 96 1690 -26 1466 -26 
z
" transform="scale(0.015625)"/>
       </defs>
       <use xlink:href="#CMSY10-0" transform="scale(0.996264)"/>
       <use xlink:href="#CMR17-35" transform="translate(77.487468 0)scale(0.996264)"/>
       <use xlink:href="#CMMI12-3a" transform="translate(123.177945 0)scale(0.996264)"/>
       <use xlink:href="#CMR17-30" transform="translate(150.275122 0)scale(0.996264)"/>
      </g>
     </g>
    </g>
    <g id="xtick_3">
     <g id="line2d_3">
      <g>
       <use xlink:href="#m32b5a5f252" x="144.327667" y="286.115721" style="stroke: #000000; stroke-width: 0.8"/>
      </g>
     </g>
     <g id="text_3">
      <!-- $\mathdefault{−2.5}$ -->
      <g transform="translate(130.178258 302.801597)scale(0.14 -0.14)">
       <defs>
        <path id="CMR17-32" d="M 2669 990 
L 2554 990 
C 2490 537 2438 460 2413 422 
C 2381 371 1920 371 1830 371 
L 602 371 
C 832 620 1280 1073 1824 1596 
C 2214 1966 2669 2400 2669 3033 
C 2669 3788 2067 4224 1395 4224 
C 691 4224 262 3603 262 3027 
C 262 2777 448 2745 525 2745 
C 589 2745 781 2783 781 3007 
C 781 3206 614 3264 525 3264 
C 486 3264 448 3257 422 3244 
C 544 3788 915 4057 1306 4057 
C 1862 4057 2227 3616 2227 3033 
C 2227 2477 1901 1998 1536 1583 
L 262 147 
L 262 0 
L 2515 0 
L 2669 990 
z
" transform="scale(0.015625)"/>
       </defs>
       <use xlink:href="#CMSY10-0" transform="scale(0.996264)"/>
       <use xlink:href="#CMR17-32" transform="translate(77.487468 0)scale(0.996264)"/>
       <use xlink:href="#CMMI12-3a" transform="translate(123.177945 0)scale(0.996264)"/>
       <use xlink:href="#CMR17-35" transform="translate(150.275122 0)scale(0.996264)"/>
      </g>
     </g>
    </g>
    <g id="xtick_4">
     <g id="line2d_4">
      <g>
       <use xlink:href="#m32b5a5f252" x="190.770057" y="286.115721" style="stroke: #000000; stroke-width: 0.8"/>
      </g>
     </g>
     <g id="text_4">
      <!-- $\mathdefault{0.0}$ -->
      <g transform="translate(182.044766 302.801597)scale(0.14 -0.14)">
       <use xlink:href="#CMR17-30" transform="scale(0.996264)"/>
       <use xlink:href="#CMMI12-3a" transform="translate(45.690477 0)scale(0.996264)"/>
       <use xlink:href="#CMR17-30" transform="translate(72.787654 0)scale(0.996264)"/>
      </g>
     </g>
    </g>
    <g id="xtick_5">
     <g id="line2d_5">
      <g>
       <use xlink:href="#m32b5a5f252" x="237.212447" y="286.115721" style="stroke: #000000; stroke-width: 0.8"/>
      </g>
     </g>
     <g id="text_5">
      <!-- $\mathdefault{2.5}$ -->
      <g transform="translate(228.487156 302.801597)scale(0.14 -0.14)">
       <use xlink:href="#CMR17-32" transform="scale(0.996264)"/>
       <use xlink:href="#CMMI12-3a" transform="translate(45.690477 0)scale(0.996264)"/>
       <use xlink:href="#CMR17-35" transform="translate(72.787654 0)scale(0.996264)"/>
      </g>
     </g>
    </g>
    <g id="xtick_6">
     <g id="line2d_6">
      <g>
       <use xlink:href="#m32b5a5f252" x="283.654838" y="286.115721" style="stroke: #000000; stroke-width: 0.8"/>
      </g>
     </g>
     <g id="text_6">
      <!-- $\mathdefault{5.0}$ -->
      <g transform="translate(274.929547 302.801597)scale(0.14 -0.14)">
       <use xlink:href="#CMR17-35" transform="scale(0.996264)"/>
       <use xlink:href="#CMMI12-3a" transform="translate(45.690477 0)scale(0.996264)"/>
       <use xlink:href="#CMR17-30" transform="translate(72.787654 0)scale(0.996264)"/>
      </g>
     </g>
    </g>
    <g id="xtick_7">
     <g id="line2d_7">
      <g>
       <use xlink:href="#m32b5a5f252" x="330.097228" y="286.115721" style="stroke: #000000; stroke-width: 0.8"/>
      </g>
     </g>
     <g id="text_7">
      <!-- $\mathdefault{7.5}$ -->
      <g transform="translate(321.371937 302.801597)scale(0.14 -0.14)">
       <use xlink:href="#CMR17-37" transform="scale(0.996264)"/>
       <use xlink:href="#CMMI12-3a" transform="translate(45.690477 0)scale(0.996264)"/>
       <use xlink:href="#CMR17-35" transform="translate(72.787654 0)scale(0.996264)"/>
      </g>
     </g>
    </g>
    <g id="xtick_8">
     <g id="line2d_8">
      <g>
       <use xlink:href="#m32b5a5f252" x="376.539618" y="286.115721" style="stroke: #000000; stroke-width: 0.8"/>
      </g>
     </g>
     <g id="text_8">
      <!-- $\mathdefault{10.0}$ -->
      <g transform="translate(364.400083 302.801597)scale(0.14 -0.14)">
       <defs>
        <path id="CMR17-31" d="M 1702 4083 
C 1702 4217 1696 4224 1606 4224 
C 1357 3927 979 3833 621 3820 
C 602 3820 570 3820 563 3808 
C 557 3795 557 3782 557 3648 
C 755 3648 1088 3686 1344 3839 
L 1344 467 
C 1344 243 1331 166 781 166 
L 589 166 
L 589 0 
C 896 6 1216 12 1523 12 
C 1830 12 2150 6 2458 0 
L 2458 166 
L 2266 166 
C 1715 166 1702 236 1702 467 
L 1702 4083 
z
" transform="scale(0.015625)"/>
       </defs>
       <use xlink:href="#CMR17-31" transform="scale(0.996264)"/>
       <use xlink:href="#CMR17-30" transform="translate(45.690477 0)scale(0.996264)"/>
       <use xlink:href="#CMMI12-3a" transform="translate(91.380954 0)scale(0.996264)"/>
       <use xlink:href="#CMR17-30" transform="translate(118.478131 0)scale(0.996264)"/>
      </g>
     </g>
    </g>
   </g>
   <g id="matplotlib.axis_2">
    <g id="ytick_1">
     <g id="line2d_9">
      <defs>
       <path id="m78db20a2db" d="M 0 0 
L -3.5 0 
" style="stroke: #000000; stroke-width: 0.8"/>
      </defs>
      <g>
       <use xlink:href="#m78db20a2db" x="21.028489" y="286.115721" style="stroke: #000000; stroke-width: 0.8"/>
      </g>
     </g>
     <g id="text_9">
      <!-- $\mathdefault{0}$ -->
      <g transform="translate(7.2 290.958659)scale(0.14 -0.14)">
       <use xlink:href="#CMR17-30" transform="scale(0.996264)"/>
      </g>
     </g>
    </g>
    <g id="ytick_2">
     <g id="line2d_10">
      <g>
       <use xlink:href="#m78db20a2db" x="21.028489" y="233.349491" style="stroke: #000000; stroke-width: 0.8"/>
      </g>
     </g>
     <g id="text_10">
      <!-- $\mathdefault{1}$ -->
      <g transform="translate(7.2 238.192429)scale(0.14 -0.14)">
       <use xlink:href="#CMR17-31" transform="scale(0.996264)"/>
      </g>
     </g>
    </g>
    <g id="ytick_3">
     <g id="line2d_11">
      <g>
       <use xlink:href="#m78db20a2db" x="21.028489" y="180.583261" style="stroke: #000000; stroke-width: 0.8"/>
      </g>
     </g>
     <g id="text_11">
      <!-- $\mathdefault{2}$ -->
      <g transform="translate(7.2 185.4262)scale(0.14 -0.14)">
       <use xlink:href="#CMR17-32" transform="scale(0.996264)"/>
      </g>
     </g>
    </g>
    <g id="ytick_4">
     <g id="line2d_12">
      <g>
       <use xlink:href="#m78db20a2db" x="21.028489" y="127.817032" style="stroke: #000000; stroke-width: 0.8"/>
      </g>
     </g>
     <g id="text_12">
      <!-- $\mathdefault{3}$ -->
      <g transform="translate(7.2 132.65997)scale(0.14 -0.14)">
       <defs>
        <path id="CMR17-33" d="M 1414 2176 
C 1984 2176 2234 1673 2234 1094 
C 2234 322 1824 25 1453 25 
C 1114 25 563 193 390 691 
C 422 678 454 678 486 678 
C 640 678 755 780 755 947 
C 755 1132 614 1216 486 1216 
C 378 1216 211 1164 211 927 
C 211 335 787 -128 1466 -128 
C 2176 -128 2720 432 2720 1087 
C 2720 1718 2208 2176 1600 2246 
C 2086 2347 2554 2776 2554 3353 
C 2554 3856 2048 4224 1472 4224 
C 890 4224 378 3862 378 3347 
C 378 3123 544 3084 627 3084 
C 762 3084 877 3167 877 3334 
C 877 3500 762 3584 627 3584 
C 602 3584 570 3584 544 3571 
C 730 3999 1235 4076 1459 4076 
C 1683 4076 2106 3966 2106 3347 
C 2106 3167 2080 2851 1862 2574 
C 1670 2329 1453 2316 1242 2297 
C 1210 2297 1062 2284 1037 2284 
C 992 2278 966 2272 966 2227 
C 966 2182 973 2176 1101 2176 
L 1414 2176 
z
" transform="scale(0.015625)"/>
       </defs>
       <use xlink:href="#CMR17-33" transform="scale(0.996264)"/>
      </g>
     </g>
    </g>
    <g id="ytick_5">
     <g id="line2d_13">
      <g>
       <use xlink:href="#m78db20a2db" x="21.028489" y="75.050802" style="stroke: #000000; stroke-width: 0.8"/>
      </g>
     </g>
     <g id="text_13">
      <!-- $\mathdefault{4}$ -->
      <g transform="translate(7.2 79.89374)scale(0.14 -0.14)">
       <defs>
        <path id="CMR17-34" d="M 2150 4147 
C 2150 4281 2144 4288 2029 4288 
L 128 1254 
L 128 1088 
L 1779 1088 
L 1779 460 
C 1779 230 1766 166 1318 166 
L 1197 166 
L 1197 0 
C 1402 12 1747 12 1965 12 
C 2182 12 2528 12 2733 0 
L 2733 166 
L 2611 166 
C 2163 166 2150 230 2150 460 
L 2150 1088 
L 2803 1088 
L 2803 1254 
L 2150 1254 
L 2150 4147 
z
M 1798 3723 
L 1798 1254 
L 256 1254 
L 1798 3723 
z
" transform="scale(0.015625)"/>
       </defs>
       <use xlink:href="#CMR17-34" transform="scale(0.996264)"/>
      </g>
     </g>
    </g>
    <g id="ytick_6">
     <g id="line2d_14">
      <g>
       <use xlink:href="#m78db20a2db" x="21.028489" y="22.284573" style="stroke: #000000; stroke-width: 0.8"/>
      </g>
     </g>
     <g id="text_14">
      <!-- $\mathdefault{5}$ -->
      <g transform="translate(7.2 27.127511)scale(0.14 -0.14)">
       <use xlink:href="#CMR17-35" transform="scale(0.996264)"/>
      </g>
     </g>
    </g>
    <g id="text_15">
     <!-- $\times\mathdefault{10^{6}}\mathdefault{}$ -->
     <g transform="translate(21.028489 17.003721)scale(0.14 -0.14)">
      <defs>
       <path id="CMSY10-2" d="M 2490 1775 
L 1210 3046 
C 1133 3123 1120 3136 1069 3136 
C 1005 3136 941 3078 941 3008 
C 941 2963 954 2950 1024 2880 
L 2304 1596 
L 1024 313 
C 954 243 941 230 941 185 
C 941 115 1005 57 1069 57 
C 1120 57 1133 70 1210 147 
L 2483 1418 
L 3808 95 
C 3821 89 3866 57 3904 57 
C 3981 57 4032 115 4032 185 
C 4032 198 4032 223 4013 255 
C 4006 268 2989 1271 2669 1596 
L 3840 2765 
C 3872 2803 3968 2886 4000 2925 
C 4006 2937 4032 2963 4032 3008 
C 4032 3078 3981 3136 3904 3136 
C 3853 3136 3827 3110 3757 3040 
L 2490 1775 
z
" transform="scale(0.015625)"/>
       <path id="CMR17-36" d="M 678 2198 
C 678 3712 1395 4076 1811 4076 
C 1946 4076 2272 4049 2400 3782 
C 2298 3782 2106 3782 2106 3558 
C 2106 3385 2246 3328 2336 3328 
C 2394 3328 2566 3353 2566 3571 
C 2566 3987 2246 4224 1805 4224 
C 1043 4224 243 3411 243 2011 
C 243 257 966 -128 1478 -128 
C 2099 -128 2688 431 2688 1295 
C 2688 2101 2170 2688 1517 2688 
C 1126 2688 838 2430 678 1979 
L 678 2198 
z
M 1478 25 
C 691 25 691 1212 691 1450 
C 691 1914 909 2585 1504 2585 
C 1613 2585 1926 2585 2138 2140 
C 2253 1889 2253 1624 2253 1302 
C 2253 954 2253 696 2118 438 
C 1978 173 1773 25 1478 25 
z
" transform="scale(0.015625)"/>
      </defs>
      <use xlink:href="#CMSY10-2" transform="scale(0.996264)"/>
      <use xlink:href="#CMR17-31" transform="translate(77.487468 0)scale(0.996264)"/>
      <use xlink:href="#CMR17-30" transform="translate(123.177945 0)scale(0.996264)"/>
      <use xlink:href="#CMR17-36" transform="translate(168.868422 36.153639)scale(0.697382)"/>
     </g>
    </g>
   </g>
   <g id="patch_63">
    <path d="M 21.028489 286.115721 
L 21.028489 20.003721 
" style="fill: none; stroke: #000000; stroke-width: 0.8; stroke-linejoin: miter; stroke-linecap: square"/>
   </g>
   <g id="patch_64">
    <path d="M 378.148489 286.115721 
L 378.148489 20.003721 
" style="fill: none; stroke: #000000; stroke-width: 0.8; stroke-linejoin: miter; stroke-linecap: square"/>
   </g>
   <g id="patch_65">
    <path d="M 21.028489 286.115721 
L 378.148489 286.115721 
" style="fill: none; stroke: #000000; stroke-width: 0.8; stroke-linejoin: miter; stroke-linecap: square"/>
   </g>
   <g id="patch_66">
    <path d="M 21.028489 20.003721 
L 378.148489 20.003721 
" style="fill: none; stroke: #000000; stroke-width: 0.8; stroke-linejoin: miter; stroke-linecap: square"/>
   </g>
   <g id="legend_1">
    <g id="patch_67">
     <path d="M 214.596159 148.275891 
L 368.348489 148.275891 
Q 371.148489 148.275891 371.148489 145.475891 
L 371.148489 29.803721 
Q 371.148489 27.003721 368.348489 27.003721 
L 214.596159 27.003721 
Q 211.796159 27.003721 211.796159 29.803721 
L 211.796159 145.475891 
Q 211.796159 148.275891 214.596159 148.275891 
z
" style="fill: #ffffff; opacity: 0.8; stroke: #cccccc; stroke-linejoin: miter"/>
    </g>
    <g id="patch_68">
     <path d="M 217.396159 42.403721 
L 245.396159 42.403721 
L 245.396159 32.603721 
L 217.396159 32.603721 
z
" style="fill: #4c72b0"/>
    </g>
    <g id="text_16">
     <!-- post-z ratio target -->
     <g transform="translate(256.596159 42.403721)scale(0.14 -0.14)">
      <defs>
       <path id="CMR17-70" d="M 1408 -1114 
C 998 -1114 973 -1088 973 -834 
L 973 380 
C 1158 109 1427 -64 1766 -64 
C 2406 -64 3053 503 3053 1382 
C 3053 2196 2496 2816 1837 2816 
C 1453 2816 1139 2603 960 2345 
L 960 2816 
L 198 2745 
L 198 2577 
C 576 2577 634 2539 634 2228 
L 634 -834 
C 634 -1081 608 -1114 198 -1114 
L 198 -1280 
C 352 -1268 634 -1268 800 -1268 
C 966 -1268 1254 -1268 1408 -1280 
L 1408 -1114 
z
M 973 2015 
C 973 2106 973 2241 1222 2481 
C 1254 2506 1472 2700 1792 2700 
C 2259 2700 2643 2112 2643 1376 
C 2643 639 2234 38 1728 38 
C 1498 38 1248 148 1056 451 
C 973 594 973 632 973 736 
L 973 2015 
z
" transform="scale(0.015625)"/>
       <path id="CMR17-6f" d="M 2758 1356 
C 2758 2176 2163 2816 1466 2816 
C 768 2816 173 2176 173 1356 
C 173 550 768 -64 1466 -64 
C 2163 -64 2758 550 2758 1356 
z
M 1466 51 
C 1165 51 909 230 762 480 
C 602 768 582 1126 582 1408 
C 582 1676 595 2009 762 2297 
C 890 2508 1139 2713 1466 2713 
C 1754 2713 1997 2553 2150 2329 
C 2349 2028 2349 1606 2349 1408 
C 2349 1158 2336 774 2163 467 
C 1984 172 1709 51 1466 51 
z
" transform="scale(0.015625)"/>
       <path id="CMR17-73" d="M 1978 2688 
C 1978 2803 1971 2809 1933 2809 
C 1907 2809 1901 2803 1824 2707 
C 1805 2681 1747 2617 1728 2592 
C 1523 2809 1235 2816 1126 2816 
C 416 2816 160 2444 160 2073 
C 160 1497 813 1363 998 1324 
C 1402 1241 1542 1216 1677 1100 
C 1760 1024 1901 883 1901 652 
C 1901 384 1747 38 1158 38 
C 602 38 403 460 288 1024 
C 269 1113 269 1120 218 1120 
C 166 1120 160 1113 160 985 
L 160 64 
C 160 -52 166 -58 205 -58 
C 237 -58 243 -52 275 0 
C 314 57 410 211 448 275 
C 576 102 800 -64 1158 -64 
C 1792 -64 2131 281 2131 780 
C 2131 1107 1958 1280 1875 1356 
C 1683 1555 1459 1600 1190 1651 
C 838 1728 390 1817 390 2208 
C 390 2374 480 2726 1126 2726 
C 1811 2726 1850 2086 1862 1881 
C 1869 1849 1901 1843 1920 1843 
C 1978 1843 1978 1862 1978 1971 
L 1978 2688 
z
" transform="scale(0.015625)"/>
       <path id="CMR17-74" d="M 966 2585 
L 1862 2585 
L 1862 2752 
L 966 2752 
L 966 3968 
L 851 3968 
C 838 3292 614 2700 70 2687 
L 70 2585 
L 627 2585 
L 627 778 
C 627 655 627 -64 1370 -64 
C 1747 -64 1965 308 1965 784 
L 1965 1151 
L 1850 1151 
L 1850 790 
C 1850 347 1677 51 1408 51 
C 1222 51 966 179 966 765 
L 966 2585 
z
" transform="scale(0.015625)"/>
       <path id="CMR17-2d" d="M 1632 1254 
L 1632 1536 
L 26 1536 
L 26 1254 
L 1632 1254 
z
" transform="scale(0.015625)"/>
       <path id="CMR17-7a" d="M 2310 2604 
C 2362 2668 2362 2681 2362 2694 
C 2362 2752 2336 2752 2221 2752 
L 275 2752 
L 211 1760 
L 326 1760 
C 371 2380 442 2649 1178 2649 
L 1958 2649 
L 128 96 
C 128 6 134 0 269 0 
L 2291 0 
L 2381 1152 
L 2266 1152 
C 2214 441 2131 115 1350 115 
L 531 115 
L 2310 2604 
z
" transform="scale(0.015625)"/>
       <path id="CMR17-72" d="M 960 1517 
C 960 2134 1222 2713 1702 2713 
C 1747 2713 1792 2707 1837 2687 
C 1837 2687 1696 2642 1696 2475 
C 1696 2321 1818 2257 1914 2257 
C 1990 2257 2131 2302 2131 2482 
C 2131 2687 1926 2816 1709 2816 
C 1222 2816 1011 2340 947 2115 
L 941 2115 
L 941 2816 
L 198 2745 
L 198 2578 
C 576 2578 634 2540 634 2231 
L 634 443 
C 634 198 608 166 198 166 
L 198 0 
C 352 12 646 12 813 12 
C 998 12 1325 12 1498 0 
L 1498 166 
C 1037 166 960 166 960 455 
L 960 1517 
z
" transform="scale(0.015625)"/>
       <path id="CMR17-61" d="M 2304 1656 
C 2304 2048 2304 2275 2035 2534 
C 1798 2751 1523 2816 1306 2816 
C 800 2816 435 2408 435 1977 
C 435 1740 627 1728 666 1728 
C 749 1728 896 1779 896 1958 
C 896 2118 774 2188 666 2188 
C 640 2188 608 2182 589 2176 
C 723 2594 1069 2713 1293 2713 
C 1613 2713 1965 2421 1965 1875 
L 1965 1632 
C 1587 1619 1133 1568 774 1373 
C 371 1147 256 822 256 576 
C 256 77 832 -64 1171 -64 
C 1523 -64 1850 135 1990 505 
C 2003 219 2182 -39 2464 -39 
C 2598 -39 2938 51 2938 563 
L 2938 926 
L 2822 926 
L 2822 557 
C 2822 161 2650 109 2566 109 
C 2304 109 2304 446 2304 732 
L 2304 1656 
z
M 1965 887 
C 1965 323 1568 38 1216 38 
C 896 38 646 278 646 576 
C 646 771 730 1114 1101 1322 
C 1408 1497 1760 1523 1965 1536 
L 1965 887 
z
" transform="scale(0.015625)"/>
       <path id="CMR17-69" d="M 992 3961 
C 992 4102 877 4224 730 4224 
C 589 4224 467 4108 467 3961 
C 467 3820 582 3699 730 3699 
C 870 3699 992 3814 992 3961 
z
M 243 2745 
L 243 2579 
C 602 2579 653 2540 653 2231 
L 653 443 
C 653 198 627 166 218 166 
L 218 0 
C 371 12 646 12 806 12 
C 960 12 1222 12 1370 0 
L 1370 166 
C 992 166 979 205 979 436 
L 979 2816 
L 243 2745 
z
" transform="scale(0.015625)"/>
       <path id="CMR17-67" d="M 710 1165 
C 832 1068 1043 960 1299 960 
C 1805 960 2240 1359 2240 1895 
C 2240 2063 2189 2321 1997 2521 
C 2176 2713 2438 2777 2586 2777 
C 2611 2777 2650 2777 2682 2758 
C 2656 2751 2598 2726 2598 2623 
C 2598 2540 2656 2483 2739 2483 
C 2835 2483 2886 2547 2886 2630 
C 2886 2751 2790 2880 2586 2880 
C 2330 2880 2106 2758 1926 2591 
C 1734 2764 1504 2828 1299 2828 
C 794 2828 358 2431 358 1895 
C 358 1527 570 1294 634 1230 
C 442 1004 442 742 442 710 
C 442 544 506 300 723 166 
C 390 82 128 -184 128 -517 
C 128 -996 736 -1344 1466 -1344 
C 2170 -1344 2803 -1009 2803 -510 
C 2803 384 1856 384 1363 384 
C 1216 384 954 384 922 390 
C 723 422 589 601 589 825 
C 589 883 589 1024 710 1165 
z
M 1299 1068 
C 736 1068 736 1766 736 1895 
C 736 2024 736 2719 1299 2719 
C 1862 2719 1862 2024 1862 1895 
C 1862 1766 1862 1068 1299 1068 
z
M 1466 -1236 
C 826 -1236 384 -883 384 -517 
C 384 -311 493 -118 634 -11 
C 794 102 858 102 1293 102 
C 1818 102 2547 102 2547 -517 
C 2547 -883 2106 -1236 1466 -1236 
z
" transform="scale(0.015625)"/>
       <path id="CMR17-65" d="M 2438 1503 
C 2464 1529 2464 1542 2464 1606 
C 2464 2251 2118 2816 1389 2816 
C 710 2816 173 2175 173 1394 
C 173 554 781 -64 1459 -64 
C 2176 -64 2458 619 2458 755 
C 2458 800 2419 800 2406 800 
C 2362 800 2355 787 2330 709 
C 2189 270 1837 51 1504 51 
C 1229 51 954 206 781 490 
C 582 819 582 1200 582 1503 
L 2438 1503 
z
M 589 1600 
C 634 2511 1126 2713 1382 2713 
C 1818 2713 2112 2308 2118 1600 
L 589 1600 
z
" transform="scale(0.015625)"/>
      </defs>
      <use xlink:href="#CMR17-70" transform="scale(0.996264)"/>
      <use xlink:href="#CMR17-6f" transform="translate(53.497809 0)scale(0.996264)"/>
      <use xlink:href="#CMR17-73" transform="translate(99.188286 0)scale(0.996264)"/>
      <use xlink:href="#CMR17-74" transform="translate(134.989623 0)scale(0.996264)"/>
      <use xlink:href="#CMR17-2d" transform="translate(170.270391 0)scale(0.996264)"/>
      <use xlink:href="#CMR17-7a" transform="translate(200.346357 0)scale(0.996264)"/>
      <use xlink:href="#CMR17-72" transform="translate(270.907984 0)scale(0.996264)"/>
      <use xlink:href="#CMR17-61" transform="translate(306.188752 0)scale(0.996264)"/>
      <use xlink:href="#CMR17-74" transform="translate(351.879229 0)scale(0.996264)"/>
      <use xlink:href="#CMR17-69" transform="translate(387.159997 0)scale(0.996264)"/>
      <use xlink:href="#CMR17-6f" transform="translate(412.031055 0)scale(0.996264)"/>
      <use xlink:href="#CMR17-74" transform="translate(487.797499 0)scale(0.996264)"/>
      <use xlink:href="#CMR17-61" transform="translate(523.078267 0)scale(0.996264)"/>
      <use xlink:href="#CMR17-72" transform="translate(568.768744 0)scale(0.996264)"/>
      <use xlink:href="#CMR17-67" transform="translate(604.049512 0)scale(0.996264)"/>
      <use xlink:href="#CMR17-65" transform="translate(649.739989 0)scale(0.996264)"/>
      <use xlink:href="#CMR17-74" transform="translate(690.225649 0)scale(0.996264)"/>
     </g>
    </g>
    <g id="patch_69">
     <path d="M 217.396159 61.915749 
L 245.396159 61.915749 
L 245.396159 52.115749 
L 217.396159 52.115749 
z
" style="fill: #55a868; opacity: 0.35"/>
    </g>
    <g id="text_17">
     <!-- feature 0 -->
     <g transform="translate(256.596159 61.915749)scale(0.14 -0.14)">
      <defs>
       <path id="CMR17-66" d="M 979 2585 
L 1709 2585 
L 1709 2752 
L 966 2752 
L 966 3539 
C 966 4076 1235 4377 1510 4377 
C 1594 4377 1690 4363 1754 4339 
C 1702 4326 1568 4281 1568 4121 
C 1568 3955 1696 3904 1786 3904 
C 1875 3904 2003 3955 2003 4121 
C 2003 4353 1773 4480 1517 4480 
C 1152 4480 653 4211 653 3526 
L 653 2752 
L 141 2752 
L 141 2585 
L 653 2585 
L 653 441 
C 653 198 627 166 218 166 
L 218 0 
C 371 12 666 12 832 12 
C 1018 12 1344 12 1517 0 
L 1517 166 
C 1056 166 979 166 979 454 
L 979 2585 
z
" transform="scale(0.015625)"/>
       <path id="CMR17-75" d="M 1882 2745 
L 1882 2579 
C 2259 2579 2317 2540 2317 2229 
L 2317 1053 
C 2317 510 2029 38 1555 38 
C 1030 38 986 355 986 691 
L 986 2816 
L 211 2745 
L 211 2579 
C 467 2579 640 2579 646 2320 
L 646 1079 
C 646 646 646 368 813 187 
C 896 103 1056 -64 1517 -64 
C 2061 -64 2272 400 2323 536 
L 2330 536 
L 2330 -64 
L 3091 -13 
L 3091 154 
C 2714 154 2656 193 2656 503 
L 2656 2816 
L 1882 2745 
z
" transform="scale(0.015625)"/>
      </defs>
      <use xlink:href="#CMR17-66" transform="scale(0.996264)"/>
      <use xlink:href="#CMR17-65" transform="translate(27.473512 0)scale(0.996264)"/>
      <use xlink:href="#CMR17-61" transform="translate(67.959173 0)scale(0.996264)"/>
      <use xlink:href="#CMR17-74" transform="translate(113.64965 0)scale(0.996264)"/>
      <use xlink:href="#CMR17-75" transform="translate(148.930418 0)scale(0.996264)"/>
      <use xlink:href="#CMR17-72" transform="translate(199.825788 0)scale(0.996264)"/>
      <use xlink:href="#CMR17-65" transform="translate(235.106555 0)scale(0.996264)"/>
      <use xlink:href="#CMR17-30" transform="translate(305.668182 0)scale(0.996264)"/>
     </g>
    </g>
    <g id="patch_70">
     <path d="M 217.396159 81.427777 
L 245.396159 81.427777 
L 245.396159 71.627777 
L 217.396159 71.627777 
z
" style="fill: #c44e52; opacity: 0.35"/>
    </g>
    <g id="text_18">
     <!-- feature 1 -->
     <g transform="translate(256.596159 81.427777)scale(0.14 -0.14)">
      <use xlink:href="#CMR17-66" transform="scale(0.996264)"/>
      <use xlink:href="#CMR17-65" transform="translate(27.473512 0)scale(0.996264)"/>
      <use xlink:href="#CMR17-61" transform="translate(67.959173 0)scale(0.996264)"/>
      <use xlink:href="#CMR17-74" transform="translate(113.64965 0)scale(0.996264)"/>
      <use xlink:href="#CMR17-75" transform="translate(148.930418 0)scale(0.996264)"/>
      <use xlink:href="#CMR17-72" transform="translate(199.825788 0)scale(0.996264)"/>
      <use xlink:href="#CMR17-65" transform="translate(235.106555 0)scale(0.996264)"/>
      <use xlink:href="#CMR17-31" transform="translate(305.668182 0)scale(0.996264)"/>
     </g>
    </g>
    <g id="patch_71">
     <path d="M 217.396159 100.939806 
L 245.396159 100.939806 
L 245.396159 91.139806 
L 217.396159 91.139806 
z
" style="fill: #8172b2; opacity: 0.35"/>
    </g>
    <g id="text_19">
     <!-- feature 2 -->
     <g transform="translate(256.596159 100.939806)scale(0.14 -0.14)">
      <use xlink:href="#CMR17-66" transform="scale(0.996264)"/>
      <use xlink:href="#CMR17-65" transform="translate(27.473512 0)scale(0.996264)"/>
      <use xlink:href="#CMR17-61" transform="translate(67.959173 0)scale(0.996264)"/>
      <use xlink:href="#CMR17-74" transform="translate(113.64965 0)scale(0.996264)"/>
      <use xlink:href="#CMR17-75" transform="translate(148.930418 0)scale(0.996264)"/>
      <use xlink:href="#CMR17-72" transform="translate(199.825788 0)scale(0.996264)"/>
      <use xlink:href="#CMR17-65" transform="translate(235.106555 0)scale(0.996264)"/>
      <use xlink:href="#CMR17-32" transform="translate(305.668182 0)scale(0.996264)"/>
     </g>
    </g>
    <g id="patch_72">
     <path d="M 217.396159 120.451834 
L 245.396159 120.451834 
L 245.396159 110.651834 
L 217.396159 110.651834 
z
" style="fill: #ccb974; opacity: 0.35"/>
    </g>
    <g id="text_20">
     <!-- feature 3 -->
     <g transform="translate(256.596159 120.451834)scale(0.14 -0.14)">
      <use xlink:href="#CMR17-66" transform="scale(0.996264)"/>
      <use xlink:href="#CMR17-65" transform="translate(27.473512 0)scale(0.996264)"/>
      <use xlink:href="#CMR17-61" transform="translate(67.959173 0)scale(0.996264)"/>
      <use xlink:href="#CMR17-74" transform="translate(113.64965 0)scale(0.996264)"/>
      <use xlink:href="#CMR17-75" transform="translate(148.930418 0)scale(0.996264)"/>
      <use xlink:href="#CMR17-72" transform="translate(199.825788 0)scale(0.996264)"/>
      <use xlink:href="#CMR17-65" transform="translate(235.106555 0)scale(0.996264)"/>
      <use xlink:href="#CMR17-33" transform="translate(305.668182 0)scale(0.996264)"/>
     </g>
    </g>
    <g id="patch_73">
     <path d="M 217.396159 139.963863 
L 245.396159 139.963863 
L 245.396159 130.163863 
L 217.396159 130.163863 
z
" style="fill: #64b5cd; opacity: 0.35"/>
    </g>
    <g id="text_21">
     <!-- feature 4 -->
     <g transform="translate(256.596159 139.963863)scale(0.14 -0.14)">
      <use xlink:href="#CMR17-66" transform="scale(0.996264)"/>
      <use xlink:href="#CMR17-65" transform="translate(27.473512 0)scale(0.996264)"/>
      <use xlink:href="#CMR17-61" transform="translate(67.959173 0)scale(0.996264)"/>
      <use xlink:href="#CMR17-74" transform="translate(113.64965 0)scale(0.996264)"/>
      <use xlink:href="#CMR17-75" transform="translate(148.930418 0)scale(0.996264)"/>
      <use xlink:href="#CMR17-72" transform="translate(199.825788 0)scale(0.996264)"/>
      <use xlink:href="#CMR17-65" transform="translate(235.106555 0)scale(0.996264)"/>
      <use xlink:href="#CMR17-34" transform="translate(305.668182 0)scale(0.996264)"/>
     </g>
    </g>
   </g>
  </g>
 </g>
 <defs>
  <clipPath id="p687fdbae39">
   <rect x="21.028489" y="20.003721" width="357.12" height="266.112"/>
  </clipPath>
 </defs>
</svg>
