<?xml version="1.0" encoding="utf-8" standalone="no"?>
<!DOCTYPE svg PUBLIC "-//W3C//DTD SVG 1.1//EN"
  "http://www.w3.org/Graphics/SVG/1.1/DTD/svg11.dtd">
<svg xmlns:xlink="http://www.w3.org/1999/xlink" width="704.16pt" height="272.16pt" viewBox="0 0 704.16 272.16" xmlns="http://www.w3.org/2000/svg" version="1.1">
 <metadata>
  <rdf:RDF xmlns:dc="http://purl.org/dc/elements/1.1/" xmlns:cc="http://creativecommons.org/ns#" xmlns:rdf="http://www.w3.org/1999/02/22-rdf-syntax-ns#">
   <cc:Work>
    <dc:type rdf:resource="http://purl.org/dc/dcmitype/StillImage"/>
    <dc:date>2022-12-18T19:06:07.675789</dc:date>
    <dc:format>image/svg+xml</dc:format>
    <dc:creator>
     <cc:Agent>
      <dc:title>Matplotlib v3.5.1, https://matplotlib.org/</dc:title>
     </cc:Agent>
    </dc:creator>
   </cc:Work>
  </rdf:RDF>
 </metadata>
 <defs>
  <style type="text/css">*{stroke-linejoin: round; stroke-linecap: butt}</style>
 </defs>
 <g id="figure_1">
  <g id="patch_1">
   <path d="M 0 272.16 
L 704.16 272.16 
L 704.16 0 
L 0 0 
z
" style="fill: #ffffff"/>
  </g>
  <g id="axes_1">
   <g id="patch_2">
    <path d="M 21.028489 228.278626 
L 696.96 228.278626 
L 696.96 20.003721 
L 21.028489 20.003721 
z
" style="fill: #ffffff"/>
   </g>
   <g id="patch_3">
    <path d="M 207.521767 228.278626 
L 253.393174 228.278626 
L 253.393174 32.775828 
L 207.521767 32.775828 
z
" clip-path="url(#p9e9ef9af05)" style="fill: #4c72b0; opacity: 0.35"/>
   </g>
   <g id="patch_4">
    <path d="M 253.393174 228.278626 
L 299.264582 228.278626 
L 299.264582 111.04176 
L 253.393174 111.04176 
z
" clip-path="url(#p9e9ef9af05)" style="fill: #4c72b0; opacity: 0.35"/>
   </g>
   <g id="patch_5">
    <path d="M 299.264582 228.278626 
L 345.135989 228.278626 
L 345.135989 187.054096 
L 299.264582 187.054096 
z
" clip-path="url(#p9e9ef9af05)" style="fill: #4c72b0; opacity: 0.35"/>
   </g>
   <g id="patch_6">
    <path d="M 345.135989 228.278626 
L 391.007396 228.278626 
L 391.007396 216.397142 
L 345.135989 216.397142 
z
" clip-path="url(#p9e9ef9af05)" style="fill: #4c72b0; opacity: 0.35"/>
   </g>
   <g id="patch_7">
    <path d="M 391.007396 228.278626 
L 436.878804 228.278626 
L 436.878804 225.276112 
L 391.007396 225.276112 
z
" clip-path="url(#p9e9ef9af05)" style="fill: #4c72b0; opacity: 0.35"/>
   </g>
   <g id="patch_8">
    <path d="M 436.878804 228.278626 
L 482.750211 228.278626 
L 482.750211 227.592052 
L 436.878804 227.592052 
z
" clip-path="url(#p9e9ef9af05)" style="fill: #4c72b0; opacity: 0.35"/>
   </g>
   <g id="patch_9">
    <path d="M 482.750211 228.278626 
L 528.621618 228.278626 
L 528.621618 228.126346 
L 482.750211 228.126346 
z
" clip-path="url(#p9e9ef9af05)" style="fill: #4c72b0; opacity: 0.35"/>
   </g>
   <g id="patch_10">
    <path d="M 528.621618 228.278626 
L 574.493026 228.278626 
L 574.493026 228.249325 
L 528.621618 228.249325 
z
" clip-path="url(#p9e9ef9af05)" style="fill: #4c72b0; opacity: 0.35"/>
   </g>
   <g id="patch_11">
    <path d="M 574.493026 228.278626 
L 620.364433 228.278626 
L 620.364433 228.273588 
L 574.493026 228.273588 
z
" clip-path="url(#p9e9ef9af05)" style="fill: #4c72b0; opacity: 0.35"/>
   </g>
   <g id="patch_12">
    <path d="M 620.364433 228.278626 
L 666.23584 228.278626 
L 666.23584 228.27784 
L 620.364433 228.27784 
z
" clip-path="url(#p9e9ef9af05)" style="fill: #4c72b0; opacity: 0.35"/>
   </g>
   <g id="patch_13">
    <path d="M 162.332972 228.278626 
L 181.749575 228.278626 
L 181.749575 220.19747 
L 162.332972 220.19747 
z
" clip-path="url(#p9e9ef9af05)" style="fill: #55a868; opacity: 0.35"/>
   </g>
   <g id="patch_14">
    <path d="M 181.749575 228.278626 
L 201.166179 228.278626 
L 201.166179 204.675609 
L 181.749575 204.675609 
z
" clip-path="url(#p9e9ef9af05)" style="fill: #55a868; opacity: 0.35"/>
   </g>
   <g id="patch_15">
    <path d="M 201.166179 228.278626 
L 220.582782 228.278626 
L 220.582782 188.936305 
L 201.166179 188.936305 
z
" clip-path="url(#p9e9ef9af05)" style="fill: #55a868; opacity: 0.35"/>
   </g>
   <g id="patch_16">
    <path d="M 220.582782 228.278626 
L 239.999385 228.278626 
L 239.999385 175.324105 
L 220.582782 175.324105 
z
" clip-path="url(#p9e9ef9af05)" style="fill: #55a868; opacity: 0.35"/>
   </g>
   <g id="patch_17">
    <path d="M 239.999385 228.278626 
L 259.415989 228.278626 
L 259.415989 168.368152 
L 239.999385 168.368152 
z
" clip-path="url(#p9e9ef9af05)" style="fill: #55a868; opacity: 0.35"/>
   </g>
   <g id="patch_18">
    <path d="M 259.415989 228.278626 
L 278.832592 228.278626 
L 278.832592 168.331319 
L 259.415989 168.331319 
z
" clip-path="url(#p9e9ef9af05)" style="fill: #55a868; opacity: 0.35"/>
   </g>
   <g id="patch_19">
    <path d="M 278.832592 228.278626 
L 298.249195 228.278626 
L 298.249195 175.023244 
L 278.832592 175.023244 
z
" clip-path="url(#p9e9ef9af05)" style="fill: #55a868; opacity: 0.35"/>
   </g>
   <g id="patch_20">
    <path d="M 298.249195 228.278626 
L 317.665799 228.278626 
L 317.665799 188.433067 
L 298.249195 188.433067 
z
" clip-path="url(#p9e9ef9af05)" style="fill: #55a868; opacity: 0.35"/>
   </g>
   <g id="patch_21">
    <path d="M 317.665799 228.278626 
L 337.082402 228.278626 
L 337.082402 204.162296 
L 317.665799 204.162296 
z
" clip-path="url(#p9e9ef9af05)" style="fill: #55a868; opacity: 0.35"/>
   </g>
   <g id="patch_22">
    <path d="M 337.082402 228.278626 
L 356.499006 228.278626 
L 356.499006 219.612523 
L 337.082402 219.612523 
z
" clip-path="url(#p9e9ef9af05)" style="fill: #55a868; opacity: 0.35"/>
   </g>
   <g id="patch_23">
    <path d="M 188.582475 228.278626 
L 202.817197 228.278626 
L 202.817197 191.238888 
L 188.582475 191.238888 
z
" clip-path="url(#p9e9ef9af05)" style="fill: #c44e52; opacity: 0.35"/>
   </g>
   <g id="patch_24">
    <path d="M 202.817197 228.278626 
L 217.05192 228.278626 
L 217.05192 191.308997 
L 202.817197 191.308997 
z
" clip-path="url(#p9e9ef9af05)" style="fill: #c44e52; opacity: 0.35"/>
   </g>
   <g id="patch_25">
    <path d="M 217.05192 228.278626 
L 231.286642 228.278626 
L 231.286642 191.362699 
L 217.05192 191.362699 
z
" clip-path="url(#p9e9ef9af05)" style="fill: #c44e52; opacity: 0.35"/>
   </g>
   <g id="patch_26">
    <path d="M 231.286642 228.278626 
L 245.521365 228.278626 
L 245.521365 191.331966 
L 231.286642 191.331966 
z
" clip-path="url(#p9e9ef9af05)" style="fill: #c44e52; opacity: 0.35"/>
   </g>
   <g id="patch_27">
    <path d="M 245.521365 228.278626 
L 259.756087 228.278626 
L 259.756087 191.294069 
L 245.521365 191.294069 
z
" clip-path="url(#p9e9ef9af05)" style="fill: #c44e52; opacity: 0.35"/>
   </g>
   <g id="patch_28">
    <path d="M 259.756087 228.278626 
L 273.99081 228.278626 
L 273.99081 191.279512 
L 259.756087 191.279512 
z
" clip-path="url(#p9e9ef9af05)" style="fill: #c44e52; opacity: 0.35"/>
   </g>
   <g id="patch_29">
    <path d="M 273.99081 228.278626 
L 288.225532 228.278626 
L 288.225532 191.306963 
L 273.99081 191.306963 
z
" clip-path="url(#p9e9ef9af05)" style="fill: #c44e52; opacity: 0.35"/>
   </g>
   <g id="patch_30">
    <path d="M 288.225532 228.278626 
L 302.460255 228.278626 
L 302.460255 191.296611 
L 288.225532 191.296611 
z
" clip-path="url(#p9e9ef9af05)" style="fill: #c44e52; opacity: 0.35"/>
   </g>
   <g id="patch_31">
    <path d="M 302.460255 228.278626 
L 316.694977 228.278626 
L 316.694977 191.30322 
L 302.460255 191.30322 
z
" clip-path="url(#p9e9ef9af05)" style="fill: #c44e52; opacity: 0.35"/>
   </g>
   <g id="patch_32">
    <path d="M 316.694977 228.278626 
L 330.9297 228.278626 
L 330.9297 191.341163 
L 316.694977 191.341163 
z
" clip-path="url(#p9e9ef9af05)" style="fill: #c44e52; opacity: 0.35"/>
   </g>
   <g id="patch_33">
    <path d="M 51.752648 228.278626 
L 109.349065 228.278626 
L 109.349065 228.151303 
L 51.752648 228.151303 
z
" clip-path="url(#p9e9ef9af05)" style="fill: #8172b2; opacity: 0.35"/>
   </g>
   <g id="patch_34">
    <path d="M 109.349065 228.278626 
L 166.945482 228.278626 
L 166.945482 224.347185 
L 109.349065 224.347185 
z
" clip-path="url(#p9e9ef9af05)" style="fill: #8172b2; opacity: 0.35"/>
   </g>
   <g id="patch_35">
    <path d="M 166.945482 228.278626 
L 224.541899 228.278626 
L 224.541899 163.243387 
L 166.945482 163.243387 
z
" clip-path="url(#p9e9ef9af05)" style="fill: #8172b2; opacity: 0.35"/>
   </g>
   <g id="patch_36">
    <path d="M 224.541899 228.278626 
L 282.138316 228.278626 
L 282.138316 29.921573 
L 224.541899 29.921573 
z
" clip-path="url(#p9e9ef9af05)" style="fill: #8172b2; opacity: 0.35"/>
   </g>
   <g id="patch_37">
    <path d="M 282.138316 228.278626 
L 339.734733 228.278626 
L 339.734733 137.213699 
L 282.138316 137.213699 
z
" clip-path="url(#p9e9ef9af05)" style="fill: #8172b2; opacity: 0.35"/>
   </g>
   <g id="patch_38">
    <path d="M 339.734733 228.278626 
L 397.33115 228.278626 
L 397.33115 217.989165 
L 339.734733 217.989165 
z
" clip-path="url(#p9e9ef9af05)" style="fill: #8172b2; opacity: 0.35"/>
   </g>
   <g id="patch_39">
    <path d="M 397.33115 228.278626 
L 454.927566 228.278626 
L 454.927566 227.448877 
L 397.33115 227.448877 
z
" clip-path="url(#p9e9ef9af05)" style="fill: #8172b2; opacity: 0.35"/>
   </g>
   <g id="patch_40">
    <path d="M 454.927566 228.278626 
L 512.523983 228.278626 
L 512.523983 228.200661 
L 454.927566 228.200661 
z
" clip-path="url(#p9e9ef9af05)" style="fill: #8172b2; opacity: 0.35"/>
   </g>
   <g id="patch_41">
    <path d="M 512.523983 228.278626 
L 570.1204 228.278626 
L 570.1204 228.271231 
L 512.523983 228.271231 
z
" clip-path="url(#p9e9ef9af05)" style="fill: #8172b2; opacity: 0.35"/>
   </g>
   <g id="patch_42">
    <path d="M 570.1204 228.278626 
L 627.716817 228.278626 
L 627.716817 228.277008 
L 570.1204 228.277008 
z
" clip-path="url(#p9e9ef9af05)" style="fill: #8172b2; opacity: 0.35"/>
   </g>
   <g id="patch_43">
    <path d="M 259.74741 228.278626 
L 263.856682 228.278626 
L 263.856682 191.323416 
L 259.74741 191.323416 
z
" clip-path="url(#p9e9ef9af05)" style="fill: #ccb974; opacity: 0.35"/>
   </g>
   <g id="patch_44">
    <path d="M 263.856682 228.278626 
L 267.965954 228.278626 
L 267.965954 191.256312 
L 263.856682 191.256312 
z
" clip-path="url(#p9e9ef9af05)" style="fill: #ccb974; opacity: 0.35"/>
   </g>
   <g id="patch_45">
    <path d="M 267.965954 228.278626 
L 272.075226 228.278626 
L 272.075226 191.295964 
L 267.965954 191.295964 
z
" clip-path="url(#p9e9ef9af05)" style="fill: #ccb974; opacity: 0.35"/>
   </g>
   <g id="patch_46">
    <path d="M 272.075226 228.278626 
L 276.184498 228.278626 
L 276.184498 191.296611 
L 272.075226 191.296611 
z
" clip-path="url(#p9e9ef9af05)" style="fill: #ccb974; opacity: 0.35"/>
   </g>
   <g id="patch_47">
    <path d="M 276.184498 228.278626 
L 280.29377 228.278626 
L 280.29377 191.354935 
L 276.184498 191.354935 
z
" clip-path="url(#p9e9ef9af05)" style="fill: #ccb974; opacity: 0.35"/>
   </g>
   <g id="patch_48">
    <path d="M 280.29377 228.278626 
L 284.403042 228.278626 
L 284.403042 191.254278 
L 280.29377 191.254278 
z
" clip-path="url(#p9e9ef9af05)" style="fill: #ccb974; opacity: 0.35"/>
   </g>
   <g id="patch_49">
    <path d="M 284.403042 228.278626 
L 288.512313 228.278626 
L 288.512313 191.305901 
L 284.403042 191.305901 
z
" clip-path="url(#p9e9ef9af05)" style="fill: #ccb974; opacity: 0.35"/>
   </g>
   <g id="patch_50">
    <path d="M 288.512313 228.278626 
L 292.621585 228.278626 
L 292.621585 191.358262 
L 288.512313 191.358262 
z
" clip-path="url(#p9e9ef9af05)" style="fill: #ccb974; opacity: 0.35"/>
   </g>
   <g id="patch_51">
    <path d="M 292.621585 228.278626 
L 296.730857 228.278626 
L 296.730857 191.293422 
L 292.621585 191.293422 
z
" clip-path="url(#p9e9ef9af05)" style="fill: #ccb974; opacity: 0.35"/>
   </g>
   <g id="patch_52">
    <path d="M 296.730857 228.278626 
L 300.840129 228.278626 
L 300.840129 191.324987 
L 296.730857 191.324987 
z
" clip-path="url(#p9e9ef9af05)" style="fill: #ccb974; opacity: 0.35"/>
   </g>
   <g id="matplotlib.axis_1">
    <g id="xtick_1">
     <g id="line2d_1">
      <path d="M 95.376514 228.278626 
L 95.376514 20.003721 
" clip-path="url(#p9e9ef9af05)" style="fill: none; stroke: #b0b0b0; stroke-width: 0.8; stroke-linecap: square"/>
     </g>
     <g id="line2d_2">
      <defs>
       <path id="mafb4bdacff" d="M 0 0 
L 0 3.5 
" style="stroke: #000000; stroke-width: 0.8"/>
      </defs>
      <g>
       <use xlink:href="#mafb4bdacff" x="95.376514" y="228.278626" style="stroke: #000000; stroke-width: 0.8"/>
      </g>
     </g>
     <g id="text_1">
      <!-- $\mathdefault{−4}$ -->
      <g transform="translate(86.538152 244.964502)scale(0.14 -0.14)">
       <defs>
        <path id="CMSY10-0" d="M 4218 1472 
C 4326 1472 4442 1472 4442 1600 
C 4442 1728 4326 1728 4218 1728 
L 755 1728 
C 646 1728 531 1728 531 1600 
C 531 1472 646 1472 755 1472 
L 4218 1472 
z
" transform="scale(0.015625)"/>
        <path id="CMR17-34" d="M 2150 4147 
C 2150 4281 2144 4288 2029 4288 
L 128 1254 
L 128 1088 
L 1779 1088 
L 1779 460 
C 1779 230 1766 166 1318 166 
L 1197 166 
L 1197 0 
C 1402 12 1747 12 1965 12 
C 2182 12 2528 12 2733 0 
L 2733 166 
L 2611 166 
C 2163 166 2150 230 2150 460 
L 2150 1088 
L 2803 1088 
L 2803 1254 
L 2150 1254 
L 2150 4147 
z
M 1798 3723 
L 1798 1254 
L 256 1254 
L 1798 3723 
z
" transform="scale(0.015625)"/>
       </defs>
       <use xlink:href="#CMSY10-0" transform="scale(0.996264)"/>
       <use xlink:href="#CMR17-34" transform="translate(77.487468 0)scale(0.996264)"/>
      </g>
     </g>
    </g>
    <g id="xtick_2">
     <g id="line2d_3">
      <path d="M 177.561961 228.278626 
L 177.561961 20.003721 
" clip-path="url(#p9e9ef9af05)" style="fill: none; stroke: #b0b0b0; stroke-width: 0.8; stroke-linecap: square"/>
     </g>
     <g id="line2d_4">
      <g>
       <use xlink:href="#mafb4bdacff" x="177.561961" y="228.278626" style="stroke: #000000; stroke-width: 0.8"/>
      </g>
     </g>
     <g id="text_2">
      <!-- $\mathdefault{−2}$ -->
      <g transform="translate(168.723599 244.964502)scale(0.14 -0.14)">
       <defs>
        <path id="CMR17-32" d="M 2669 990 
L 2554 990 
C 2490 537 2438 460 2413 422 
C 2381 371 1920 371 1830 371 
L 602 371 
C 832 620 1280 1073 1824 1596 
C 2214 1966 2669 2400 2669 3033 
C 2669 3788 2067 4224 1395 4224 
C 691 4224 262 3603 262 3027 
C 262 2777 448 2745 525 2745 
C 589 2745 781 2783 781 3007 
C 781 3206 614 3264 525 3264 
C 486 3264 448 3257 422 3244 
C 544 3788 915 4057 1306 4057 
C 1862 4057 2227 3616 2227 3033 
C 2227 2477 1901 1998 1536 1583 
L 262 147 
L 262 0 
L 2515 0 
L 2669 990 
z
" transform="scale(0.015625)"/>
       </defs>
       <use xlink:href="#CMSY10-0" transform="scale(0.996264)"/>
       <use xlink:href="#CMR17-32" transform="translate(77.487468 0)scale(0.996264)"/>
      </g>
     </g>
    </g>
    <g id="xtick_3">
     <g id="line2d_5">
      <path d="M 259.747408 228.278626 
L 259.747408 20.003721 
" clip-path="url(#p9e9ef9af05)" style="fill: none; stroke: #b0b0b0; stroke-width: 0.8; stroke-linecap: square"/>
     </g>
     <g id="line2d_6">
      <g>
       <use xlink:href="#mafb4bdacff" x="259.747408" y="228.278626" style="stroke: #000000; stroke-width: 0.8"/>
      </g>
     </g>
     <g id="text_3">
      <!-- $\mathdefault{0}$ -->
      <g transform="translate(256.333164 244.964502)scale(0.14 -0.14)">
       <defs>
        <path id="CMR17-30" d="M 2688 2038 
C 2688 2430 2682 3099 2413 3613 
C 2176 4063 1798 4224 1466 4224 
C 1158 4224 768 4082 525 3620 
C 269 3137 243 2539 243 2038 
C 243 1671 250 1112 448 623 
C 723 -39 1216 -128 1466 -128 
C 1760 -128 2208 -7 2470 604 
C 2662 1048 2688 1568 2688 2038 
z
M 1466 -26 
C 1056 -26 813 328 723 816 
C 653 1196 653 1749 653 2109 
C 653 2604 653 3015 736 3407 
C 858 3954 1216 4121 1466 4121 
C 1728 4121 2067 3947 2189 3420 
C 2272 3054 2278 2623 2278 2109 
C 2278 1691 2278 1176 2202 797 
C 2067 96 1690 -26 1466 -26 
z
" transform="scale(0.015625)"/>
       </defs>
       <use xlink:href="#CMR17-30" transform="scale(0.996264)"/>
      </g>
     </g>
    </g>
    <g id="xtick_4">
     <g id="line2d_7">
      <path d="M 341.932855 228.278626 
L 341.932855 20.003721 
" clip-path="url(#p9e9ef9af05)" style="fill: none; stroke: #b0b0b0; stroke-width: 0.8; stroke-linecap: square"/>
     </g>
     <g id="line2d_8">
      <g>
       <use xlink:href="#mafb4bdacff" x="341.932855" y="228.278626" style="stroke: #000000; stroke-width: 0.8"/>
      </g>
     </g>
     <g id="text_4">
      <!-- $\mathdefault{2}$ -->
      <g transform="translate(338.518611 244.964502)scale(0.14 -0.14)">
       <use xlink:href="#CMR17-32" transform="scale(0.996264)"/>
      </g>
     </g>
    </g>
    <g id="xtick_5">
     <g id="line2d_9">
      <path d="M 424.118302 228.278626 
L 424.118302 20.003721 
" clip-path="url(#p9e9ef9af05)" style="fill: none; stroke: #b0b0b0; stroke-width: 0.8; stroke-linecap: square"/>
     </g>
     <g id="line2d_10">
      <g>
       <use xlink:href="#mafb4bdacff" x="424.118302" y="228.278626" style="stroke: #000000; stroke-width: 0.8"/>
      </g>
     </g>
     <g id="text_5">
      <!-- $\mathdefault{4}$ -->
      <g transform="translate(420.704058 244.964502)scale(0.14 -0.14)">
       <use xlink:href="#CMR17-34" transform="scale(0.996264)"/>
      </g>
     </g>
    </g>
    <g id="xtick_6">
     <g id="line2d_11">
      <path d="M 506.303749 228.278626 
L 506.303749 20.003721 
" clip-path="url(#p9e9ef9af05)" style="fill: none; stroke: #b0b0b0; stroke-width: 0.8; stroke-linecap: square"/>
     </g>
     <g id="line2d_12">
      <g>
       <use xlink:href="#mafb4bdacff" x="506.303749" y="228.278626" style="stroke: #000000; stroke-width: 0.8"/>
      </g>
     </g>
     <g id="text_6">
      <!-- $\mathdefault{6}$ -->
      <g transform="translate(502.889505 244.964502)scale(0.14 -0.14)">
       <defs>
        <path id="CMR17-36" d="M 678 2198 
C 678 3712 1395 4076 1811 4076 
C 1946 4076 2272 4049 2400 3782 
C 2298 3782 2106 3782 2106 3558 
C 2106 3385 2246 3328 2336 3328 
C 2394 3328 2566 3353 2566 3571 
C 2566 3987 2246 4224 1805 4224 
C 1043 4224 243 3411 243 2011 
C 243 257 966 -128 1478 -128 
C 2099 -128 2688 431 2688 1295 
C 2688 2101 2170 2688 1517 2688 
C 1126 2688 838 2430 678 1979 
L 678 2198 
z
M 1478 25 
C 691 25 691 1212 691 1450 
C 691 1914 909 2585 1504 2585 
C 1613 2585 1926 2585 2138 2140 
C 2253 1889 2253 1624 2253 1302 
C 2253 954 2253 696 2118 438 
C 1978 173 1773 25 1478 25 
z
" transform="scale(0.015625)"/>
       </defs>
       <use xlink:href="#CMR17-36" transform="scale(0.996264)"/>
      </g>
     </g>
    </g>
    <g id="xtick_7">
     <g id="line2d_13">
      <path d="M 588.489196 228.278626 
L 588.489196 20.003721 
" clip-path="url(#p9e9ef9af05)" style="fill: none; stroke: #b0b0b0; stroke-width: 0.8; stroke-linecap: square"/>
     </g>
     <g id="line2d_14">
      <g>
       <use xlink:href="#mafb4bdacff" x="588.489196" y="228.278626" style="stroke: #000000; stroke-width: 0.8"/>
      </g>
     </g>
     <g id="text_7">
      <!-- $\mathdefault{8}$ -->
      <g transform="translate(585.074952 244.964502)scale(0.14 -0.14)">
       <defs>
        <path id="CMR17-38" d="M 1741 2289 
C 2144 2494 2554 2803 2554 3298 
C 2554 3884 1990 4224 1472 4224 
C 890 4224 378 3800 378 3215 
C 378 3054 416 2777 666 2533 
C 730 2469 998 2276 1171 2154 
C 883 2006 211 1652 211 945 
C 211 282 838 -128 1459 -128 
C 2144 -128 2720 366 2720 1022 
C 2720 1607 2330 1877 2074 2051 
L 1741 2289 
z
M 902 2855 
C 851 2887 595 3086 595 3388 
C 595 3781 998 4076 1459 4076 
C 1965 4076 2336 3716 2336 3298 
C 2336 2700 1670 2359 1638 2359 
C 1632 2359 1626 2359 1574 2398 
L 902 2855 
z
M 2080 1536 
C 2176 1466 2483 1253 2483 861 
C 2483 385 2010 25 1472 25 
C 890 25 448 443 448 951 
C 448 1459 838 1884 1280 2083 
L 2080 1536 
z
" transform="scale(0.015625)"/>
       </defs>
       <use xlink:href="#CMR17-38" transform="scale(0.996264)"/>
      </g>
     </g>
    </g>
    <g id="xtick_8">
     <g id="line2d_15">
      <path d="M 670.674643 228.278626 
L 670.674643 20.003721 
" clip-path="url(#p9e9ef9af05)" style="fill: none; stroke: #b0b0b0; stroke-width: 0.8; stroke-linecap: square"/>
     </g>
     <g id="line2d_16">
      <g>
       <use xlink:href="#mafb4bdacff" x="670.674643" y="228.278626" style="stroke: #000000; stroke-width: 0.8"/>
      </g>
     </g>
     <g id="text_8">
      <!-- $\mathdefault{10}$ -->
      <g transform="translate(663.846155 244.964502)scale(0.14 -0.14)">
       <defs>
        <path id="CMR17-31" d="M 1702 4083 
C 1702 4217 1696 4224 1606 4224 
C 1357 3927 979 3833 621 3820 
C 602 3820 570 3820 563 3808 
C 557 3795 557 3782 557 3648 
C 755 3648 1088 3686 1344 3839 
L 1344 467 
C 1344 243 1331 166 781 166 
L 589 166 
L 589 0 
C 896 6 1216 12 1523 12 
C 1830 12 2150 6 2458 0 
L 2458 166 
L 2266 166 
C 1715 166 1702 236 1702 467 
L 1702 4083 
z
" transform="scale(0.015625)"/>
       </defs>
       <use xlink:href="#CMR17-31" transform="scale(0.996264)"/>
       <use xlink:href="#CMR17-30" transform="translate(45.690477 0)scale(0.996264)"/>
      </g>
     </g>
    </g>
    <g id="text_9">
     <!-- Transformed features X'  -->
     <g transform="translate(281.282148 262.054255)scale(0.15 -0.15)">
      <defs>
       <path id="CMR17-54" d="M 3981 4332 
L 288 4332 
L 179 2924 
L 294 2924 
C 378 3981 467 4166 1453 4166 
C 1568 4166 1754 4166 1805 4159 
C 1926 4140 1926 4064 1926 3917 
L 1926 465 
C 1926 236 1907 166 1376 166 
L 1197 166 
L 1197 0 
C 1504 6 1824 12 2138 12 
C 2451 12 2771 6 3078 0 
L 3078 166 
L 2899 166 
C 2368 166 2349 236 2349 465 
L 2349 3917 
C 2349 4057 2349 4134 2464 4159 
C 2515 4166 2701 4166 2816 4166 
C 3795 4166 3891 3981 3974 2924 
L 4090 2924 
L 3981 4332 
z
" transform="scale(0.015625)"/>
       <path id="CMR17-72" d="M 960 1517 
C 960 2134 1222 2713 1702 2713 
C 1747 2713 1792 2707 1837 2687 
C 1837 2687 1696 2642 1696 2475 
C 1696 2321 1818 2257 1914 2257 
C 1990 2257 2131 2302 2131 2482 
C 2131 2687 1926 2816 1709 2816 
C 1222 2816 1011 2340 947 2115 
L 941 2115 
L 941 2816 
L 198 2745 
L 198 2578 
C 576 2578 634 2540 634 2231 
L 634 443 
C 634 198 608 166 198 166 
L 198 0 
C 352 12 646 12 813 12 
C 998 12 1325 12 1498 0 
L 1498 166 
C 1037 166 960 166 960 455 
L 960 1517 
z
" transform="scale(0.015625)"/>
       <path id="CMR17-61" d="M 2304 1656 
C 2304 2048 2304 2275 2035 2534 
C 1798 2751 1523 2816 1306 2816 
C 800 2816 435 2408 435 1977 
C 435 1740 627 1728 666 1728 
C 749 1728 896 1779 896 1958 
C 896 2118 774 2188 666 2188 
C 640 2188 608 2182 589 2176 
C 723 2594 1069 2713 1293 2713 
C 1613 2713 1965 2421 1965 1875 
L 1965 1632 
C 1587 1619 1133 1568 774 1373 
C 371 1147 256 822 256 576 
C 256 77 832 -64 1171 -64 
C 1523 -64 1850 135 1990 505 
C 2003 219 2182 -39 2464 -39 
C 2598 -39 2938 51 2938 563 
L 2938 926 
L 2822 926 
L 2822 557 
C 2822 161 2650 109 2566 109 
C 2304 109 2304 446 2304 732 
L 2304 1656 
z
M 1965 887 
C 1965 323 1568 38 1216 38 
C 896 38 646 278 646 576 
C 646 771 730 1114 1101 1322 
C 1408 1497 1760 1523 1965 1536 
L 1965 887 
z
" transform="scale(0.015625)"/>
       <path id="CMR17-6e" d="M 2656 1954 
C 2656 2282 2592 2816 1837 2816 
C 1331 2816 1069 2424 973 2166 
L 966 2166 
L 966 2816 
L 211 2745 
L 211 2578 
C 589 2578 646 2540 646 2231 
L 646 443 
C 646 198 621 166 211 166 
L 211 0 
C 365 12 646 12 813 12 
C 979 12 1267 12 1421 0 
L 1421 166 
C 1011 166 986 192 986 443 
L 986 1678 
C 986 2269 1344 2713 1792 2713 
C 2266 2713 2317 2289 2317 1980 
L 2317 443 
C 2317 198 2291 166 1882 166 
L 1882 0 
C 2035 12 2317 12 2483 12 
C 2650 12 2938 12 3091 0 
L 3091 166 
C 2682 166 2656 192 2656 443 
L 2656 1954 
z
" transform="scale(0.015625)"/>
       <path id="CMR17-73" d="M 1978 2688 
C 1978 2803 1971 2809 1933 2809 
C 1907 2809 1901 2803 1824 2707 
C 1805 2681 1747 2617 1728 2592 
C 1523 2809 1235 2816 1126 2816 
C 416 2816 160 2444 160 2073 
C 160 1497 813 1363 998 1324 
C 1402 1241 1542 1216 1677 1100 
C 1760 1024 1901 883 1901 652 
C 1901 384 1747 38 1158 38 
C 602 38 403 460 288 1024 
C 269 1113 269 1120 218 1120 
C 166 1120 160 1113 160 985 
L 160 64 
C 160 -52 166 -58 205 -58 
C 237 -58 243 -52 275 0 
C 314 57 410 211 448 275 
C 576 102 800 -64 1158 -64 
C 1792 -64 2131 281 2131 780 
C 2131 1107 1958 1280 1875 1356 
C 1683 1555 1459 1600 1190 1651 
C 838 1728 390 1817 390 2208 
C 390 2374 480 2726 1126 2726 
C 1811 2726 1850 2086 1862 1881 
C 1869 1849 1901 1843 1920 1843 
C 1978 1843 1978 1862 1978 1971 
L 1978 2688 
z
" transform="scale(0.015625)"/>
       <path id="CMR17-66" d="M 979 2585 
L 1709 2585 
L 1709 2752 
L 966 2752 
L 966 3539 
C 966 4076 1235 4377 1510 4377 
C 1594 4377 1690 4363 1754 4339 
C 1702 4326 1568 4281 1568 4121 
C 1568 3955 1696 3904 1786 3904 
C 1875 3904 2003 3955 2003 4121 
C 2003 4353 1773 4480 1517 4480 
C 1152 4480 653 4211 653 3526 
L 653 2752 
L 141 2752 
L 141 2585 
L 653 2585 
L 653 441 
C 653 198 627 166 218 166 
L 218 0 
C 371 12 666 12 832 12 
C 1018 12 1344 12 1517 0 
L 1517 166 
C 1056 166 979 166 979 454 
L 979 2585 
z
" transform="scale(0.015625)"/>
       <path id="CMR17-6f" d="M 2758 1356 
C 2758 2176 2163 2816 1466 2816 
C 768 2816 173 2176 173 1356 
C 173 550 768 -64 1466 -64 
C 2163 -64 2758 550 2758 1356 
z
M 1466 51 
C 1165 51 909 230 762 480 
C 602 768 582 1126 582 1408 
C 582 1676 595 2009 762 2297 
C 890 2508 1139 2713 1466 2713 
C 1754 2713 1997 2553 2150 2329 
C 2349 2028 2349 1606 2349 1408 
C 2349 1158 2336 774 2163 467 
C 1984 172 1709 51 1466 51 
z
" transform="scale(0.015625)"/>
       <path id="CMR17-6d" d="M 4326 1954 
C 4326 2276 4269 2816 3507 2816 
C 3072 2816 2771 2520 2656 2173 
L 2650 2173 
C 2573 2700 2195 2816 1837 2816 
C 1331 2816 1069 2424 973 2166 
L 966 2166 
L 966 2816 
L 211 2745 
L 211 2578 
C 589 2578 646 2540 646 2231 
L 646 443 
C 646 198 621 166 211 166 
L 211 0 
C 365 12 646 12 813 12 
C 979 12 1267 12 1421 0 
L 1421 166 
C 1011 166 986 192 986 443 
L 986 1678 
C 986 2269 1344 2713 1792 2713 
C 2266 2713 2317 2289 2317 1980 
L 2317 443 
C 2317 198 2291 166 1882 166 
L 1882 0 
C 2035 12 2317 12 2483 12 
C 2650 12 2938 12 3091 0 
L 3091 166 
C 2682 166 2656 192 2656 443 
L 2656 1678 
C 2656 2269 3014 2713 3462 2713 
C 3936 2713 3987 2289 3987 1980 
L 3987 443 
C 3987 198 3962 166 3552 166 
L 3552 0 
C 3706 12 3987 12 4154 12 
C 4320 12 4608 12 4762 0 
L 4762 166 
C 4352 166 4326 192 4326 443 
L 4326 1954 
z
" transform="scale(0.015625)"/>
       <path id="CMR17-65" d="M 2438 1503 
C 2464 1529 2464 1542 2464 1606 
C 2464 2251 2118 2816 1389 2816 
C 710 2816 173 2175 173 1394 
C 173 554 781 -64 1459 -64 
C 2176 -64 2458 619 2458 755 
C 2458 800 2419 800 2406 800 
C 2362 800 2355 787 2330 709 
C 2189 270 1837 51 1504 51 
C 1229 51 954 206 781 490 
C 582 819 582 1200 582 1503 
L 2438 1503 
z
M 589 1600 
C 634 2511 1126 2713 1382 2713 
C 1818 2713 2112 2308 2118 1600 
L 589 1600 
z
" transform="scale(0.015625)"/>
       <path id="CMR17-64" d="M 1869 4345 
L 1869 4179 
C 2246 4179 2304 4141 2304 3843 
L 2304 2371 
C 2278 2403 2016 2816 1498 2816 
C 845 2816 211 2228 211 1376 
C 211 529 806 -64 1434 -64 
C 1978 -64 2259 361 2291 406 
L 2291 -64 
L 3066 -13 
L 3066 154 
C 2688 154 2630 193 2630 503 
L 2630 4416 
L 1869 4345 
z
M 2291 762 
C 2291 568 2176 393 2029 264 
C 1811 70 1594 38 1472 38 
C 1286 38 621 135 621 1369 
C 621 2636 1363 2713 1530 2713 
C 1824 2713 2061 2545 2208 2313 
C 2291 2177 2291 2157 2291 2041 
L 2291 762 
z
" transform="scale(0.015625)"/>
       <path id="CMR17-74" d="M 966 2585 
L 1862 2585 
L 1862 2752 
L 966 2752 
L 966 3968 
L 851 3968 
C 838 3292 614 2700 70 2687 
L 70 2585 
L 627 2585 
L 627 778 
C 627 655 627 -64 1370 -64 
C 1747 -64 1965 308 1965 784 
L 1965 1151 
L 1850 1151 
L 1850 790 
C 1850 347 1677 51 1408 51 
C 1222 51 966 179 966 765 
L 966 2585 
z
" transform="scale(0.015625)"/>
       <path id="CMR17-75" d="M 1882 2745 
L 1882 2579 
C 2259 2579 2317 2540 2317 2229 
L 2317 1053 
C 2317 510 2029 38 1555 38 
C 1030 38 986 355 986 691 
L 986 2816 
L 211 2745 
L 211 2579 
C 467 2579 640 2579 646 2320 
L 646 1079 
C 646 646 646 368 813 187 
C 896 103 1056 -64 1517 -64 
C 2061 -64 2272 400 2323 536 
L 2330 536 
L 2330 -64 
L 3091 -13 
L 3091 154 
C 2714 154 2656 193 2656 503 
L 2656 2816 
L 1882 2745 
z
" transform="scale(0.015625)"/>
       <path id="CMR17-58" d="M 2336 2414 
L 3283 3771 
C 3379 3905 3571 4178 4096 4185 
L 4096 4352 
C 3949 4339 3706 4339 3552 4339 
C 3341 4339 3078 4339 2918 4352 
L 2918 4185 
C 3123 4166 3174 4038 3174 3936 
C 3174 3860 3142 3809 3098 3745 
L 2253 2529 
L 1306 3905 
C 1261 3975 1254 3994 1254 4013 
C 1254 4070 1325 4178 1536 4185 
L 1536 4352 
C 1331 4339 1018 4339 806 4339 
C 640 4339 320 4339 166 4352 
L 166 4185 
C 518 4185 634 4172 774 3975 
L 2010 2179 
L 896 567 
C 621 172 205 166 83 166 
L 83 0 
C 230 12 474 12 627 12 
C 800 12 1101 12 1261 0 
L 1261 166 
C 1062 185 1005 312 1005 414 
C 1005 497 1037 542 1069 586 
L 2093 2064 
L 3206 446 
C 3258 376 3258 357 3258 338 
C 3258 287 3200 179 2976 166 
L 2976 0 
C 3181 12 3494 12 3706 12 
C 3872 12 4192 12 4346 0 
L 4346 166 
C 3936 166 3872 198 3744 376 
L 2336 2414 
z
" transform="scale(0.015625)"/>
       <path id="CMR17-27" d="M 1024 4012 
C 1037 3942 1043 3916 1043 3810 
C 1043 3418 883 3058 634 2803 
C 608 2777 595 2758 595 2732 
C 595 2707 621 2681 646 2681 
C 691 2681 1146 3120 1146 3804 
C 1146 3942 1133 4416 800 4416 
C 659 4416 538 4319 538 4153 
C 538 3987 659 3891 800 3891 
C 858 3891 966 3910 1024 4012 
z
" transform="scale(0.015625)"/>
      </defs>
      <use xlink:href="#CMR17-54" transform="scale(0.996264)"/>
      <use xlink:href="#CMR17-72" transform="translate(58.702625 0)scale(0.996264)"/>
      <use xlink:href="#CMR17-61" transform="translate(93.983393 0)scale(0.996264)"/>
      <use xlink:href="#CMR17-6e" transform="translate(139.67387 0)scale(0.996264)"/>
      <use xlink:href="#CMR17-73" transform="translate(190.56924 0)scale(0.996264)"/>
      <use xlink:href="#CMR17-66" transform="translate(226.370577 0)scale(0.996264)"/>
      <use xlink:href="#CMR17-6f" transform="translate(253.84409 0)scale(0.996264)"/>
      <use xlink:href="#CMR17-72" transform="translate(299.534567 0)scale(0.996264)"/>
      <use xlink:href="#CMR17-6d" transform="translate(334.815335 0)scale(0.996264)"/>
      <use xlink:href="#CMR17-65" transform="translate(411.734925 0)scale(0.996264)"/>
      <use xlink:href="#CMR17-64" transform="translate(452.220585 0)scale(0.996264)"/>
      <use xlink:href="#CMR17-66" transform="translate(533.191921 0)scale(0.996264)"/>
      <use xlink:href="#CMR17-65" transform="translate(560.665434 0)scale(0.996264)"/>
      <use xlink:href="#CMR17-61" transform="translate(601.151094 0)scale(0.996264)"/>
      <use xlink:href="#CMR17-74" transform="translate(646.841571 0)scale(0.996264)"/>
      <use xlink:href="#CMR17-75" transform="translate(682.122339 0)scale(0.996264)"/>
      <use xlink:href="#CMR17-72" transform="translate(733.017709 0)scale(0.996264)"/>
      <use xlink:href="#CMR17-65" transform="translate(768.298477 0)scale(0.996264)"/>
      <use xlink:href="#CMR17-73" transform="translate(808.784137 0)scale(0.996264)"/>
      <use xlink:href="#CMR17-58" transform="translate(874.661441 0)scale(0.996264)"/>
      <use xlink:href="#CMR17-27" transform="translate(943.733871 0)scale(0.996264)"/>
     </g>
    </g>
   </g>
   <g id="matplotlib.axis_2">
    <g id="ytick_1">
     <g id="line2d_17">
      <path d="M 21.028489 228.278626 
L 696.96 228.278626 
" clip-path="url(#p9e9ef9af05)" style="fill: none; stroke: #b0b0b0; stroke-width: 0.8; stroke-linecap: square"/>
     </g>
     <g id="line2d_18">
      <defs>
       <path id="m711ec85e01" d="M 0 0 
L -3.5 0 
" style="stroke: #000000; stroke-width: 0.8"/>
      </defs>
      <g>
       <use xlink:href="#m711ec85e01" x="21.028489" y="228.278626" style="stroke: #000000; stroke-width: 0.8"/>
      </g>
     </g>
     <g id="text_10">
      <!-- $\mathdefault{0}$ -->
      <g transform="translate(7.2 233.121564)scale(0.14 -0.14)">
       <use xlink:href="#CMR17-30" transform="scale(0.996264)"/>
      </g>
     </g>
    </g>
    <g id="ytick_2">
     <g id="line2d_19">
      <path d="M 21.028489 182.063355 
L 696.96 182.063355 
" clip-path="url(#p9e9ef9af05)" style="fill: none; stroke: #b0b0b0; stroke-width: 0.8; stroke-linecap: square"/>
     </g>
     <g id="line2d_20">
      <g>
       <use xlink:href="#m711ec85e01" x="21.028489" y="182.063355" style="stroke: #000000; stroke-width: 0.8"/>
      </g>
     </g>
     <g id="text_11">
      <!-- $\mathdefault{1}$ -->
      <g transform="translate(7.2 186.906293)scale(0.14 -0.14)">
       <use xlink:href="#CMR17-31" transform="scale(0.996264)"/>
      </g>
     </g>
    </g>
    <g id="ytick_3">
     <g id="line2d_21">
      <path d="M 21.028489 135.848084 
L 696.96 135.848084 
" clip-path="url(#p9e9ef9af05)" style="fill: none; stroke: #b0b0b0; stroke-width: 0.8; stroke-linecap: square"/>
     </g>
     <g id="line2d_22">
      <g>
       <use xlink:href="#m711ec85e01" x="21.028489" y="135.848084" style="stroke: #000000; stroke-width: 0.8"/>
      </g>
     </g>
     <g id="text_12">
      <!-- $\mathdefault{2}$ -->
      <g transform="translate(7.2 140.691022)scale(0.14 -0.14)">
       <use xlink:href="#CMR17-32" transform="scale(0.996264)"/>
      </g>
     </g>
    </g>
    <g id="ytick_4">
     <g id="line2d_23">
      <path d="M 21.028489 89.632813 
L 696.96 89.632813 
" clip-path="url(#p9e9ef9af05)" style="fill: none; stroke: #b0b0b0; stroke-width: 0.8; stroke-linecap: square"/>
     </g>
     <g id="line2d_24">
      <g>
       <use xlink:href="#m711ec85e01" x="21.028489" y="89.632813" style="stroke: #000000; stroke-width: 0.8"/>
      </g>
     </g>
     <g id="text_13">
      <!-- $\mathdefault{3}$ -->
      <g transform="translate(7.2 94.475751)scale(0.14 -0.14)">
       <defs>
        <path id="CMR17-33" d="M 1414 2176 
C 1984 2176 2234 1673 2234 1094 
C 2234 322 1824 25 1453 25 
C 1114 25 563 193 390 691 
C 422 678 454 678 486 678 
C 640 678 755 780 755 947 
C 755 1132 614 1216 486 1216 
C 378 1216 211 1164 211 927 
C 211 335 787 -128 1466 -128 
C 2176 -128 2720 432 2720 1087 
C 2720 1718 2208 2176 1600 2246 
C 2086 2347 2554 2776 2554 3353 
C 2554 3856 2048 4224 1472 4224 
C 890 4224 378 3862 378 3347 
C 378 3123 544 3084 627 3084 
C 762 3084 877 3167 877 3334 
C 877 3500 762 3584 627 3584 
C 602 3584 570 3584 544 3571 
C 730 3999 1235 4076 1459 4076 
C 1683 4076 2106 3966 2106 3347 
C 2106 3167 2080 2851 1862 2574 
C 1670 2329 1453 2316 1242 2297 
C 1210 2297 1062 2284 1037 2284 
C 992 2278 966 2272 966 2227 
C 966 2182 973 2176 1101 2176 
L 1414 2176 
z
" transform="scale(0.015625)"/>
       </defs>
       <use xlink:href="#CMR17-33" transform="scale(0.996264)"/>
      </g>
     </g>
    </g>
    <g id="ytick_5">
     <g id="line2d_25">
      <path d="M 21.028489 43.417542 
L 696.96 43.417542 
" clip-path="url(#p9e9ef9af05)" style="fill: none; stroke: #b0b0b0; stroke-width: 0.8; stroke-linecap: square"/>
     </g>
     <g id="line2d_26">
      <g>
       <use xlink:href="#m711ec85e01" x="21.028489" y="43.417542" style="stroke: #000000; stroke-width: 0.8"/>
      </g>
     </g>
     <g id="text_14">
      <!-- $\mathdefault{4}$ -->
      <g transform="translate(7.2 48.26048)scale(0.14 -0.14)">
       <use xlink:href="#CMR17-34" transform="scale(0.996264)"/>
      </g>
     </g>
    </g>
    <g id="text_15">
     <!-- $\times\mathdefault{10^{6}}\mathdefault{}$ -->
     <g transform="translate(21.028489 17.003721)scale(0.14 -0.14)">
      <defs>
       <path id="CMSY10-2" d="M 2490 1775 
L 1210 3046 
C 1133 3123 1120 3136 1069 3136 
C 1005 3136 941 3078 941 3008 
C 941 2963 954 2950 1024 2880 
L 2304 1596 
L 1024 313 
C 954 243 941 230 941 185 
C 941 115 1005 57 1069 57 
C 1120 57 1133 70 1210 147 
L 2483 1418 
L 3808 95 
C 3821 89 3866 57 3904 57 
C 3981 57 4032 115 4032 185 
C 4032 198 4032 223 4013 255 
C 4006 268 2989 1271 2669 1596 
L 3840 2765 
C 3872 2803 3968 2886 4000 2925 
C 4006 2937 4032 2963 4032 3008 
C 4032 3078 3981 3136 3904 3136 
C 3853 3136 3827 3110 3757 3040 
L 2490 1775 
z
" transform="scale(0.015625)"/>
      </defs>
      <use xlink:href="#CMSY10-2" transform="scale(0.996264)"/>
      <use xlink:href="#CMR17-31" transform="translate(77.487468 0)scale(0.996264)"/>
      <use xlink:href="#CMR17-30" transform="translate(123.177945 0)scale(0.996264)"/>
      <use xlink:href="#CMR17-36" transform="translate(168.868422 36.153639)scale(0.697382)"/>
     </g>
    </g>
   </g>
   <g id="patch_53">
    <path d="M 21.028489 228.278626 
L 21.028489 20.003721 
" style="fill: none; stroke: #000000; stroke-width: 0.8; stroke-linejoin: miter; stroke-linecap: square"/>
   </g>
   <g id="patch_54">
    <path d="M 696.96 228.278626 
L 696.96 20.003721 
" style="fill: none; stroke: #000000; stroke-width: 0.8; stroke-linejoin: miter; stroke-linecap: square"/>
   </g>
   <g id="patch_55">
    <path d="M 21.028489 228.278626 
L 696.96 228.278626 
" style="fill: none; stroke: #000000; stroke-width: 0.8; stroke-linejoin: miter; stroke-linecap: square"/>
   </g>
   <g id="patch_56">
    <path d="M 21.028489 20.003721 
L 696.96 20.003721 
" style="fill: none; stroke: #000000; stroke-width: 0.8; stroke-linejoin: miter; stroke-linecap: square"/>
   </g>
   <g id="legend_1">
    <g id="patch_57">
     <path d="M 581.962393 136.532444 
L 686.46 136.532444 
Q 689.46 136.532444 689.46 133.532444 
L 689.46 30.503721 
Q 689.46 27.503721 686.46 27.503721 
L 581.962393 27.503721 
Q 578.962393 27.503721 578.962393 30.503721 
L 578.962393 133.532444 
Q 578.962393 136.532444 581.962393 136.532444 
z
" style="fill: #ffffff; opacity: 0.8; stroke: #cccccc; stroke-linejoin: miter"/>
    </g>
    <g id="patch_58">
     <path d="M 584.962393 44.003721 
L 614.962393 44.003721 
L 614.962393 33.503721 
L 584.962393 33.503721 
z
" style="fill: #4c72b0; opacity: 0.35"/>
    </g>
    <g id="text_16">
     <!-- feature 0 -->
     <g transform="translate(626.962393 44.003721)scale(0.15 -0.15)">
      <use xlink:href="#CMR17-66" transform="scale(0.996264)"/>
      <use xlink:href="#CMR17-65" transform="translate(27.473512 0)scale(0.996264)"/>
      <use xlink:href="#CMR17-61" transform="translate(67.959173 0)scale(0.996264)"/>
      <use xlink:href="#CMR17-74" transform="translate(113.64965 0)scale(0.996264)"/>
      <use xlink:href="#CMR17-75" transform="translate(148.930418 0)scale(0.996264)"/>
      <use xlink:href="#CMR17-72" transform="translate(199.825788 0)scale(0.996264)"/>
      <use xlink:href="#CMR17-65" transform="translate(235.106555 0)scale(0.996264)"/>
      <use xlink:href="#CMR17-30" transform="translate(305.668182 0)scale(0.996264)"/>
     </g>
    </g>
    <g id="patch_59">
     <path d="M 584.962393 64.909465 
L 614.962393 64.909465 
L 614.962393 54.409465 
L 584.962393 54.409465 
z
" style="fill: #55a868; opacity: 0.35"/>
    </g>
    <g id="text_17">
     <!-- feature 1 -->
     <g transform="translate(626.962393 64.909465)scale(0.15 -0.15)">
      <use xlink:href="#CMR17-66" transform="scale(0.996264)"/>
      <use xlink:href="#CMR17-65" transform="translate(27.473512 0)scale(0.996264)"/>
      <use xlink:href="#CMR17-61" transform="translate(67.959173 0)scale(0.996264)"/>
      <use xlink:href="#CMR17-74" transform="translate(113.64965 0)scale(0.996264)"/>
      <use xlink:href="#CMR17-75" transform="translate(148.930418 0)scale(0.996264)"/>
      <use xlink:href="#CMR17-72" transform="translate(199.825788 0)scale(0.996264)"/>
      <use xlink:href="#CMR17-65" transform="translate(235.106555 0)scale(0.996264)"/>
      <use xlink:href="#CMR17-31" transform="translate(305.668182 0)scale(0.996264)"/>
     </g>
    </g>
    <g id="patch_60">
     <path d="M 584.962393 85.81521 
L 614.962393 85.81521 
L 614.962393 75.31521 
L 584.962393 75.31521 
z
" style="fill: #c44e52; opacity: 0.35"/>
    </g>
    <g id="text_18">
     <!-- feature 2 -->
     <g transform="translate(626.962393 85.81521)scale(0.15 -0.15)">
      <use xlink:href="#CMR17-66" transform="scale(0.996264)"/>
      <use xlink:href="#CMR17-65" transform="translate(27.473512 0)scale(0.996264)"/>
      <use xlink:href="#CMR17-61" transform="translate(67.959173 0)scale(0.996264)"/>
      <use xlink:href="#CMR17-74" transform="translate(113.64965 0)scale(0.996264)"/>
      <use xlink:href="#CMR17-75" transform="translate(148.930418 0)scale(0.996264)"/>
      <use xlink:href="#CMR17-72" transform="translate(199.825788 0)scale(0.996264)"/>
      <use xlink:href="#CMR17-65" transform="translate(235.106555 0)scale(0.996264)"/>
      <use xlink:href="#CMR17-32" transform="translate(305.668182 0)scale(0.996264)"/>
     </g>
    </g>
    <g id="patch_61">
     <path d="M 584.962393 106.720955 
L 614.962393 106.720955 
L 614.962393 96.220955 
L 584.962393 96.220955 
z
" style="fill: #8172b2; opacity: 0.35"/>
    </g>
    <g id="text_19">
     <!-- feature 3 -->
     <g transform="translate(626.962393 106.720955)scale(0.15 -0.15)">
      <use xlink:href="#CMR17-66" transform="scale(0.996264)"/>
      <use xlink:href="#CMR17-65" transform="translate(27.473512 0)scale(0.996264)"/>
      <use xlink:href="#CMR17-61" transform="translate(67.959173 0)scale(0.996264)"/>
      <use xlink:href="#CMR17-74" transform="translate(113.64965 0)scale(0.996264)"/>
      <use xlink:href="#CMR17-75" transform="translate(148.930418 0)scale(0.996264)"/>
      <use xlink:href="#CMR17-72" transform="translate(199.825788 0)scale(0.996264)"/>
      <use xlink:href="#CMR17-65" transform="translate(235.106555 0)scale(0.996264)"/>
      <use xlink:href="#CMR17-33" transform="translate(305.668182 0)scale(0.996264)"/>
     </g>
    </g>
    <g id="patch_62">
     <path d="M 584.962393 127.626699 
L 614.962393 127.626699 
L 614.962393 117.126699 
L 584.962393 117.126699 
z
" style="fill: #ccb974; opacity: 0.35"/>
    </g>
    <g id="text_20">
     <!-- feature 4 -->
     <g transform="translate(626.962393 127.626699)scale(0.15 -0.15)">
      <use xlink:href="#CMR17-66" transform="scale(0.996264)"/>
      <use xlink:href="#CMR17-65" transform="translate(27.473512 0)scale(0.996264)"/>
      <use xlink:href="#CMR17-61" transform="translate(67.959173 0)scale(0.996264)"/>
      <use xlink:href="#CMR17-74" transform="translate(113.64965 0)scale(0.996264)"/>
      <use xlink:href="#CMR17-75" transform="translate(148.930418 0)scale(0.996264)"/>
      <use xlink:href="#CMR17-72" transform="translate(199.825788 0)scale(0.996264)"/>
      <use xlink:href="#CMR17-65" transform="translate(235.106555 0)scale(0.996264)"/>
      <use xlink:href="#CMR17-34" transform="translate(305.668182 0)scale(0.996264)"/>
     </g>
    </g>
   </g>
  </g>
 </g>
 <defs>
  <clipPath id="p9e9ef9af05">
   <rect x="21.028489" y="20.003721" width="675.931511" height="208.274905"/>
  </clipPath>
 </defs>
</svg>
