<?xml version="1.0" encoding="utf-8" standalone="no"?>
<!DOCTYPE svg PUBLIC "-//W3C//DTD SVG 1.1//EN"
  "http://www.w3.org/Graphics/SVG/1.1/DTD/svg11.dtd">
<svg xmlns:xlink="http://www.w3.org/1999/xlink" width="412.662443pt" height="299.909905pt" viewBox="0 0 412.662443 299.909905" xmlns="http://www.w3.org/2000/svg" version="1.1">
 <metadata>
  <rdf:RDF xmlns:dc="http://purl.org/dc/elements/1.1/" xmlns:cc="http://creativecommons.org/ns#" xmlns:rdf="http://www.w3.org/1999/02/22-rdf-syntax-ns#">
   <cc:Work>
    <dc:type rdf:resource="http://purl.org/dc/dcmitype/StillImage"/>
    <dc:date>2022-12-17T12:38:25.856864</dc:date>
    <dc:format>image/svg+xml</dc:format>
    <dc:creator>
     <cc:Agent>
      <dc:title>Matplotlib v3.5.1, https://matplotlib.org/</dc:title>
     </cc:Agent>
    </dc:creator>
   </cc:Work>
  </rdf:RDF>
 </metadata>
 <defs>
  <style type="text/css">*{stroke-linejoin: round; stroke-linecap: butt}</style>
 </defs>
 <g id="figure_1">
  <g id="patch_1">
   <path d="M 0 299.909905 
L 412.662443 299.909905 
L 412.662443 0 
L 0 0 
z
" style="fill: #ffffff"/>
  </g>
  <g id="axes_1">
   <g id="patch_2">
    <path d="M 48.342443 273.312 
L 405.462443 273.312 
L 405.462443 7.2 
L 48.342443 7.2 
z
" style="fill: #ffffff"/>
   </g>
   <g id="patch_3">
    <path d="M 118.024902 273.312 
L 145.145383 273.312 
L 145.145383 273.241667 
L 118.024902 273.241667 
z
" clip-path="url(#p6456cac038)" style="fill: #4c72b0"/>
   </g>
   <g id="patch_4">
    <path d="M 145.145383 273.312 
L 172.265865 273.312 
L 172.265865 273.036528 
L 145.145383 273.036528 
z
" clip-path="url(#p6456cac038)" style="fill: #4c72b0"/>
   </g>
   <g id="patch_5">
    <path d="M 172.265865 273.312 
L 199.386346 273.312 
L 199.386346 271.415933 
L 172.265865 271.415933 
z
" clip-path="url(#p6456cac038)" style="fill: #4c72b0"/>
   </g>
   <g id="patch_6">
    <path d="M 199.386346 273.312 
L 226.506828 273.312 
L 226.506828 263.726164 
L 199.386346 263.726164 
z
" clip-path="url(#p6456cac038)" style="fill: #4c72b0"/>
   </g>
   <g id="patch_7">
    <path d="M 226.506828 273.312 
L 253.627309 273.312 
L 253.627309 212.494254 
L 226.506828 212.494254 
z
" clip-path="url(#p6456cac038)" style="fill: #4c72b0"/>
   </g>
   <g id="patch_8">
    <path d="M 253.627309 273.312 
L 280.74779 273.312 
L 280.74779 83.626159 
L 253.627309 83.626159 
z
" clip-path="url(#p6456cac038)" style="fill: #4c72b0"/>
   </g>
   <g id="patch_9">
    <path d="M 280.74779 273.312 
L 307.868272 273.312 
L 307.868272 244.575007 
L 280.74779 244.575007 
z
" clip-path="url(#p6456cac038)" style="fill: #4c72b0"/>
   </g>
   <g id="patch_10">
    <path d="M 307.868272 273.312 
L 334.988753 273.312 
L 334.988753 271.439377 
L 307.868272 271.439377 
z
" clip-path="url(#p6456cac038)" style="fill: #4c72b0"/>
   </g>
   <g id="patch_11">
    <path d="M 334.988753 273.312 
L 362.109234 273.312 
L 362.109234 273.212361 
L 334.988753 273.212361 
z
" clip-path="url(#p6456cac038)" style="fill: #4c72b0"/>
   </g>
   <g id="patch_12">
    <path d="M 362.109234 273.312 
L 389.229716 273.312 
L 389.229716 273.297347 
L 362.109234 273.297347 
z
" clip-path="url(#p6456cac038)" style="fill: #4c72b0"/>
   </g>
   <g id="patch_13">
    <path d="M 188.833551 273.312 
L 204.93052 273.312 
L 204.93052 273.291486 
L 188.833551 273.291486 
z
" clip-path="url(#p6456cac038)" style="fill: #55a868"/>
   </g>
   <g id="patch_14">
    <path d="M 204.93052 273.312 
L 221.02749 273.312 
L 221.02749 273.15375 
L 204.93052 273.15375 
z
" clip-path="url(#p6456cac038)" style="fill: #55a868"/>
   </g>
   <g id="patch_15">
    <path d="M 221.02749 273.312 
L 237.124459 273.312 
L 237.124459 272.385946 
L 221.02749 272.385946 
z
" clip-path="url(#p6456cac038)" style="fill: #55a868"/>
   </g>
   <g id="patch_16">
    <path d="M 237.124459 273.312 
L 253.221429 273.312 
L 253.221429 261.730458 
L 237.124459 261.730458 
z
" clip-path="url(#p6456cac038)" style="fill: #55a868"/>
   </g>
   <g id="patch_17">
    <path d="M 253.221429 273.312 
L 269.318398 273.312 
L 269.318398 19.872 
L 253.221429 19.872 
z
" clip-path="url(#p6456cac038)" style="fill: #55a868"/>
   </g>
   <g id="patch_18">
    <path d="M 269.318398 273.312 
L 285.415368 273.312 
L 285.415368 249.023585 
L 269.318398 249.023585 
z
" clip-path="url(#p6456cac038)" style="fill: #55a868"/>
   </g>
   <g id="patch_19">
    <path d="M 285.415368 273.312 
L 301.512337 273.312 
L 301.512337 271.1346 
L 285.415368 271.1346 
z
" clip-path="url(#p6456cac038)" style="fill: #55a868"/>
   </g>
   <g id="patch_20">
    <path d="M 301.512337 273.312 
L 317.609307 273.312 
L 317.609307 272.913445 
L 301.512337 272.913445 
z
" clip-path="url(#p6456cac038)" style="fill: #55a868"/>
   </g>
   <g id="patch_21">
    <path d="M 317.609307 273.312 
L 333.706276 273.312 
L 333.706276 273.262181 
L 317.609307 273.262181 
z
" clip-path="url(#p6456cac038)" style="fill: #55a868"/>
   </g>
   <g id="patch_22">
    <path d="M 333.706276 273.312 
L 349.803246 273.312 
L 349.803246 273.297347 
L 333.706276 273.297347 
z
" clip-path="url(#p6456cac038)" style="fill: #55a868"/>
   </g>
   <g id="patch_23">
    <path d="M 203.06506 273.312 
L 214.941122 273.312 
L 214.941122 273.212361 
L 203.06506 273.212361 
z
" clip-path="url(#p6456cac038)" style="fill: #c44e52"/>
   </g>
   <g id="patch_24">
    <path d="M 214.941122 273.312 
L 226.817183 273.312 
L 226.817183 272.998431 
L 214.941122 272.998431 
z
" clip-path="url(#p6456cac038)" style="fill: #c44e52"/>
   </g>
   <g id="patch_25">
    <path d="M 226.817183 273.312 
L 238.693245 273.312 
L 238.693245 271.896543 
L 226.817183 271.896543 
z
" clip-path="url(#p6456cac038)" style="fill: #c44e52"/>
   </g>
   <g id="patch_26">
    <path d="M 238.693245 273.312 
L 250.569307 273.312 
L 250.569307 265.537245 
L 238.693245 265.537245 
z
" clip-path="url(#p6456cac038)" style="fill: #c44e52"/>
   </g>
   <g id="patch_27">
    <path d="M 250.569307 273.312 
L 262.445369 273.312 
L 262.445369 146.732666 
L 250.569307 146.732666 
z
" clip-path="url(#p6456cac038)" style="fill: #c44e52"/>
   </g>
   <g id="patch_28">
    <path d="M 262.445369 273.312 
L 274.321431 273.312 
L 274.321431 126.910413 
L 262.445369 126.910413 
z
" clip-path="url(#p6456cac038)" style="fill: #c44e52"/>
   </g>
   <g id="patch_29">
    <path d="M 274.321431 273.312 
L 286.197492 273.312 
L 286.197492 264.842705 
L 274.321431 264.842705 
z
" clip-path="url(#p6456cac038)" style="fill: #c44e52"/>
   </g>
   <g id="patch_30">
    <path d="M 286.197492 273.312 
L 298.073554 273.312 
L 298.073554 271.785182 
L 286.197492 271.785182 
z
" clip-path="url(#p6456cac038)" style="fill: #c44e52"/>
   </g>
   <g id="patch_31">
    <path d="M 298.073554 273.312 
L 309.949616 273.312 
L 309.949616 272.895862 
L 298.073554 272.895862 
z
" clip-path="url(#p6456cac038)" style="fill: #c44e52"/>
   </g>
   <g id="patch_32">
    <path d="M 309.949616 273.312 
L 321.825678 273.312 
L 321.825678 273.253389 
L 309.949616 273.253389 
z
" clip-path="url(#p6456cac038)" style="fill: #c44e52"/>
   </g>
   <g id="patch_33">
    <path d="M 64.57517 273.312 
L 95.481689 273.312 
L 95.481689 273.25632 
L 64.57517 273.25632 
z
" clip-path="url(#p6456cac038)" style="fill: #8172b2"/>
   </g>
   <g id="patch_34">
    <path d="M 95.481689 273.312 
L 126.388208 273.312 
L 126.388208 272.99257 
L 95.481689 272.99257 
z
" clip-path="url(#p6456cac038)" style="fill: #8172b2"/>
   </g>
   <g id="patch_35">
    <path d="M 126.388208 273.312 
L 157.294727 273.312 
L 157.294727 271.943432 
L 126.388208 271.943432 
z
" clip-path="url(#p6456cac038)" style="fill: #8172b2"/>
   </g>
   <g id="patch_36">
    <path d="M 157.294727 273.312 
L 188.201246 273.312 
L 188.201246 265.754106 
L 157.294727 265.754106 
z
" clip-path="url(#p6456cac038)" style="fill: #8172b2"/>
   </g>
   <g id="patch_37">
    <path d="M 188.201246 273.312 
L 219.107765 273.312 
L 219.107765 235.689573 
L 188.201246 235.689573 
z
" clip-path="url(#p6456cac038)" style="fill: #8172b2"/>
   </g>
   <g id="patch_38">
    <path d="M 219.107765 273.312 
L 250.014284 273.312 
L 250.014284 160.717261 
L 219.107765 160.717261 
z
" clip-path="url(#p6456cac038)" style="fill: #8172b2"/>
   </g>
   <g id="patch_39">
    <path d="M 250.014284 273.312 
L 280.920803 273.312 
L 280.920803 154.231949 
L 250.014284 154.231949 
z
" clip-path="url(#p6456cac038)" style="fill: #8172b2"/>
   </g>
   <g id="patch_40">
    <path d="M 280.920803 273.312 
L 311.827322 273.312 
L 311.827322 259.790433 
L 280.920803 259.790433 
z
" clip-path="url(#p6456cac038)" style="fill: #8172b2"/>
   </g>
   <g id="patch_41">
    <path d="M 311.827322 273.312 
L 342.733841 273.312 
L 342.733841 272.456279 
L 311.827322 272.456279 
z
" clip-path="url(#p6456cac038)" style="fill: #8172b2"/>
   </g>
   <g id="patch_42">
    <path d="M 342.733841 273.312 
L 373.640359 273.312 
L 373.640359 273.232875 
L 342.733841 273.232875 
z
" clip-path="url(#p6456cac038)" style="fill: #8172b2"/>
   </g>
   <g id="matplotlib.axis_1">
    <g id="xtick_1">
     <g id="line2d_1">
      <defs>
       <path id="mf01f31354d" d="M 0 0 
L 0 3.5 
" style="stroke: #000000; stroke-width: 0.8"/>
      </defs>
      <g>
       <use xlink:href="#mf01f31354d" x="75.780225" y="273.312" style="stroke: #000000; stroke-width: 0.8"/>
      </g>
     </g>
     <g id="text_1">
      <!-- $\mathdefault{0.85}$ -->
      <g transform="translate(63.64069 289.997876)scale(0.14 -0.14)">
       <defs>
        <path id="CMR17-30" d="M 2688 2038 
C 2688 2430 2682 3099 2413 3613 
C 2176 4063 1798 4224 1466 4224 
C 1158 4224 768 4082 525 3620 
C 269 3137 243 2539 243 2038 
C 243 1671 250 1112 448 623 
C 723 -39 1216 -128 1466 -128 
C 1760 -128 2208 -7 2470 604 
C 2662 1048 2688 1568 2688 2038 
z
M 1466 -26 
C 1056 -26 813 328 723 816 
C 653 1196 653 1749 653 2109 
C 653 2604 653 3015 736 3407 
C 858 3954 1216 4121 1466 4121 
C 1728 4121 2067 3947 2189 3420 
C 2272 3054 2278 2623 2278 2109 
C 2278 1691 2278 1176 2202 797 
C 2067 96 1690 -26 1466 -26 
z
" transform="scale(0.015625)"/>
        <path id="CMMI12-3a" d="M 1178 307 
C 1178 492 1024 620 870 620 
C 685 620 557 467 557 313 
C 557 128 710 0 864 0 
C 1050 0 1178 153 1178 307 
z
" transform="scale(0.015625)"/>
        <path id="CMR17-38" d="M 1741 2289 
C 2144 2494 2554 2803 2554 3298 
C 2554 3884 1990 4224 1472 4224 
C 890 4224 378 3800 378 3215 
C 378 3054 416 2777 666 2533 
C 730 2469 998 2276 1171 2154 
C 883 2006 211 1652 211 945 
C 211 282 838 -128 1459 -128 
C 2144 -128 2720 366 2720 1022 
C 2720 1607 2330 1877 2074 2051 
L 1741 2289 
z
M 902 2855 
C 851 2887 595 3086 595 3388 
C 595 3781 998 4076 1459 4076 
C 1965 4076 2336 3716 2336 3298 
C 2336 2700 1670 2359 1638 2359 
C 1632 2359 1626 2359 1574 2398 
L 902 2855 
z
M 2080 1536 
C 2176 1466 2483 1253 2483 861 
C 2483 385 2010 25 1472 25 
C 890 25 448 443 448 951 
C 448 1459 838 1884 1280 2083 
L 2080 1536 
z
" transform="scale(0.015625)"/>
        <path id="CMR17-35" d="M 730 3750 
C 794 3724 1056 3641 1325 3641 
C 1920 3641 2246 3961 2432 4140 
C 2432 4191 2432 4224 2394 4224 
C 2387 4224 2374 4224 2323 4198 
C 2099 4102 1837 4032 1517 4032 
C 1325 4032 1037 4055 723 4191 
C 653 4224 640 4224 634 4224 
C 602 4224 595 4217 595 4090 
L 595 2231 
C 595 2113 595 2080 659 2080 
C 691 2080 704 2093 736 2139 
C 941 2435 1222 2560 1542 2560 
C 1766 2560 2246 2415 2246 1293 
C 2246 1087 2246 716 2054 422 
C 1894 159 1645 25 1370 25 
C 947 25 518 319 403 812 
C 429 806 480 793 506 793 
C 589 793 749 838 749 1036 
C 749 1209 627 1280 506 1280 
C 358 1280 262 1190 262 1011 
C 262 454 704 -128 1382 -128 
C 2042 -128 2669 441 2669 1267 
C 2669 2054 2170 2662 1549 2662 
C 1222 2662 947 2540 730 2304 
L 730 3750 
z
" transform="scale(0.015625)"/>
       </defs>
       <use xlink:href="#CMR17-30" transform="scale(0.996264)"/>
       <use xlink:href="#CMMI12-3a" transform="translate(45.690477 0)scale(0.996264)"/>
       <use xlink:href="#CMR17-38" transform="translate(72.787654 0)scale(0.996264)"/>
       <use xlink:href="#CMR17-35" transform="translate(118.478131 0)scale(0.996264)"/>
      </g>
     </g>
    </g>
    <g id="xtick_2">
     <g id="line2d_2">
      <g>
       <use xlink:href="#mf01f31354d" x="138.088034" y="273.312" style="stroke: #000000; stroke-width: 0.8"/>
      </g>
     </g>
     <g id="text_2">
      <!-- $\mathdefault{0.90}$ -->
      <g transform="translate(125.948499 289.997876)scale(0.14 -0.14)">
       <defs>
        <path id="CMR17-39" d="M 2253 1871 
C 2253 448 1670 25 1190 25 
C 1043 25 685 43 538 281 
C 704 256 826 345 826 505 
C 826 678 685 736 595 736 
C 538 736 365 710 365 492 
C 365 68 742 -128 1203 -128 
C 1939 -128 2688 665 2688 2090 
C 2688 3857 1971 4224 1485 4224 
C 851 4224 243 3664 243 2800 
C 243 2000 762 1408 1414 1408 
C 1952 1408 2189 1910 2253 2122 
L 2253 1871 
z
M 1427 1510 
C 1254 1510 1011 1542 813 1929 
C 678 2181 678 2477 678 2793 
C 678 3174 678 3438 858 3722 
C 947 3857 1114 4076 1485 4076 
C 2240 4076 2240 2909 2240 2651 
C 2240 2193 2035 1510 1427 1510 
z
" transform="scale(0.015625)"/>
       </defs>
       <use xlink:href="#CMR17-30" transform="scale(0.996264)"/>
       <use xlink:href="#CMMI12-3a" transform="translate(45.690477 0)scale(0.996264)"/>
       <use xlink:href="#CMR17-39" transform="translate(72.787654 0)scale(0.996264)"/>
       <use xlink:href="#CMR17-30" transform="translate(118.478131 0)scale(0.996264)"/>
      </g>
     </g>
    </g>
    <g id="xtick_3">
     <g id="line2d_3">
      <g>
       <use xlink:href="#mf01f31354d" x="200.395843" y="273.312" style="stroke: #000000; stroke-width: 0.8"/>
      </g>
     </g>
     <g id="text_3">
      <!-- $\mathdefault{0.95}$ -->
      <g transform="translate(188.256307 289.997876)scale(0.14 -0.14)">
       <use xlink:href="#CMR17-30" transform="scale(0.996264)"/>
       <use xlink:href="#CMMI12-3a" transform="translate(45.690477 0)scale(0.996264)"/>
       <use xlink:href="#CMR17-39" transform="translate(72.787654 0)scale(0.996264)"/>
       <use xlink:href="#CMR17-35" transform="translate(118.478131 0)scale(0.996264)"/>
      </g>
     </g>
    </g>
    <g id="xtick_4">
     <g id="line2d_4">
      <g>
       <use xlink:href="#mf01f31354d" x="262.703651" y="273.312" style="stroke: #000000; stroke-width: 0.8"/>
      </g>
     </g>
     <g id="text_4">
      <!-- $\mathdefault{1.00}$ -->
      <g transform="translate(250.564116 289.997876)scale(0.14 -0.14)">
       <defs>
        <path id="CMR17-31" d="M 1702 4083 
C 1702 4217 1696 4224 1606 4224 
C 1357 3927 979 3833 621 3820 
C 602 3820 570 3820 563 3808 
C 557 3795 557 3782 557 3648 
C 755 3648 1088 3686 1344 3839 
L 1344 467 
C 1344 243 1331 166 781 166 
L 589 166 
L 589 0 
C 896 6 1216 12 1523 12 
C 1830 12 2150 6 2458 0 
L 2458 166 
L 2266 166 
C 1715 166 1702 236 1702 467 
L 1702 4083 
z
" transform="scale(0.015625)"/>
       </defs>
       <use xlink:href="#CMR17-31" transform="scale(0.996264)"/>
       <use xlink:href="#CMMI12-3a" transform="translate(45.690477 0)scale(0.996264)"/>
       <use xlink:href="#CMR17-30" transform="translate(72.787654 0)scale(0.996264)"/>
       <use xlink:href="#CMR17-30" transform="translate(118.478131 0)scale(0.996264)"/>
      </g>
     </g>
    </g>
    <g id="xtick_5">
     <g id="line2d_5">
      <g>
       <use xlink:href="#mf01f31354d" x="325.01146" y="273.312" style="stroke: #000000; stroke-width: 0.8"/>
      </g>
     </g>
     <g id="text_5">
      <!-- $\mathdefault{1.05}$ -->
      <g transform="translate(312.871925 289.997876)scale(0.14 -0.14)">
       <use xlink:href="#CMR17-31" transform="scale(0.996264)"/>
       <use xlink:href="#CMMI12-3a" transform="translate(45.690477 0)scale(0.996264)"/>
       <use xlink:href="#CMR17-30" transform="translate(72.787654 0)scale(0.996264)"/>
       <use xlink:href="#CMR17-35" transform="translate(118.478131 0)scale(0.996264)"/>
      </g>
     </g>
    </g>
    <g id="xtick_6">
     <g id="line2d_6">
      <g>
       <use xlink:href="#mf01f31354d" x="387.319269" y="273.312" style="stroke: #000000; stroke-width: 0.8"/>
      </g>
     </g>
     <g id="text_6">
      <!-- $\mathdefault{1.10}$ -->
      <g transform="translate(375.179733 289.997876)scale(0.14 -0.14)">
       <use xlink:href="#CMR17-31" transform="scale(0.996264)"/>
       <use xlink:href="#CMMI12-3a" transform="translate(45.690477 0)scale(0.996264)"/>
       <use xlink:href="#CMR17-31" transform="translate(72.787654 0)scale(0.996264)"/>
       <use xlink:href="#CMR17-30" transform="translate(118.478131 0)scale(0.996264)"/>
      </g>
     </g>
    </g>
   </g>
   <g id="matplotlib.axis_2">
    <g id="ytick_1">
     <g id="line2d_7">
      <defs>
       <path id="m2a6edec753" d="M 0 0 
L -3.5 0 
" style="stroke: #000000; stroke-width: 0.8"/>
      </defs>
      <g>
       <use xlink:href="#m2a6edec753" x="48.342443" y="273.312" style="stroke: #000000; stroke-width: 0.8"/>
      </g>
     </g>
     <g id="text_7">
      <!-- $\mathdefault{0}$ -->
      <g transform="translate(34.513955 278.154938)scale(0.14 -0.14)">
       <use xlink:href="#CMR17-30" transform="scale(0.996264)"/>
      </g>
     </g>
    </g>
    <g id="ytick_2">
     <g id="line2d_8">
      <g>
       <use xlink:href="#m2a6edec753" x="48.342443" y="214.70096" style="stroke: #000000; stroke-width: 0.8"/>
      </g>
     </g>
     <g id="text_8">
      <!-- $\mathdefault{20000}$ -->
      <g transform="translate(7.2 219.543898)scale(0.14 -0.14)">
       <defs>
        <path id="CMR17-32" d="M 2669 990 
L 2554 990 
C 2490 537 2438 460 2413 422 
C 2381 371 1920 371 1830 371 
L 602 371 
C 832 620 1280 1073 1824 1596 
C 2214 1966 2669 2400 2669 3033 
C 2669 3788 2067 4224 1395 4224 
C 691 4224 262 3603 262 3027 
C 262 2777 448 2745 525 2745 
C 589 2745 781 2783 781 3007 
C 781 3206 614 3264 525 3264 
C 486 3264 448 3257 422 3244 
C 544 3788 915 4057 1306 4057 
C 1862 4057 2227 3616 2227 3033 
C 2227 2477 1901 1998 1536 1583 
L 262 147 
L 262 0 
L 2515 0 
L 2669 990 
z
" transform="scale(0.015625)"/>
       </defs>
       <use xlink:href="#CMR17-32" transform="scale(0.996264)"/>
       <use xlink:href="#CMR17-30" transform="translate(45.690477 0)scale(0.996264)"/>
       <use xlink:href="#CMR17-30" transform="translate(91.380954 0)scale(0.996264)"/>
       <use xlink:href="#CMR17-30" transform="translate(137.071431 0)scale(0.996264)"/>
       <use xlink:href="#CMR17-30" transform="translate(182.761908 0)scale(0.996264)"/>
      </g>
     </g>
    </g>
    <g id="ytick_3">
     <g id="line2d_9">
      <g>
       <use xlink:href="#m2a6edec753" x="48.342443" y="156.089919" style="stroke: #000000; stroke-width: 0.8"/>
      </g>
     </g>
     <g id="text_9">
      <!-- $\mathdefault{40000}$ -->
      <g transform="translate(7.2 160.932857)scale(0.14 -0.14)">
       <defs>
        <path id="CMR17-34" d="M 2150 4147 
C 2150 4281 2144 4288 2029 4288 
L 128 1254 
L 128 1088 
L 1779 1088 
L 1779 460 
C 1779 230 1766 166 1318 166 
L 1197 166 
L 1197 0 
C 1402 12 1747 12 1965 12 
C 2182 12 2528 12 2733 0 
L 2733 166 
L 2611 166 
C 2163 166 2150 230 2150 460 
L 2150 1088 
L 2803 1088 
L 2803 1254 
L 2150 1254 
L 2150 4147 
z
M 1798 3723 
L 1798 1254 
L 256 1254 
L 1798 3723 
z
" transform="scale(0.015625)"/>
       </defs>
       <use xlink:href="#CMR17-34" transform="scale(0.996264)"/>
       <use xlink:href="#CMR17-30" transform="translate(45.690477 0)scale(0.996264)"/>
       <use xlink:href="#CMR17-30" transform="translate(91.380954 0)scale(0.996264)"/>
       <use xlink:href="#CMR17-30" transform="translate(137.071431 0)scale(0.996264)"/>
       <use xlink:href="#CMR17-30" transform="translate(182.761908 0)scale(0.996264)"/>
      </g>
     </g>
    </g>
    <g id="ytick_4">
     <g id="line2d_10">
      <g>
       <use xlink:href="#m2a6edec753" x="48.342443" y="97.478879" style="stroke: #000000; stroke-width: 0.8"/>
      </g>
     </g>
     <g id="text_10">
      <!-- $\mathdefault{60000}$ -->
      <g transform="translate(7.2 102.321817)scale(0.14 -0.14)">
       <defs>
        <path id="CMR17-36" d="M 678 2198 
C 678 3712 1395 4076 1811 4076 
C 1946 4076 2272 4049 2400 3782 
C 2298 3782 2106 3782 2106 3558 
C 2106 3385 2246 3328 2336 3328 
C 2394 3328 2566 3353 2566 3571 
C 2566 3987 2246 4224 1805 4224 
C 1043 4224 243 3411 243 2011 
C 243 257 966 -128 1478 -128 
C 2099 -128 2688 431 2688 1295 
C 2688 2101 2170 2688 1517 2688 
C 1126 2688 838 2430 678 1979 
L 678 2198 
z
M 1478 25 
C 691 25 691 1212 691 1450 
C 691 1914 909 2585 1504 2585 
C 1613 2585 1926 2585 2138 2140 
C 2253 1889 2253 1624 2253 1302 
C 2253 954 2253 696 2118 438 
C 1978 173 1773 25 1478 25 
z
" transform="scale(0.015625)"/>
       </defs>
       <use xlink:href="#CMR17-36" transform="scale(0.996264)"/>
       <use xlink:href="#CMR17-30" transform="translate(45.690477 0)scale(0.996264)"/>
       <use xlink:href="#CMR17-30" transform="translate(91.380954 0)scale(0.996264)"/>
       <use xlink:href="#CMR17-30" transform="translate(137.071431 0)scale(0.996264)"/>
       <use xlink:href="#CMR17-30" transform="translate(182.761908 0)scale(0.996264)"/>
      </g>
     </g>
    </g>
    <g id="ytick_5">
     <g id="line2d_11">
      <g>
       <use xlink:href="#m2a6edec753" x="48.342443" y="38.867838" style="stroke: #000000; stroke-width: 0.8"/>
      </g>
     </g>
     <g id="text_11">
      <!-- $\mathdefault{80000}$ -->
      <g transform="translate(7.2 43.710776)scale(0.14 -0.14)">
       <use xlink:href="#CMR17-38" transform="scale(0.996264)"/>
       <use xlink:href="#CMR17-30" transform="translate(45.690477 0)scale(0.996264)"/>
       <use xlink:href="#CMR17-30" transform="translate(91.380954 0)scale(0.996264)"/>
       <use xlink:href="#CMR17-30" transform="translate(137.071431 0)scale(0.996264)"/>
       <use xlink:href="#CMR17-30" transform="translate(182.761908 0)scale(0.996264)"/>
      </g>
     </g>
    </g>
   </g>
   <g id="patch_43">
    <path d="M 48.342443 273.312 
L 48.342443 7.2 
" style="fill: none; stroke: #000000; stroke-width: 0.8; stroke-linejoin: miter; stroke-linecap: square"/>
   </g>
   <g id="patch_44">
    <path d="M 405.462443 273.312 
L 405.462443 7.2 
" style="fill: none; stroke: #000000; stroke-width: 0.8; stroke-linejoin: miter; stroke-linecap: square"/>
   </g>
   <g id="patch_45">
    <path d="M 48.342443 273.312 
L 405.462443 273.312 
" style="fill: none; stroke: #000000; stroke-width: 0.8; stroke-linejoin: miter; stroke-linecap: square"/>
   </g>
   <g id="patch_46">
    <path d="M 48.342443 7.2 
L 405.462443 7.2 
" style="fill: none; stroke: #000000; stroke-width: 0.8; stroke-linejoin: miter; stroke-linecap: square"/>
   </g>
   <g id="legend_1">
    <g id="patch_47">
     <path d="M 311.371025 102.190785 
L 395.662443 102.190785 
Q 398.462443 102.190785 398.462443 99.390785 
L 398.462443 17 
Q 398.462443 14.2 395.662443 14.2 
L 311.371025 14.2 
Q 308.571025 14.2 308.571025 17 
L 308.571025 99.390785 
Q 308.571025 102.190785 311.371025 102.190785 
z
" style="fill: #ffffff; opacity: 0.8; stroke: #cccccc; stroke-linejoin: miter"/>
    </g>
    <g id="patch_48">
     <path d="M 314.171025 30.260772 
L 342.171025 30.260772 
L 342.171025 20.460772 
L 314.171025 20.460772 
z
" style="fill: #4c72b0"/>
    </g>
    <g id="text_12">
     <!-- $T($pT$)$ -->
     <g transform="translate(353.371025 30.260772)scale(0.14 -0.14)">
      <defs>
       <path id="CMMI12-54" d="M 2669 3886 
C 2707 4038 2720 4096 2816 4121 
C 2867 4134 3078 4134 3213 4134 
C 3853 4134 4154 4109 4154 3612 
C 4154 3516 4128 3274 4090 3038 
L 4083 2962 
C 4083 2937 4109 2898 4147 2898 
C 4211 2898 4211 2930 4230 3032 
L 4416 4159 
C 4429 4217 4429 4230 4429 4249 
C 4429 4319 4390 4319 4262 4319 
L 762 4319 
C 614 4319 608 4313 570 4198 
L 179 3051 
C 173 3038 154 2968 154 2962 
C 154 2930 179 2898 218 2898 
C 269 2898 282 2924 307 3007 
C 576 3777 710 4134 1562 4134 
L 1990 4134 
C 2144 4134 2208 4134 2208 4064 
C 2208 4045 2208 4032 2176 3917 
L 1318 497 
C 1254 249 1242 185 563 185 
C 403 185 358 185 358 64 
C 358 0 429 0 461 0 
C 621 0 787 12 947 12 
L 1946 12 
C 2106 12 2278 0 2438 0 
C 2509 0 2573 0 2573 121 
C 2573 185 2528 185 2362 185 
C 1786 185 1786 242 1786 338 
C 1786 344 1786 389 1811 491 
L 2669 3886 
z
" transform="scale(0.015625)"/>
       <path id="CMR17-28" d="M 1958 -1562 
C 1958 -1556 1958 -1543 1939 -1524 
C 1645 -1223 858 -403 858 1596 
C 858 3595 1632 4408 1946 4729 
C 1946 4735 1958 4748 1958 4767 
C 1958 4787 1939 4800 1914 4800 
C 1843 4800 1299 4325 986 3620 
C 666 2909 576 2218 576 1603 
C 576 1141 621 360 1005 -467 
C 1312 -1133 1837 -1600 1914 -1600 
C 1946 -1600 1958 -1588 1958 -1562 
z
" transform="scale(0.015625)"/>
       <path id="CMR17-70" d="M 1408 -1114 
C 998 -1114 973 -1088 973 -834 
L 973 380 
C 1158 109 1427 -64 1766 -64 
C 2406 -64 3053 503 3053 1382 
C 3053 2196 2496 2816 1837 2816 
C 1453 2816 1139 2603 960 2345 
L 960 2816 
L 198 2745 
L 198 2577 
C 576 2577 634 2539 634 2228 
L 634 -834 
C 634 -1081 608 -1114 198 -1114 
L 198 -1280 
C 352 -1268 634 -1268 800 -1268 
C 966 -1268 1254 -1268 1408 -1280 
L 1408 -1114 
z
M 973 2015 
C 973 2106 973 2241 1222 2481 
C 1254 2506 1472 2700 1792 2700 
C 2259 2700 2643 2112 2643 1376 
C 2643 639 2234 38 1728 38 
C 1498 38 1248 148 1056 451 
C 973 594 973 632 973 736 
L 973 2015 
z
" transform="scale(0.015625)"/>
       <path id="CMR17-54" d="M 3981 4332 
L 288 4332 
L 179 2924 
L 294 2924 
C 378 3981 467 4166 1453 4166 
C 1568 4166 1754 4166 1805 4159 
C 1926 4140 1926 4064 1926 3917 
L 1926 465 
C 1926 236 1907 166 1376 166 
L 1197 166 
L 1197 0 
C 1504 6 1824 12 2138 12 
C 2451 12 2771 6 3078 0 
L 3078 166 
L 2899 166 
C 2368 166 2349 236 2349 465 
L 2349 3917 
C 2349 4057 2349 4134 2464 4159 
C 2515 4166 2701 4166 2816 4166 
C 3795 4166 3891 3981 3974 2924 
L 4090 2924 
L 3981 4332 
z
" transform="scale(0.015625)"/>
       <path id="CMR17-29" d="M 1683 1596 
C 1683 2057 1638 2839 1254 3665 
C 947 4332 422 4800 346 4800 
C 326 4800 301 4793 301 4761 
C 301 4748 307 4742 314 4729 
C 621 4408 1402 3595 1402 1603 
C 1402 -396 627 -1210 314 -1530 
C 307 -1543 301 -1549 301 -1562 
C 301 -1594 326 -1600 346 -1600 
C 416 -1600 960 -1127 1274 -422 
C 1594 289 1683 981 1683 1596 
z
" transform="scale(0.015625)"/>
      </defs>
      <use xlink:href="#CMMI12-54" transform="scale(0.996264)"/>
      <use xlink:href="#CMR17-28" transform="translate(70.723632 0)scale(0.996264)"/>
      <use xlink:href="#CMR17-70" transform="translate(106.0044 0)scale(0.996264)"/>
      <use xlink:href="#CMR17-54" transform="translate(156.89977 0)scale(0.996264)"/>
      <use xlink:href="#CMR17-29" transform="translate(223.40965 0)scale(0.996264)"/>
     </g>
    </g>
    <g id="patch_49">
     <path d="M 314.171025 51.208468 
L 342.171025 51.208468 
L 342.171025 41.408468 
L 314.171025 41.408468 
z
" style="fill: #55a868"/>
    </g>
    <g id="text_13">
     <!-- $T($eta$)$ -->
     <g transform="translate(353.371025 51.208468)scale(0.14 -0.14)">
      <defs>
       <path id="CMR17-65" d="M 2438 1503 
C 2464 1529 2464 1542 2464 1606 
C 2464 2251 2118 2816 1389 2816 
C 710 2816 173 2175 173 1394 
C 173 554 781 -64 1459 -64 
C 2176 -64 2458 619 2458 755 
C 2458 800 2419 800 2406 800 
C 2362 800 2355 787 2330 709 
C 2189 270 1837 51 1504 51 
C 1229 51 954 206 781 490 
C 582 819 582 1200 582 1503 
L 2438 1503 
z
M 589 1600 
C 634 2511 1126 2713 1382 2713 
C 1818 2713 2112 2308 2118 1600 
L 589 1600 
z
" transform="scale(0.015625)"/>
       <path id="CMR17-74" d="M 966 2585 
L 1862 2585 
L 1862 2752 
L 966 2752 
L 966 3968 
L 851 3968 
C 838 3292 614 2700 70 2687 
L 70 2585 
L 627 2585 
L 627 778 
C 627 655 627 -64 1370 -64 
C 1747 -64 1965 308 1965 784 
L 1965 1151 
L 1850 1151 
L 1850 790 
C 1850 347 1677 51 1408 51 
C 1222 51 966 179 966 765 
L 966 2585 
z
" transform="scale(0.015625)"/>
       <path id="CMR17-61" d="M 2304 1656 
C 2304 2048 2304 2275 2035 2534 
C 1798 2751 1523 2816 1306 2816 
C 800 2816 435 2408 435 1977 
C 435 1740 627 1728 666 1728 
C 749 1728 896 1779 896 1958 
C 896 2118 774 2188 666 2188 
C 640 2188 608 2182 589 2176 
C 723 2594 1069 2713 1293 2713 
C 1613 2713 1965 2421 1965 1875 
L 1965 1632 
C 1587 1619 1133 1568 774 1373 
C 371 1147 256 822 256 576 
C 256 77 832 -64 1171 -64 
C 1523 -64 1850 135 1990 505 
C 2003 219 2182 -39 2464 -39 
C 2598 -39 2938 51 2938 563 
L 2938 926 
L 2822 926 
L 2822 557 
C 2822 161 2650 109 2566 109 
C 2304 109 2304 446 2304 732 
L 2304 1656 
z
M 1965 887 
C 1965 323 1568 38 1216 38 
C 896 38 646 278 646 576 
C 646 771 730 1114 1101 1322 
C 1408 1497 1760 1523 1965 1536 
L 1965 887 
z
" transform="scale(0.015625)"/>
      </defs>
      <use xlink:href="#CMMI12-54" transform="scale(0.996264)"/>
      <use xlink:href="#CMR17-28" transform="translate(70.723632 0)scale(0.996264)"/>
      <use xlink:href="#CMR17-65" transform="translate(106.0044 0)scale(0.996264)"/>
      <use xlink:href="#CMR17-74" transform="translate(146.49006 0)scale(0.996264)"/>
      <use xlink:href="#CMR17-61" transform="translate(181.770828 0)scale(0.996264)"/>
      <use xlink:href="#CMR17-29" transform="translate(227.461305 0)scale(0.996264)"/>
     </g>
    </g>
    <g id="patch_50">
     <path d="M 314.171025 72.156164 
L 342.171025 72.156164 
L 342.171025 62.356164 
L 314.171025 62.356164 
z
" style="fill: #c44e52"/>
    </g>
    <g id="text_14">
     <!-- $T($phi$)$ -->
     <g transform="translate(353.371025 72.156164)scale(0.14 -0.14)">
      <defs>
       <path id="CMR17-68" d="M 2656 1954 
C 2656 2282 2592 2816 1837 2816 
C 1312 2816 1056 2392 979 2179 
L 973 2179 
L 973 4416 
L 211 4345 
L 211 4179 
C 589 4179 646 4141 646 3843 
L 646 443 
C 646 198 621 166 211 166 
L 211 0 
C 365 12 646 12 813 12 
C 979 12 1267 12 1421 0 
L 1421 166 
C 1011 166 986 192 986 443 
L 986 1678 
C 986 2269 1344 2713 1792 2713 
C 2266 2713 2317 2289 2317 1980 
L 2317 443 
C 2317 198 2291 166 1882 166 
L 1882 0 
C 2035 12 2317 12 2483 12 
C 2650 12 2938 12 3091 0 
L 3091 166 
C 2682 166 2656 192 2656 443 
L 2656 1954 
z
" transform="scale(0.015625)"/>
       <path id="CMR17-69" d="M 992 3961 
C 992 4102 877 4224 730 4224 
C 589 4224 467 4108 467 3961 
C 467 3820 582 3699 730 3699 
C 870 3699 992 3814 992 3961 
z
M 243 2745 
L 243 2579 
C 602 2579 653 2540 653 2231 
L 653 443 
C 653 198 627 166 218 166 
L 218 0 
C 371 12 646 12 806 12 
C 960 12 1222 12 1370 0 
L 1370 166 
C 992 166 979 205 979 436 
L 979 2816 
L 243 2745 
z
" transform="scale(0.015625)"/>
      </defs>
      <use xlink:href="#CMMI12-54" transform="scale(0.996264)"/>
      <use xlink:href="#CMR17-28" transform="translate(70.723632 0)scale(0.996264)"/>
      <use xlink:href="#CMR17-70" transform="translate(106.0044 0)scale(0.996264)"/>
      <use xlink:href="#CMR17-68" transform="translate(156.89977 0)scale(0.996264)"/>
      <use xlink:href="#CMR17-69" transform="translate(207.79514 0)scale(0.996264)"/>
      <use xlink:href="#CMR17-29" transform="translate(232.666198 0)scale(0.996264)"/>
     </g>
    </g>
    <g id="patch_51">
     <path d="M 314.171025 93.103861 
L 342.171025 93.103861 
L 342.171025 83.303861 
L 314.171025 83.303861 
z
" style="fill: #8172b2"/>
    </g>
    <g id="text_15">
     <!-- $T($m$)$ -->
     <g transform="translate(353.371025 93.103861)scale(0.14 -0.14)">
      <defs>
       <path id="CMR17-6d" d="M 4326 1954 
C 4326 2276 4269 2816 3507 2816 
C 3072 2816 2771 2520 2656 2173 
L 2650 2173 
C 2573 2700 2195 2816 1837 2816 
C 1331 2816 1069 2424 973 2166 
L 966 2166 
L 966 2816 
L 211 2745 
L 211 2578 
C 589 2578 646 2540 646 2231 
L 646 443 
C 646 198 621 166 211 166 
L 211 0 
C 365 12 646 12 813 12 
C 979 12 1267 12 1421 0 
L 1421 166 
C 1011 166 986 192 986 443 
L 986 1678 
C 986 2269 1344 2713 1792 2713 
C 2266 2713 2317 2289 2317 1980 
L 2317 443 
C 2317 198 2291 166 1882 166 
L 1882 0 
C 2035 12 2317 12 2483 12 
C 2650 12 2938 12 3091 0 
L 3091 166 
C 2682 166 2656 192 2656 443 
L 2656 1678 
C 2656 2269 3014 2713 3462 2713 
C 3936 2713 3987 2289 3987 1980 
L 3987 443 
C 3987 198 3962 166 3552 166 
L 3552 0 
C 3706 12 3987 12 4154 12 
C 4320 12 4608 12 4762 0 
L 4762 166 
C 4352 166 4326 192 4326 443 
L 4326 1954 
z
" transform="scale(0.015625)"/>
      </defs>
      <use xlink:href="#CMMI12-54" transform="scale(0.996264)"/>
      <use xlink:href="#CMR17-28" transform="translate(70.723632 0)scale(0.996264)"/>
      <use xlink:href="#CMR17-6d" transform="translate(106.0044 0)scale(0.996264)"/>
      <use xlink:href="#CMR17-29" transform="translate(182.92399 0)scale(0.996264)"/>
     </g>
    </g>
   </g>
  </g>
 </g>
 <defs>
  <clipPath id="p6456cac038">
   <rect x="48.342443" y="7.2" width="357.12" height="266.112"/>
  </clipPath>
 </defs>
</svg>
