<?xml version="1.0" encoding="utf-8" standalone="no"?>
<!DOCTYPE svg PUBLIC "-//W3C//DTD SVG 1.1//EN"
  "http://www.w3.org/Graphics/SVG/1.1/DTD/svg11.dtd">
<svg xmlns:xlink="http://www.w3.org/1999/xlink" width="488.16pt" height="488.16pt" viewBox="0 0 488.16 488.16" xmlns="http://www.w3.org/2000/svg" version="1.1">
 <metadata>
  <rdf:RDF xmlns:dc="http://purl.org/dc/elements/1.1/" xmlns:cc="http://creativecommons.org/ns#" xmlns:rdf="http://www.w3.org/1999/02/22-rdf-syntax-ns#">
   <cc:Work>
    <dc:type rdf:resource="http://purl.org/dc/dcmitype/StillImage"/>
    <dc:date>2022-12-03T15:56:18.797565</dc:date>
    <dc:format>image/svg+xml</dc:format>
    <dc:creator>
     <cc:Agent>
      <dc:title>Matplotlib v3.5.1, https://matplotlib.org/</dc:title>
     </cc:Agent>
    </dc:creator>
   </cc:Work>
  </rdf:RDF>
 </metadata>
 <defs>
  <style type="text/css">*{stroke-linejoin: round; stroke-linecap: butt}</style>
 </defs>
 <g id="figure_1">
  <g id="patch_1">
   <path d="M 0 488.16 
L 488.16 488.16 
L 488.16 0 
L 0 0 
z
" style="fill: #ffffff"/>
  </g>
  <g id="axes_1">
   <g id="patch_2">
    <path d="M 41.513955 442.618135 
L 480.96 442.618135 
L 480.96 7.2 
L 41.513955 7.2 
z
" style="fill: #ffffff"/>
   </g>
   <g id="patch_3">
    <path d="M 433.516779 442.618135 
L 436.263619 442.618135 
L 436.263619 27.934197 
L 433.516779 27.934197 
z
" clip-path="url(#p77bebbddac)" style="fill: #4c72b0; opacity: 0.35"/>
   </g>
   <g id="patch_4">
    <path d="M 436.263619 442.618135 
L 439.010459 442.618135 
L 439.010459 83.965668 
L 436.263619 83.965668 
z
" clip-path="url(#p77bebbddac)" style="fill: #4c72b0; opacity: 0.35"/>
   </g>
   <g id="patch_5">
    <path d="M 439.010459 442.618135 
L 441.757299 442.618135 
L 441.757299 206.36699 
L 439.010459 206.36699 
z
" clip-path="url(#p77bebbddac)" style="fill: #4c72b0; opacity: 0.35"/>
   </g>
   <g id="patch_6">
    <path d="M 441.757299 442.618135 
L 444.504139 442.618135 
L 444.504139 307.836283 
L 441.757299 307.836283 
z
" clip-path="url(#p77bebbddac)" style="fill: #4c72b0; opacity: 0.35"/>
   </g>
   <g id="patch_7">
    <path d="M 444.504139 442.618135 
L 447.25098 442.618135 
L 447.25098 364.633559 
L 444.504139 364.633559 
z
" clip-path="url(#p77bebbddac)" style="fill: #4c72b0; opacity: 0.35"/>
   </g>
   <g id="patch_8">
    <path d="M 447.25098 442.618135 
L 449.99782 442.618135 
L 449.99782 410.581918 
L 447.25098 410.581918 
z
" clip-path="url(#p77bebbddac)" style="fill: #4c72b0; opacity: 0.35"/>
   </g>
   <g id="patch_9">
    <path d="M 449.99782 442.618135 
L 452.74466 442.618135 
L 452.74466 429.982336 
L 449.99782 429.982336 
z
" clip-path="url(#p77bebbddac)" style="fill: #4c72b0; opacity: 0.35"/>
   </g>
   <g id="patch_10">
    <path d="M 452.74466 442.618135 
L 455.4915 442.618135 
L 455.4915 437.76803 
L 452.74466 437.76803 
z
" clip-path="url(#p77bebbddac)" style="fill: #4c72b0; opacity: 0.35"/>
   </g>
   <g id="patch_11">
    <path d="M 455.4915 442.618135 
L 458.23834 442.618135 
L 458.23834 439.682545 
L 455.4915 439.682545 
z
" clip-path="url(#p77bebbddac)" style="fill: #4c72b0; opacity: 0.35"/>
   </g>
   <g id="patch_12">
    <path d="M 458.23834 442.618135 
L 460.98518 442.618135 
L 460.98518 441.086523 
L 458.23834 441.086523 
z
" clip-path="url(#p77bebbddac)" style="fill: #4c72b0; opacity: 0.35"/>
   </g>
   <g id="patch_13">
    <path d="M 307.016836 442.618135 
L 309.763676 442.618135 
L 309.763676 27.934197 
L 307.016836 27.934197 
z
" clip-path="url(#p77bebbddac)" style="fill: #55a868"/>
   </g>
   <g id="patch_14">
    <path d="M 309.763676 442.618135 
L 312.510516 442.618135 
L 312.510516 83.965668 
L 309.763676 83.965668 
z
" clip-path="url(#p77bebbddac)" style="fill: #55a868"/>
   </g>
   <g id="patch_15">
    <path d="M 312.510516 442.618135 
L 315.257356 442.618135 
L 315.257356 206.36699 
L 312.510516 206.36699 
z
" clip-path="url(#p77bebbddac)" style="fill: #55a868"/>
   </g>
   <g id="patch_16">
    <path d="M 315.257356 442.618135 
L 318.004196 442.618135 
L 318.004196 307.836283 
L 315.257356 307.836283 
z
" clip-path="url(#p77bebbddac)" style="fill: #55a868"/>
   </g>
   <g id="patch_17">
    <path d="M 318.004196 442.618135 
L 320.751036 442.618135 
L 320.751036 364.633559 
L 318.004196 364.633559 
z
" clip-path="url(#p77bebbddac)" style="fill: #55a868"/>
   </g>
   <g id="patch_18">
    <path d="M 320.751036 442.618135 
L 323.497876 442.618135 
L 323.497876 410.581918 
L 320.751036 410.581918 
z
" clip-path="url(#p77bebbddac)" style="fill: #55a868"/>
   </g>
   <g id="patch_19">
    <path d="M 323.497876 442.618135 
L 326.244716 442.618135 
L 326.244716 429.982336 
L 323.497876 429.982336 
z
" clip-path="url(#p77bebbddac)" style="fill: #55a868"/>
   </g>
   <g id="patch_20">
    <path d="M 326.244716 442.618135 
L 328.991556 442.618135 
L 328.991556 437.76803 
L 326.244716 437.76803 
z
" clip-path="url(#p77bebbddac)" style="fill: #55a868"/>
   </g>
   <g id="patch_21">
    <path d="M 328.991556 442.618135 
L 331.738396 442.618135 
L 331.738396 439.682545 
L 328.991556 439.682545 
z
" clip-path="url(#p77bebbddac)" style="fill: #55a868"/>
   </g>
   <g id="patch_22">
    <path d="M 331.738396 442.618135 
L 334.485236 442.618135 
L 334.485236 441.086523 
L 331.738396 441.086523 
z
" clip-path="url(#p77bebbddac)" style="fill: #55a868"/>
   </g>
   <g id="patch_23">
    <path d="M 61.488775 442.618135 
L 64.235615 442.618135 
L 64.235615 27.934197 
L 61.488775 27.934197 
z
" clip-path="url(#p77bebbddac)" style="fill: #c44e52"/>
   </g>
   <g id="patch_24">
    <path d="M 64.235615 442.618135 
L 66.982455 442.618135 
L 66.982455 83.965668 
L 64.235615 83.965668 
z
" clip-path="url(#p77bebbddac)" style="fill: #c44e52"/>
   </g>
   <g id="patch_25">
    <path d="M 66.982455 442.618135 
L 69.729295 442.618135 
L 69.729295 206.36699 
L 66.982455 206.36699 
z
" clip-path="url(#p77bebbddac)" style="fill: #c44e52"/>
   </g>
   <g id="patch_26">
    <path d="M 69.729295 442.618135 
L 72.476135 442.618135 
L 72.476135 307.836283 
L 69.729295 307.836283 
z
" clip-path="url(#p77bebbddac)" style="fill: #c44e52"/>
   </g>
   <g id="patch_27">
    <path d="M 72.476135 442.618135 
L 75.222975 442.618135 
L 75.222975 364.633559 
L 72.476135 364.633559 
z
" clip-path="url(#p77bebbddac)" style="fill: #c44e52"/>
   </g>
   <g id="patch_28">
    <path d="M 75.222975 442.618135 
L 77.969815 442.618135 
L 77.969815 410.581918 
L 75.222975 410.581918 
z
" clip-path="url(#p77bebbddac)" style="fill: #c44e52"/>
   </g>
   <g id="patch_29">
    <path d="M 77.969815 442.618135 
L 80.716655 442.618135 
L 80.716655 429.982336 
L 77.969815 429.982336 
z
" clip-path="url(#p77bebbddac)" style="fill: #c44e52"/>
   </g>
   <g id="patch_30">
    <path d="M 80.716655 442.618135 
L 83.463495 442.618135 
L 83.463495 437.76803 
L 80.716655 437.76803 
z
" clip-path="url(#p77bebbddac)" style="fill: #c44e52"/>
   </g>
   <g id="patch_31">
    <path d="M 83.463495 442.618135 
L 86.210335 442.618135 
L 86.210335 439.682545 
L 83.463495 439.682545 
z
" clip-path="url(#p77bebbddac)" style="fill: #c44e52"/>
   </g>
   <g id="patch_32">
    <path d="M 86.210335 442.618135 
L 88.957175 442.618135 
L 88.957175 441.086523 
L 86.210335 441.086523 
z
" clip-path="url(#p77bebbddac)" style="fill: #c44e52"/>
   </g>
   <g id="patch_33">
    <path d="M 430.973445 442.618135 
L 433.720285 442.618135 
L 433.720285 27.934197 
L 430.973445 27.934197 
z
" clip-path="url(#p77bebbddac)" style="fill: #8172b2; opacity: 0.35"/>
   </g>
   <g id="patch_34">
    <path d="M 433.720285 442.618135 
L 436.467125 442.618135 
L 436.467125 83.965668 
L 433.720285 83.965668 
z
" clip-path="url(#p77bebbddac)" style="fill: #8172b2; opacity: 0.35"/>
   </g>
   <g id="patch_35">
    <path d="M 436.467125 442.618135 
L 439.213965 442.618135 
L 439.213965 206.36699 
L 436.467125 206.36699 
z
" clip-path="url(#p77bebbddac)" style="fill: #8172b2; opacity: 0.35"/>
   </g>
   <g id="patch_36">
    <path d="M 439.213965 442.618135 
L 441.960805 442.618135 
L 441.960805 307.836283 
L 439.213965 307.836283 
z
" clip-path="url(#p77bebbddac)" style="fill: #8172b2; opacity: 0.35"/>
   </g>
   <g id="patch_37">
    <path d="M 441.960805 442.618135 
L 444.707645 442.618135 
L 444.707645 364.633559 
L 441.960805 364.633559 
z
" clip-path="url(#p77bebbddac)" style="fill: #8172b2; opacity: 0.35"/>
   </g>
   <g id="patch_38">
    <path d="M 444.707645 442.618135 
L 447.454485 442.618135 
L 447.454485 410.581918 
L 444.707645 410.581918 
z
" clip-path="url(#p77bebbddac)" style="fill: #8172b2; opacity: 0.35"/>
   </g>
   <g id="patch_39">
    <path d="M 447.454485 442.618135 
L 450.201325 442.618135 
L 450.201325 429.982336 
L 447.454485 429.982336 
z
" clip-path="url(#p77bebbddac)" style="fill: #8172b2; opacity: 0.35"/>
   </g>
   <g id="patch_40">
    <path d="M 450.201325 442.618135 
L 452.948166 442.618135 
L 452.948166 437.76803 
L 450.201325 437.76803 
z
" clip-path="url(#p77bebbddac)" style="fill: #8172b2; opacity: 0.35"/>
   </g>
   <g id="patch_41">
    <path d="M 452.948166 442.618135 
L 455.695006 442.618135 
L 455.695006 439.682545 
L 452.948166 439.682545 
z
" clip-path="url(#p77bebbddac)" style="fill: #8172b2; opacity: 0.35"/>
   </g>
   <g id="patch_42">
    <path d="M 455.695006 442.618135 
L 458.441846 442.618135 
L 458.441846 441.086523 
L 455.695006 441.086523 
z
" clip-path="url(#p77bebbddac)" style="fill: #8172b2; opacity: 0.35"/>
   </g>
   <g id="matplotlib.axis_1">
    <g id="xtick_1">
     <g id="line2d_1">
      <defs>
       <path id="mb9342f94d8" d="M 0 0 
L 0 3.5 
" style="stroke: #000000; stroke-width: 0.8"/>
      </defs>
      <g>
       <use xlink:href="#mb9342f94d8" x="86.488323" y="442.618135" style="stroke: #000000; stroke-width: 0.8"/>
      </g>
     </g>
     <g id="text_1">
      <!-- $\mathdefault{−25}$ -->
      <g transform="translate(74.235717 459.304011)scale(0.14 -0.14)">
       <defs>
        <path id="CMSY10-0" d="M 4218 1472 
C 4326 1472 4442 1472 4442 1600 
C 4442 1728 4326 1728 4218 1728 
L 755 1728 
C 646 1728 531 1728 531 1600 
C 531 1472 646 1472 755 1472 
L 4218 1472 
z
" transform="scale(0.015625)"/>
        <path id="CMR17-32" d="M 2669 990 
L 2554 990 
C 2490 537 2438 460 2413 422 
C 2381 371 1920 371 1830 371 
L 602 371 
C 832 620 1280 1073 1824 1596 
C 2214 1966 2669 2400 2669 3033 
C 2669 3788 2067 4224 1395 4224 
C 691 4224 262 3603 262 3027 
C 262 2777 448 2745 525 2745 
C 589 2745 781 2783 781 3007 
C 781 3206 614 3264 525 3264 
C 486 3264 448 3257 422 3244 
C 544 3788 915 4057 1306 4057 
C 1862 4057 2227 3616 2227 3033 
C 2227 2477 1901 1998 1536 1583 
L 262 147 
L 262 0 
L 2515 0 
L 2669 990 
z
" transform="scale(0.015625)"/>
        <path id="CMR17-35" d="M 730 3750 
C 794 3724 1056 3641 1325 3641 
C 1920 3641 2246 3961 2432 4140 
C 2432 4191 2432 4224 2394 4224 
C 2387 4224 2374 4224 2323 4198 
C 2099 4102 1837 4032 1517 4032 
C 1325 4032 1037 4055 723 4191 
C 653 4224 640 4224 634 4224 
C 602 4224 595 4217 595 4090 
L 595 2231 
C 595 2113 595 2080 659 2080 
C 691 2080 704 2093 736 2139 
C 941 2435 1222 2560 1542 2560 
C 1766 2560 2246 2415 2246 1293 
C 2246 1087 2246 716 2054 422 
C 1894 159 1645 25 1370 25 
C 947 25 518 319 403 812 
C 429 806 480 793 506 793 
C 589 793 749 838 749 1036 
C 749 1209 627 1280 506 1280 
C 358 1280 262 1190 262 1011 
C 262 454 704 -128 1382 -128 
C 2042 -128 2669 441 2669 1267 
C 2669 2054 2170 2662 1549 2662 
C 1222 2662 947 2540 730 2304 
L 730 3750 
z
" transform="scale(0.015625)"/>
       </defs>
       <use xlink:href="#CMSY10-0" transform="scale(0.996264)"/>
       <use xlink:href="#CMR17-32" transform="translate(77.487468 0)scale(0.996264)"/>
       <use xlink:href="#CMR17-35" transform="translate(123.177945 0)scale(0.996264)"/>
      </g>
     </g>
    </g>
    <g id="xtick_2">
     <g id="line2d_2">
      <g>
       <use xlink:href="#mb9342f94d8" x="148.466628" y="442.618135" style="stroke: #000000; stroke-width: 0.8"/>
      </g>
     </g>
     <g id="text_2">
      <!-- $\mathdefault{−20}$ -->
      <g transform="translate(136.214022 459.304011)scale(0.14 -0.14)">
       <defs>
        <path id="CMR17-30" d="M 2688 2038 
C 2688 2430 2682 3099 2413 3613 
C 2176 4063 1798 4224 1466 4224 
C 1158 4224 768 4082 525 3620 
C 269 3137 243 2539 243 2038 
C 243 1671 250 1112 448 623 
C 723 -39 1216 -128 1466 -128 
C 1760 -128 2208 -7 2470 604 
C 2662 1048 2688 1568 2688 2038 
z
M 1466 -26 
C 1056 -26 813 328 723 816 
C 653 1196 653 1749 653 2109 
C 653 2604 653 3015 736 3407 
C 858 3954 1216 4121 1466 4121 
C 1728 4121 2067 3947 2189 3420 
C 2272 3054 2278 2623 2278 2109 
C 2278 1691 2278 1176 2202 797 
C 2067 96 1690 -26 1466 -26 
z
" transform="scale(0.015625)"/>
       </defs>
       <use xlink:href="#CMSY10-0" transform="scale(0.996264)"/>
       <use xlink:href="#CMR17-32" transform="translate(77.487468 0)scale(0.996264)"/>
       <use xlink:href="#CMR17-30" transform="translate(123.177945 0)scale(0.996264)"/>
      </g>
     </g>
    </g>
    <g id="xtick_3">
     <g id="line2d_3">
      <g>
       <use xlink:href="#mb9342f94d8" x="210.444933" y="442.618135" style="stroke: #000000; stroke-width: 0.8"/>
      </g>
     </g>
     <g id="text_3">
      <!-- $\mathdefault{−15}$ -->
      <g transform="translate(198.192327 459.304011)scale(0.14 -0.14)">
       <defs>
        <path id="CMR17-31" d="M 1702 4083 
C 1702 4217 1696 4224 1606 4224 
C 1357 3927 979 3833 621 3820 
C 602 3820 570 3820 563 3808 
C 557 3795 557 3782 557 3648 
C 755 3648 1088 3686 1344 3839 
L 1344 467 
C 1344 243 1331 166 781 166 
L 589 166 
L 589 0 
C 896 6 1216 12 1523 12 
C 1830 12 2150 6 2458 0 
L 2458 166 
L 2266 166 
C 1715 166 1702 236 1702 467 
L 1702 4083 
z
" transform="scale(0.015625)"/>
       </defs>
       <use xlink:href="#CMSY10-0" transform="scale(0.996264)"/>
       <use xlink:href="#CMR17-31" transform="translate(77.487468 0)scale(0.996264)"/>
       <use xlink:href="#CMR17-35" transform="translate(123.177945 0)scale(0.996264)"/>
      </g>
     </g>
    </g>
    <g id="xtick_4">
     <g id="line2d_4">
      <g>
       <use xlink:href="#mb9342f94d8" x="272.423238" y="442.618135" style="stroke: #000000; stroke-width: 0.8"/>
      </g>
     </g>
     <g id="text_4">
      <!-- $\mathdefault{−10}$ -->
      <g transform="translate(260.170631 459.304011)scale(0.14 -0.14)">
       <use xlink:href="#CMSY10-0" transform="scale(0.996264)"/>
       <use xlink:href="#CMR17-31" transform="translate(77.487468 0)scale(0.996264)"/>
       <use xlink:href="#CMR17-30" transform="translate(123.177945 0)scale(0.996264)"/>
      </g>
     </g>
    </g>
    <g id="xtick_5">
     <g id="line2d_5">
      <g>
       <use xlink:href="#mb9342f94d8" x="334.401542" y="442.618135" style="stroke: #000000; stroke-width: 0.8"/>
      </g>
     </g>
     <g id="text_5">
      <!-- $\mathdefault{−5}$ -->
      <g transform="translate(325.56318 459.304011)scale(0.14 -0.14)">
       <use xlink:href="#CMSY10-0" transform="scale(0.996264)"/>
       <use xlink:href="#CMR17-35" transform="translate(77.487468 0)scale(0.996264)"/>
      </g>
     </g>
    </g>
    <g id="xtick_6">
     <g id="line2d_6">
      <g>
       <use xlink:href="#mb9342f94d8" x="396.379847" y="442.618135" style="stroke: #000000; stroke-width: 0.8"/>
      </g>
     </g>
     <g id="text_6">
      <!-- $\mathdefault{0}$ -->
      <g transform="translate(392.965603 459.304011)scale(0.14 -0.14)">
       <use xlink:href="#CMR17-30" transform="scale(0.996264)"/>
      </g>
     </g>
    </g>
    <g id="xtick_7">
     <g id="line2d_7">
      <g>
       <use xlink:href="#mb9342f94d8" x="458.358152" y="442.618135" style="stroke: #000000; stroke-width: 0.8"/>
      </g>
     </g>
     <g id="text_7">
      <!-- $\mathdefault{5}$ -->
      <g transform="translate(454.943908 459.304011)scale(0.14 -0.14)">
       <use xlink:href="#CMR17-35" transform="scale(0.996264)"/>
      </g>
     </g>
    </g>
    <g id="text_8">
     <!-- $p_T$ [GeV] -->
     <g transform="translate(232.552871 477.22401)scale(0.15 -0.15)">
      <defs>
       <path id="CMMI12-70" d="M 275 -794 
C 230 -981 205 -1031 -58 -1031 
C -135 -1031 -199 -1031 -199 -1152 
C -199 -1165 -192 -1216 -122 -1216 
C -39 -1216 51 -1204 134 -1204 
L 410 -1204 
C 544 -1204 870 -1216 1005 -1216 
C 1043 -1216 1120 -1216 1120 -1101 
C 1120 -1031 1075 -1031 966 -1031 
C 672 -1031 653 -987 653 -937 
C 653 -863 941 217 979 364 
C 1050 185 1222 -64 1555 -64 
C 2278 -64 3059 874 3059 1813 
C 3059 2400 2726 2816 2246 2816 
C 1837 2816 1491 2419 1421 2330 
C 1370 2649 1120 2816 864 2816 
C 678 2816 531 2726 410 2483 
C 294 2253 205 1864 205 1838 
C 205 1813 230 1781 275 1781 
C 326 1781 333 1787 371 1934 
C 467 2311 589 2687 845 2687 
C 992 2687 1043 2585 1043 2394 
C 1043 2241 1024 2177 998 2062 
L 275 -794 
z
M 1382 1992 
C 1427 2170 1606 2356 1709 2445 
C 1779 2509 1990 2687 2234 2687 
C 2515 2687 2643 2407 2643 2075 
C 2643 1768 2464 1047 2304 715 
C 2144 370 1850 64 1555 64 
C 1120 64 1050 613 1050 638 
C 1050 657 1062 708 1069 740 
L 1382 1992 
z
" transform="scale(0.015625)"/>
       <path id="CMMI12-54" d="M 2669 3886 
C 2707 4038 2720 4096 2816 4121 
C 2867 4134 3078 4134 3213 4134 
C 3853 4134 4154 4109 4154 3612 
C 4154 3516 4128 3274 4090 3038 
L 4083 2962 
C 4083 2937 4109 2898 4147 2898 
C 4211 2898 4211 2930 4230 3032 
L 4416 4159 
C 4429 4217 4429 4230 4429 4249 
C 4429 4319 4390 4319 4262 4319 
L 762 4319 
C 614 4319 608 4313 570 4198 
L 179 3051 
C 173 3038 154 2968 154 2962 
C 154 2930 179 2898 218 2898 
C 269 2898 282 2924 307 3007 
C 576 3777 710 4134 1562 4134 
L 1990 4134 
C 2144 4134 2208 4134 2208 4064 
C 2208 4045 2208 4032 2176 3917 
L 1318 497 
C 1254 249 1242 185 563 185 
C 403 185 358 185 358 64 
C 358 0 429 0 461 0 
C 621 0 787 12 947 12 
L 1946 12 
C 2106 12 2278 0 2438 0 
C 2509 0 2573 0 2573 121 
C 2573 185 2528 185 2362 185 
C 1786 185 1786 242 1786 338 
C 1786 344 1786 389 1811 491 
L 2669 3886 
z
" transform="scale(0.015625)"/>
       <path id="CMR17-5b" d="M 1504 -1600 
L 1504 -1376 
L 902 -1376 
L 902 4575 
L 1504 4575 
L 1504 4800 
L 678 4800 
L 678 -1600 
L 1504 -1600 
z
" transform="scale(0.015625)"/>
       <path id="CMR17-47" d="M 3974 1258 
C 3974 1503 3994 1536 4390 1536 
L 4390 1702 
C 4237 1689 3891 1689 3718 1689 
C 3539 1689 3040 1696 2797 1702 
L 2797 1536 
L 2989 1536 
C 3539 1536 3552 1464 3552 1232 
L 3552 806 
C 3552 96 2720 38 2522 38 
C 1862 38 781 496 781 2179 
C 781 3862 1843 4313 2464 4313 
C 3187 4313 3712 3681 3834 2785 
C 3846 2708 3846 2695 3904 2695 
C 3974 2695 3974 2708 3974 2824 
L 3974 4351 
C 3974 4467 3968 4473 3930 4473 
C 3904 4473 3898 4467 3853 4390 
L 3571 3849 
C 3258 4249 2874 4480 2381 4480 
C 1286 4480 294 3507 294 2179 
C 294 858 1267 -128 2394 -128 
C 2912 -128 3418 57 3616 425 
C 3725 161 3904 -20 3936 -20 
C 3968 -20 3974 -13 3974 102 
L 3974 1258 
z
" transform="scale(0.015625)"/>
       <path id="CMR17-65" d="M 2438 1503 
C 2464 1529 2464 1542 2464 1606 
C 2464 2251 2118 2816 1389 2816 
C 710 2816 173 2175 173 1394 
C 173 554 781 -64 1459 -64 
C 2176 -64 2458 619 2458 755 
C 2458 800 2419 800 2406 800 
C 2362 800 2355 787 2330 709 
C 2189 270 1837 51 1504 51 
C 1229 51 954 206 781 490 
C 582 819 582 1200 582 1503 
L 2438 1503 
z
M 589 1600 
C 634 2511 1126 2713 1382 2713 
C 1818 2713 2112 2308 2118 1600 
L 589 1600 
z
" transform="scale(0.015625)"/>
       <path id="CMR17-56" d="M 3776 3762 
C 3834 3903 3936 4179 4365 4185 
L 4365 4352 
C 4218 4339 4051 4339 3891 4339 
C 3738 4339 3475 4339 3328 4352 
L 3328 4185 
C 3648 4166 3661 3942 3661 3903 
C 3661 3833 3642 3788 3622 3737 
L 2362 448 
L 1043 3903 
C 1024 3948 1011 3980 1011 4012 
C 1011 4185 1267 4185 1402 4185 
L 1402 4352 
C 1197 4339 896 4339 685 4339 
C 518 4339 218 4339 64 4352 
L 64 4185 
C 435 4185 506 4160 582 3955 
L 2106 -26 
C 2138 -116 2144 -128 2214 -128 
C 2285 -128 2291 -116 2323 -26 
L 3776 3762 
z
" transform="scale(0.015625)"/>
       <path id="CMR17-5d" d="M 915 4800 
L 90 4800 
L 90 4575 
L 691 4575 
L 691 -1376 
L 90 -1376 
L 90 -1600 
L 915 -1600 
L 915 4800 
z
" transform="scale(0.015625)"/>
      </defs>
      <use xlink:href="#CMMI12-70" transform="scale(0.996264)"/>
      <use xlink:href="#CMMI12-54" transform="translate(48.959514 -14.943915)scale(0.697382)"/>
      <use xlink:href="#CMR17-5b" transform="translate(129.039934 0)scale(0.996264)"/>
      <use xlink:href="#CMR17-47" transform="translate(153.910993 0)scale(0.996264)"/>
      <use xlink:href="#CMR17-65" transform="translate(226.266339 0)scale(0.996264)"/>
      <use xlink:href="#CMR17-56" transform="translate(266.751999 0)scale(0.996264)"/>
      <use xlink:href="#CMR17-5d" transform="translate(335.824429 0)scale(0.996264)"/>
     </g>
    </g>
   </g>
   <g id="matplotlib.axis_2">
    <g id="ytick_1">
     <g id="line2d_8">
      <defs>
       <path id="m4d4e2c7bd2" d="M 0 0 
L -3.5 0 
" style="stroke: #000000; stroke-width: 0.8"/>
      </defs>
      <g>
       <use xlink:href="#m4d4e2c7bd2" x="41.513955" y="442.618135" style="stroke: #000000; stroke-width: 0.8"/>
      </g>
     </g>
     <g id="text_9">
      <!-- $\mathdefault{0}$ -->
      <g transform="translate(27.685466 447.461073)scale(0.14 -0.14)">
       <use xlink:href="#CMR17-30" transform="scale(0.996264)"/>
      </g>
     </g>
    </g>
    <g id="ytick_2">
     <g id="line2d_9">
      <g>
       <use xlink:href="#m4d4e2c7bd2" x="41.513955" y="378.80097" style="stroke: #000000; stroke-width: 0.8"/>
      </g>
     </g>
     <g id="text_10">
      <!-- $\mathdefault{500}$ -->
      <g transform="translate(14.028489 383.643908)scale(0.14 -0.14)">
       <use xlink:href="#CMR17-35" transform="scale(0.996264)"/>
       <use xlink:href="#CMR17-30" transform="translate(45.690477 0)scale(0.996264)"/>
       <use xlink:href="#CMR17-30" transform="translate(91.380954 0)scale(0.996264)"/>
      </g>
     </g>
    </g>
    <g id="ytick_3">
     <g id="line2d_10">
      <g>
       <use xlink:href="#m4d4e2c7bd2" x="41.513955" y="314.983805" style="stroke: #000000; stroke-width: 0.8"/>
      </g>
     </g>
     <g id="text_11">
      <!-- $\mathdefault{1000}$ -->
      <g transform="translate(7.2 319.826743)scale(0.14 -0.14)">
       <use xlink:href="#CMR17-31" transform="scale(0.996264)"/>
       <use xlink:href="#CMR17-30" transform="translate(45.690477 0)scale(0.996264)"/>
       <use xlink:href="#CMR17-30" transform="translate(91.380954 0)scale(0.996264)"/>
       <use xlink:href="#CMR17-30" transform="translate(137.071431 0)scale(0.996264)"/>
      </g>
     </g>
    </g>
    <g id="ytick_4">
     <g id="line2d_11">
      <g>
       <use xlink:href="#m4d4e2c7bd2" x="41.513955" y="251.16664" style="stroke: #000000; stroke-width: 0.8"/>
      </g>
     </g>
     <g id="text_12">
      <!-- $\mathdefault{1500}$ -->
      <g transform="translate(7.2 256.009578)scale(0.14 -0.14)">
       <use xlink:href="#CMR17-31" transform="scale(0.996264)"/>
       <use xlink:href="#CMR17-35" transform="translate(45.690477 0)scale(0.996264)"/>
       <use xlink:href="#CMR17-30" transform="translate(91.380954 0)scale(0.996264)"/>
       <use xlink:href="#CMR17-30" transform="translate(137.071431 0)scale(0.996264)"/>
      </g>
     </g>
    </g>
    <g id="ytick_5">
     <g id="line2d_12">
      <g>
       <use xlink:href="#m4d4e2c7bd2" x="41.513955" y="187.349475" style="stroke: #000000; stroke-width: 0.8"/>
      </g>
     </g>
     <g id="text_13">
      <!-- $\mathdefault{2000}$ -->
      <g transform="translate(7.2 192.192413)scale(0.14 -0.14)">
       <use xlink:href="#CMR17-32" transform="scale(0.996264)"/>
       <use xlink:href="#CMR17-30" transform="translate(45.690477 0)scale(0.996264)"/>
       <use xlink:href="#CMR17-30" transform="translate(91.380954 0)scale(0.996264)"/>
       <use xlink:href="#CMR17-30" transform="translate(137.071431 0)scale(0.996264)"/>
      </g>
     </g>
    </g>
    <g id="ytick_6">
     <g id="line2d_13">
      <g>
       <use xlink:href="#m4d4e2c7bd2" x="41.513955" y="123.53231" style="stroke: #000000; stroke-width: 0.8"/>
      </g>
     </g>
     <g id="text_14">
      <!-- $\mathdefault{2500}$ -->
      <g transform="translate(7.2 128.375248)scale(0.14 -0.14)">
       <use xlink:href="#CMR17-32" transform="scale(0.996264)"/>
       <use xlink:href="#CMR17-35" transform="translate(45.690477 0)scale(0.996264)"/>
       <use xlink:href="#CMR17-30" transform="translate(91.380954 0)scale(0.996264)"/>
       <use xlink:href="#CMR17-30" transform="translate(137.071431 0)scale(0.996264)"/>
      </g>
     </g>
    </g>
    <g id="ytick_7">
     <g id="line2d_14">
      <g>
       <use xlink:href="#m4d4e2c7bd2" x="41.513955" y="59.715145" style="stroke: #000000; stroke-width: 0.8"/>
      </g>
     </g>
     <g id="text_15">
      <!-- $\mathdefault{3000}$ -->
      <g transform="translate(7.2 64.558083)scale(0.14 -0.14)">
       <defs>
        <path id="CMR17-33" d="M 1414 2176 
C 1984 2176 2234 1673 2234 1094 
C 2234 322 1824 25 1453 25 
C 1114 25 563 193 390 691 
C 422 678 454 678 486 678 
C 640 678 755 780 755 947 
C 755 1132 614 1216 486 1216 
C 378 1216 211 1164 211 927 
C 211 335 787 -128 1466 -128 
C 2176 -128 2720 432 2720 1087 
C 2720 1718 2208 2176 1600 2246 
C 2086 2347 2554 2776 2554 3353 
C 2554 3856 2048 4224 1472 4224 
C 890 4224 378 3862 378 3347 
C 378 3123 544 3084 627 3084 
C 762 3084 877 3167 877 3334 
C 877 3500 762 3584 627 3584 
C 602 3584 570 3584 544 3571 
C 730 3999 1235 4076 1459 4076 
C 1683 4076 2106 3966 2106 3347 
C 2106 3167 2080 2851 1862 2574 
C 1670 2329 1453 2316 1242 2297 
C 1210 2297 1062 2284 1037 2284 
C 992 2278 966 2272 966 2227 
C 966 2182 973 2176 1101 2176 
L 1414 2176 
z
" transform="scale(0.015625)"/>
       </defs>
       <use xlink:href="#CMR17-33" transform="scale(0.996264)"/>
       <use xlink:href="#CMR17-30" transform="translate(45.690477 0)scale(0.996264)"/>
       <use xlink:href="#CMR17-30" transform="translate(91.380954 0)scale(0.996264)"/>
       <use xlink:href="#CMR17-30" transform="translate(137.071431 0)scale(0.996264)"/>
      </g>
     </g>
    </g>
   </g>
   <g id="patch_43">
    <path d="M 41.513955 442.618135 
L 41.513955 7.2 
" style="fill: none; stroke: #000000; stroke-width: 0.8; stroke-linejoin: miter; stroke-linecap: square"/>
   </g>
   <g id="patch_44">
    <path d="M 480.96 442.618135 
L 480.96 7.2 
" style="fill: none; stroke: #000000; stroke-width: 0.8; stroke-linejoin: miter; stroke-linecap: square"/>
   </g>
   <g id="patch_45">
    <path d="M 41.513955 442.618135 
L 480.96 442.618135 
" style="fill: none; stroke: #000000; stroke-width: 0.8; stroke-linejoin: miter; stroke-linecap: square"/>
   </g>
   <g id="patch_46">
    <path d="M 41.513955 7.2 
L 480.96 7.2 
" style="fill: none; stroke: #000000; stroke-width: 0.8; stroke-linejoin: miter; stroke-linecap: square"/>
   </g>
   <g id="legend_1">
    <g id="patch_47">
     <path d="M 52.013955 107.437625 
L 191.06278 107.437625 
Q 194.06278 107.437625 194.06278 104.437625 
L 194.06278 17.7 
Q 194.06278 14.7 191.06278 14.7 
L 52.013955 14.7 
Q 49.013955 14.7 49.013955 17.7 
L 49.013955 104.437625 
Q 49.013955 107.437625 52.013955 107.437625 
z
" style="fill: #ffffff; opacity: 0.8; stroke: #cccccc; stroke-linejoin: miter"/>
    </g>
    <g id="patch_48">
     <path d="M 55.013955 31.2 
L 85.013955 31.2 
L 85.013955 20.7 
L 55.013955 20.7 
z
" style="fill: #4c72b0; opacity: 0.35"/>
    </g>
    <g id="text_16">
     <!-- log $p_T$ -->
     <g transform="translate(97.013955 31.2)scale(0.15 -0.15)">
      <defs>
       <path id="CMR17-6c" d="M 979 4416 
L 218 4345 
L 218 4179 
C 595 4179 653 4141 653 3835 
L 653 439 
C 653 198 627 166 218 166 
L 218 0 
C 371 12 653 12 813 12 
C 979 12 1261 12 1414 0 
L 1414 166 
C 1005 166 979 191 979 439 
L 979 4416 
z
" transform="scale(0.015625)"/>
       <path id="CMR17-6f" d="M 2758 1356 
C 2758 2176 2163 2816 1466 2816 
C 768 2816 173 2176 173 1356 
C 173 550 768 -64 1466 -64 
C 2163 -64 2758 550 2758 1356 
z
M 1466 51 
C 1165 51 909 230 762 480 
C 602 768 582 1126 582 1408 
C 582 1676 595 2009 762 2297 
C 890 2508 1139 2713 1466 2713 
C 1754 2713 1997 2553 2150 2329 
C 2349 2028 2349 1606 2349 1408 
C 2349 1158 2336 774 2163 467 
C 1984 172 1709 51 1466 51 
z
" transform="scale(0.015625)"/>
       <path id="CMR17-67" d="M 710 1165 
C 832 1068 1043 960 1299 960 
C 1805 960 2240 1359 2240 1895 
C 2240 2063 2189 2321 1997 2521 
C 2176 2713 2438 2777 2586 2777 
C 2611 2777 2650 2777 2682 2758 
C 2656 2751 2598 2726 2598 2623 
C 2598 2540 2656 2483 2739 2483 
C 2835 2483 2886 2547 2886 2630 
C 2886 2751 2790 2880 2586 2880 
C 2330 2880 2106 2758 1926 2591 
C 1734 2764 1504 2828 1299 2828 
C 794 2828 358 2431 358 1895 
C 358 1527 570 1294 634 1230 
C 442 1004 442 742 442 710 
C 442 544 506 300 723 166 
C 390 82 128 -184 128 -517 
C 128 -996 736 -1344 1466 -1344 
C 2170 -1344 2803 -1009 2803 -510 
C 2803 384 1856 384 1363 384 
C 1216 384 954 384 922 390 
C 723 422 589 601 589 825 
C 589 883 589 1024 710 1165 
z
M 1299 1068 
C 736 1068 736 1766 736 1895 
C 736 2024 736 2719 1299 2719 
C 1862 2719 1862 2024 1862 1895 
C 1862 1766 1862 1068 1299 1068 
z
M 1466 -1236 
C 826 -1236 384 -883 384 -517 
C 384 -311 493 -118 634 -11 
C 794 102 858 102 1293 102 
C 1818 102 2547 102 2547 -517 
C 2547 -883 2106 -1236 1466 -1236 
z
" transform="scale(0.015625)"/>
      </defs>
      <use xlink:href="#CMR17-6c" transform="scale(0.996264)"/>
      <use xlink:href="#CMR17-6f" transform="translate(24.871058 0)scale(0.996264)"/>
      <use xlink:href="#CMR17-67" transform="translate(70.561536 0)scale(0.996264)"/>
      <use xlink:href="#CMMI12-70" transform="translate(146.327979 0)scale(0.996264)"/>
      <use xlink:href="#CMMI12-54" transform="translate(195.287493 -14.943915)scale(0.697382)"/>
     </g>
    </g>
    <g id="patch_49">
     <path d="M 55.013955 52.813715 
L 85.013955 52.813715 
L 85.013955 42.313715 
L 55.013955 42.313715 
z
" style="fill: #55a868"/>
    </g>
    <g id="text_17">
     <!-- $z(log\ p_T$) -->
     <g transform="translate(97.013955 52.813715)scale(0.15 -0.15)">
      <defs>
       <path id="CMMI12-7a" d="M 813 486 
C 1088 809 1312 1015 1632 1313 
C 2016 1657 2182 1822 2272 1922 
C 2720 2371 2944 2713 2944 2764 
C 2944 2816 2893 2816 2880 2816 
C 2835 2816 2822 2790 2790 2745 
C 2630 2470 2477 2368 2310 2368 
C 2176 2368 2106 2403 1984 2547 
C 1850 2707 1741 2816 1555 2816 
C 1088 2816 806 2265 806 2127 
C 806 2107 813 2067 870 2067 
C 922 2067 928 2094 947 2140 
C 1056 2387 1363 2415 1485 2415 
C 1619 2415 1747 2387 1882 2342 
C 2125 2239 2227 2239 2291 2239 
C 2336 2239 2362 2239 2394 2246 
C 2182 1988 1837 1670 1549 1399 
L 902 783 
C 512 380 275 32 275 -13 
C 275 -52 307 -64 346 -64 
C 384 -64 390 -58 435 19 
C 538 179 742 384 979 384 
C 1114 384 1178 356 1306 211 
C 1427 70 1536 -64 1741 -64 
C 2368 -64 2726 723 2726 876 
C 2726 902 2720 942 2656 942 
C 2605 942 2598 915 2579 849 
C 2438 460 2061 336 1811 336 
C 1677 336 1549 364 1414 409 
C 1158 512 1088 512 1005 512 
C 941 512 870 512 813 486 
z
" transform="scale(0.015625)"/>
       <path id="CMR17-28" d="M 1958 -1562 
C 1958 -1556 1958 -1543 1939 -1524 
C 1645 -1223 858 -403 858 1596 
C 858 3595 1632 4408 1946 4729 
C 1946 4735 1958 4748 1958 4767 
C 1958 4787 1939 4800 1914 4800 
C 1843 4800 1299 4325 986 3620 
C 666 2909 576 2218 576 1603 
C 576 1141 621 360 1005 -467 
C 1312 -1133 1837 -1600 1914 -1600 
C 1946 -1600 1958 -1588 1958 -1562 
z
" transform="scale(0.015625)"/>
       <path id="CMMI12-6c" d="M 1626 4255 
C 1632 4281 1645 4319 1645 4351 
C 1645 4416 1581 4416 1568 4416 
C 1562 4416 1331 4396 1216 4383 
C 1107 4377 1011 4364 896 4358 
C 742 4345 698 4339 698 4223 
C 698 4159 762 4159 826 4159 
C 1152 4159 1152 4102 1152 4039 
C 1152 4013 1152 4001 1120 3886 
L 326 731 
C 307 661 294 610 294 509 
C 294 191 531 -64 858 -64 
C 1069 -64 1210 76 1312 273 
C 1421 483 1510 884 1510 909 
C 1510 941 1485 967 1446 967 
C 1389 967 1382 935 1357 839 
C 1242 401 1126 64 870 64 
C 678 64 678 267 678 356 
C 678 382 678 515 723 693 
L 1626 4255 
z
" transform="scale(0.015625)"/>
       <path id="CMMI12-6f" d="M 2918 1755 
C 2918 2362 2522 2816 1939 2816 
C 1094 2816 262 1896 262 996 
C 262 389 659 -64 1242 -64 
C 2093 -64 2918 855 2918 1755 
z
M 1248 64 
C 928 64 691 319 691 766 
C 691 1060 845 1711 1024 2030 
C 1312 2522 1670 2687 1933 2687 
C 2246 2687 2490 2432 2490 1985 
C 2490 1730 2355 1047 2112 657 
C 1850 230 1498 64 1248 64 
z
" transform="scale(0.015625)"/>
       <path id="CMMI12-67" d="M 2163 811 
C 2138 708 2125 683 2042 587 
C 1779 249 1510 128 1312 128 
C 1101 128 902 293 902 734 
C 902 1072 1094 1787 1235 2075 
C 1421 2432 1709 2687 1978 2687 
C 2400 2687 2483 2164 2483 2126 
L 2464 2036 
L 2163 811 
z
M 2560 2394 
C 2477 2579 2298 2816 1978 2816 
C 1280 2816 486 1941 486 989 
C 486 325 890 0 1299 0 
C 1638 0 1939 268 2054 396 
L 1914 -176 
C 1824 -520 1786 -677 1555 -896 
C 1293 -1152 1050 -1152 909 -1152 
C 717 -1152 557 -1140 397 -1090 
C 602 -1034 653 -858 653 -789 
C 653 -689 576 -589 435 -589 
C 282 -589 115 -714 115 -921 
C 115 -1178 378 -1280 922 -1280 
C 1747 -1280 2176 -758 2259 -420 
L 2970 2426 
C 2989 2502 2989 2515 2989 2528 
C 2989 2617 2918 2688 2822 2688 
C 2669 2688 2579 2560 2560 2388 
L 2560 2394 
z
" transform="scale(0.015625)"/>
       <path id="CMR17-29" d="M 1683 1596 
C 1683 2057 1638 2839 1254 3665 
C 947 4332 422 4800 346 4800 
C 326 4800 301 4793 301 4761 
C 301 4748 307 4742 314 4729 
C 621 4408 1402 3595 1402 1603 
C 1402 -396 627 -1210 314 -1530 
C 307 -1543 301 -1549 301 -1562 
C 301 -1594 326 -1600 346 -1600 
C 416 -1600 960 -1127 1274 -422 
C 1594 289 1683 981 1683 1596 
z
" transform="scale(0.015625)"/>
      </defs>
      <use xlink:href="#CMMI12-7a" transform="scale(0.996264)"/>
      <use xlink:href="#CMR17-28" transform="translate(49.755145 0)scale(0.996264)"/>
      <use xlink:href="#CMMI12-6c" transform="translate(85.035913 0)scale(0.996264)"/>
      <use xlink:href="#CMMI12-6f" transform="translate(116.284317 0)scale(0.996264)"/>
      <use xlink:href="#CMMI12-67" transform="translate(163.179626 0)scale(0.996264)"/>
      <use xlink:href="#CMMI12-70" transform="translate(243.541082 0)scale(0.996264)"/>
      <use xlink:href="#CMMI12-54" transform="translate(292.500596 -14.943915)scale(0.697382)"/>
      <use xlink:href="#CMR17-29" transform="translate(342.50505 0)scale(0.996264)"/>
     </g>
    </g>
    <g id="patch_50">
     <path d="M 55.013955 75.257675 
L 85.013955 75.257675 
L 85.013955 64.757675 
L 55.013955 64.757675 
z
" style="fill: #c44e52"/>
    </g>
    <g id="text_18">
     <!-- $z(log\ p_T + 10$) -->
     <g transform="translate(97.013955 75.257675)scale(0.15 -0.15)">
      <defs>
       <path id="CMR17-2b" d="M 2413 1472 
L 4109 1472 
C 4198 1472 4307 1472 4307 1580 
C 4307 1696 4205 1696 4109 1696 
L 2413 1696 
L 2413 3385 
C 2413 3475 2413 3584 2304 3584 
C 2189 3584 2189 3481 2189 3385 
L 2189 1696 
L 493 1696 
C 403 1696 294 1696 294 1587 
C 294 1472 397 1472 493 1472 
L 2189 1472 
L 2189 -194 
C 2189 -282 2189 -391 2298 -391 
C 2413 -391 2413 -289 2413 -194 
L 2413 1472 
z
" transform="scale(0.015625)"/>
      </defs>
      <use xlink:href="#CMMI12-7a" transform="scale(0.996264)"/>
      <use xlink:href="#CMR17-28" transform="translate(49.755145 0)scale(0.996264)"/>
      <use xlink:href="#CMMI12-6c" transform="translate(85.035913 0)scale(0.996264)"/>
      <use xlink:href="#CMMI12-6f" transform="translate(116.284317 0)scale(0.996264)"/>
      <use xlink:href="#CMMI12-67" transform="translate(163.179626 0)scale(0.996264)"/>
      <use xlink:href="#CMMI12-70" transform="translate(243.541082 0)scale(0.996264)"/>
      <use xlink:href="#CMMI12-54" transform="translate(292.500596 -14.943915)scale(0.697382)"/>
      <use xlink:href="#CMR17-2b" transform="translate(364.644257 0)scale(0.996264)"/>
      <use xlink:href="#CMR17-31" transform="translate(458.498252 0)scale(0.996264)"/>
      <use xlink:href="#CMR17-30" transform="translate(504.18873 0)scale(0.996264)"/>
      <use xlink:href="#CMR17-29" transform="translate(549.879207 0)scale(0.996264)"/>
     </g>
    </g>
    <g id="patch_51">
     <path d="M 55.013955 97.701635 
L 85.013955 97.701635 
L 85.013955 87.201635 
L 55.013955 87.201635 
z
" style="fill: #8172b2; opacity: 0.35"/>
    </g>
    <g id="text_19">
     <!-- $z(log\ p_T)+10$ -->
     <g transform="translate(97.013955 97.701635)scale(0.15 -0.15)">
      <use xlink:href="#CMMI12-7a" transform="scale(0.996264)"/>
      <use xlink:href="#CMR17-28" transform="translate(49.755145 0)scale(0.996264)"/>
      <use xlink:href="#CMMI12-6c" transform="translate(85.035913 0)scale(0.996264)"/>
      <use xlink:href="#CMMI12-6f" transform="translate(116.284317 0)scale(0.996264)"/>
      <use xlink:href="#CMMI12-67" transform="translate(163.179626 0)scale(0.996264)"/>
      <use xlink:href="#CMMI12-70" transform="translate(243.541082 0)scale(0.996264)"/>
      <use xlink:href="#CMMI12-54" transform="translate(292.500596 -14.943915)scale(0.697382)"/>
      <use xlink:href="#CMR17-29" transform="translate(342.50505 0)scale(0.996264)"/>
      <use xlink:href="#CMR17-2b" transform="translate(399.925025 0)scale(0.996264)"/>
      <use xlink:href="#CMR17-31" transform="translate(493.77902 0)scale(0.996264)"/>
      <use xlink:href="#CMR17-30" transform="translate(539.469497 0)scale(0.996264)"/>
     </g>
    </g>
   </g>
  </g>
 </g>
 <defs>
  <clipPath id="p77bebbddac">
   <rect x="41.513955" y="7.2" width="439.446045" height="435.418135"/>
  </clipPath>
 </defs>
</svg>
