<?xml version="1.0" encoding="utf-8" standalone="no"?>
<!DOCTYPE svg PUBLIC "-//W3C//DTD SVG 1.1//EN"
  "http://www.w3.org/Graphics/SVG/1.1/DTD/svg11.dtd">
<svg xmlns:xlink="http://www.w3.org/1999/xlink" width="412.662443pt" height="299.909905pt" viewBox="0 0 412.662443 299.909905" xmlns="http://www.w3.org/2000/svg" version="1.1">
 <metadata>
  <rdf:RDF xmlns:dc="http://purl.org/dc/elements/1.1/" xmlns:cc="http://creativecommons.org/ns#" xmlns:rdf="http://www.w3.org/1999/02/22-rdf-syntax-ns#">
   <cc:Work>
    <dc:type rdf:resource="http://purl.org/dc/dcmitype/StillImage"/>
    <dc:date>2022-12-06T17:45:10.211605</dc:date>
    <dc:format>image/svg+xml</dc:format>
    <dc:creator>
     <cc:Agent>
      <dc:title>Matplotlib v3.5.1, https://matplotlib.org/</dc:title>
     </cc:Agent>
    </dc:creator>
   </cc:Work>
  </rdf:RDF>
 </metadata>
 <defs>
  <style type="text/css">*{stroke-linejoin: round; stroke-linecap: butt}</style>
 </defs>
 <g id="figure_1">
  <g id="patch_1">
   <path d="M 0 299.909905 
L 412.662443 299.909905 
L 412.662443 0 
L 0 0 
z
" style="fill: #ffffff"/>
  </g>
  <g id="axes_1">
   <g id="patch_2">
    <path d="M 48.342443 273.312 
L 405.462443 273.312 
L 405.462443 7.2 
L 48.342443 7.2 
z
" style="fill: #ffffff"/>
   </g>
   <g id="patch_3">
    <path d="M 64.57517 273.312 
L 90.691657 273.312 
L 90.691657 273.201718 
L 64.57517 273.201718 
z
" clip-path="url(#p2ff47c5635)" style="fill: #4c72b0"/>
   </g>
   <g id="patch_4">
    <path d="M 90.691657 273.312 
L 116.808144 273.312 
L 116.808144 272.679329 
L 90.691657 272.679329 
z
" clip-path="url(#p2ff47c5635)" style="fill: #4c72b0"/>
   </g>
   <g id="patch_5">
    <path d="M 116.808144 273.312 
L 142.924631 273.312 
L 142.924631 270.601381 
L 116.808144 270.601381 
z
" clip-path="url(#p2ff47c5635)" style="fill: #4c72b0"/>
   </g>
   <g id="patch_6">
    <path d="M 142.924631 273.312 
L 169.041118 273.312 
L 169.041118 258.342649 
L 142.924631 258.342649 
z
" clip-path="url(#p2ff47c5635)" style="fill: #4c72b0"/>
   </g>
   <g id="patch_7">
    <path d="M 169.041118 273.312 
L 195.157605 273.312 
L 195.157605 198.796089 
L 169.041118 198.796089 
z
" clip-path="url(#p2ff47c5635)" style="fill: #4c72b0"/>
   </g>
   <g id="patch_8">
    <path d="M 195.157605 273.312 
L 221.274092 273.312 
L 221.274092 50.30407 
L 195.157605 50.30407 
z
" clip-path="url(#p2ff47c5635)" style="fill: #4c72b0"/>
   </g>
   <g id="patch_9">
    <path d="M 221.274092 273.312 
L 247.390579 273.312 
L 247.390579 37.459102 
L 221.274092 37.459102 
z
" clip-path="url(#p2ff47c5635)" style="fill: #4c72b0"/>
   </g>
   <g id="patch_10">
    <path d="M 247.390579 273.312 
L 273.507066 273.312 
L 273.507066 246.530849 
L 247.390579 246.530849 
z
" clip-path="url(#p2ff47c5635)" style="fill: #4c72b0"/>
   </g>
   <g id="patch_11">
    <path d="M 273.507066 273.312 
L 299.623553 273.312 
L 299.623553 271.617137 
L 273.507066 271.617137 
z
" clip-path="url(#p2ff47c5635)" style="fill: #4c72b0"/>
   </g>
   <g id="patch_12">
    <path d="M 299.623553 273.312 
L 325.74004 273.312 
L 325.74004 273.155283 
L 299.623553 273.155283 
z
" clip-path="url(#p2ff47c5635)" style="fill: #4c72b0"/>
   </g>
   <g id="patch_13">
    <path d="M 187.718817 273.312 
L 207.869906 273.312 
L 207.869906 19.872 
L 187.718817 19.872 
z
" clip-path="url(#p2ff47c5635)" style="fill: #55a868; opacity: 0.35"/>
   </g>
   <g id="patch_14">
    <path d="M 207.869906 273.312 
L 228.020996 273.312 
L 228.020996 88.072806 
L 207.869906 88.072806 
z
" clip-path="url(#p2ff47c5635)" style="fill: #55a868; opacity: 0.35"/>
   </g>
   <g id="patch_15">
    <path d="M 228.020996 273.312 
L 248.172086 273.312 
L 248.172086 184.372344 
L 228.020996 184.372344 
z
" clip-path="url(#p2ff47c5635)" style="fill: #55a868; opacity: 0.35"/>
   </g>
   <g id="patch_16">
    <path d="M 248.172086 273.312 
L 268.323176 273.312 
L 268.323176 238.962011 
L 248.172086 238.962011 
z
" clip-path="url(#p2ff47c5635)" style="fill: #55a868; opacity: 0.35"/>
   </g>
   <g id="patch_17">
    <path d="M 268.323176 273.312 
L 288.474266 273.312 
L 288.474266 260.066533 
L 268.323176 260.066533 
z
" clip-path="url(#p2ff47c5635)" style="fill: #55a868; opacity: 0.35"/>
   </g>
   <g id="patch_18">
    <path d="M 288.474266 273.312 
L 308.625356 273.312 
L 308.625356 269.829406 
L 288.474266 269.829406 
z
" clip-path="url(#p2ff47c5635)" style="fill: #55a868; opacity: 0.35"/>
   </g>
   <g id="patch_19">
    <path d="M 308.625356 273.312 
L 328.776446 273.312 
L 328.776446 272.290439 
L 308.625356 272.290439 
z
" clip-path="url(#p2ff47c5635)" style="fill: #55a868; opacity: 0.35"/>
   </g>
   <g id="patch_20">
    <path d="M 328.776446 273.312 
L 348.927536 273.312 
L 348.927536 272.824437 
L 328.776446 272.824437 
z
" clip-path="url(#p2ff47c5635)" style="fill: #55a868; opacity: 0.35"/>
   </g>
   <g id="patch_21">
    <path d="M 348.927536 273.312 
L 369.078626 273.312 
L 369.078626 273.190109 
L 348.927536 273.190109 
z
" clip-path="url(#p2ff47c5635)" style="fill: #55a868; opacity: 0.35"/>
   </g>
   <g id="patch_22">
    <path d="M 369.078626 273.312 
L 389.229716 273.312 
L 389.229716 273.207522 
L 369.078626 273.207522 
z
" clip-path="url(#p2ff47c5635)" style="fill: #55a868; opacity: 0.35"/>
   </g>
   <g id="patch_23">
    <path d="M 163.844863 273.312 
L 174.240181 273.312 
L 174.240181 258.632865 
L 163.844863 258.632865 
z
" clip-path="url(#p2ff47c5635)" style="fill: #c44e52; opacity: 0.35"/>
   </g>
   <g id="patch_24">
    <path d="M 174.240181 273.312 
L 184.6355 273.312 
L 184.6355 235.102136 
L 174.240181 235.102136 
z
" clip-path="url(#p2ff47c5635)" style="fill: #c44e52; opacity: 0.35"/>
   </g>
   <g id="patch_25">
    <path d="M 184.6355 273.312 
L 195.030818 273.312 
L 195.030818 212.778706 
L 184.6355 212.778706 
z
" clip-path="url(#p2ff47c5635)" style="fill: #c44e52; opacity: 0.35"/>
   </g>
   <g id="patch_26">
    <path d="M 195.030818 273.312 
L 205.426137 273.312 
L 205.426137 192.52742 
L 195.030818 192.52742 
z
" clip-path="url(#p2ff47c5635)" style="fill: #c44e52; opacity: 0.35"/>
   </g>
   <g id="patch_27">
    <path d="M 205.426137 273.312 
L 215.821455 273.312 
L 215.821455 181.528226 
L 205.426137 181.528226 
z
" clip-path="url(#p2ff47c5635)" style="fill: #c44e52; opacity: 0.35"/>
   </g>
   <g id="patch_28">
    <path d="M 215.821455 273.312 
L 226.216774 273.312 
L 226.216774 178.475151 
L 215.821455 178.475151 
z
" clip-path="url(#p2ff47c5635)" style="fill: #c44e52; opacity: 0.35"/>
   </g>
   <g id="patch_29">
    <path d="M 226.216774 273.312 
L 236.612092 273.312 
L 236.612092 191.093752 
L 226.216774 191.093752 
z
" clip-path="url(#p2ff47c5635)" style="fill: #c44e52; opacity: 0.35"/>
   </g>
   <g id="patch_30">
    <path d="M 236.612092 273.312 
L 247.00741 273.312 
L 247.00741 210.590476 
L 236.612092 210.590476 
z
" clip-path="url(#p2ff47c5635)" style="fill: #c44e52; opacity: 0.35"/>
   </g>
   <g id="patch_31">
    <path d="M 247.00741 273.312 
L 257.402729 273.312 
L 257.402729 233.987705 
L 247.00741 233.987705 
z
" clip-path="url(#p2ff47c5635)" style="fill: #c44e52; opacity: 0.35"/>
   </g>
   <g id="patch_32">
    <path d="M 257.402729 273.312 
L 267.798047 273.312 
L 267.798047 257.971172 
L 257.402729 257.971172 
z
" clip-path="url(#p2ff47c5635)" style="fill: #c44e52; opacity: 0.35"/>
   </g>
   <g id="patch_33">
    <path d="M 177.191568 273.312 
L 184.95492 273.312 
L 184.95492 216.632777 
L 177.191568 216.632777 
z
" clip-path="url(#p2ff47c5635)" style="fill: #8172b2; opacity: 0.35"/>
   </g>
   <g id="patch_34">
    <path d="M 184.95492 273.312 
L 192.718271 273.312 
L 192.718271 215.129457 
L 184.95492 215.129457 
z
" clip-path="url(#p2ff47c5635)" style="fill: #8172b2; opacity: 0.35"/>
   </g>
   <g id="patch_35">
    <path d="M 192.718271 273.312 
L 200.481622 273.312 
L 200.481622 214.75798 
L 192.718271 214.75798 
z
" clip-path="url(#p2ff47c5635)" style="fill: #8172b2; opacity: 0.35"/>
   </g>
   <g id="patch_36">
    <path d="M 200.481622 273.312 
L 208.244973 273.312 
L 208.244973 214.630285 
L 200.481622 214.630285 
z
" clip-path="url(#p2ff47c5635)" style="fill: #8172b2; opacity: 0.35"/>
   </g>
   <g id="patch_37">
    <path d="M 208.244973 273.312 
L 216.008324 273.312 
L 216.008324 215.895628 
L 208.244973 215.895628 
z
" clip-path="url(#p2ff47c5635)" style="fill: #8172b2; opacity: 0.35"/>
   </g>
   <g id="patch_38">
    <path d="M 216.008324 273.312 
L 223.771675 273.312 
L 223.771675 215.988497 
L 216.008324 215.988497 
z
" clip-path="url(#p2ff47c5635)" style="fill: #8172b2; opacity: 0.35"/>
   </g>
   <g id="patch_39">
    <path d="M 223.771675 273.312 
L 231.535027 273.312 
L 231.535027 214.816023 
L 223.771675 214.816023 
z
" clip-path="url(#p2ff47c5635)" style="fill: #8172b2; opacity: 0.35"/>
   </g>
   <g id="patch_40">
    <path d="M 231.535027 273.312 
L 239.298378 273.312 
L 239.298378 215.233935 
L 231.535027 215.233935 
z
" clip-path="url(#p2ff47c5635)" style="fill: #8172b2; opacity: 0.35"/>
   </g>
   <g id="patch_41">
    <path d="M 239.298378 273.312 
L 247.061729 273.312 
L 247.061729 214.787002 
L 239.298378 214.787002 
z
" clip-path="url(#p2ff47c5635)" style="fill: #8172b2; opacity: 0.35"/>
   </g>
   <g id="patch_42">
    <path d="M 247.061729 273.312 
L 254.82508 273.312 
L 254.82508 214.816023 
L 247.061729 214.816023 
z
" clip-path="url(#p2ff47c5635)" style="fill: #8172b2; opacity: 0.35"/>
   </g>
   <g id="patch_43">
    <path d="M 103.051396 273.312 
L 130.976342 273.312 
L 130.976342 273.219131 
L 103.051396 273.219131 
z
" clip-path="url(#p2ff47c5635)" style="fill: #ccb974; opacity: 0.35"/>
   </g>
   <g id="patch_44">
    <path d="M 130.976342 273.312 
L 158.901289 273.312 
L 158.901289 270.839358 
L 130.976342 270.839358 
z
" clip-path="url(#p2ff47c5635)" style="fill: #ccb974; opacity: 0.35"/>
   </g>
   <g id="patch_45">
    <path d="M 158.901289 273.312 
L 186.826236 273.312 
L 186.826236 224.886525 
L 158.901289 224.886525 
z
" clip-path="url(#p2ff47c5635)" style="fill: #ccb974; opacity: 0.35"/>
   </g>
   <g id="patch_46">
    <path d="M 186.826236 273.312 
L 214.751182 273.312 
L 214.751182 42.601733 
L 186.826236 42.601733 
z
" clip-path="url(#p2ff47c5635)" style="fill: #ccb974; opacity: 0.35"/>
   </g>
   <g id="patch_47">
    <path d="M 214.751182 273.312 
L 242.676129 273.312 
L 242.676129 38.411011 
L 214.751182 38.411011 
z
" clip-path="url(#p2ff47c5635)" style="fill: #ccb974; opacity: 0.35"/>
   </g>
   <g id="patch_48">
    <path d="M 242.676129 273.312 
L 270.601076 273.312 
L 270.601076 217.097123 
L 242.676129 217.097123 
z
" clip-path="url(#p2ff47c5635)" style="fill: #ccb974; opacity: 0.35"/>
   </g>
   <g id="patch_49">
    <path d="M 270.601076 273.312 
L 298.526022 273.312 
L 298.526022 266.741505 
L 270.601076 266.741505 
z
" clip-path="url(#p2ff47c5635)" style="fill: #ccb974; opacity: 0.35"/>
   </g>
   <g id="patch_50">
    <path d="M 298.526022 273.312 
L 326.450969 273.312 
L 326.450969 272.418134 
L 298.526022 272.418134 
z
" clip-path="url(#p2ff47c5635)" style="fill: #ccb974; opacity: 0.35"/>
   </g>
   <g id="patch_51">
    <path d="M 326.450969 273.312 
L 354.375916 273.312 
L 354.375916 273.166892 
L 326.450969 273.166892 
z
" clip-path="url(#p2ff47c5635)" style="fill: #ccb974; opacity: 0.35"/>
   </g>
   <g id="patch_52">
    <path d="M 354.375916 273.312 
L 382.300862 273.312 
L 382.300862 273.306196 
L 354.375916 273.306196 
z
" clip-path="url(#p2ff47c5635)" style="fill: #ccb974; opacity: 0.35"/>
   </g>
   <g id="patch_53">
    <path d="M 177.244075 273.312 
L 184.999591 273.312 
L 184.999591 215.384847 
L 177.244075 215.384847 
z
" clip-path="url(#p2ff47c5635)" style="fill: #64b5cd; opacity: 0.35"/>
   </g>
   <g id="patch_54">
    <path d="M 184.999591 273.312 
L 192.755107 273.312 
L 192.755107 215.802759 
L 184.999591 215.802759 
z
" clip-path="url(#p2ff47c5635)" style="fill: #64b5cd; opacity: 0.35"/>
   </g>
   <g id="patch_55">
    <path d="M 192.755107 273.312 
L 200.510623 273.312 
L 200.510623 215.141066 
L 192.755107 215.141066 
z
" clip-path="url(#p2ff47c5635)" style="fill: #64b5cd; opacity: 0.35"/>
   </g>
   <g id="patch_56">
    <path d="M 200.510623 273.312 
L 208.26614 273.312 
L 208.26614 215.390652 
L 200.510623 215.390652 
z
" clip-path="url(#p2ff47c5635)" style="fill: #64b5cd; opacity: 0.35"/>
   </g>
   <g id="patch_57">
    <path d="M 208.26614 273.312 
L 216.021656 273.312 
L 216.021656 215.820171 
L 208.26614 215.820171 
z
" clip-path="url(#p2ff47c5635)" style="fill: #64b5cd; opacity: 0.35"/>
   </g>
   <g id="patch_58">
    <path d="M 216.021656 273.312 
L 223.777172 273.312 
L 223.777172 214.624481 
L 216.021656 214.624481 
z
" clip-path="url(#p2ff47c5635)" style="fill: #64b5cd; opacity: 0.35"/>
   </g>
   <g id="patch_59">
    <path d="M 223.777172 273.312 
L 231.532688 273.312 
L 231.532688 216.174235 
L 223.777172 216.174235 
z
" clip-path="url(#p2ff47c5635)" style="fill: #64b5cd; opacity: 0.35"/>
   </g>
   <g id="patch_60">
    <path d="M 231.532688 273.312 
L 239.288204 273.312 
L 239.288204 214.54322 
L 231.532688 214.54322 
z
" clip-path="url(#p2ff47c5635)" style="fill: #64b5cd; opacity: 0.35"/>
   </g>
   <g id="patch_61">
    <path d="M 239.288204 273.312 
L 247.04372 273.312 
L 247.04372 215.001762 
L 239.288204 215.001762 
z
" clip-path="url(#p2ff47c5635)" style="fill: #64b5cd; opacity: 0.35"/>
   </g>
   <g id="patch_62">
    <path d="M 247.04372 273.312 
L 254.799237 273.312 
L 254.799237 214.804415 
L 247.04372 214.804415 
z
" clip-path="url(#p2ff47c5635)" style="fill: #64b5cd; opacity: 0.35"/>
   </g>
   <g id="matplotlib.axis_1">
    <g id="xtick_1">
     <g id="line2d_1">
      <defs>
       <path id="m2f57d7c4d7" d="M 0 0 
L 0 3.5 
" style="stroke: #000000; stroke-width: 0.8"/>
      </defs>
      <g>
       <use xlink:href="#m2f57d7c4d7" x="81.632192" y="273.312" style="stroke: #000000; stroke-width: 0.8"/>
      </g>
     </g>
     <g id="text_1">
      <!-- $\mathdefault{−6}$ -->
      <g transform="translate(72.79383 289.997876)scale(0.14 -0.14)">
       <defs>
        <path id="CMSY10-0" d="M 4218 1472 
C 4326 1472 4442 1472 4442 1600 
C 4442 1728 4326 1728 4218 1728 
L 755 1728 
C 646 1728 531 1728 531 1600 
C 531 1472 646 1472 755 1472 
L 4218 1472 
z
" transform="scale(0.015625)"/>
        <path id="CMR17-36" d="M 678 2198 
C 678 3712 1395 4076 1811 4076 
C 1946 4076 2272 4049 2400 3782 
C 2298 3782 2106 3782 2106 3558 
C 2106 3385 2246 3328 2336 3328 
C 2394 3328 2566 3353 2566 3571 
C 2566 3987 2246 4224 1805 4224 
C 1043 4224 243 3411 243 2011 
C 243 257 966 -128 1478 -128 
C 2099 -128 2688 431 2688 1295 
C 2688 2101 2170 2688 1517 2688 
C 1126 2688 838 2430 678 1979 
L 678 2198 
z
M 1478 25 
C 691 25 691 1212 691 1450 
C 691 1914 909 2585 1504 2585 
C 1613 2585 1926 2585 2138 2140 
C 2253 1889 2253 1624 2253 1302 
C 2253 954 2253 696 2118 438 
C 1978 173 1773 25 1478 25 
z
" transform="scale(0.015625)"/>
       </defs>
       <use xlink:href="#CMSY10-0" transform="scale(0.996264)"/>
       <use xlink:href="#CMR17-36" transform="translate(77.487468 0)scale(0.996264)"/>
      </g>
     </g>
    </g>
    <g id="xtick_2">
     <g id="line2d_2">
      <g>
       <use xlink:href="#m2f57d7c4d7" x="126.458291" y="273.312" style="stroke: #000000; stroke-width: 0.8"/>
      </g>
     </g>
     <g id="text_2">
      <!-- $\mathdefault{−4}$ -->
      <g transform="translate(117.619929 289.997876)scale(0.14 -0.14)">
       <defs>
        <path id="CMR17-34" d="M 2150 4147 
C 2150 4281 2144 4288 2029 4288 
L 128 1254 
L 128 1088 
L 1779 1088 
L 1779 460 
C 1779 230 1766 166 1318 166 
L 1197 166 
L 1197 0 
C 1402 12 1747 12 1965 12 
C 2182 12 2528 12 2733 0 
L 2733 166 
L 2611 166 
C 2163 166 2150 230 2150 460 
L 2150 1088 
L 2803 1088 
L 2803 1254 
L 2150 1254 
L 2150 4147 
z
M 1798 3723 
L 1798 1254 
L 256 1254 
L 1798 3723 
z
" transform="scale(0.015625)"/>
       </defs>
       <use xlink:href="#CMSY10-0" transform="scale(0.996264)"/>
       <use xlink:href="#CMR17-34" transform="translate(77.487468 0)scale(0.996264)"/>
      </g>
     </g>
    </g>
    <g id="xtick_3">
     <g id="line2d_3">
      <g>
       <use xlink:href="#m2f57d7c4d7" x="171.28439" y="273.312" style="stroke: #000000; stroke-width: 0.8"/>
      </g>
     </g>
     <g id="text_3">
      <!-- $\mathdefault{−2}$ -->
      <g transform="translate(162.446028 289.997876)scale(0.14 -0.14)">
       <defs>
        <path id="CMR17-32" d="M 2669 990 
L 2554 990 
C 2490 537 2438 460 2413 422 
C 2381 371 1920 371 1830 371 
L 602 371 
C 832 620 1280 1073 1824 1596 
C 2214 1966 2669 2400 2669 3033 
C 2669 3788 2067 4224 1395 4224 
C 691 4224 262 3603 262 3027 
C 262 2777 448 2745 525 2745 
C 589 2745 781 2783 781 3007 
C 781 3206 614 3264 525 3264 
C 486 3264 448 3257 422 3244 
C 544 3788 915 4057 1306 4057 
C 1862 4057 2227 3616 2227 3033 
C 2227 2477 1901 1998 1536 1583 
L 262 147 
L 262 0 
L 2515 0 
L 2669 990 
z
" transform="scale(0.015625)"/>
       </defs>
       <use xlink:href="#CMSY10-0" transform="scale(0.996264)"/>
       <use xlink:href="#CMR17-32" transform="translate(77.487468 0)scale(0.996264)"/>
      </g>
     </g>
    </g>
    <g id="xtick_4">
     <g id="line2d_4">
      <g>
       <use xlink:href="#m2f57d7c4d7" x="216.110489" y="273.312" style="stroke: #000000; stroke-width: 0.8"/>
      </g>
     </g>
     <g id="text_4">
      <!-- $\mathdefault{0}$ -->
      <g transform="translate(212.696245 289.997876)scale(0.14 -0.14)">
       <defs>
        <path id="CMR17-30" d="M 2688 2038 
C 2688 2430 2682 3099 2413 3613 
C 2176 4063 1798 4224 1466 4224 
C 1158 4224 768 4082 525 3620 
C 269 3137 243 2539 243 2038 
C 243 1671 250 1112 448 623 
C 723 -39 1216 -128 1466 -128 
C 1760 -128 2208 -7 2470 604 
C 2662 1048 2688 1568 2688 2038 
z
M 1466 -26 
C 1056 -26 813 328 723 816 
C 653 1196 653 1749 653 2109 
C 653 2604 653 3015 736 3407 
C 858 3954 1216 4121 1466 4121 
C 1728 4121 2067 3947 2189 3420 
C 2272 3054 2278 2623 2278 2109 
C 2278 1691 2278 1176 2202 797 
C 2067 96 1690 -26 1466 -26 
z
" transform="scale(0.015625)"/>
       </defs>
       <use xlink:href="#CMR17-30" transform="scale(0.996264)"/>
      </g>
     </g>
    </g>
    <g id="xtick_5">
     <g id="line2d_5">
      <g>
       <use xlink:href="#m2f57d7c4d7" x="260.936588" y="273.312" style="stroke: #000000; stroke-width: 0.8"/>
      </g>
     </g>
     <g id="text_5">
      <!-- $\mathdefault{2}$ -->
      <g transform="translate(257.522344 289.997876)scale(0.14 -0.14)">
       <use xlink:href="#CMR17-32" transform="scale(0.996264)"/>
      </g>
     </g>
    </g>
    <g id="xtick_6">
     <g id="line2d_6">
      <g>
       <use xlink:href="#m2f57d7c4d7" x="305.762687" y="273.312" style="stroke: #000000; stroke-width: 0.8"/>
      </g>
     </g>
     <g id="text_6">
      <!-- $\mathdefault{4}$ -->
      <g transform="translate(302.348443 289.997876)scale(0.14 -0.14)">
       <use xlink:href="#CMR17-34" transform="scale(0.996264)"/>
      </g>
     </g>
    </g>
    <g id="xtick_7">
     <g id="line2d_7">
      <g>
       <use xlink:href="#m2f57d7c4d7" x="350.588786" y="273.312" style="stroke: #000000; stroke-width: 0.8"/>
      </g>
     </g>
     <g id="text_7">
      <!-- $\mathdefault{6}$ -->
      <g transform="translate(347.174542 289.997876)scale(0.14 -0.14)">
       <use xlink:href="#CMR17-36" transform="scale(0.996264)"/>
      </g>
     </g>
    </g>
    <g id="xtick_8">
     <g id="line2d_8">
      <g>
       <use xlink:href="#m2f57d7c4d7" x="395.414885" y="273.312" style="stroke: #000000; stroke-width: 0.8"/>
      </g>
     </g>
     <g id="text_8">
      <!-- $\mathdefault{8}$ -->
      <g transform="translate(392.000641 289.997876)scale(0.14 -0.14)">
       <defs>
        <path id="CMR17-38" d="M 1741 2289 
C 2144 2494 2554 2803 2554 3298 
C 2554 3884 1990 4224 1472 4224 
C 890 4224 378 3800 378 3215 
C 378 3054 416 2777 666 2533 
C 730 2469 998 2276 1171 2154 
C 883 2006 211 1652 211 945 
C 211 282 838 -128 1459 -128 
C 2144 -128 2720 366 2720 1022 
C 2720 1607 2330 1877 2074 2051 
L 1741 2289 
z
M 902 2855 
C 851 2887 595 3086 595 3388 
C 595 3781 998 4076 1459 4076 
C 1965 4076 2336 3716 2336 3298 
C 2336 2700 1670 2359 1638 2359 
C 1632 2359 1626 2359 1574 2398 
L 902 2855 
z
M 2080 1536 
C 2176 1466 2483 1253 2483 861 
C 2483 385 2010 25 1472 25 
C 890 25 448 443 448 951 
C 448 1459 838 1884 1280 2083 
L 2080 1536 
z
" transform="scale(0.015625)"/>
       </defs>
       <use xlink:href="#CMR17-38" transform="scale(0.996264)"/>
      </g>
     </g>
    </g>
   </g>
   <g id="matplotlib.axis_2">
    <g id="ytick_1">
     <g id="line2d_9">
      <defs>
       <path id="m04ead21e74" d="M 0 0 
L -3.5 0 
" style="stroke: #000000; stroke-width: 0.8"/>
      </defs>
      <g>
       <use xlink:href="#m04ead21e74" x="48.342443" y="273.312" style="stroke: #000000; stroke-width: 0.8"/>
      </g>
     </g>
     <g id="text_9">
      <!-- $\mathdefault{0}$ -->
      <g transform="translate(34.513955 278.154938)scale(0.14 -0.14)">
       <use xlink:href="#CMR17-30" transform="scale(0.996264)"/>
      </g>
     </g>
    </g>
    <g id="ytick_2">
     <g id="line2d_10">
      <g>
       <use xlink:href="#m04ead21e74" x="48.342443" y="215.268761" style="stroke: #000000; stroke-width: 0.8"/>
      </g>
     </g>
     <g id="text_10">
      <!-- $\mathdefault{10000}$ -->
      <g transform="translate(7.2 220.111699)scale(0.14 -0.14)">
       <defs>
        <path id="CMR17-31" d="M 1702 4083 
C 1702 4217 1696 4224 1606 4224 
C 1357 3927 979 3833 621 3820 
C 602 3820 570 3820 563 3808 
C 557 3795 557 3782 557 3648 
C 755 3648 1088 3686 1344 3839 
L 1344 467 
C 1344 243 1331 166 781 166 
L 589 166 
L 589 0 
C 896 6 1216 12 1523 12 
C 1830 12 2150 6 2458 0 
L 2458 166 
L 2266 166 
C 1715 166 1702 236 1702 467 
L 1702 4083 
z
" transform="scale(0.015625)"/>
       </defs>
       <use xlink:href="#CMR17-31" transform="scale(0.996264)"/>
       <use xlink:href="#CMR17-30" transform="translate(45.690477 0)scale(0.996264)"/>
       <use xlink:href="#CMR17-30" transform="translate(91.380954 0)scale(0.996264)"/>
       <use xlink:href="#CMR17-30" transform="translate(137.071431 0)scale(0.996264)"/>
       <use xlink:href="#CMR17-30" transform="translate(182.761908 0)scale(0.996264)"/>
      </g>
     </g>
    </g>
    <g id="ytick_3">
     <g id="line2d_11">
      <g>
       <use xlink:href="#m04ead21e74" x="48.342443" y="157.225521" style="stroke: #000000; stroke-width: 0.8"/>
      </g>
     </g>
     <g id="text_11">
      <!-- $\mathdefault{20000}$ -->
      <g transform="translate(7.2 162.06846)scale(0.14 -0.14)">
       <use xlink:href="#CMR17-32" transform="scale(0.996264)"/>
       <use xlink:href="#CMR17-30" transform="translate(45.690477 0)scale(0.996264)"/>
       <use xlink:href="#CMR17-30" transform="translate(91.380954 0)scale(0.996264)"/>
       <use xlink:href="#CMR17-30" transform="translate(137.071431 0)scale(0.996264)"/>
       <use xlink:href="#CMR17-30" transform="translate(182.761908 0)scale(0.996264)"/>
      </g>
     </g>
    </g>
    <g id="ytick_4">
     <g id="line2d_12">
      <g>
       <use xlink:href="#m04ead21e74" x="48.342443" y="99.182282" style="stroke: #000000; stroke-width: 0.8"/>
      </g>
     </g>
     <g id="text_12">
      <!-- $\mathdefault{30000}$ -->
      <g transform="translate(7.2 104.02522)scale(0.14 -0.14)">
       <defs>
        <path id="CMR17-33" d="M 1414 2176 
C 1984 2176 2234 1673 2234 1094 
C 2234 322 1824 25 1453 25 
C 1114 25 563 193 390 691 
C 422 678 454 678 486 678 
C 640 678 755 780 755 947 
C 755 1132 614 1216 486 1216 
C 378 1216 211 1164 211 927 
C 211 335 787 -128 1466 -128 
C 2176 -128 2720 432 2720 1087 
C 2720 1718 2208 2176 1600 2246 
C 2086 2347 2554 2776 2554 3353 
C 2554 3856 2048 4224 1472 4224 
C 890 4224 378 3862 378 3347 
C 378 3123 544 3084 627 3084 
C 762 3084 877 3167 877 3334 
C 877 3500 762 3584 627 3584 
C 602 3584 570 3584 544 3571 
C 730 3999 1235 4076 1459 4076 
C 1683 4076 2106 3966 2106 3347 
C 2106 3167 2080 2851 1862 2574 
C 1670 2329 1453 2316 1242 2297 
C 1210 2297 1062 2284 1037 2284 
C 992 2278 966 2272 966 2227 
C 966 2182 973 2176 1101 2176 
L 1414 2176 
z
" transform="scale(0.015625)"/>
       </defs>
       <use xlink:href="#CMR17-33" transform="scale(0.996264)"/>
       <use xlink:href="#CMR17-30" transform="translate(45.690477 0)scale(0.996264)"/>
       <use xlink:href="#CMR17-30" transform="translate(91.380954 0)scale(0.996264)"/>
       <use xlink:href="#CMR17-30" transform="translate(137.071431 0)scale(0.996264)"/>
       <use xlink:href="#CMR17-30" transform="translate(182.761908 0)scale(0.996264)"/>
      </g>
     </g>
    </g>
    <g id="ytick_5">
     <g id="line2d_13">
      <g>
       <use xlink:href="#m04ead21e74" x="48.342443" y="41.139043" style="stroke: #000000; stroke-width: 0.8"/>
      </g>
     </g>
     <g id="text_13">
      <!-- $\mathdefault{40000}$ -->
      <g transform="translate(7.2 45.981981)scale(0.14 -0.14)">
       <use xlink:href="#CMR17-34" transform="scale(0.996264)"/>
       <use xlink:href="#CMR17-30" transform="translate(45.690477 0)scale(0.996264)"/>
       <use xlink:href="#CMR17-30" transform="translate(91.380954 0)scale(0.996264)"/>
       <use xlink:href="#CMR17-30" transform="translate(137.071431 0)scale(0.996264)"/>
       <use xlink:href="#CMR17-30" transform="translate(182.761908 0)scale(0.996264)"/>
      </g>
     </g>
    </g>
   </g>
   <g id="patch_63">
    <path d="M 48.342443 273.312 
L 48.342443 7.2 
" style="fill: none; stroke: #000000; stroke-width: 0.8; stroke-linejoin: miter; stroke-linecap: square"/>
   </g>
   <g id="patch_64">
    <path d="M 405.462443 273.312 
L 405.462443 7.2 
" style="fill: none; stroke: #000000; stroke-width: 0.8; stroke-linejoin: miter; stroke-linecap: square"/>
   </g>
   <g id="patch_65">
    <path d="M 48.342443 273.312 
L 405.462443 273.312 
" style="fill: none; stroke: #000000; stroke-width: 0.8; stroke-linejoin: miter; stroke-linecap: square"/>
   </g>
   <g id="patch_66">
    <path d="M 48.342443 7.2 
L 405.462443 7.2 
" style="fill: none; stroke: #000000; stroke-width: 0.8; stroke-linejoin: miter; stroke-linecap: square"/>
   </g>
   <g id="legend_1">
    <g id="patch_67">
     <path d="M 282.577557 135.47217 
L 395.662443 135.47217 
Q 398.462443 135.47217 398.462443 132.67217 
L 398.462443 17 
Q 398.462443 14.2 395.662443 14.2 
L 282.577557 14.2 
Q 279.777557 14.2 279.777557 17 
L 279.777557 132.67217 
Q 279.777557 135.47217 282.577557 135.47217 
z
" style="fill: #ffffff; opacity: 0.8; stroke: #cccccc; stroke-linejoin: miter"/>
    </g>
    <g id="patch_68">
     <path d="M 285.377557 29.6 
L 313.377557 29.6 
L 313.377557 19.8 
L 285.377557 19.8 
z
" style="fill: #4c72b0"/>
    </g>
    <g id="text_14">
     <!-- ratio target -->
     <g transform="translate(324.577557 29.6)scale(0.14 -0.14)">
      <defs>
       <path id="CMR17-72" d="M 960 1517 
C 960 2134 1222 2713 1702 2713 
C 1747 2713 1792 2707 1837 2687 
C 1837 2687 1696 2642 1696 2475 
C 1696 2321 1818 2257 1914 2257 
C 1990 2257 2131 2302 2131 2482 
C 2131 2687 1926 2816 1709 2816 
C 1222 2816 1011 2340 947 2115 
L 941 2115 
L 941 2816 
L 198 2745 
L 198 2578 
C 576 2578 634 2540 634 2231 
L 634 443 
C 634 198 608 166 198 166 
L 198 0 
C 352 12 646 12 813 12 
C 998 12 1325 12 1498 0 
L 1498 166 
C 1037 166 960 166 960 455 
L 960 1517 
z
" transform="scale(0.015625)"/>
       <path id="CMR17-61" d="M 2304 1656 
C 2304 2048 2304 2275 2035 2534 
C 1798 2751 1523 2816 1306 2816 
C 800 2816 435 2408 435 1977 
C 435 1740 627 1728 666 1728 
C 749 1728 896 1779 896 1958 
C 896 2118 774 2188 666 2188 
C 640 2188 608 2182 589 2176 
C 723 2594 1069 2713 1293 2713 
C 1613 2713 1965 2421 1965 1875 
L 1965 1632 
C 1587 1619 1133 1568 774 1373 
C 371 1147 256 822 256 576 
C 256 77 832 -64 1171 -64 
C 1523 -64 1850 135 1990 505 
C 2003 219 2182 -39 2464 -39 
C 2598 -39 2938 51 2938 563 
L 2938 926 
L 2822 926 
L 2822 557 
C 2822 161 2650 109 2566 109 
C 2304 109 2304 446 2304 732 
L 2304 1656 
z
M 1965 887 
C 1965 323 1568 38 1216 38 
C 896 38 646 278 646 576 
C 646 771 730 1114 1101 1322 
C 1408 1497 1760 1523 1965 1536 
L 1965 887 
z
" transform="scale(0.015625)"/>
       <path id="CMR17-74" d="M 966 2585 
L 1862 2585 
L 1862 2752 
L 966 2752 
L 966 3968 
L 851 3968 
C 838 3292 614 2700 70 2687 
L 70 2585 
L 627 2585 
L 627 778 
C 627 655 627 -64 1370 -64 
C 1747 -64 1965 308 1965 784 
L 1965 1151 
L 1850 1151 
L 1850 790 
C 1850 347 1677 51 1408 51 
C 1222 51 966 179 966 765 
L 966 2585 
z
" transform="scale(0.015625)"/>
       <path id="CMR17-69" d="M 992 3961 
C 992 4102 877 4224 730 4224 
C 589 4224 467 4108 467 3961 
C 467 3820 582 3699 730 3699 
C 870 3699 992 3814 992 3961 
z
M 243 2745 
L 243 2579 
C 602 2579 653 2540 653 2231 
L 653 443 
C 653 198 627 166 218 166 
L 218 0 
C 371 12 646 12 806 12 
C 960 12 1222 12 1370 0 
L 1370 166 
C 992 166 979 205 979 436 
L 979 2816 
L 243 2745 
z
" transform="scale(0.015625)"/>
       <path id="CMR17-6f" d="M 2758 1356 
C 2758 2176 2163 2816 1466 2816 
C 768 2816 173 2176 173 1356 
C 173 550 768 -64 1466 -64 
C 2163 -64 2758 550 2758 1356 
z
M 1466 51 
C 1165 51 909 230 762 480 
C 602 768 582 1126 582 1408 
C 582 1676 595 2009 762 2297 
C 890 2508 1139 2713 1466 2713 
C 1754 2713 1997 2553 2150 2329 
C 2349 2028 2349 1606 2349 1408 
C 2349 1158 2336 774 2163 467 
C 1984 172 1709 51 1466 51 
z
" transform="scale(0.015625)"/>
       <path id="CMR17-67" d="M 710 1165 
C 832 1068 1043 960 1299 960 
C 1805 960 2240 1359 2240 1895 
C 2240 2063 2189 2321 1997 2521 
C 2176 2713 2438 2777 2586 2777 
C 2611 2777 2650 2777 2682 2758 
C 2656 2751 2598 2726 2598 2623 
C 2598 2540 2656 2483 2739 2483 
C 2835 2483 2886 2547 2886 2630 
C 2886 2751 2790 2880 2586 2880 
C 2330 2880 2106 2758 1926 2591 
C 1734 2764 1504 2828 1299 2828 
C 794 2828 358 2431 358 1895 
C 358 1527 570 1294 634 1230 
C 442 1004 442 742 442 710 
C 442 544 506 300 723 166 
C 390 82 128 -184 128 -517 
C 128 -996 736 -1344 1466 -1344 
C 2170 -1344 2803 -1009 2803 -510 
C 2803 384 1856 384 1363 384 
C 1216 384 954 384 922 390 
C 723 422 589 601 589 825 
C 589 883 589 1024 710 1165 
z
M 1299 1068 
C 736 1068 736 1766 736 1895 
C 736 2024 736 2719 1299 2719 
C 1862 2719 1862 2024 1862 1895 
C 1862 1766 1862 1068 1299 1068 
z
M 1466 -1236 
C 826 -1236 384 -883 384 -517 
C 384 -311 493 -118 634 -11 
C 794 102 858 102 1293 102 
C 1818 102 2547 102 2547 -517 
C 2547 -883 2106 -1236 1466 -1236 
z
" transform="scale(0.015625)"/>
       <path id="CMR17-65" d="M 2438 1503 
C 2464 1529 2464 1542 2464 1606 
C 2464 2251 2118 2816 1389 2816 
C 710 2816 173 2175 173 1394 
C 173 554 781 -64 1459 -64 
C 2176 -64 2458 619 2458 755 
C 2458 800 2419 800 2406 800 
C 2362 800 2355 787 2330 709 
C 2189 270 1837 51 1504 51 
C 1229 51 954 206 781 490 
C 582 819 582 1200 582 1503 
L 2438 1503 
z
M 589 1600 
C 634 2511 1126 2713 1382 2713 
C 1818 2713 2112 2308 2118 1600 
L 589 1600 
z
" transform="scale(0.015625)"/>
      </defs>
      <use xlink:href="#CMR17-72" transform="scale(0.996264)"/>
      <use xlink:href="#CMR17-61" transform="translate(35.280768 0)scale(0.996264)"/>
      <use xlink:href="#CMR17-74" transform="translate(80.971245 0)scale(0.996264)"/>
      <use xlink:href="#CMR17-69" transform="translate(116.252013 0)scale(0.996264)"/>
      <use xlink:href="#CMR17-6f" transform="translate(141.123071 0)scale(0.996264)"/>
      <use xlink:href="#CMR17-74" transform="translate(216.889515 0)scale(0.996264)"/>
      <use xlink:href="#CMR17-61" transform="translate(252.170282 0)scale(0.996264)"/>
      <use xlink:href="#CMR17-72" transform="translate(297.86076 0)scale(0.996264)"/>
      <use xlink:href="#CMR17-67" transform="translate(333.141527 0)scale(0.996264)"/>
      <use xlink:href="#CMR17-65" transform="translate(378.832004 0)scale(0.996264)"/>
      <use xlink:href="#CMR17-74" transform="translate(419.317665 0)scale(0.996264)"/>
     </g>
    </g>
    <g id="patch_69">
     <path d="M 285.377557 49.112028 
L 313.377557 49.112028 
L 313.377557 39.312028 
L 285.377557 39.312028 
z
" style="fill: #55a868; opacity: 0.35"/>
    </g>
    <g id="text_15">
     <!-- feature 0 -->
     <g transform="translate(324.577557 49.112028)scale(0.14 -0.14)">
      <defs>
       <path id="CMR17-66" d="M 979 2585 
L 1709 2585 
L 1709 2752 
L 966 2752 
L 966 3539 
C 966 4076 1235 4377 1510 4377 
C 1594 4377 1690 4363 1754 4339 
C 1702 4326 1568 4281 1568 4121 
C 1568 3955 1696 3904 1786 3904 
C 1875 3904 2003 3955 2003 4121 
C 2003 4353 1773 4480 1517 4480 
C 1152 4480 653 4211 653 3526 
L 653 2752 
L 141 2752 
L 141 2585 
L 653 2585 
L 653 441 
C 653 198 627 166 218 166 
L 218 0 
C 371 12 666 12 832 12 
C 1018 12 1344 12 1517 0 
L 1517 166 
C 1056 166 979 166 979 454 
L 979 2585 
z
" transform="scale(0.015625)"/>
       <path id="CMR17-75" d="M 1882 2745 
L 1882 2579 
C 2259 2579 2317 2540 2317 2229 
L 2317 1053 
C 2317 510 2029 38 1555 38 
C 1030 38 986 355 986 691 
L 986 2816 
L 211 2745 
L 211 2579 
C 467 2579 640 2579 646 2320 
L 646 1079 
C 646 646 646 368 813 187 
C 896 103 1056 -64 1517 -64 
C 2061 -64 2272 400 2323 536 
L 2330 536 
L 2330 -64 
L 3091 -13 
L 3091 154 
C 2714 154 2656 193 2656 503 
L 2656 2816 
L 1882 2745 
z
" transform="scale(0.015625)"/>
      </defs>
      <use xlink:href="#CMR17-66" transform="scale(0.996264)"/>
      <use xlink:href="#CMR17-65" transform="translate(27.473512 0)scale(0.996264)"/>
      <use xlink:href="#CMR17-61" transform="translate(67.959173 0)scale(0.996264)"/>
      <use xlink:href="#CMR17-74" transform="translate(113.64965 0)scale(0.996264)"/>
      <use xlink:href="#CMR17-75" transform="translate(148.930418 0)scale(0.996264)"/>
      <use xlink:href="#CMR17-72" transform="translate(199.825788 0)scale(0.996264)"/>
      <use xlink:href="#CMR17-65" transform="translate(235.106555 0)scale(0.996264)"/>
      <use xlink:href="#CMR17-30" transform="translate(305.668182 0)scale(0.996264)"/>
     </g>
    </g>
    <g id="patch_70">
     <path d="M 285.377557 68.624057 
L 313.377557 68.624057 
L 313.377557 58.824057 
L 285.377557 58.824057 
z
" style="fill: #c44e52; opacity: 0.35"/>
    </g>
    <g id="text_16">
     <!-- feature 1 -->
     <g transform="translate(324.577557 68.624057)scale(0.14 -0.14)">
      <use xlink:href="#CMR17-66" transform="scale(0.996264)"/>
      <use xlink:href="#CMR17-65" transform="translate(27.473512 0)scale(0.996264)"/>
      <use xlink:href="#CMR17-61" transform="translate(67.959173 0)scale(0.996264)"/>
      <use xlink:href="#CMR17-74" transform="translate(113.64965 0)scale(0.996264)"/>
      <use xlink:href="#CMR17-75" transform="translate(148.930418 0)scale(0.996264)"/>
      <use xlink:href="#CMR17-72" transform="translate(199.825788 0)scale(0.996264)"/>
      <use xlink:href="#CMR17-65" transform="translate(235.106555 0)scale(0.996264)"/>
      <use xlink:href="#CMR17-31" transform="translate(305.668182 0)scale(0.996264)"/>
     </g>
    </g>
    <g id="patch_71">
     <path d="M 285.377557 88.136085 
L 313.377557 88.136085 
L 313.377557 78.336085 
L 285.377557 78.336085 
z
" style="fill: #8172b2; opacity: 0.35"/>
    </g>
    <g id="text_17">
     <!-- feature 2 -->
     <g transform="translate(324.577557 88.136085)scale(0.14 -0.14)">
      <use xlink:href="#CMR17-66" transform="scale(0.996264)"/>
      <use xlink:href="#CMR17-65" transform="translate(27.473512 0)scale(0.996264)"/>
      <use xlink:href="#CMR17-61" transform="translate(67.959173 0)scale(0.996264)"/>
      <use xlink:href="#CMR17-74" transform="translate(113.64965 0)scale(0.996264)"/>
      <use xlink:href="#CMR17-75" transform="translate(148.930418 0)scale(0.996264)"/>
      <use xlink:href="#CMR17-72" transform="translate(199.825788 0)scale(0.996264)"/>
      <use xlink:href="#CMR17-65" transform="translate(235.106555 0)scale(0.996264)"/>
      <use xlink:href="#CMR17-32" transform="translate(305.668182 0)scale(0.996264)"/>
     </g>
    </g>
    <g id="patch_72">
     <path d="M 285.377557 107.648114 
L 313.377557 107.648114 
L 313.377557 97.848114 
L 285.377557 97.848114 
z
" style="fill: #ccb974; opacity: 0.35"/>
    </g>
    <g id="text_18">
     <!-- feature 3 -->
     <g transform="translate(324.577557 107.648114)scale(0.14 -0.14)">
      <use xlink:href="#CMR17-66" transform="scale(0.996264)"/>
      <use xlink:href="#CMR17-65" transform="translate(27.473512 0)scale(0.996264)"/>
      <use xlink:href="#CMR17-61" transform="translate(67.959173 0)scale(0.996264)"/>
      <use xlink:href="#CMR17-74" transform="translate(113.64965 0)scale(0.996264)"/>
      <use xlink:href="#CMR17-75" transform="translate(148.930418 0)scale(0.996264)"/>
      <use xlink:href="#CMR17-72" transform="translate(199.825788 0)scale(0.996264)"/>
      <use xlink:href="#CMR17-65" transform="translate(235.106555 0)scale(0.996264)"/>
      <use xlink:href="#CMR17-33" transform="translate(305.668182 0)scale(0.996264)"/>
     </g>
    </g>
    <g id="patch_73">
     <path d="M 285.377557 127.160142 
L 313.377557 127.160142 
L 313.377557 117.360142 
L 285.377557 117.360142 
z
" style="fill: #64b5cd; opacity: 0.35"/>
    </g>
    <g id="text_19">
     <!-- feature 4 -->
     <g transform="translate(324.577557 127.160142)scale(0.14 -0.14)">
      <use xlink:href="#CMR17-66" transform="scale(0.996264)"/>
      <use xlink:href="#CMR17-65" transform="translate(27.473512 0)scale(0.996264)"/>
      <use xlink:href="#CMR17-61" transform="translate(67.959173 0)scale(0.996264)"/>
      <use xlink:href="#CMR17-74" transform="translate(113.64965 0)scale(0.996264)"/>
      <use xlink:href="#CMR17-75" transform="translate(148.930418 0)scale(0.996264)"/>
      <use xlink:href="#CMR17-72" transform="translate(199.825788 0)scale(0.996264)"/>
      <use xlink:href="#CMR17-65" transform="translate(235.106555 0)scale(0.996264)"/>
      <use xlink:href="#CMR17-34" transform="translate(305.668182 0)scale(0.996264)"/>
     </g>
    </g>
   </g>
  </g>
 </g>
 <defs>
  <clipPath id="p2ff47c5635">
   <rect x="48.342443" y="7.2" width="357.12" height="266.112"/>
  </clipPath>
 </defs>
</svg>
