<?xml version="1.0" encoding="utf-8" standalone="no"?>
<!DOCTYPE svg PUBLIC "-//W3C//DTD SVG 1.1//EN"
  "http://www.w3.org/Graphics/SVG/1.1/DTD/svg11.dtd">
<svg xmlns:xlink="http://www.w3.org/1999/xlink" width="405.833955pt" height="299.909905pt" viewBox="0 0 405.833955 299.909905" xmlns="http://www.w3.org/2000/svg" version="1.1">
 <metadata>
  <rdf:RDF xmlns:dc="http://purl.org/dc/elements/1.1/" xmlns:cc="http://creativecommons.org/ns#" xmlns:rdf="http://www.w3.org/1999/02/22-rdf-syntax-ns#">
   <cc:Work>
    <dc:type rdf:resource="http://purl.org/dc/dcmitype/StillImage"/>
    <dc:date>2022-12-15T12:10:46.898173</dc:date>
    <dc:format>image/svg+xml</dc:format>
    <dc:creator>
     <cc:Agent>
      <dc:title>Matplotlib v3.5.1, https://matplotlib.org/</dc:title>
     </cc:Agent>
    </dc:creator>
   </cc:Work>
  </rdf:RDF>
 </metadata>
 <defs>
  <style type="text/css">*{stroke-linejoin: round; stroke-linecap: butt}</style>
 </defs>
 <g id="figure_1">
  <g id="patch_1">
   <path d="M 0 299.909905 
L 405.833955 299.909905 
L 405.833955 0 
L 0 0 
z
" style="fill: #ffffff"/>
  </g>
  <g id="axes_1">
   <g id="patch_2">
    <path d="M 41.513955 273.312 
L 398.633955 273.312 
L 398.633955 7.2 
L 41.513955 7.2 
z
" style="fill: #ffffff"/>
   </g>
   <g id="patch_3">
    <path d="M 111.976098 273.312 
L 139.018611 273.312 
L 139.018611 64.862615 
L 111.976098 64.862615 
z
" clip-path="url(#p82feec83e8)" style="fill: #4c72b0"/>
   </g>
   <g id="patch_4">
    <path d="M 139.018611 273.312 
L 166.061124 273.312 
L 166.061124 216.712629 
L 139.018611 216.712629 
z
" clip-path="url(#p82feec83e8)" style="fill: #4c72b0"/>
   </g>
   <g id="patch_5">
    <path d="M 166.061124 273.312 
L 193.103637 273.312 
L 193.103637 271.43962 
L 166.061124 271.43962 
z
" clip-path="url(#p82feec83e8)" style="fill: #4c72b0"/>
   </g>
   <g id="patch_6">
    <path d="M 193.103637 273.312 
L 220.14615 273.312 
L 220.14615 272.964272 
L 193.103637 272.964272 
z
" clip-path="url(#p82feec83e8)" style="fill: #4c72b0"/>
   </g>
   <g id="patch_7">
    <path d="M 220.14615 273.312 
L 247.188663 273.312 
L 247.188663 273.124762 
L 220.14615 273.124762 
z
" clip-path="url(#p82feec83e8)" style="fill: #4c72b0"/>
   </g>
   <g id="patch_8">
    <path d="M 247.188663 273.312 
L 274.231176 273.312 
L 274.231176 273.312 
L 247.188663 273.312 
z
" clip-path="url(#p82feec83e8)" style="fill: #4c72b0"/>
   </g>
   <g id="patch_9">
    <path d="M 274.231176 273.312 
L 301.273689 273.312 
L 301.273689 273.312 
L 274.231176 273.312 
z
" clip-path="url(#p82feec83e8)" style="fill: #4c72b0"/>
   </g>
   <g id="patch_10">
    <path d="M 301.273689 273.312 
L 328.316201 273.312 
L 328.316201 273.312 
L 301.273689 273.312 
z
" clip-path="url(#p82feec83e8)" style="fill: #4c72b0"/>
   </g>
   <g id="patch_11">
    <path d="M 328.316201 273.312 
L 355.358714 273.312 
L 355.358714 273.312 
L 328.316201 273.312 
z
" clip-path="url(#p82feec83e8)" style="fill: #4c72b0"/>
   </g>
   <g id="patch_12">
    <path d="M 355.358714 273.312 
L 382.401227 273.312 
L 382.401227 273.285252 
L 355.358714 273.285252 
z
" clip-path="url(#p82feec83e8)" style="fill: #4c72b0"/>
   </g>
   <g id="patch_13">
    <path d="M 73.551381 273.312 
L 98.194211 273.312 
L 98.194211 19.872 
L 73.551381 19.872 
z
" clip-path="url(#p82feec83e8)" style="fill: #55a868; opacity: 0.35"/>
   </g>
   <g id="patch_14">
    <path d="M 98.194211 273.312 
L 122.837041 273.312 
L 122.837041 260.793803 
L 98.194211 260.793803 
z
" clip-path="url(#p82feec83e8)" style="fill: #55a868; opacity: 0.35"/>
   </g>
   <g id="patch_15">
    <path d="M 122.837041 273.312 
L 147.479871 273.312 
L 147.479871 272.21532 
L 122.837041 272.21532 
z
" clip-path="url(#p82feec83e8)" style="fill: #55a868; opacity: 0.35"/>
   </g>
   <g id="patch_16">
    <path d="M 147.479871 273.312 
L 172.122702 273.312 
L 172.122702 273.098014 
L 147.479871 273.098014 
z
" clip-path="url(#p82feec83e8)" style="fill: #55a868; opacity: 0.35"/>
   </g>
   <g id="patch_17">
    <path d="M 172.122702 273.312 
L 196.765532 273.312 
L 196.765532 273.312 
L 172.122702 273.312 
z
" clip-path="url(#p82feec83e8)" style="fill: #55a868; opacity: 0.35"/>
   </g>
   <g id="patch_18">
    <path d="M 196.765532 273.312 
L 221.408362 273.312 
L 221.408362 273.312 
L 196.765532 273.312 
z
" clip-path="url(#p82feec83e8)" style="fill: #55a868; opacity: 0.35"/>
   </g>
   <g id="patch_19">
    <path d="M 221.408362 273.312 
L 246.051192 273.312 
L 246.051192 273.178259 
L 221.408362 273.178259 
z
" clip-path="url(#p82feec83e8)" style="fill: #55a868; opacity: 0.35"/>
   </g>
   <g id="patch_20">
    <path d="M 246.051192 273.312 
L 270.694022 273.312 
L 270.694022 273.312 
L 246.051192 273.312 
z
" clip-path="url(#p82feec83e8)" style="fill: #55a868; opacity: 0.35"/>
   </g>
   <g id="patch_21">
    <path d="M 270.694022 273.312 
L 295.336853 273.312 
L 295.336853 273.312 
L 270.694022 273.312 
z
" clip-path="url(#p82feec83e8)" style="fill: #55a868; opacity: 0.35"/>
   </g>
   <g id="patch_22">
    <path d="M 295.336853 273.312 
L 319.979683 273.312 
L 319.979683 273.231755 
L 295.336853 273.231755 
z
" clip-path="url(#p82feec83e8)" style="fill: #55a868; opacity: 0.35"/>
   </g>
   <g id="patch_23">
    <path d="M 57.746682 273.312 
L 62.48317 273.312 
L 62.48317 266.624929 
L 57.746682 266.624929 
z
" clip-path="url(#p82feec83e8)" style="fill: #c44e52; opacity: 0.35"/>
   </g>
   <g id="patch_24">
    <path d="M 62.48317 273.312 
L 67.219658 273.312 
L 67.219658 256.246594 
L 62.48317 256.246594 
z
" clip-path="url(#p82feec83e8)" style="fill: #c44e52; opacity: 0.35"/>
   </g>
   <g id="patch_25">
    <path d="M 67.219658 273.312 
L 71.956147 273.312 
L 71.956147 245.627525 
L 67.219658 245.627525 
z
" clip-path="url(#p82feec83e8)" style="fill: #c44e52; opacity: 0.35"/>
   </g>
   <g id="patch_26">
    <path d="M 71.956147 273.312 
L 76.692635 273.312 
L 76.692635 237.977516 
L 71.956147 237.977516 
z
" clip-path="url(#p82feec83e8)" style="fill: #c44e52; opacity: 0.35"/>
   </g>
   <g id="patch_27">
    <path d="M 76.692635 273.312 
L 81.429123 273.312 
L 81.429123 231.82541 
L 76.692635 231.82541 
z
" clip-path="url(#p82feec83e8)" style="fill: #c44e52; opacity: 0.35"/>
   </g>
   <g id="patch_28">
    <path d="M 81.429123 273.312 
L 86.165612 273.312 
L 86.165612 228.374881 
L 81.429123 228.374881 
z
" clip-path="url(#p82feec83e8)" style="fill: #c44e52; opacity: 0.35"/>
   </g>
   <g id="patch_29">
    <path d="M 86.165612 273.312 
L 90.9021 273.312 
L 90.9021 234.714225 
L 86.165612 234.714225 
z
" clip-path="url(#p82feec83e8)" style="fill: #c44e52; opacity: 0.35"/>
   </g>
   <g id="patch_30">
    <path d="M 90.9021 273.312 
L 95.638588 273.312 
L 95.638588 244.076125 
L 90.9021 244.076125 
z
" clip-path="url(#p82feec83e8)" style="fill: #c44e52; opacity: 0.35"/>
   </g>
   <g id="patch_31">
    <path d="M 95.638588 273.312 
L 100.375076 273.312 
L 100.375076 254.374214 
L 95.638588 254.374214 
z
" clip-path="url(#p82feec83e8)" style="fill: #c44e52; opacity: 0.35"/>
   </g>
   <g id="patch_32">
    <path d="M 100.375076 273.312 
L 105.111565 273.312 
L 105.111565 265.795732 
L 100.375076 265.795732 
z
" clip-path="url(#p82feec83e8)" style="fill: #c44e52; opacity: 0.35"/>
   </g>
   <g id="patch_33">
    <path d="M 63.852291 273.312 
L 67.406886 273.312 
L 67.406886 246.884694 
L 63.852291 246.884694 
z
" clip-path="url(#p82feec83e8)" style="fill: #8172b2; opacity: 0.35"/>
   </g>
   <g id="patch_34">
    <path d="M 67.406886 273.312 
L 70.96148 273.312 
L 70.96148 247.152177 
L 67.406886 247.152177 
z
" clip-path="url(#p82feec83e8)" style="fill: #8172b2; opacity: 0.35"/>
   </g>
   <g id="patch_35">
    <path d="M 70.96148 273.312 
L 74.516075 273.312 
L 74.516075 246.296232 
L 70.96148 246.296232 
z
" clip-path="url(#p82feec83e8)" style="fill: #8172b2; opacity: 0.35"/>
   </g>
   <g id="patch_36">
    <path d="M 74.516075 273.312 
L 78.07067 273.312 
L 78.07067 247.660395 
L 74.516075 247.660395 
z
" clip-path="url(#p82feec83e8)" style="fill: #8172b2; opacity: 0.35"/>
   </g>
   <g id="patch_37">
    <path d="M 78.07067 273.312 
L 81.625265 273.312 
L 81.625265 246.162491 
L 78.07067 246.162491 
z
" clip-path="url(#p82feec83e8)" style="fill: #8172b2; opacity: 0.35"/>
   </g>
   <g id="patch_38">
    <path d="M 81.625265 273.312 
L 85.17986 273.312 
L 85.17986 246.32298 
L 81.625265 246.32298 
z
" clip-path="url(#p82feec83e8)" style="fill: #8172b2; opacity: 0.35"/>
   </g>
   <g id="patch_39">
    <path d="M 85.17986 273.312 
L 88.734454 273.312 
L 88.734454 247.874381 
L 85.17986 247.874381 
z
" clip-path="url(#p82feec83e8)" style="fill: #8172b2; opacity: 0.35"/>
   </g>
   <g id="patch_40">
    <path d="M 88.734454 273.312 
L 92.289049 273.312 
L 92.289049 245.493784 
L 88.734454 245.493784 
z
" clip-path="url(#p82feec83e8)" style="fill: #8172b2; opacity: 0.35"/>
   </g>
   <g id="patch_41">
    <path d="M 92.289049 273.312 
L 95.843644 273.312 
L 95.843644 245.921756 
L 92.289049 245.921756 
z
" clip-path="url(#p82feec83e8)" style="fill: #8172b2; opacity: 0.35"/>
   </g>
   <g id="patch_42">
    <path d="M 95.843644 273.312 
L 99.398239 273.312 
L 99.398239 245.86826 
L 95.843644 245.86826 
z
" clip-path="url(#p82feec83e8)" style="fill: #8172b2; opacity: 0.35"/>
   </g>
   <g id="patch_43">
    <path d="M 59.839233 273.312 
L 85.681552 273.312 
L 85.681552 81.072076 
L 59.839233 81.072076 
z
" clip-path="url(#p82feec83e8)" style="fill: #ccb974; opacity: 0.35"/>
   </g>
   <g id="patch_44">
    <path d="M 85.681552 273.312 
L 111.523871 273.312 
L 111.523871 201.5731 
L 85.681552 201.5731 
z
" clip-path="url(#p82feec83e8)" style="fill: #ccb974; opacity: 0.35"/>
   </g>
   <g id="patch_45">
    <path d="M 111.523871 273.312 
L 137.36619 273.312 
L 137.36619 270.021961 
L 111.523871 270.021961 
z
" clip-path="url(#p82feec83e8)" style="fill: #ccb974; opacity: 0.35"/>
   </g>
   <g id="patch_46">
    <path d="M 137.36619 273.312 
L 163.208509 273.312 
L 163.208509 273.312 
L 137.36619 273.312 
z
" clip-path="url(#p82feec83e8)" style="fill: #ccb974; opacity: 0.35"/>
   </g>
   <g id="patch_47">
    <path d="M 163.208509 273.312 
L 189.050828 273.312 
L 189.050828 273.124762 
L 163.208509 273.124762 
z
" clip-path="url(#p82feec83e8)" style="fill: #ccb974; opacity: 0.35"/>
   </g>
   <g id="patch_48">
    <path d="M 189.050828 273.312 
L 214.893147 273.312 
L 214.893147 273.312 
L 189.050828 273.312 
z
" clip-path="url(#p82feec83e8)" style="fill: #ccb974; opacity: 0.35"/>
   </g>
   <g id="patch_49">
    <path d="M 214.893147 273.312 
L 240.735466 273.312 
L 240.735466 273.312 
L 214.893147 273.312 
z
" clip-path="url(#p82feec83e8)" style="fill: #ccb974; opacity: 0.35"/>
   </g>
   <g id="patch_50">
    <path d="M 240.735466 273.312 
L 266.577785 273.312 
L 266.577785 273.312 
L 240.735466 273.312 
z
" clip-path="url(#p82feec83e8)" style="fill: #ccb974; opacity: 0.35"/>
   </g>
   <g id="patch_51">
    <path d="M 266.577785 273.312 
L 292.420104 273.312 
L 292.420104 273.312 
L 266.577785 273.312 
z
" clip-path="url(#p82feec83e8)" style="fill: #ccb974; opacity: 0.35"/>
   </g>
   <g id="patch_52">
    <path d="M 292.420104 273.312 
L 318.262423 273.312 
L 318.262423 273.285252 
L 292.420104 273.285252 
z
" clip-path="url(#p82feec83e8)" style="fill: #ccb974; opacity: 0.35"/>
   </g>
   <g id="patch_53">
    <path d="M 81.779711 273.312 
L 82.809038 273.312 
L 82.809038 246.028749 
L 81.779711 246.028749 
z
" clip-path="url(#p82feec83e8)" style="fill: #64b5cd; opacity: 0.35"/>
   </g>
   <g id="patch_54">
    <path d="M 82.809038 273.312 
L 83.838366 273.312 
L 83.838366 248.168612 
L 82.809038 248.168612 
z
" clip-path="url(#p82feec83e8)" style="fill: #64b5cd; opacity: 0.35"/>
   </g>
   <g id="patch_55">
    <path d="M 83.838366 273.312 
L 84.867693 273.312 
L 84.867693 247.901129 
L 83.838366 247.901129 
z
" clip-path="url(#p82feec83e8)" style="fill: #64b5cd; opacity: 0.35"/>
   </g>
   <g id="patch_56">
    <path d="M 84.867693 273.312 
L 85.897021 273.312 
L 85.897021 247.071932 
L 84.867693 247.071932 
z
" clip-path="url(#p82feec83e8)" style="fill: #64b5cd; opacity: 0.35"/>
   </g>
   <g id="patch_57">
    <path d="M 85.897021 273.312 
L 86.926348 273.312 
L 86.926348 246.242736 
L 85.897021 246.242736 
z
" clip-path="url(#p82feec83e8)" style="fill: #64b5cd; opacity: 0.35"/>
   </g>
   <g id="patch_58">
    <path d="M 86.926348 273.312 
L 87.955676 273.312 
L 87.955676 247.767388 
L 86.926348 247.767388 
z
" clip-path="url(#p82feec83e8)" style="fill: #64b5cd; opacity: 0.35"/>
   </g>
   <g id="patch_59">
    <path d="M 87.955676 273.312 
L 88.985003 273.312 
L 88.985003 246.215987 
L 87.955676 246.215987 
z
" clip-path="url(#p82feec83e8)" style="fill: #64b5cd; opacity: 0.35"/>
   </g>
   <g id="patch_60">
    <path d="M 88.985003 273.312 
L 90.014331 273.312 
L 90.014331 245.467035 
L 88.985003 245.467035 
z
" clip-path="url(#p82feec83e8)" style="fill: #64b5cd; opacity: 0.35"/>
   </g>
   <g id="patch_61">
    <path d="M 90.014331 273.312 
L 91.043658 273.312 
L 91.043658 245.493784 
L 90.014331 245.493784 
z
" clip-path="url(#p82feec83e8)" style="fill: #64b5cd; opacity: 0.35"/>
   </g>
   <g id="patch_62">
    <path d="M 91.043658 273.312 
L 92.072986 273.312 
L 92.072986 245.279797 
L 91.043658 245.279797 
z
" clip-path="url(#p82feec83e8)" style="fill: #64b5cd; opacity: 0.35"/>
   </g>
   <g id="matplotlib.axis_1">
    <g id="xtick_1">
     <g id="line2d_1">
      <defs>
       <path id="meb0d377752" d="M 0 0 
L 0 3.5 
" style="stroke: #000000; stroke-width: 0.8"/>
      </defs>
      <g>
       <use xlink:href="#meb0d377752" x="81.779579" y="273.312" style="stroke: #000000; stroke-width: 0.8"/>
      </g>
     </g>
     <g id="text_1">
      <!-- $\mathdefault{0}$ -->
      <g transform="translate(78.365335 289.997876)scale(0.14 -0.14)">
       <defs>
        <path id="CMR17-30" d="M 2688 2038 
C 2688 2430 2682 3099 2413 3613 
C 2176 4063 1798 4224 1466 4224 
C 1158 4224 768 4082 525 3620 
C 269 3137 243 2539 243 2038 
C 243 1671 250 1112 448 623 
C 723 -39 1216 -128 1466 -128 
C 1760 -128 2208 -7 2470 604 
C 2662 1048 2688 1568 2688 2038 
z
M 1466 -26 
C 1056 -26 813 328 723 816 
C 653 1196 653 1749 653 2109 
C 653 2604 653 3015 736 3407 
C 858 3954 1216 4121 1466 4121 
C 1728 4121 2067 3947 2189 3420 
C 2272 3054 2278 2623 2278 2109 
C 2278 1691 2278 1176 2202 797 
C 2067 96 1690 -26 1466 -26 
z
" transform="scale(0.015625)"/>
       </defs>
       <use xlink:href="#CMR17-30" transform="scale(0.996264)"/>
      </g>
     </g>
    </g>
    <g id="xtick_2">
     <g id="line2d_2">
      <g>
       <use xlink:href="#meb0d377752" x="133.247184" y="273.312" style="stroke: #000000; stroke-width: 0.8"/>
      </g>
     </g>
     <g id="text_2">
      <!-- $\mathdefault{5}$ -->
      <g transform="translate(129.83294 289.997876)scale(0.14 -0.14)">
       <defs>
        <path id="CMR17-35" d="M 730 3750 
C 794 3724 1056 3641 1325 3641 
C 1920 3641 2246 3961 2432 4140 
C 2432 4191 2432 4224 2394 4224 
C 2387 4224 2374 4224 2323 4198 
C 2099 4102 1837 4032 1517 4032 
C 1325 4032 1037 4055 723 4191 
C 653 4224 640 4224 634 4224 
C 602 4224 595 4217 595 4090 
L 595 2231 
C 595 2113 595 2080 659 2080 
C 691 2080 704 2093 736 2139 
C 941 2435 1222 2560 1542 2560 
C 1766 2560 2246 2415 2246 1293 
C 2246 1087 2246 716 2054 422 
C 1894 159 1645 25 1370 25 
C 947 25 518 319 403 812 
C 429 806 480 793 506 793 
C 589 793 749 838 749 1036 
C 749 1209 627 1280 506 1280 
C 358 1280 262 1190 262 1011 
C 262 454 704 -128 1382 -128 
C 2042 -128 2669 441 2669 1267 
C 2669 2054 2170 2662 1549 2662 
C 1222 2662 947 2540 730 2304 
L 730 3750 
z
" transform="scale(0.015625)"/>
       </defs>
       <use xlink:href="#CMR17-35" transform="scale(0.996264)"/>
      </g>
     </g>
    </g>
    <g id="xtick_3">
     <g id="line2d_3">
      <g>
       <use xlink:href="#meb0d377752" x="184.714789" y="273.312" style="stroke: #000000; stroke-width: 0.8"/>
      </g>
     </g>
     <g id="text_3">
      <!-- $\mathdefault{10}$ -->
      <g transform="translate(177.8863 289.997876)scale(0.14 -0.14)">
       <defs>
        <path id="CMR17-31" d="M 1702 4083 
C 1702 4217 1696 4224 1606 4224 
C 1357 3927 979 3833 621 3820 
C 602 3820 570 3820 563 3808 
C 557 3795 557 3782 557 3648 
C 755 3648 1088 3686 1344 3839 
L 1344 467 
C 1344 243 1331 166 781 166 
L 589 166 
L 589 0 
C 896 6 1216 12 1523 12 
C 1830 12 2150 6 2458 0 
L 2458 166 
L 2266 166 
C 1715 166 1702 236 1702 467 
L 1702 4083 
z
" transform="scale(0.015625)"/>
       </defs>
       <use xlink:href="#CMR17-31" transform="scale(0.996264)"/>
       <use xlink:href="#CMR17-30" transform="translate(45.690477 0)scale(0.996264)"/>
      </g>
     </g>
    </g>
    <g id="xtick_4">
     <g id="line2d_4">
      <g>
       <use xlink:href="#meb0d377752" x="236.182393" y="273.312" style="stroke: #000000; stroke-width: 0.8"/>
      </g>
     </g>
     <g id="text_4">
      <!-- $\mathdefault{15}$ -->
      <g transform="translate(229.353905 289.997876)scale(0.14 -0.14)">
       <use xlink:href="#CMR17-31" transform="scale(0.996264)"/>
       <use xlink:href="#CMR17-35" transform="translate(45.690477 0)scale(0.996264)"/>
      </g>
     </g>
    </g>
    <g id="xtick_5">
     <g id="line2d_5">
      <g>
       <use xlink:href="#meb0d377752" x="287.649998" y="273.312" style="stroke: #000000; stroke-width: 0.8"/>
      </g>
     </g>
     <g id="text_5">
      <!-- $\mathdefault{20}$ -->
      <g transform="translate(280.821509 289.997876)scale(0.14 -0.14)">
       <defs>
        <path id="CMR17-32" d="M 2669 990 
L 2554 990 
C 2490 537 2438 460 2413 422 
C 2381 371 1920 371 1830 371 
L 602 371 
C 832 620 1280 1073 1824 1596 
C 2214 1966 2669 2400 2669 3033 
C 2669 3788 2067 4224 1395 4224 
C 691 4224 262 3603 262 3027 
C 262 2777 448 2745 525 2745 
C 589 2745 781 2783 781 3007 
C 781 3206 614 3264 525 3264 
C 486 3264 448 3257 422 3244 
C 544 3788 915 4057 1306 4057 
C 1862 4057 2227 3616 2227 3033 
C 2227 2477 1901 1998 1536 1583 
L 262 147 
L 262 0 
L 2515 0 
L 2669 990 
z
" transform="scale(0.015625)"/>
       </defs>
       <use xlink:href="#CMR17-32" transform="scale(0.996264)"/>
       <use xlink:href="#CMR17-30" transform="translate(45.690477 0)scale(0.996264)"/>
      </g>
     </g>
    </g>
    <g id="xtick_6">
     <g id="line2d_6">
      <g>
       <use xlink:href="#meb0d377752" x="339.117603" y="273.312" style="stroke: #000000; stroke-width: 0.8"/>
      </g>
     </g>
     <g id="text_6">
      <!-- $\mathdefault{25}$ -->
      <g transform="translate(332.289114 289.997876)scale(0.14 -0.14)">
       <use xlink:href="#CMR17-32" transform="scale(0.996264)"/>
       <use xlink:href="#CMR17-35" transform="translate(45.690477 0)scale(0.996264)"/>
      </g>
     </g>
    </g>
    <g id="xtick_7">
     <g id="line2d_7">
      <g>
       <use xlink:href="#meb0d377752" x="390.585208" y="273.312" style="stroke: #000000; stroke-width: 0.8"/>
      </g>
     </g>
     <g id="text_7">
      <!-- $\mathdefault{30}$ -->
      <g transform="translate(383.756719 289.997876)scale(0.14 -0.14)">
       <defs>
        <path id="CMR17-33" d="M 1414 2176 
C 1984 2176 2234 1673 2234 1094 
C 2234 322 1824 25 1453 25 
C 1114 25 563 193 390 691 
C 422 678 454 678 486 678 
C 640 678 755 780 755 947 
C 755 1132 614 1216 486 1216 
C 378 1216 211 1164 211 927 
C 211 335 787 -128 1466 -128 
C 2176 -128 2720 432 2720 1087 
C 2720 1718 2208 2176 1600 2246 
C 2086 2347 2554 2776 2554 3353 
C 2554 3856 2048 4224 1472 4224 
C 890 4224 378 3862 378 3347 
C 378 3123 544 3084 627 3084 
C 762 3084 877 3167 877 3334 
C 877 3500 762 3584 627 3584 
C 602 3584 570 3584 544 3571 
C 730 3999 1235 4076 1459 4076 
C 1683 4076 2106 3966 2106 3347 
C 2106 3167 2080 2851 1862 2574 
C 1670 2329 1453 2316 1242 2297 
C 1210 2297 1062 2284 1037 2284 
C 992 2278 966 2272 966 2227 
C 966 2182 973 2176 1101 2176 
L 1414 2176 
z
" transform="scale(0.015625)"/>
       </defs>
       <use xlink:href="#CMR17-33" transform="scale(0.996264)"/>
       <use xlink:href="#CMR17-30" transform="translate(45.690477 0)scale(0.996264)"/>
      </g>
     </g>
    </g>
   </g>
   <g id="matplotlib.axis_2">
    <g id="ytick_1">
     <g id="line2d_8">
      <defs>
       <path id="m7585a08804" d="M 0 0 
L -3.5 0 
" style="stroke: #000000; stroke-width: 0.8"/>
      </defs>
      <g>
       <use xlink:href="#m7585a08804" x="41.513955" y="273.312" style="stroke: #000000; stroke-width: 0.8"/>
      </g>
     </g>
     <g id="text_8">
      <!-- $\mathdefault{0}$ -->
      <g transform="translate(27.685466 278.154938)scale(0.14 -0.14)">
       <use xlink:href="#CMR17-30" transform="scale(0.996264)"/>
      </g>
     </g>
    </g>
    <g id="ytick_2">
     <g id="line2d_9">
      <g>
       <use xlink:href="#m7585a08804" x="41.513955" y="219.81543" style="stroke: #000000; stroke-width: 0.8"/>
      </g>
     </g>
     <g id="text_9">
      <!-- $\mathdefault{2000}$ -->
      <g transform="translate(7.2 224.658368)scale(0.14 -0.14)">
       <use xlink:href="#CMR17-32" transform="scale(0.996264)"/>
       <use xlink:href="#CMR17-30" transform="translate(45.690477 0)scale(0.996264)"/>
       <use xlink:href="#CMR17-30" transform="translate(91.380954 0)scale(0.996264)"/>
       <use xlink:href="#CMR17-30" transform="translate(137.071431 0)scale(0.996264)"/>
      </g>
     </g>
    </g>
    <g id="ytick_3">
     <g id="line2d_10">
      <g>
       <use xlink:href="#m7585a08804" x="41.513955" y="166.31886" style="stroke: #000000; stroke-width: 0.8"/>
      </g>
     </g>
     <g id="text_10">
      <!-- $\mathdefault{4000}$ -->
      <g transform="translate(7.2 171.161798)scale(0.14 -0.14)">
       <defs>
        <path id="CMR17-34" d="M 2150 4147 
C 2150 4281 2144 4288 2029 4288 
L 128 1254 
L 128 1088 
L 1779 1088 
L 1779 460 
C 1779 230 1766 166 1318 166 
L 1197 166 
L 1197 0 
C 1402 12 1747 12 1965 12 
C 2182 12 2528 12 2733 0 
L 2733 166 
L 2611 166 
C 2163 166 2150 230 2150 460 
L 2150 1088 
L 2803 1088 
L 2803 1254 
L 2150 1254 
L 2150 4147 
z
M 1798 3723 
L 1798 1254 
L 256 1254 
L 1798 3723 
z
" transform="scale(0.015625)"/>
       </defs>
       <use xlink:href="#CMR17-34" transform="scale(0.996264)"/>
       <use xlink:href="#CMR17-30" transform="translate(45.690477 0)scale(0.996264)"/>
       <use xlink:href="#CMR17-30" transform="translate(91.380954 0)scale(0.996264)"/>
       <use xlink:href="#CMR17-30" transform="translate(137.071431 0)scale(0.996264)"/>
      </g>
     </g>
    </g>
    <g id="ytick_4">
     <g id="line2d_11">
      <g>
       <use xlink:href="#m7585a08804" x="41.513955" y="112.82229" style="stroke: #000000; stroke-width: 0.8"/>
      </g>
     </g>
     <g id="text_11">
      <!-- $\mathdefault{6000}$ -->
      <g transform="translate(7.2 117.665228)scale(0.14 -0.14)">
       <defs>
        <path id="CMR17-36" d="M 678 2198 
C 678 3712 1395 4076 1811 4076 
C 1946 4076 2272 4049 2400 3782 
C 2298 3782 2106 3782 2106 3558 
C 2106 3385 2246 3328 2336 3328 
C 2394 3328 2566 3353 2566 3571 
C 2566 3987 2246 4224 1805 4224 
C 1043 4224 243 3411 243 2011 
C 243 257 966 -128 1478 -128 
C 2099 -128 2688 431 2688 1295 
C 2688 2101 2170 2688 1517 2688 
C 1126 2688 838 2430 678 1979 
L 678 2198 
z
M 1478 25 
C 691 25 691 1212 691 1450 
C 691 1914 909 2585 1504 2585 
C 1613 2585 1926 2585 2138 2140 
C 2253 1889 2253 1624 2253 1302 
C 2253 954 2253 696 2118 438 
C 1978 173 1773 25 1478 25 
z
" transform="scale(0.015625)"/>
       </defs>
       <use xlink:href="#CMR17-36" transform="scale(0.996264)"/>
       <use xlink:href="#CMR17-30" transform="translate(45.690477 0)scale(0.996264)"/>
       <use xlink:href="#CMR17-30" transform="translate(91.380954 0)scale(0.996264)"/>
       <use xlink:href="#CMR17-30" transform="translate(137.071431 0)scale(0.996264)"/>
      </g>
     </g>
    </g>
    <g id="ytick_5">
     <g id="line2d_12">
      <g>
       <use xlink:href="#m7585a08804" x="41.513955" y="59.32572" style="stroke: #000000; stroke-width: 0.8"/>
      </g>
     </g>
     <g id="text_12">
      <!-- $\mathdefault{8000}$ -->
      <g transform="translate(7.2 64.168659)scale(0.14 -0.14)">
       <defs>
        <path id="CMR17-38" d="M 1741 2289 
C 2144 2494 2554 2803 2554 3298 
C 2554 3884 1990 4224 1472 4224 
C 890 4224 378 3800 378 3215 
C 378 3054 416 2777 666 2533 
C 730 2469 998 2276 1171 2154 
C 883 2006 211 1652 211 945 
C 211 282 838 -128 1459 -128 
C 2144 -128 2720 366 2720 1022 
C 2720 1607 2330 1877 2074 2051 
L 1741 2289 
z
M 902 2855 
C 851 2887 595 3086 595 3388 
C 595 3781 998 4076 1459 4076 
C 1965 4076 2336 3716 2336 3298 
C 2336 2700 1670 2359 1638 2359 
C 1632 2359 1626 2359 1574 2398 
L 902 2855 
z
M 2080 1536 
C 2176 1466 2483 1253 2483 861 
C 2483 385 2010 25 1472 25 
C 890 25 448 443 448 951 
C 448 1459 838 1884 1280 2083 
L 2080 1536 
z
" transform="scale(0.015625)"/>
       </defs>
       <use xlink:href="#CMR17-38" transform="scale(0.996264)"/>
       <use xlink:href="#CMR17-30" transform="translate(45.690477 0)scale(0.996264)"/>
       <use xlink:href="#CMR17-30" transform="translate(91.380954 0)scale(0.996264)"/>
       <use xlink:href="#CMR17-30" transform="translate(137.071431 0)scale(0.996264)"/>
      </g>
     </g>
    </g>
   </g>
   <g id="patch_63">
    <path d="M 41.513955 273.312 
L 41.513955 7.2 
" style="fill: none; stroke: #000000; stroke-width: 0.8; stroke-linejoin: miter; stroke-linecap: square"/>
   </g>
   <g id="patch_64">
    <path d="M 398.633955 273.312 
L 398.633955 7.2 
" style="fill: none; stroke: #000000; stroke-width: 0.8; stroke-linejoin: miter; stroke-linecap: square"/>
   </g>
   <g id="patch_65">
    <path d="M 41.513955 273.312 
L 398.633955 273.312 
" style="fill: none; stroke: #000000; stroke-width: 0.8; stroke-linejoin: miter; stroke-linecap: square"/>
   </g>
   <g id="patch_66">
    <path d="M 41.513955 7.2 
L 398.633955 7.2 
" style="fill: none; stroke: #000000; stroke-width: 0.8; stroke-linejoin: miter; stroke-linecap: square"/>
   </g>
   <g id="legend_1">
    <g id="patch_67">
     <path d="M 291.302848 135.47217 
L 388.833955 135.47217 
Q 391.633955 135.47217 391.633955 132.67217 
L 391.633955 17 
Q 391.633955 14.2 388.833955 14.2 
L 291.302848 14.2 
Q 288.502848 14.2 288.502848 17 
L 288.502848 132.67217 
Q 288.502848 135.47217 291.302848 135.47217 
z
" style="fill: #ffffff; opacity: 0.8; stroke: #cccccc; stroke-linejoin: miter"/>
    </g>
    <g id="patch_68">
     <path d="M 294.102848 29.6 
L 322.102848 29.6 
L 322.102848 19.8 
L 294.102848 19.8 
z
" style="fill: #4c72b0"/>
    </g>
    <g id="text_13">
     <!-- target -->
     <g transform="translate(333.302848 29.6)scale(0.14 -0.14)">
      <defs>
       <path id="CMR17-74" d="M 966 2585 
L 1862 2585 
L 1862 2752 
L 966 2752 
L 966 3968 
L 851 3968 
C 838 3292 614 2700 70 2687 
L 70 2585 
L 627 2585 
L 627 778 
C 627 655 627 -64 1370 -64 
C 1747 -64 1965 308 1965 784 
L 1965 1151 
L 1850 1151 
L 1850 790 
C 1850 347 1677 51 1408 51 
C 1222 51 966 179 966 765 
L 966 2585 
z
" transform="scale(0.015625)"/>
       <path id="CMR17-61" d="M 2304 1656 
C 2304 2048 2304 2275 2035 2534 
C 1798 2751 1523 2816 1306 2816 
C 800 2816 435 2408 435 1977 
C 435 1740 627 1728 666 1728 
C 749 1728 896 1779 896 1958 
C 896 2118 774 2188 666 2188 
C 640 2188 608 2182 589 2176 
C 723 2594 1069 2713 1293 2713 
C 1613 2713 1965 2421 1965 1875 
L 1965 1632 
C 1587 1619 1133 1568 774 1373 
C 371 1147 256 822 256 576 
C 256 77 832 -64 1171 -64 
C 1523 -64 1850 135 1990 505 
C 2003 219 2182 -39 2464 -39 
C 2598 -39 2938 51 2938 563 
L 2938 926 
L 2822 926 
L 2822 557 
C 2822 161 2650 109 2566 109 
C 2304 109 2304 446 2304 732 
L 2304 1656 
z
M 1965 887 
C 1965 323 1568 38 1216 38 
C 896 38 646 278 646 576 
C 646 771 730 1114 1101 1322 
C 1408 1497 1760 1523 1965 1536 
L 1965 887 
z
" transform="scale(0.015625)"/>
       <path id="CMR17-72" d="M 960 1517 
C 960 2134 1222 2713 1702 2713 
C 1747 2713 1792 2707 1837 2687 
C 1837 2687 1696 2642 1696 2475 
C 1696 2321 1818 2257 1914 2257 
C 1990 2257 2131 2302 2131 2482 
C 2131 2687 1926 2816 1709 2816 
C 1222 2816 1011 2340 947 2115 
L 941 2115 
L 941 2816 
L 198 2745 
L 198 2578 
C 576 2578 634 2540 634 2231 
L 634 443 
C 634 198 608 166 198 166 
L 198 0 
C 352 12 646 12 813 12 
C 998 12 1325 12 1498 0 
L 1498 166 
C 1037 166 960 166 960 455 
L 960 1517 
z
" transform="scale(0.015625)"/>
       <path id="CMR17-67" d="M 710 1165 
C 832 1068 1043 960 1299 960 
C 1805 960 2240 1359 2240 1895 
C 2240 2063 2189 2321 1997 2521 
C 2176 2713 2438 2777 2586 2777 
C 2611 2777 2650 2777 2682 2758 
C 2656 2751 2598 2726 2598 2623 
C 2598 2540 2656 2483 2739 2483 
C 2835 2483 2886 2547 2886 2630 
C 2886 2751 2790 2880 2586 2880 
C 2330 2880 2106 2758 1926 2591 
C 1734 2764 1504 2828 1299 2828 
C 794 2828 358 2431 358 1895 
C 358 1527 570 1294 634 1230 
C 442 1004 442 742 442 710 
C 442 544 506 300 723 166 
C 390 82 128 -184 128 -517 
C 128 -996 736 -1344 1466 -1344 
C 2170 -1344 2803 -1009 2803 -510 
C 2803 384 1856 384 1363 384 
C 1216 384 954 384 922 390 
C 723 422 589 601 589 825 
C 589 883 589 1024 710 1165 
z
M 1299 1068 
C 736 1068 736 1766 736 1895 
C 736 2024 736 2719 1299 2719 
C 1862 2719 1862 2024 1862 1895 
C 1862 1766 1862 1068 1299 1068 
z
M 1466 -1236 
C 826 -1236 384 -883 384 -517 
C 384 -311 493 -118 634 -11 
C 794 102 858 102 1293 102 
C 1818 102 2547 102 2547 -517 
C 2547 -883 2106 -1236 1466 -1236 
z
" transform="scale(0.015625)"/>
       <path id="CMR17-65" d="M 2438 1503 
C 2464 1529 2464 1542 2464 1606 
C 2464 2251 2118 2816 1389 2816 
C 710 2816 173 2175 173 1394 
C 173 554 781 -64 1459 -64 
C 2176 -64 2458 619 2458 755 
C 2458 800 2419 800 2406 800 
C 2362 800 2355 787 2330 709 
C 2189 270 1837 51 1504 51 
C 1229 51 954 206 781 490 
C 582 819 582 1200 582 1503 
L 2438 1503 
z
M 589 1600 
C 634 2511 1126 2713 1382 2713 
C 1818 2713 2112 2308 2118 1600 
L 589 1600 
z
" transform="scale(0.015625)"/>
      </defs>
      <use xlink:href="#CMR17-74" transform="scale(0.996264)"/>
      <use xlink:href="#CMR17-61" transform="translate(35.280768 0)scale(0.996264)"/>
      <use xlink:href="#CMR17-72" transform="translate(80.971245 0)scale(0.996264)"/>
      <use xlink:href="#CMR17-67" transform="translate(116.252013 0)scale(0.996264)"/>
      <use xlink:href="#CMR17-65" transform="translate(161.94249 0)scale(0.996264)"/>
      <use xlink:href="#CMR17-74" transform="translate(202.42815 0)scale(0.996264)"/>
     </g>
    </g>
    <g id="patch_69">
     <path d="M 294.102848 49.112028 
L 322.102848 49.112028 
L 322.102848 39.312028 
L 294.102848 39.312028 
z
" style="fill: #55a868; opacity: 0.35"/>
    </g>
    <g id="text_14">
     <!-- feature 0 -->
     <g transform="translate(333.302848 49.112028)scale(0.14 -0.14)">
      <defs>
       <path id="CMR17-66" d="M 979 2585 
L 1709 2585 
L 1709 2752 
L 966 2752 
L 966 3539 
C 966 4076 1235 4377 1510 4377 
C 1594 4377 1690 4363 1754 4339 
C 1702 4326 1568 4281 1568 4121 
C 1568 3955 1696 3904 1786 3904 
C 1875 3904 2003 3955 2003 4121 
C 2003 4353 1773 4480 1517 4480 
C 1152 4480 653 4211 653 3526 
L 653 2752 
L 141 2752 
L 141 2585 
L 653 2585 
L 653 441 
C 653 198 627 166 218 166 
L 218 0 
C 371 12 666 12 832 12 
C 1018 12 1344 12 1517 0 
L 1517 166 
C 1056 166 979 166 979 454 
L 979 2585 
z
" transform="scale(0.015625)"/>
       <path id="CMR17-75" d="M 1882 2745 
L 1882 2579 
C 2259 2579 2317 2540 2317 2229 
L 2317 1053 
C 2317 510 2029 38 1555 38 
C 1030 38 986 355 986 691 
L 986 2816 
L 211 2745 
L 211 2579 
C 467 2579 640 2579 646 2320 
L 646 1079 
C 646 646 646 368 813 187 
C 896 103 1056 -64 1517 -64 
C 2061 -64 2272 400 2323 536 
L 2330 536 
L 2330 -64 
L 3091 -13 
L 3091 154 
C 2714 154 2656 193 2656 503 
L 2656 2816 
L 1882 2745 
z
" transform="scale(0.015625)"/>
      </defs>
      <use xlink:href="#CMR17-66" transform="scale(0.996264)"/>
      <use xlink:href="#CMR17-65" transform="translate(27.473512 0)scale(0.996264)"/>
      <use xlink:href="#CMR17-61" transform="translate(67.959173 0)scale(0.996264)"/>
      <use xlink:href="#CMR17-74" transform="translate(113.64965 0)scale(0.996264)"/>
      <use xlink:href="#CMR17-75" transform="translate(148.930418 0)scale(0.996264)"/>
      <use xlink:href="#CMR17-72" transform="translate(199.825788 0)scale(0.996264)"/>
      <use xlink:href="#CMR17-65" transform="translate(235.106555 0)scale(0.996264)"/>
      <use xlink:href="#CMR17-30" transform="translate(305.668182 0)scale(0.996264)"/>
     </g>
    </g>
    <g id="patch_70">
     <path d="M 294.102848 68.624057 
L 322.102848 68.624057 
L 322.102848 58.824057 
L 294.102848 58.824057 
z
" style="fill: #c44e52; opacity: 0.35"/>
    </g>
    <g id="text_15">
     <!-- feature 1 -->
     <g transform="translate(333.302848 68.624057)scale(0.14 -0.14)">
      <use xlink:href="#CMR17-66" transform="scale(0.996264)"/>
      <use xlink:href="#CMR17-65" transform="translate(27.473512 0)scale(0.996264)"/>
      <use xlink:href="#CMR17-61" transform="translate(67.959173 0)scale(0.996264)"/>
      <use xlink:href="#CMR17-74" transform="translate(113.64965 0)scale(0.996264)"/>
      <use xlink:href="#CMR17-75" transform="translate(148.930418 0)scale(0.996264)"/>
      <use xlink:href="#CMR17-72" transform="translate(199.825788 0)scale(0.996264)"/>
      <use xlink:href="#CMR17-65" transform="translate(235.106555 0)scale(0.996264)"/>
      <use xlink:href="#CMR17-31" transform="translate(305.668182 0)scale(0.996264)"/>
     </g>
    </g>
    <g id="patch_71">
     <path d="M 294.102848 88.136085 
L 322.102848 88.136085 
L 322.102848 78.336085 
L 294.102848 78.336085 
z
" style="fill: #8172b2; opacity: 0.35"/>
    </g>
    <g id="text_16">
     <!-- feature 2 -->
     <g transform="translate(333.302848 88.136085)scale(0.14 -0.14)">
      <use xlink:href="#CMR17-66" transform="scale(0.996264)"/>
      <use xlink:href="#CMR17-65" transform="translate(27.473512 0)scale(0.996264)"/>
      <use xlink:href="#CMR17-61" transform="translate(67.959173 0)scale(0.996264)"/>
      <use xlink:href="#CMR17-74" transform="translate(113.64965 0)scale(0.996264)"/>
      <use xlink:href="#CMR17-75" transform="translate(148.930418 0)scale(0.996264)"/>
      <use xlink:href="#CMR17-72" transform="translate(199.825788 0)scale(0.996264)"/>
      <use xlink:href="#CMR17-65" transform="translate(235.106555 0)scale(0.996264)"/>
      <use xlink:href="#CMR17-32" transform="translate(305.668182 0)scale(0.996264)"/>
     </g>
    </g>
    <g id="patch_72">
     <path d="M 294.102848 107.648114 
L 322.102848 107.648114 
L 322.102848 97.848114 
L 294.102848 97.848114 
z
" style="fill: #ccb974; opacity: 0.35"/>
    </g>
    <g id="text_17">
     <!-- feature 3 -->
     <g transform="translate(333.302848 107.648114)scale(0.14 -0.14)">
      <use xlink:href="#CMR17-66" transform="scale(0.996264)"/>
      <use xlink:href="#CMR17-65" transform="translate(27.473512 0)scale(0.996264)"/>
      <use xlink:href="#CMR17-61" transform="translate(67.959173 0)scale(0.996264)"/>
      <use xlink:href="#CMR17-74" transform="translate(113.64965 0)scale(0.996264)"/>
      <use xlink:href="#CMR17-75" transform="translate(148.930418 0)scale(0.996264)"/>
      <use xlink:href="#CMR17-72" transform="translate(199.825788 0)scale(0.996264)"/>
      <use xlink:href="#CMR17-65" transform="translate(235.106555 0)scale(0.996264)"/>
      <use xlink:href="#CMR17-33" transform="translate(305.668182 0)scale(0.996264)"/>
     </g>
    </g>
    <g id="patch_73">
     <path d="M 294.102848 127.160142 
L 322.102848 127.160142 
L 322.102848 117.360142 
L 294.102848 117.360142 
z
" style="fill: #64b5cd; opacity: 0.35"/>
    </g>
    <g id="text_18">
     <!-- feature 4 -->
     <g transform="translate(333.302848 127.160142)scale(0.14 -0.14)">
      <use xlink:href="#CMR17-66" transform="scale(0.996264)"/>
      <use xlink:href="#CMR17-65" transform="translate(27.473512 0)scale(0.996264)"/>
      <use xlink:href="#CMR17-61" transform="translate(67.959173 0)scale(0.996264)"/>
      <use xlink:href="#CMR17-74" transform="translate(113.64965 0)scale(0.996264)"/>
      <use xlink:href="#CMR17-75" transform="translate(148.930418 0)scale(0.996264)"/>
      <use xlink:href="#CMR17-72" transform="translate(199.825788 0)scale(0.996264)"/>
      <use xlink:href="#CMR17-65" transform="translate(235.106555 0)scale(0.996264)"/>
      <use xlink:href="#CMR17-34" transform="translate(305.668182 0)scale(0.996264)"/>
     </g>
    </g>
   </g>
  </g>
 </g>
 <defs>
  <clipPath id="p82feec83e8">
   <rect x="41.513955" y="7.2" width="357.12" height="266.112"/>
  </clipPath>
 </defs>
</svg>
