<?xml version="1.0" encoding="utf-8" standalone="no"?>
<!DOCTYPE svg PUBLIC "-//W3C//DTD SVG 1.1//EN"
  "http://www.w3.org/Graphics/SVG/1.1/DTD/svg11.dtd">
<svg xmlns:xlink="http://www.w3.org/1999/xlink" width="443.8125pt" height="419.158125pt" viewBox="0 0 443.8125 419.158125" xmlns="http://www.w3.org/2000/svg" version="1.1">
 <metadata>
  <rdf:RDF xmlns:dc="http://purl.org/dc/elements/1.1/" xmlns:cc="http://creativecommons.org/ns#" xmlns:rdf="http://www.w3.org/1999/02/22-rdf-syntax-ns#">
   <cc:Work>
    <dc:type rdf:resource="http://purl.org/dc/dcmitype/StillImage"/>
    <dc:date>2022-12-03T14:35:35.563363</dc:date>
    <dc:format>image/svg+xml</dc:format>
    <dc:creator>
     <cc:Agent>
      <dc:title>Matplotlib v3.5.1, https://matplotlib.org/</dc:title>
     </cc:Agent>
    </dc:creator>
   </cc:Work>
  </rdf:RDF>
 </metadata>
 <defs>
  <style type="text/css">*{stroke-linejoin: round; stroke-linecap: butt}</style>
 </defs>
 <g id="figure_1">
  <g id="patch_1">
   <path d="M 0 419.158125 
L 443.8125 419.158125 
L 443.8125 0 
L 0 0 
z
" style="fill: #ffffff"/>
  </g>
  <g id="axes_1">
   <g id="patch_2">
    <path d="M 46.0125 395.28 
L 436.6125 395.28 
L 436.6125 7.2 
L 46.0125 7.2 
z
" style="fill: #ffffff"/>
   </g>
   <g id="patch_3">
    <path d="M 63.767045 395.28 
L 67.317955 395.28 
L 67.317955 25.68 
L 63.767045 25.68 
z
" clip-path="url(#p40532fb7ca)" style="fill: #4c72b0"/>
   </g>
   <g id="patch_4">
    <path d="M 67.317955 395.28 
L 70.868864 395.28 
L 70.868864 395.28 
L 67.317955 395.28 
z
" clip-path="url(#p40532fb7ca)" style="fill: #4c72b0"/>
   </g>
   <g id="patch_5">
    <path d="M 70.868864 395.28 
L 74.419773 395.28 
L 74.419773 395.28 
L 70.868864 395.28 
z
" clip-path="url(#p40532fb7ca)" style="fill: #4c72b0"/>
   </g>
   <g id="patch_6">
    <path d="M 74.419773 395.28 
L 77.970682 395.28 
L 77.970682 395.28 
L 74.419773 395.28 
z
" clip-path="url(#p40532fb7ca)" style="fill: #4c72b0"/>
   </g>
   <g id="patch_7">
    <path d="M 77.970682 395.28 
L 81.521591 395.28 
L 81.521591 395.28 
L 77.970682 395.28 
z
" clip-path="url(#p40532fb7ca)" style="fill: #4c72b0"/>
   </g>
   <g id="patch_8">
    <path d="M 81.521591 395.28 
L 85.0725 395.28 
L 85.0725 395.28 
L 81.521591 395.28 
z
" clip-path="url(#p40532fb7ca)" style="fill: #4c72b0"/>
   </g>
   <g id="patch_9">
    <path d="M 85.0725 395.28 
L 88.623409 395.28 
L 88.623409 395.28 
L 85.0725 395.28 
z
" clip-path="url(#p40532fb7ca)" style="fill: #4c72b0"/>
   </g>
   <g id="patch_10">
    <path d="M 88.623409 395.28 
L 92.174318 395.28 
L 92.174318 395.28 
L 88.623409 395.28 
z
" clip-path="url(#p40532fb7ca)" style="fill: #4c72b0"/>
   </g>
   <g id="patch_11">
    <path d="M 92.174318 395.28 
L 95.725227 395.28 
L 95.725227 395.28 
L 92.174318 395.28 
z
" clip-path="url(#p40532fb7ca)" style="fill: #4c72b0"/>
   </g>
   <g id="patch_12">
    <path d="M 95.725227 395.28 
L 99.276136 395.28 
L 99.276136 395.28 
L 95.725227 395.28 
z
" clip-path="url(#p40532fb7ca)" style="fill: #4c72b0"/>
   </g>
   <g id="patch_13">
    <path d="M 99.276136 395.28 
L 102.827045 395.28 
L 102.827045 395.28 
L 99.276136 395.28 
z
" clip-path="url(#p40532fb7ca)" style="fill: #4c72b0"/>
   </g>
   <g id="patch_14">
    <path d="M 102.827045 395.28 
L 106.377955 395.28 
L 106.377955 395.28 
L 102.827045 395.28 
z
" clip-path="url(#p40532fb7ca)" style="fill: #4c72b0"/>
   </g>
   <g id="patch_15">
    <path d="M 106.377955 395.28 
L 109.928864 395.28 
L 109.928864 395.28 
L 106.377955 395.28 
z
" clip-path="url(#p40532fb7ca)" style="fill: #4c72b0"/>
   </g>
   <g id="patch_16">
    <path d="M 109.928864 395.28 
L 113.479773 395.28 
L 113.479773 395.28 
L 109.928864 395.28 
z
" clip-path="url(#p40532fb7ca)" style="fill: #4c72b0"/>
   </g>
   <g id="patch_17">
    <path d="M 113.479773 395.28 
L 117.030682 395.28 
L 117.030682 395.28 
L 113.479773 395.28 
z
" clip-path="url(#p40532fb7ca)" style="fill: #4c72b0"/>
   </g>
   <g id="patch_18">
    <path d="M 117.030682 395.28 
L 120.581591 395.28 
L 120.581591 395.28 
L 117.030682 395.28 
z
" clip-path="url(#p40532fb7ca)" style="fill: #4c72b0"/>
   </g>
   <g id="patch_19">
    <path d="M 120.581591 395.28 
L 124.1325 395.28 
L 124.1325 395.28 
L 120.581591 395.28 
z
" clip-path="url(#p40532fb7ca)" style="fill: #4c72b0"/>
   </g>
   <g id="patch_20">
    <path d="M 124.1325 395.28 
L 127.683409 395.28 
L 127.683409 395.28 
L 124.1325 395.28 
z
" clip-path="url(#p40532fb7ca)" style="fill: #4c72b0"/>
   </g>
   <g id="patch_21">
    <path d="M 127.683409 395.28 
L 131.234318 395.28 
L 131.234318 395.28 
L 127.683409 395.28 
z
" clip-path="url(#p40532fb7ca)" style="fill: #4c72b0"/>
   </g>
   <g id="patch_22">
    <path d="M 131.234318 395.28 
L 134.785227 395.28 
L 134.785227 395.28 
L 131.234318 395.28 
z
" clip-path="url(#p40532fb7ca)" style="fill: #4c72b0"/>
   </g>
   <g id="patch_23">
    <path d="M 134.785227 395.28 
L 138.336136 395.28 
L 138.336136 395.28 
L 134.785227 395.28 
z
" clip-path="url(#p40532fb7ca)" style="fill: #4c72b0"/>
   </g>
   <g id="patch_24">
    <path d="M 138.336136 395.28 
L 141.887045 395.28 
L 141.887045 395.28 
L 138.336136 395.28 
z
" clip-path="url(#p40532fb7ca)" style="fill: #4c72b0"/>
   </g>
   <g id="patch_25">
    <path d="M 141.887045 395.28 
L 145.437955 395.28 
L 145.437955 395.28 
L 141.887045 395.28 
z
" clip-path="url(#p40532fb7ca)" style="fill: #4c72b0"/>
   </g>
   <g id="patch_26">
    <path d="M 145.437955 395.28 
L 148.988864 395.28 
L 148.988864 395.28 
L 145.437955 395.28 
z
" clip-path="url(#p40532fb7ca)" style="fill: #4c72b0"/>
   </g>
   <g id="patch_27">
    <path d="M 148.988864 395.28 
L 152.539773 395.28 
L 152.539773 395.28 
L 148.988864 395.28 
z
" clip-path="url(#p40532fb7ca)" style="fill: #4c72b0"/>
   </g>
   <g id="patch_28">
    <path d="M 152.539773 395.28 
L 156.090682 395.28 
L 156.090682 395.28 
L 152.539773 395.28 
z
" clip-path="url(#p40532fb7ca)" style="fill: #4c72b0"/>
   </g>
   <g id="patch_29">
    <path d="M 156.090682 395.28 
L 159.641591 395.28 
L 159.641591 395.28 
L 156.090682 395.28 
z
" clip-path="url(#p40532fb7ca)" style="fill: #4c72b0"/>
   </g>
   <g id="patch_30">
    <path d="M 159.641591 395.28 
L 163.1925 395.28 
L 163.1925 395.28 
L 159.641591 395.28 
z
" clip-path="url(#p40532fb7ca)" style="fill: #4c72b0"/>
   </g>
   <g id="patch_31">
    <path d="M 163.1925 395.28 
L 166.743409 395.28 
L 166.743409 395.28 
L 163.1925 395.28 
z
" clip-path="url(#p40532fb7ca)" style="fill: #4c72b0"/>
   </g>
   <g id="patch_32">
    <path d="M 166.743409 395.28 
L 170.294318 395.28 
L 170.294318 395.28 
L 166.743409 395.28 
z
" clip-path="url(#p40532fb7ca)" style="fill: #4c72b0"/>
   </g>
   <g id="patch_33">
    <path d="M 170.294318 395.28 
L 173.845227 395.28 
L 173.845227 395.28 
L 170.294318 395.28 
z
" clip-path="url(#p40532fb7ca)" style="fill: #4c72b0"/>
   </g>
   <g id="patch_34">
    <path d="M 173.845227 395.28 
L 177.396136 395.28 
L 177.396136 395.28 
L 173.845227 395.28 
z
" clip-path="url(#p40532fb7ca)" style="fill: #4c72b0"/>
   </g>
   <g id="patch_35">
    <path d="M 177.396136 395.28 
L 180.947045 395.28 
L 180.947045 395.28 
L 177.396136 395.28 
z
" clip-path="url(#p40532fb7ca)" style="fill: #4c72b0"/>
   </g>
   <g id="patch_36">
    <path d="M 180.947045 395.28 
L 184.497955 395.28 
L 184.497955 395.28 
L 180.947045 395.28 
z
" clip-path="url(#p40532fb7ca)" style="fill: #4c72b0"/>
   </g>
   <g id="patch_37">
    <path d="M 184.497955 395.28 
L 188.048864 395.28 
L 188.048864 395.28 
L 184.497955 395.28 
z
" clip-path="url(#p40532fb7ca)" style="fill: #4c72b0"/>
   </g>
   <g id="patch_38">
    <path d="M 188.048864 395.28 
L 191.599773 395.28 
L 191.599773 395.28 
L 188.048864 395.28 
z
" clip-path="url(#p40532fb7ca)" style="fill: #4c72b0"/>
   </g>
   <g id="patch_39">
    <path d="M 191.599773 395.28 
L 195.150682 395.28 
L 195.150682 395.28 
L 191.599773 395.28 
z
" clip-path="url(#p40532fb7ca)" style="fill: #4c72b0"/>
   </g>
   <g id="patch_40">
    <path d="M 195.150682 395.28 
L 198.701591 395.28 
L 198.701591 395.28 
L 195.150682 395.28 
z
" clip-path="url(#p40532fb7ca)" style="fill: #4c72b0"/>
   </g>
   <g id="patch_41">
    <path d="M 198.701591 395.28 
L 202.2525 395.28 
L 202.2525 395.28 
L 198.701591 395.28 
z
" clip-path="url(#p40532fb7ca)" style="fill: #4c72b0"/>
   </g>
   <g id="patch_42">
    <path d="M 202.2525 395.28 
L 205.803409 395.28 
L 205.803409 395.28 
L 202.2525 395.28 
z
" clip-path="url(#p40532fb7ca)" style="fill: #4c72b0"/>
   </g>
   <g id="patch_43">
    <path d="M 205.803409 395.28 
L 209.354318 395.28 
L 209.354318 395.28 
L 205.803409 395.28 
z
" clip-path="url(#p40532fb7ca)" style="fill: #4c72b0"/>
   </g>
   <g id="patch_44">
    <path d="M 209.354318 395.28 
L 212.905227 395.28 
L 212.905227 395.28 
L 209.354318 395.28 
z
" clip-path="url(#p40532fb7ca)" style="fill: #4c72b0"/>
   </g>
   <g id="patch_45">
    <path d="M 212.905227 395.28 
L 216.456136 395.28 
L 216.456136 395.28 
L 212.905227 395.28 
z
" clip-path="url(#p40532fb7ca)" style="fill: #4c72b0"/>
   </g>
   <g id="patch_46">
    <path d="M 216.456136 395.28 
L 220.007045 395.28 
L 220.007045 395.28 
L 216.456136 395.28 
z
" clip-path="url(#p40532fb7ca)" style="fill: #4c72b0"/>
   </g>
   <g id="patch_47">
    <path d="M 220.007045 395.28 
L 223.557955 395.28 
L 223.557955 395.28 
L 220.007045 395.28 
z
" clip-path="url(#p40532fb7ca)" style="fill: #4c72b0"/>
   </g>
   <g id="patch_48">
    <path d="M 223.557955 395.28 
L 227.108864 395.28 
L 227.108864 395.28 
L 223.557955 395.28 
z
" clip-path="url(#p40532fb7ca)" style="fill: #4c72b0"/>
   </g>
   <g id="patch_49">
    <path d="M 227.108864 395.28 
L 230.659773 395.28 
L 230.659773 395.28 
L 227.108864 395.28 
z
" clip-path="url(#p40532fb7ca)" style="fill: #4c72b0"/>
   </g>
   <g id="patch_50">
    <path d="M 230.659773 395.28 
L 234.210682 395.28 
L 234.210682 395.28 
L 230.659773 395.28 
z
" clip-path="url(#p40532fb7ca)" style="fill: #4c72b0"/>
   </g>
   <g id="patch_51">
    <path d="M 234.210682 395.28 
L 237.761591 395.28 
L 237.761591 395.28 
L 234.210682 395.28 
z
" clip-path="url(#p40532fb7ca)" style="fill: #4c72b0"/>
   </g>
   <g id="patch_52">
    <path d="M 237.761591 395.28 
L 241.3125 395.28 
L 241.3125 395.28 
L 237.761591 395.28 
z
" clip-path="url(#p40532fb7ca)" style="fill: #4c72b0"/>
   </g>
   <g id="patch_53">
    <path d="M 241.3125 395.28 
L 244.863409 395.28 
L 244.863409 395.28 
L 241.3125 395.28 
z
" clip-path="url(#p40532fb7ca)" style="fill: #4c72b0"/>
   </g>
   <g id="patch_54">
    <path d="M 244.863409 395.28 
L 248.414318 395.28 
L 248.414318 395.28 
L 244.863409 395.28 
z
" clip-path="url(#p40532fb7ca)" style="fill: #4c72b0"/>
   </g>
   <g id="patch_55">
    <path d="M 248.414318 395.28 
L 251.965227 395.28 
L 251.965227 395.28 
L 248.414318 395.28 
z
" clip-path="url(#p40532fb7ca)" style="fill: #4c72b0"/>
   </g>
   <g id="patch_56">
    <path d="M 251.965227 395.28 
L 255.516136 395.28 
L 255.516136 395.28 
L 251.965227 395.28 
z
" clip-path="url(#p40532fb7ca)" style="fill: #4c72b0"/>
   </g>
   <g id="patch_57">
    <path d="M 255.516136 395.28 
L 259.067045 395.28 
L 259.067045 395.28 
L 255.516136 395.28 
z
" clip-path="url(#p40532fb7ca)" style="fill: #4c72b0"/>
   </g>
   <g id="patch_58">
    <path d="M 259.067045 395.28 
L 262.617955 395.28 
L 262.617955 395.28 
L 259.067045 395.28 
z
" clip-path="url(#p40532fb7ca)" style="fill: #4c72b0"/>
   </g>
   <g id="patch_59">
    <path d="M 262.617955 395.28 
L 266.168864 395.28 
L 266.168864 395.28 
L 262.617955 395.28 
z
" clip-path="url(#p40532fb7ca)" style="fill: #4c72b0"/>
   </g>
   <g id="patch_60">
    <path d="M 266.168864 395.28 
L 269.719773 395.28 
L 269.719773 395.28 
L 266.168864 395.28 
z
" clip-path="url(#p40532fb7ca)" style="fill: #4c72b0"/>
   </g>
   <g id="patch_61">
    <path d="M 269.719773 395.28 
L 273.270682 395.28 
L 273.270682 395.28 
L 269.719773 395.28 
z
" clip-path="url(#p40532fb7ca)" style="fill: #4c72b0"/>
   </g>
   <g id="patch_62">
    <path d="M 273.270682 395.28 
L 276.821591 395.28 
L 276.821591 395.28 
L 273.270682 395.28 
z
" clip-path="url(#p40532fb7ca)" style="fill: #4c72b0"/>
   </g>
   <g id="patch_63">
    <path d="M 276.821591 395.28 
L 280.3725 395.28 
L 280.3725 395.28 
L 276.821591 395.28 
z
" clip-path="url(#p40532fb7ca)" style="fill: #4c72b0"/>
   </g>
   <g id="patch_64">
    <path d="M 280.3725 395.28 
L 283.923409 395.28 
L 283.923409 395.28 
L 280.3725 395.28 
z
" clip-path="url(#p40532fb7ca)" style="fill: #4c72b0"/>
   </g>
   <g id="patch_65">
    <path d="M 283.923409 395.28 
L 287.474318 395.28 
L 287.474318 395.28 
L 283.923409 395.28 
z
" clip-path="url(#p40532fb7ca)" style="fill: #4c72b0"/>
   </g>
   <g id="patch_66">
    <path d="M 287.474318 395.28 
L 291.025227 395.28 
L 291.025227 395.28 
L 287.474318 395.28 
z
" clip-path="url(#p40532fb7ca)" style="fill: #4c72b0"/>
   </g>
   <g id="patch_67">
    <path d="M 291.025227 395.28 
L 294.576136 395.28 
L 294.576136 395.28 
L 291.025227 395.28 
z
" clip-path="url(#p40532fb7ca)" style="fill: #4c72b0"/>
   </g>
   <g id="patch_68">
    <path d="M 294.576136 395.28 
L 298.127045 395.28 
L 298.127045 395.28 
L 294.576136 395.28 
z
" clip-path="url(#p40532fb7ca)" style="fill: #4c72b0"/>
   </g>
   <g id="patch_69">
    <path d="M 298.127045 395.28 
L 301.677955 395.28 
L 301.677955 395.28 
L 298.127045 395.28 
z
" clip-path="url(#p40532fb7ca)" style="fill: #4c72b0"/>
   </g>
   <g id="patch_70">
    <path d="M 301.677955 395.28 
L 305.228864 395.28 
L 305.228864 395.28 
L 301.677955 395.28 
z
" clip-path="url(#p40532fb7ca)" style="fill: #4c72b0"/>
   </g>
   <g id="patch_71">
    <path d="M 305.228864 395.28 
L 308.779773 395.28 
L 308.779773 395.28 
L 305.228864 395.28 
z
" clip-path="url(#p40532fb7ca)" style="fill: #4c72b0"/>
   </g>
   <g id="patch_72">
    <path d="M 308.779773 395.28 
L 312.330682 395.28 
L 312.330682 395.28 
L 308.779773 395.28 
z
" clip-path="url(#p40532fb7ca)" style="fill: #4c72b0"/>
   </g>
   <g id="patch_73">
    <path d="M 312.330682 395.28 
L 315.881591 395.28 
L 315.881591 395.28 
L 312.330682 395.28 
z
" clip-path="url(#p40532fb7ca)" style="fill: #4c72b0"/>
   </g>
   <g id="patch_74">
    <path d="M 315.881591 395.28 
L 319.4325 395.28 
L 319.4325 395.28 
L 315.881591 395.28 
z
" clip-path="url(#p40532fb7ca)" style="fill: #4c72b0"/>
   </g>
   <g id="patch_75">
    <path d="M 319.4325 395.28 
L 322.983409 395.28 
L 322.983409 395.28 
L 319.4325 395.28 
z
" clip-path="url(#p40532fb7ca)" style="fill: #4c72b0"/>
   </g>
   <g id="patch_76">
    <path d="M 322.983409 395.28 
L 326.534318 395.28 
L 326.534318 395.28 
L 322.983409 395.28 
z
" clip-path="url(#p40532fb7ca)" style="fill: #4c72b0"/>
   </g>
   <g id="patch_77">
    <path d="M 326.534318 395.28 
L 330.085227 395.28 
L 330.085227 395.28 
L 326.534318 395.28 
z
" clip-path="url(#p40532fb7ca)" style="fill: #4c72b0"/>
   </g>
   <g id="patch_78">
    <path d="M 330.085227 395.28 
L 333.636136 395.28 
L 333.636136 395.28 
L 330.085227 395.28 
z
" clip-path="url(#p40532fb7ca)" style="fill: #4c72b0"/>
   </g>
   <g id="patch_79">
    <path d="M 333.636136 395.28 
L 337.187045 395.28 
L 337.187045 395.28 
L 333.636136 395.28 
z
" clip-path="url(#p40532fb7ca)" style="fill: #4c72b0"/>
   </g>
   <g id="patch_80">
    <path d="M 337.187045 395.28 
L 340.737955 395.28 
L 340.737955 395.28 
L 337.187045 395.28 
z
" clip-path="url(#p40532fb7ca)" style="fill: #4c72b0"/>
   </g>
   <g id="patch_81">
    <path d="M 340.737955 395.28 
L 344.288864 395.28 
L 344.288864 395.28 
L 340.737955 395.28 
z
" clip-path="url(#p40532fb7ca)" style="fill: #4c72b0"/>
   </g>
   <g id="patch_82">
    <path d="M 344.288864 395.28 
L 347.839773 395.28 
L 347.839773 395.28 
L 344.288864 395.28 
z
" clip-path="url(#p40532fb7ca)" style="fill: #4c72b0"/>
   </g>
   <g id="patch_83">
    <path d="M 347.839773 395.28 
L 351.390682 395.28 
L 351.390682 395.28 
L 347.839773 395.28 
z
" clip-path="url(#p40532fb7ca)" style="fill: #4c72b0"/>
   </g>
   <g id="patch_84">
    <path d="M 351.390682 395.28 
L 354.941591 395.28 
L 354.941591 395.28 
L 351.390682 395.28 
z
" clip-path="url(#p40532fb7ca)" style="fill: #4c72b0"/>
   </g>
   <g id="patch_85">
    <path d="M 354.941591 395.28 
L 358.4925 395.28 
L 358.4925 395.28 
L 354.941591 395.28 
z
" clip-path="url(#p40532fb7ca)" style="fill: #4c72b0"/>
   </g>
   <g id="patch_86">
    <path d="M 358.4925 395.28 
L 362.043409 395.28 
L 362.043409 395.28 
L 358.4925 395.28 
z
" clip-path="url(#p40532fb7ca)" style="fill: #4c72b0"/>
   </g>
   <g id="patch_87">
    <path d="M 362.043409 395.28 
L 365.594318 395.28 
L 365.594318 395.28 
L 362.043409 395.28 
z
" clip-path="url(#p40532fb7ca)" style="fill: #4c72b0"/>
   </g>
   <g id="patch_88">
    <path d="M 365.594318 395.28 
L 369.145227 395.28 
L 369.145227 395.28 
L 365.594318 395.28 
z
" clip-path="url(#p40532fb7ca)" style="fill: #4c72b0"/>
   </g>
   <g id="patch_89">
    <path d="M 369.145227 395.28 
L 372.696136 395.28 
L 372.696136 395.28 
L 369.145227 395.28 
z
" clip-path="url(#p40532fb7ca)" style="fill: #4c72b0"/>
   </g>
   <g id="patch_90">
    <path d="M 372.696136 395.28 
L 376.247045 395.28 
L 376.247045 395.28 
L 372.696136 395.28 
z
" clip-path="url(#p40532fb7ca)" style="fill: #4c72b0"/>
   </g>
   <g id="patch_91">
    <path d="M 376.247045 395.28 
L 379.797955 395.28 
L 379.797955 395.28 
L 376.247045 395.28 
z
" clip-path="url(#p40532fb7ca)" style="fill: #4c72b0"/>
   </g>
   <g id="patch_92">
    <path d="M 379.797955 395.28 
L 383.348864 395.28 
L 383.348864 395.28 
L 379.797955 395.28 
z
" clip-path="url(#p40532fb7ca)" style="fill: #4c72b0"/>
   </g>
   <g id="patch_93">
    <path d="M 383.348864 395.28 
L 386.899773 395.28 
L 386.899773 395.28 
L 383.348864 395.28 
z
" clip-path="url(#p40532fb7ca)" style="fill: #4c72b0"/>
   </g>
   <g id="patch_94">
    <path d="M 386.899773 395.28 
L 390.450682 395.28 
L 390.450682 395.28 
L 386.899773 395.28 
z
" clip-path="url(#p40532fb7ca)" style="fill: #4c72b0"/>
   </g>
   <g id="patch_95">
    <path d="M 390.450682 395.28 
L 394.001591 395.28 
L 394.001591 395.28 
L 390.450682 395.28 
z
" clip-path="url(#p40532fb7ca)" style="fill: #4c72b0"/>
   </g>
   <g id="patch_96">
    <path d="M 394.001591 395.28 
L 397.5525 395.28 
L 397.5525 395.28 
L 394.001591 395.28 
z
" clip-path="url(#p40532fb7ca)" style="fill: #4c72b0"/>
   </g>
   <g id="patch_97">
    <path d="M 397.5525 395.28 
L 401.103409 395.28 
L 401.103409 395.28 
L 397.5525 395.28 
z
" clip-path="url(#p40532fb7ca)" style="fill: #4c72b0"/>
   </g>
   <g id="patch_98">
    <path d="M 401.103409 395.28 
L 404.654318 395.28 
L 404.654318 395.28 
L 401.103409 395.28 
z
" clip-path="url(#p40532fb7ca)" style="fill: #4c72b0"/>
   </g>
   <g id="patch_99">
    <path d="M 404.654318 395.28 
L 408.205227 395.28 
L 408.205227 395.28 
L 404.654318 395.28 
z
" clip-path="url(#p40532fb7ca)" style="fill: #4c72b0"/>
   </g>
   <g id="patch_100">
    <path d="M 408.205227 395.28 
L 411.756136 395.28 
L 411.756136 395.28 
L 408.205227 395.28 
z
" clip-path="url(#p40532fb7ca)" style="fill: #4c72b0"/>
   </g>
   <g id="patch_101">
    <path d="M 411.756136 395.28 
L 415.307045 395.28 
L 415.307045 395.28 
L 411.756136 395.28 
z
" clip-path="url(#p40532fb7ca)" style="fill: #4c72b0"/>
   </g>
   <g id="patch_102">
    <path d="M 415.307045 395.28 
L 418.857955 395.28 
L 418.857955 395.28 
L 415.307045 395.28 
z
" clip-path="url(#p40532fb7ca)" style="fill: #4c72b0"/>
   </g>
   <g id="matplotlib.axis_1">
    <g id="xtick_1">
     <g id="line2d_1">
      <defs>
       <path id="mdf4ce6d6a6" d="M 0 0 
L 0 3.5 
" style="stroke: #000000; stroke-width: 0.8"/>
      </defs>
      <g>
       <use xlink:href="#mdf4ce6d6a6" x="63.767045" y="395.28" style="stroke: #000000; stroke-width: 0.8"/>
      </g>
     </g>
     <g id="text_1">
      <!-- 1.00 -->
      <g transform="translate(52.634233 409.878437)scale(0.1 -0.1)">
       <defs>
        <path id="DejaVuSans-31" d="M 794 531 
L 1825 531 
L 1825 4091 
L 703 3866 
L 703 4441 
L 1819 4666 
L 2450 4666 
L 2450 531 
L 3481 531 
L 3481 0 
L 794 0 
L 794 531 
z
" transform="scale(0.015625)"/>
        <path id="DejaVuSans-2e" d="M 684 794 
L 1344 794 
L 1344 0 
L 684 0 
L 684 794 
z
" transform="scale(0.015625)"/>
        <path id="DejaVuSans-30" d="M 2034 4250 
Q 1547 4250 1301 3770 
Q 1056 3291 1056 2328 
Q 1056 1369 1301 889 
Q 1547 409 2034 409 
Q 2525 409 2770 889 
Q 3016 1369 3016 2328 
Q 3016 3291 2770 3770 
Q 2525 4250 2034 4250 
z
M 2034 4750 
Q 2819 4750 3233 4129 
Q 3647 3509 3647 2328 
Q 3647 1150 3233 529 
Q 2819 -91 2034 -91 
Q 1250 -91 836 529 
Q 422 1150 422 2328 
Q 422 3509 836 4129 
Q 1250 4750 2034 4750 
z
" transform="scale(0.015625)"/>
       </defs>
       <use xlink:href="#DejaVuSans-31"/>
       <use xlink:href="#DejaVuSans-2e" x="63.623047"/>
       <use xlink:href="#DejaVuSans-30" x="95.410156"/>
       <use xlink:href="#DejaVuSans-30" x="159.033203"/>
      </g>
     </g>
    </g>
    <g id="xtick_2">
     <g id="line2d_2">
      <g>
       <use xlink:href="#mdf4ce6d6a6" x="134.785227" y="395.28" style="stroke: #000000; stroke-width: 0.8"/>
      </g>
     </g>
     <g id="text_2">
      <!-- 1.02 -->
      <g transform="translate(123.652415 409.878437)scale(0.1 -0.1)">
       <defs>
        <path id="DejaVuSans-32" d="M 1228 531 
L 3431 531 
L 3431 0 
L 469 0 
L 469 531 
Q 828 903 1448 1529 
Q 2069 2156 2228 2338 
Q 2531 2678 2651 2914 
Q 2772 3150 2772 3378 
Q 2772 3750 2511 3984 
Q 2250 4219 1831 4219 
Q 1534 4219 1204 4116 
Q 875 4013 500 3803 
L 500 4441 
Q 881 4594 1212 4672 
Q 1544 4750 1819 4750 
Q 2544 4750 2975 4387 
Q 3406 4025 3406 3419 
Q 3406 3131 3298 2873 
Q 3191 2616 2906 2266 
Q 2828 2175 2409 1742 
Q 1991 1309 1228 531 
z
" transform="scale(0.015625)"/>
       </defs>
       <use xlink:href="#DejaVuSans-31"/>
       <use xlink:href="#DejaVuSans-2e" x="63.623047"/>
       <use xlink:href="#DejaVuSans-30" x="95.410156"/>
       <use xlink:href="#DejaVuSans-32" x="159.033203"/>
      </g>
     </g>
    </g>
    <g id="xtick_3">
     <g id="line2d_3">
      <g>
       <use xlink:href="#mdf4ce6d6a6" x="205.803409" y="395.28" style="stroke: #000000; stroke-width: 0.8"/>
      </g>
     </g>
     <g id="text_3">
      <!-- 1.04 -->
      <g transform="translate(194.670597 409.878437)scale(0.1 -0.1)">
       <defs>
        <path id="DejaVuSans-34" d="M 2419 4116 
L 825 1625 
L 2419 1625 
L 2419 4116 
z
M 2253 4666 
L 3047 4666 
L 3047 1625 
L 3713 1625 
L 3713 1100 
L 3047 1100 
L 3047 0 
L 2419 0 
L 2419 1100 
L 313 1100 
L 313 1709 
L 2253 4666 
z
" transform="scale(0.015625)"/>
       </defs>
       <use xlink:href="#DejaVuSans-31"/>
       <use xlink:href="#DejaVuSans-2e" x="63.623047"/>
       <use xlink:href="#DejaVuSans-30" x="95.410156"/>
       <use xlink:href="#DejaVuSans-34" x="159.033203"/>
      </g>
     </g>
    </g>
    <g id="xtick_4">
     <g id="line2d_4">
      <g>
       <use xlink:href="#mdf4ce6d6a6" x="276.821591" y="395.28" style="stroke: #000000; stroke-width: 0.8"/>
      </g>
     </g>
     <g id="text_4">
      <!-- 1.06 -->
      <g transform="translate(265.688778 409.878437)scale(0.1 -0.1)">
       <defs>
        <path id="DejaVuSans-36" d="M 2113 2584 
Q 1688 2584 1439 2293 
Q 1191 2003 1191 1497 
Q 1191 994 1439 701 
Q 1688 409 2113 409 
Q 2538 409 2786 701 
Q 3034 994 3034 1497 
Q 3034 2003 2786 2293 
Q 2538 2584 2113 2584 
z
M 3366 4563 
L 3366 3988 
Q 3128 4100 2886 4159 
Q 2644 4219 2406 4219 
Q 1781 4219 1451 3797 
Q 1122 3375 1075 2522 
Q 1259 2794 1537 2939 
Q 1816 3084 2150 3084 
Q 2853 3084 3261 2657 
Q 3669 2231 3669 1497 
Q 3669 778 3244 343 
Q 2819 -91 2113 -91 
Q 1303 -91 875 529 
Q 447 1150 447 2328 
Q 447 3434 972 4092 
Q 1497 4750 2381 4750 
Q 2619 4750 2861 4703 
Q 3103 4656 3366 4563 
z
" transform="scale(0.015625)"/>
       </defs>
       <use xlink:href="#DejaVuSans-31"/>
       <use xlink:href="#DejaVuSans-2e" x="63.623047"/>
       <use xlink:href="#DejaVuSans-30" x="95.410156"/>
       <use xlink:href="#DejaVuSans-36" x="159.033203"/>
      </g>
     </g>
    </g>
    <g id="xtick_5">
     <g id="line2d_5">
      <g>
       <use xlink:href="#mdf4ce6d6a6" x="347.839773" y="395.28" style="stroke: #000000; stroke-width: 0.8"/>
      </g>
     </g>
     <g id="text_5">
      <!-- 1.08 -->
      <g transform="translate(336.70696 409.878437)scale(0.1 -0.1)">
       <defs>
        <path id="DejaVuSans-38" d="M 2034 2216 
Q 1584 2216 1326 1975 
Q 1069 1734 1069 1313 
Q 1069 891 1326 650 
Q 1584 409 2034 409 
Q 2484 409 2743 651 
Q 3003 894 3003 1313 
Q 3003 1734 2745 1975 
Q 2488 2216 2034 2216 
z
M 1403 2484 
Q 997 2584 770 2862 
Q 544 3141 544 3541 
Q 544 4100 942 4425 
Q 1341 4750 2034 4750 
Q 2731 4750 3128 4425 
Q 3525 4100 3525 3541 
Q 3525 3141 3298 2862 
Q 3072 2584 2669 2484 
Q 3125 2378 3379 2068 
Q 3634 1759 3634 1313 
Q 3634 634 3220 271 
Q 2806 -91 2034 -91 
Q 1263 -91 848 271 
Q 434 634 434 1313 
Q 434 1759 690 2068 
Q 947 2378 1403 2484 
z
M 1172 3481 
Q 1172 3119 1398 2916 
Q 1625 2713 2034 2713 
Q 2441 2713 2670 2916 
Q 2900 3119 2900 3481 
Q 2900 3844 2670 4047 
Q 2441 4250 2034 4250 
Q 1625 4250 1398 4047 
Q 1172 3844 1172 3481 
z
" transform="scale(0.015625)"/>
       </defs>
       <use xlink:href="#DejaVuSans-31"/>
       <use xlink:href="#DejaVuSans-2e" x="63.623047"/>
       <use xlink:href="#DejaVuSans-30" x="95.410156"/>
       <use xlink:href="#DejaVuSans-38" x="159.033203"/>
      </g>
     </g>
    </g>
    <g id="xtick_6">
     <g id="line2d_6">
      <g>
       <use xlink:href="#mdf4ce6d6a6" x="418.857955" y="395.28" style="stroke: #000000; stroke-width: 0.8"/>
      </g>
     </g>
     <g id="text_6">
      <!-- 1.10 -->
      <g transform="translate(407.725142 409.878437)scale(0.1 -0.1)">
       <use xlink:href="#DejaVuSans-31"/>
       <use xlink:href="#DejaVuSans-2e" x="63.623047"/>
       <use xlink:href="#DejaVuSans-31" x="95.410156"/>
       <use xlink:href="#DejaVuSans-30" x="159.033203"/>
      </g>
     </g>
    </g>
   </g>
   <g id="matplotlib.axis_2">
    <g id="ytick_1">
     <g id="line2d_7">
      <defs>
       <path id="m9957134687" d="M 0 0 
L -3.5 0 
" style="stroke: #000000; stroke-width: 0.8"/>
      </defs>
      <g>
       <use xlink:href="#m9957134687" x="46.0125" y="395.28" style="stroke: #000000; stroke-width: 0.8"/>
      </g>
     </g>
     <g id="text_7">
      <!-- 0 -->
      <g transform="translate(32.65 399.079219)scale(0.1 -0.1)">
       <use xlink:href="#DejaVuSans-30"/>
      </g>
     </g>
    </g>
    <g id="ytick_2">
     <g id="line2d_8">
      <g>
       <use xlink:href="#m9957134687" x="46.0125" y="321.36" style="stroke: #000000; stroke-width: 0.8"/>
      </g>
     </g>
     <g id="text_8">
      <!-- 2000 -->
      <g transform="translate(13.5625 325.159219)scale(0.1 -0.1)">
       <use xlink:href="#DejaVuSans-32"/>
       <use xlink:href="#DejaVuSans-30" x="63.623047"/>
       <use xlink:href="#DejaVuSans-30" x="127.246094"/>
       <use xlink:href="#DejaVuSans-30" x="190.869141"/>
      </g>
     </g>
    </g>
    <g id="ytick_3">
     <g id="line2d_9">
      <g>
       <use xlink:href="#m9957134687" x="46.0125" y="247.44" style="stroke: #000000; stroke-width: 0.8"/>
      </g>
     </g>
     <g id="text_9">
      <!-- 4000 -->
      <g transform="translate(13.5625 251.239219)scale(0.1 -0.1)">
       <use xlink:href="#DejaVuSans-34"/>
       <use xlink:href="#DejaVuSans-30" x="63.623047"/>
       <use xlink:href="#DejaVuSans-30" x="127.246094"/>
       <use xlink:href="#DejaVuSans-30" x="190.869141"/>
      </g>
     </g>
    </g>
    <g id="ytick_4">
     <g id="line2d_10">
      <g>
       <use xlink:href="#m9957134687" x="46.0125" y="173.52" style="stroke: #000000; stroke-width: 0.8"/>
      </g>
     </g>
     <g id="text_10">
      <!-- 6000 -->
      <g transform="translate(13.5625 177.319219)scale(0.1 -0.1)">
       <use xlink:href="#DejaVuSans-36"/>
       <use xlink:href="#DejaVuSans-30" x="63.623047"/>
       <use xlink:href="#DejaVuSans-30" x="127.246094"/>
       <use xlink:href="#DejaVuSans-30" x="190.869141"/>
      </g>
     </g>
    </g>
    <g id="ytick_5">
     <g id="line2d_11">
      <g>
       <use xlink:href="#m9957134687" x="46.0125" y="99.6" style="stroke: #000000; stroke-width: 0.8"/>
      </g>
     </g>
     <g id="text_11">
      <!-- 8000 -->
      <g transform="translate(13.5625 103.399219)scale(0.1 -0.1)">
       <use xlink:href="#DejaVuSans-38"/>
       <use xlink:href="#DejaVuSans-30" x="63.623047"/>
       <use xlink:href="#DejaVuSans-30" x="127.246094"/>
       <use xlink:href="#DejaVuSans-30" x="190.869141"/>
      </g>
     </g>
    </g>
    <g id="ytick_6">
     <g id="line2d_12">
      <g>
       <use xlink:href="#m9957134687" x="46.0125" y="25.68" style="stroke: #000000; stroke-width: 0.8"/>
      </g>
     </g>
     <g id="text_12">
      <!-- 10000 -->
      <g transform="translate(7.2 29.479219)scale(0.1 -0.1)">
       <use xlink:href="#DejaVuSans-31"/>
       <use xlink:href="#DejaVuSans-30" x="63.623047"/>
       <use xlink:href="#DejaVuSans-30" x="127.246094"/>
       <use xlink:href="#DejaVuSans-30" x="190.869141"/>
       <use xlink:href="#DejaVuSans-30" x="254.492188"/>
      </g>
     </g>
    </g>
   </g>
   <g id="patch_103">
    <path d="M 46.0125 395.28 
L 46.0125 7.2 
" style="fill: none; stroke: #000000; stroke-width: 0.8; stroke-linejoin: miter; stroke-linecap: square"/>
   </g>
   <g id="patch_104">
    <path d="M 436.6125 395.28 
L 436.6125 7.2 
" style="fill: none; stroke: #000000; stroke-width: 0.8; stroke-linejoin: miter; stroke-linecap: square"/>
   </g>
   <g id="patch_105">
    <path d="M 46.0125 395.28 
L 436.6125 395.28 
" style="fill: none; stroke: #000000; stroke-width: 0.8; stroke-linejoin: miter; stroke-linecap: square"/>
   </g>
   <g id="patch_106">
    <path d="M 46.0125 7.2 
L 436.6125 7.2 
" style="fill: none; stroke: #000000; stroke-width: 0.8; stroke-linejoin: miter; stroke-linecap: square"/>
   </g>
   <g id="legend_1">
    <g id="patch_107">
     <path d="M 250.3125 30.2 
L 429.6125 30.2 
Q 431.6125 30.2 431.6125 28.2 
L 431.6125 14.2 
Q 431.6125 12.2 429.6125 12.2 
L 250.3125 12.2 
Q 248.3125 12.2 248.3125 14.2 
L 248.3125 28.2 
Q 248.3125 30.2 250.3125 30.2 
z
" style="fill: #ffffff; opacity: 0.8; stroke: #cccccc; stroke-linejoin: miter"/>
    </g>
    <g id="patch_108">
     <path d="M 252.3125 23.8 
L 272.3125 23.8 
L 272.3125 16.8 
L 252.3125 16.8 
z
" style="fill: #4c72b0"/>
    </g>
    <g id="text_13">
     <!-- $z(log\ p_T + 10$)/z(log p_T + 10$)$ -->
     <g transform="translate(280.3125 23.8)scale(0.1 -0.1)">
      <defs>
       <path id="DejaVuSans-Oblique-7a" d="M 744 3500 
L 3475 3500 
L 3372 2975 
L 738 459 
L 2913 459 
L 2822 0 
L -19 0 
L 84 525 
L 2719 3041 
L 653 3041 
L 744 3500 
z
" transform="scale(0.015625)"/>
       <path id="DejaVuSans-28" d="M 1984 4856 
Q 1566 4138 1362 3434 
Q 1159 2731 1159 2009 
Q 1159 1288 1364 580 
Q 1569 -128 1984 -844 
L 1484 -844 
Q 1016 -109 783 600 
Q 550 1309 550 2009 
Q 550 2706 781 3412 
Q 1013 4119 1484 4856 
L 1984 4856 
z
" transform="scale(0.015625)"/>
       <path id="DejaVuSans-Oblique-6c" d="M 1172 4863 
L 1747 4863 
L 800 0 
L 225 0 
L 1172 4863 
z
" transform="scale(0.015625)"/>
       <path id="DejaVuSans-Oblique-6f" d="M 1625 -91 
Q 1009 -91 651 289 
Q 294 669 294 1325 
Q 294 1706 417 2101 
Q 541 2497 738 2766 
Q 1047 3184 1428 3384 
Q 1809 3584 2291 3584 
Q 2888 3584 3255 3212 
Q 3622 2841 3622 2241 
Q 3622 1825 3500 1412 
Q 3378 1000 3181 728 
Q 2875 309 2494 109 
Q 2113 -91 1625 -91 
z
M 891 1344 
Q 891 869 1089 633 
Q 1288 397 1691 397 
Q 2269 397 2648 901 
Q 3028 1406 3028 2181 
Q 3028 2634 2825 2865 
Q 2622 3097 2228 3097 
Q 1903 3097 1650 2945 
Q 1397 2794 1197 2484 
Q 1050 2253 970 1956 
Q 891 1659 891 1344 
z
" transform="scale(0.015625)"/>
       <path id="DejaVuSans-Oblique-67" d="M 3816 3500 
L 3219 434 
Q 3047 -456 2561 -893 
Q 2075 -1331 1253 -1331 
Q 950 -1331 690 -1286 
Q 431 -1241 206 -1147 
L 313 -588 
Q 525 -725 762 -790 
Q 1000 -856 1269 -856 
Q 1816 -856 2167 -557 
Q 2519 -259 2631 300 
L 2681 563 
Q 2441 288 2122 144 
Q 1803 0 1434 0 
Q 903 0 598 351 
Q 294 703 294 1319 
Q 294 1803 478 2267 
Q 663 2731 997 3091 
Q 1219 3328 1514 3456 
Q 1809 3584 2131 3584 
Q 2484 3584 2746 3420 
Q 3009 3256 3138 2956 
L 3238 3500 
L 3816 3500 
z
M 2950 2216 
Q 2950 2641 2750 2872 
Q 2550 3103 2181 3103 
Q 1953 3103 1747 3012 
Q 1541 2922 1394 2759 
Q 1156 2491 1023 2127 
Q 891 1763 891 1375 
Q 891 944 1092 712 
Q 1294 481 1672 481 
Q 2219 481 2584 976 
Q 2950 1472 2950 2216 
z
" transform="scale(0.015625)"/>
       <path id="DejaVuSans-Oblique-70" d="M 3175 2156 
Q 3175 2616 2975 2859 
Q 2775 3103 2400 3103 
Q 2144 3103 1911 2972 
Q 1678 2841 1497 2591 
Q 1319 2344 1212 1994 
Q 1106 1644 1106 1300 
Q 1106 863 1306 627 
Q 1506 391 1875 391 
Q 2147 391 2380 519 
Q 2613 647 2778 891 
Q 2956 1147 3065 1494 
Q 3175 1841 3175 2156 
z
M 1394 2969 
Q 1625 3272 1939 3428 
Q 2253 3584 2638 3584 
Q 3175 3584 3472 3232 
Q 3769 2881 3769 2247 
Q 3769 1728 3584 1258 
Q 3400 788 3053 416 
Q 2822 169 2531 39 
Q 2241 -91 1919 -91 
Q 1547 -91 1294 64 
Q 1041 219 916 525 
L 556 -1331 
L -19 -1331 
L 922 3500 
L 1497 3500 
L 1394 2969 
z
" transform="scale(0.015625)"/>
       <path id="DejaVuSans-Oblique-54" d="M 378 4666 
L 4325 4666 
L 4225 4134 
L 2559 4134 
L 1759 0 
L 1125 0 
L 1925 4134 
L 275 4134 
L 378 4666 
z
" transform="scale(0.015625)"/>
       <path id="DejaVuSans-2b" d="M 2944 4013 
L 2944 2272 
L 4684 2272 
L 4684 1741 
L 2944 1741 
L 2944 0 
L 2419 0 
L 2419 1741 
L 678 1741 
L 678 2272 
L 2419 2272 
L 2419 4013 
L 2944 4013 
z
" transform="scale(0.015625)"/>
       <path id="DejaVuSans-29" d="M 513 4856 
L 1013 4856 
Q 1481 4119 1714 3412 
Q 1947 2706 1947 2009 
Q 1947 1309 1714 600 
Q 1481 -109 1013 -844 
L 513 -844 
Q 928 -128 1133 580 
Q 1338 1288 1338 2009 
Q 1338 2731 1133 3434 
Q 928 4138 513 4856 
z
" transform="scale(0.015625)"/>
       <path id="DejaVuSans-2f" d="M 1625 4666 
L 2156 4666 
L 531 -594 
L 0 -594 
L 1625 4666 
z
" transform="scale(0.015625)"/>
       <path id="DejaVuSans-7a" d="M 353 3500 
L 3084 3500 
L 3084 2975 
L 922 459 
L 3084 459 
L 3084 0 
L 275 0 
L 275 525 
L 2438 3041 
L 353 3041 
L 353 3500 
z
" transform="scale(0.015625)"/>
       <path id="DejaVuSans-6c" d="M 603 4863 
L 1178 4863 
L 1178 0 
L 603 0 
L 603 4863 
z
" transform="scale(0.015625)"/>
       <path id="DejaVuSans-6f" d="M 1959 3097 
Q 1497 3097 1228 2736 
Q 959 2375 959 1747 
Q 959 1119 1226 758 
Q 1494 397 1959 397 
Q 2419 397 2687 759 
Q 2956 1122 2956 1747 
Q 2956 2369 2687 2733 
Q 2419 3097 1959 3097 
z
M 1959 3584 
Q 2709 3584 3137 3096 
Q 3566 2609 3566 1747 
Q 3566 888 3137 398 
Q 2709 -91 1959 -91 
Q 1206 -91 779 398 
Q 353 888 353 1747 
Q 353 2609 779 3096 
Q 1206 3584 1959 3584 
z
" transform="scale(0.015625)"/>
       <path id="DejaVuSans-67" d="M 2906 1791 
Q 2906 2416 2648 2759 
Q 2391 3103 1925 3103 
Q 1463 3103 1205 2759 
Q 947 2416 947 1791 
Q 947 1169 1205 825 
Q 1463 481 1925 481 
Q 2391 481 2648 825 
Q 2906 1169 2906 1791 
z
M 3481 434 
Q 3481 -459 3084 -895 
Q 2688 -1331 1869 -1331 
Q 1566 -1331 1297 -1286 
Q 1028 -1241 775 -1147 
L 775 -588 
Q 1028 -725 1275 -790 
Q 1522 -856 1778 -856 
Q 2344 -856 2625 -561 
Q 2906 -266 2906 331 
L 2906 616 
Q 2728 306 2450 153 
Q 2172 0 1784 0 
Q 1141 0 747 490 
Q 353 981 353 1791 
Q 353 2603 747 3093 
Q 1141 3584 1784 3584 
Q 2172 3584 2450 3431 
Q 2728 3278 2906 2969 
L 2906 3500 
L 3481 3500 
L 3481 434 
z
" transform="scale(0.015625)"/>
       <path id="DejaVuSans-20" transform="scale(0.015625)"/>
       <path id="DejaVuSans-70" d="M 1159 525 
L 1159 -1331 
L 581 -1331 
L 581 3500 
L 1159 3500 
L 1159 2969 
Q 1341 3281 1617 3432 
Q 1894 3584 2278 3584 
Q 2916 3584 3314 3078 
Q 3713 2572 3713 1747 
Q 3713 922 3314 415 
Q 2916 -91 2278 -91 
Q 1894 -91 1617 61 
Q 1341 213 1159 525 
z
M 3116 1747 
Q 3116 2381 2855 2742 
Q 2594 3103 2138 3103 
Q 1681 3103 1420 2742 
Q 1159 2381 1159 1747 
Q 1159 1113 1420 752 
Q 1681 391 2138 391 
Q 2594 391 2855 752 
Q 3116 1113 3116 1747 
z
" transform="scale(0.015625)"/>
       <path id="DejaVuSans-5f" d="M 3263 -1063 
L 3263 -1509 
L -63 -1509 
L -63 -1063 
L 3263 -1063 
z
" transform="scale(0.015625)"/>
       <path id="DejaVuSans-54" d="M -19 4666 
L 3928 4666 
L 3928 4134 
L 2272 4134 
L 2272 0 
L 1638 0 
L 1638 4134 
L -19 4134 
L -19 4666 
z
" transform="scale(0.015625)"/>
      </defs>
      <use xlink:href="#DejaVuSans-Oblique-7a" transform="translate(0 0.015625)"/>
      <use xlink:href="#DejaVuSans-28" transform="translate(52.490234 0.015625)"/>
      <use xlink:href="#DejaVuSans-Oblique-6c" transform="translate(91.503906 0.015625)"/>
      <use xlink:href="#DejaVuSans-Oblique-6f" transform="translate(119.287109 0.015625)"/>
      <use xlink:href="#DejaVuSans-Oblique-67" transform="translate(180.46875 0.015625)"/>
      <use xlink:href="#DejaVuSans-Oblique-70" transform="translate(276.415691 0.015625)"/>
      <use xlink:href="#DejaVuSans-Oblique-54" transform="translate(339.892253 -16.390625)scale(0.7)"/>
      <use xlink:href="#DejaVuSans-2b" transform="translate(404.867839 0.015625)"/>
      <use xlink:href="#DejaVuSans-31" transform="translate(508.139324 0.015625)"/>
      <use xlink:href="#DejaVuSans-30" transform="translate(571.762371 0.015625)"/>
      <use xlink:href="#DejaVuSans-29" transform="translate(635.385417 0.015625)"/>
      <use xlink:href="#DejaVuSans-2f" transform="translate(674.399089 0.015625)"/>
      <use xlink:href="#DejaVuSans-7a" transform="translate(708.090496 0.015625)"/>
      <use xlink:href="#DejaVuSans-28" transform="translate(760.58073 0.015625)"/>
      <use xlink:href="#DejaVuSans-6c" transform="translate(799.594402 0.015625)"/>
      <use xlink:href="#DejaVuSans-6f" transform="translate(827.377605 0.015625)"/>
      <use xlink:href="#DejaVuSans-67" transform="translate(888.559246 0.015625)"/>
      <use xlink:href="#DejaVuSans-20" transform="translate(952.035808 0.015625)"/>
      <use xlink:href="#DejaVuSans-70" transform="translate(983.822917 0.015625)"/>
      <use xlink:href="#DejaVuSans-5f" transform="translate(1047.29948 0.015625)"/>
      <use xlink:href="#DejaVuSans-54" transform="translate(1097.29948 0.015625)"/>
      <use xlink:href="#DejaVuSans-20" transform="translate(1158.383464 0.015625)"/>
      <use xlink:href="#DejaVuSans-2b" transform="translate(1190.170574 0.015625)"/>
      <use xlink:href="#DejaVuSans-20" transform="translate(1273.959636 0.015625)"/>
      <use xlink:href="#DejaVuSans-31" transform="translate(1305.746746 0.015625)"/>
      <use xlink:href="#DejaVuSans-30" transform="translate(1369.369792 0.015625)"/>
      <use xlink:href="#DejaVuSans-29" transform="translate(1432.992839 0.015625)"/>
     </g>
    </g>
   </g>
  </g>
 </g>
 <defs>
  <clipPath id="p40532fb7ca">
   <rect x="46.0125" y="7.2" width="390.6" height="388.08"/>
  </clipPath>
 </defs>
</svg>
