<?xml version="1.0" encoding="utf-8" standalone="no"?>
<!DOCTYPE svg PUBLIC "-//W3C//DTD SVG 1.1//EN"
  "http://www.w3.org/Graphics/SVG/1.1/DTD/svg11.dtd">
<svg xmlns:xlink="http://www.w3.org/1999/xlink" width="448.194601pt" height="437.393654pt" viewBox="0 0 448.194601 437.393654" xmlns="http://www.w3.org/2000/svg" version="1.1">
 <metadata>
  <rdf:RDF xmlns:dc="http://purl.org/dc/elements/1.1/" xmlns:cc="http://creativecommons.org/ns#" xmlns:rdf="http://www.w3.org/1999/02/22-rdf-syntax-ns#">
   <cc:Work>
    <dc:type rdf:resource="http://purl.org/dc/dcmitype/StillImage"/>
    <dc:date>2022-12-03T16:11:16.681994</dc:date>
    <dc:format>image/svg+xml</dc:format>
    <dc:creator>
     <cc:Agent>
      <dc:title>Matplotlib v3.5.1, https://matplotlib.org/</dc:title>
     </cc:Agent>
    </dc:creator>
   </cc:Work>
  </rdf:RDF>
 </metadata>
 <defs>
  <style type="text/css">*{stroke-linejoin: round; stroke-linecap: butt}</style>
 </defs>
 <g id="figure_1">
  <g id="patch_1">
   <path d="M 0 437.393654 
L 448.194601 437.393654 
L 448.194601 0 
L 0 0 
z
" style="fill: #ffffff"/>
  </g>
  <g id="axes_1">
   <g id="patch_2">
    <path d="M 48.342443 395.28 
L 438.942443 395.28 
L 438.942443 7.2 
L 48.342443 7.2 
z
" style="fill: #ffffff"/>
   </g>
   <g id="patch_3">
    <path d="M 66.096989 395.28 
L 69.647898 395.28 
L 69.647898 25.68 
L 66.096989 25.68 
z
" clip-path="url(#p38aadcd7df)" style="fill: #4c72b0; opacity: 0.3"/>
   </g>
   <g id="patch_4">
    <path d="M 69.647898 395.28 
L 73.198807 395.28 
L 73.198807 395.28 
L 69.647898 395.28 
z
" clip-path="url(#p38aadcd7df)" style="fill: #4c72b0; opacity: 0.3"/>
   </g>
   <g id="patch_5">
    <path d="M 73.198807 395.28 
L 76.749716 395.28 
L 76.749716 395.28 
L 73.198807 395.28 
z
" clip-path="url(#p38aadcd7df)" style="fill: #4c72b0; opacity: 0.3"/>
   </g>
   <g id="patch_6">
    <path d="M 76.749716 395.28 
L 80.300625 395.28 
L 80.300625 395.28 
L 76.749716 395.28 
z
" clip-path="url(#p38aadcd7df)" style="fill: #4c72b0; opacity: 0.3"/>
   </g>
   <g id="patch_7">
    <path d="M 80.300625 395.28 
L 83.851534 395.28 
L 83.851534 395.28 
L 80.300625 395.28 
z
" clip-path="url(#p38aadcd7df)" style="fill: #4c72b0; opacity: 0.3"/>
   </g>
   <g id="patch_8">
    <path d="M 83.851534 395.28 
L 87.402443 395.28 
L 87.402443 395.28 
L 83.851534 395.28 
z
" clip-path="url(#p38aadcd7df)" style="fill: #4c72b0; opacity: 0.3"/>
   </g>
   <g id="patch_9">
    <path d="M 87.402443 395.28 
L 90.953352 395.28 
L 90.953352 395.28 
L 87.402443 395.28 
z
" clip-path="url(#p38aadcd7df)" style="fill: #4c72b0; opacity: 0.3"/>
   </g>
   <g id="patch_10">
    <path d="M 90.953352 395.28 
L 94.504261 395.28 
L 94.504261 395.28 
L 90.953352 395.28 
z
" clip-path="url(#p38aadcd7df)" style="fill: #4c72b0; opacity: 0.3"/>
   </g>
   <g id="patch_11">
    <path d="M 94.504261 395.28 
L 98.05517 395.28 
L 98.05517 395.28 
L 94.504261 395.28 
z
" clip-path="url(#p38aadcd7df)" style="fill: #4c72b0; opacity: 0.3"/>
   </g>
   <g id="patch_12">
    <path d="M 98.05517 395.28 
L 101.606079 395.28 
L 101.606079 395.131982 
L 98.05517 395.131982 
z
" clip-path="url(#p38aadcd7df)" style="fill: #4c72b0; opacity: 0.3"/>
   </g>
   <g id="patch_13">
    <path d="M 101.606079 395.28 
L 105.156989 395.28 
L 105.156989 395.28 
L 101.606079 395.28 
z
" clip-path="url(#p38aadcd7df)" style="fill: #4c72b0; opacity: 0.3"/>
   </g>
   <g id="patch_14">
    <path d="M 105.156989 395.28 
L 108.707898 395.28 
L 108.707898 395.28 
L 105.156989 395.28 
z
" clip-path="url(#p38aadcd7df)" style="fill: #4c72b0; opacity: 0.3"/>
   </g>
   <g id="patch_15">
    <path d="M 108.707898 395.28 
L 112.258807 395.28 
L 112.258807 395.28 
L 108.707898 395.28 
z
" clip-path="url(#p38aadcd7df)" style="fill: #4c72b0; opacity: 0.3"/>
   </g>
   <g id="patch_16">
    <path d="M 112.258807 395.28 
L 115.809716 395.28 
L 115.809716 395.28 
L 112.258807 395.28 
z
" clip-path="url(#p38aadcd7df)" style="fill: #4c72b0; opacity: 0.3"/>
   </g>
   <g id="patch_17">
    <path d="M 115.809716 395.28 
L 119.360625 395.28 
L 119.360625 395.094978 
L 115.809716 395.094978 
z
" clip-path="url(#p38aadcd7df)" style="fill: #4c72b0; opacity: 0.3"/>
   </g>
   <g id="patch_18">
    <path d="M 119.360625 395.28 
L 122.911534 395.28 
L 122.911534 395.28 
L 119.360625 395.28 
z
" clip-path="url(#p38aadcd7df)" style="fill: #4c72b0; opacity: 0.3"/>
   </g>
   <g id="patch_19">
    <path d="M 122.911534 395.28 
L 126.462443 395.28 
L 126.462443 395.28 
L 122.911534 395.28 
z
" clip-path="url(#p38aadcd7df)" style="fill: #4c72b0; opacity: 0.3"/>
   </g>
   <g id="patch_20">
    <path d="M 126.462443 395.28 
L 130.013352 395.28 
L 130.013352 395.28 
L 126.462443 395.28 
z
" clip-path="url(#p38aadcd7df)" style="fill: #4c72b0; opacity: 0.3"/>
   </g>
   <g id="patch_21">
    <path d="M 130.013352 395.28 
L 133.564261 395.28 
L 133.564261 395.28 
L 130.013352 395.28 
z
" clip-path="url(#p38aadcd7df)" style="fill: #4c72b0; opacity: 0.3"/>
   </g>
   <g id="patch_22">
    <path d="M 133.564261 395.28 
L 137.11517 395.28 
L 137.11517 395.28 
L 133.564261 395.28 
z
" clip-path="url(#p38aadcd7df)" style="fill: #4c72b0; opacity: 0.3"/>
   </g>
   <g id="patch_23">
    <path d="M 137.11517 395.28 
L 140.666079 395.28 
L 140.666079 395.28 
L 137.11517 395.28 
z
" clip-path="url(#p38aadcd7df)" style="fill: #4c72b0; opacity: 0.3"/>
   </g>
   <g id="patch_24">
    <path d="M 140.666079 395.28 
L 144.216989 395.28 
L 144.216989 395.28 
L 140.666079 395.28 
z
" clip-path="url(#p38aadcd7df)" style="fill: #4c72b0; opacity: 0.3"/>
   </g>
   <g id="patch_25">
    <path d="M 144.216989 395.28 
L 147.767898 395.28 
L 147.767898 395.28 
L 144.216989 395.28 
z
" clip-path="url(#p38aadcd7df)" style="fill: #4c72b0; opacity: 0.3"/>
   </g>
   <g id="patch_26">
    <path d="M 147.767898 395.28 
L 151.318807 395.28 
L 151.318807 395.28 
L 147.767898 395.28 
z
" clip-path="url(#p38aadcd7df)" style="fill: #4c72b0; opacity: 0.3"/>
   </g>
   <g id="patch_27">
    <path d="M 151.318807 395.28 
L 154.869716 395.28 
L 154.869716 395.28 
L 151.318807 395.28 
z
" clip-path="url(#p38aadcd7df)" style="fill: #4c72b0; opacity: 0.3"/>
   </g>
   <g id="patch_28">
    <path d="M 154.869716 395.28 
L 158.420625 395.28 
L 158.420625 395.28 
L 154.869716 395.28 
z
" clip-path="url(#p38aadcd7df)" style="fill: #4c72b0; opacity: 0.3"/>
   </g>
   <g id="patch_29">
    <path d="M 158.420625 395.28 
L 161.971534 395.28 
L 161.971534 395.28 
L 158.420625 395.28 
z
" clip-path="url(#p38aadcd7df)" style="fill: #4c72b0; opacity: 0.3"/>
   </g>
   <g id="patch_30">
    <path d="M 161.971534 395.28 
L 165.522443 395.28 
L 165.522443 395.28 
L 161.971534 395.28 
z
" clip-path="url(#p38aadcd7df)" style="fill: #4c72b0; opacity: 0.3"/>
   </g>
   <g id="patch_31">
    <path d="M 165.522443 395.28 
L 169.073352 395.28 
L 169.073352 395.28 
L 165.522443 395.28 
z
" clip-path="url(#p38aadcd7df)" style="fill: #4c72b0; opacity: 0.3"/>
   </g>
   <g id="patch_32">
    <path d="M 169.073352 395.28 
L 172.624261 395.28 
L 172.624261 395.28 
L 169.073352 395.28 
z
" clip-path="url(#p38aadcd7df)" style="fill: #4c72b0; opacity: 0.3"/>
   </g>
   <g id="patch_33">
    <path d="M 172.624261 395.28 
L 176.17517 395.28 
L 176.17517 395.28 
L 172.624261 395.28 
z
" clip-path="url(#p38aadcd7df)" style="fill: #4c72b0; opacity: 0.3"/>
   </g>
   <g id="patch_34">
    <path d="M 176.17517 395.28 
L 179.726079 395.28 
L 179.726079 395.28 
L 176.17517 395.28 
z
" clip-path="url(#p38aadcd7df)" style="fill: #4c72b0; opacity: 0.3"/>
   </g>
   <g id="patch_35">
    <path d="M 179.726079 395.28 
L 183.276989 395.28 
L 183.276989 395.28 
L 179.726079 395.28 
z
" clip-path="url(#p38aadcd7df)" style="fill: #4c72b0; opacity: 0.3"/>
   </g>
   <g id="patch_36">
    <path d="M 183.276989 395.28 
L 186.827898 395.28 
L 186.827898 395.28 
L 183.276989 395.28 
z
" clip-path="url(#p38aadcd7df)" style="fill: #4c72b0; opacity: 0.3"/>
   </g>
   <g id="patch_37">
    <path d="M 186.827898 395.28 
L 190.378807 395.28 
L 190.378807 395.28 
L 186.827898 395.28 
z
" clip-path="url(#p38aadcd7df)" style="fill: #4c72b0; opacity: 0.3"/>
   </g>
   <g id="patch_38">
    <path d="M 190.378807 395.28 
L 193.929716 395.28 
L 193.929716 395.28 
L 190.378807 395.28 
z
" clip-path="url(#p38aadcd7df)" style="fill: #4c72b0; opacity: 0.3"/>
   </g>
   <g id="patch_39">
    <path d="M 193.929716 395.28 
L 197.480625 395.28 
L 197.480625 395.28 
L 193.929716 395.28 
z
" clip-path="url(#p38aadcd7df)" style="fill: #4c72b0; opacity: 0.3"/>
   </g>
   <g id="patch_40">
    <path d="M 197.480625 395.28 
L 201.031534 395.28 
L 201.031534 395.28 
L 197.480625 395.28 
z
" clip-path="url(#p38aadcd7df)" style="fill: #4c72b0; opacity: 0.3"/>
   </g>
   <g id="patch_41">
    <path d="M 201.031534 395.28 
L 204.582443 395.28 
L 204.582443 395.28 
L 201.031534 395.28 
z
" clip-path="url(#p38aadcd7df)" style="fill: #4c72b0; opacity: 0.3"/>
   </g>
   <g id="patch_42">
    <path d="M 204.582443 395.28 
L 208.133352 395.28 
L 208.133352 395.28 
L 204.582443 395.28 
z
" clip-path="url(#p38aadcd7df)" style="fill: #4c72b0; opacity: 0.3"/>
   </g>
   <g id="patch_43">
    <path d="M 208.133352 395.28 
L 211.684261 395.28 
L 211.684261 395.28 
L 208.133352 395.28 
z
" clip-path="url(#p38aadcd7df)" style="fill: #4c72b0; opacity: 0.3"/>
   </g>
   <g id="patch_44">
    <path d="M 211.684261 395.28 
L 215.23517 395.28 
L 215.23517 395.28 
L 211.684261 395.28 
z
" clip-path="url(#p38aadcd7df)" style="fill: #4c72b0; opacity: 0.3"/>
   </g>
   <g id="patch_45">
    <path d="M 215.23517 395.28 
L 218.786079 395.28 
L 218.786079 395.28 
L 215.23517 395.28 
z
" clip-path="url(#p38aadcd7df)" style="fill: #4c72b0; opacity: 0.3"/>
   </g>
   <g id="patch_46">
    <path d="M 218.786079 395.28 
L 222.336989 395.28 
L 222.336989 395.28 
L 218.786079 395.28 
z
" clip-path="url(#p38aadcd7df)" style="fill: #4c72b0; opacity: 0.3"/>
   </g>
   <g id="patch_47">
    <path d="M 222.336989 395.28 
L 225.887898 395.28 
L 225.887898 395.28 
L 222.336989 395.28 
z
" clip-path="url(#p38aadcd7df)" style="fill: #4c72b0; opacity: 0.3"/>
   </g>
   <g id="patch_48">
    <path d="M 225.887898 395.28 
L 229.438807 395.28 
L 229.438807 395.28 
L 225.887898 395.28 
z
" clip-path="url(#p38aadcd7df)" style="fill: #4c72b0; opacity: 0.3"/>
   </g>
   <g id="patch_49">
    <path d="M 229.438807 395.28 
L 232.989716 395.28 
L 232.989716 395.28 
L 229.438807 395.28 
z
" clip-path="url(#p38aadcd7df)" style="fill: #4c72b0; opacity: 0.3"/>
   </g>
   <g id="patch_50">
    <path d="M 232.989716 395.28 
L 236.540625 395.28 
L 236.540625 395.28 
L 232.989716 395.28 
z
" clip-path="url(#p38aadcd7df)" style="fill: #4c72b0; opacity: 0.3"/>
   </g>
   <g id="patch_51">
    <path d="M 236.540625 395.28 
L 240.091534 395.28 
L 240.091534 395.28 
L 236.540625 395.28 
z
" clip-path="url(#p38aadcd7df)" style="fill: #4c72b0; opacity: 0.3"/>
   </g>
   <g id="patch_52">
    <path d="M 240.091534 395.28 
L 243.642443 395.28 
L 243.642443 395.28 
L 240.091534 395.28 
z
" clip-path="url(#p38aadcd7df)" style="fill: #4c72b0; opacity: 0.3"/>
   </g>
   <g id="patch_53">
    <path d="M 243.642443 395.28 
L 247.193352 395.28 
L 247.193352 395.28 
L 243.642443 395.28 
z
" clip-path="url(#p38aadcd7df)" style="fill: #4c72b0; opacity: 0.3"/>
   </g>
   <g id="patch_54">
    <path d="M 247.193352 395.28 
L 250.744261 395.28 
L 250.744261 395.28 
L 247.193352 395.28 
z
" clip-path="url(#p38aadcd7df)" style="fill: #4c72b0; opacity: 0.3"/>
   </g>
   <g id="patch_55">
    <path d="M 250.744261 395.28 
L 254.29517 395.28 
L 254.29517 395.28 
L 250.744261 395.28 
z
" clip-path="url(#p38aadcd7df)" style="fill: #4c72b0; opacity: 0.3"/>
   </g>
   <g id="patch_56">
    <path d="M 254.29517 395.28 
L 257.846079 395.28 
L 257.846079 395.28 
L 254.29517 395.28 
z
" clip-path="url(#p38aadcd7df)" style="fill: #4c72b0; opacity: 0.3"/>
   </g>
   <g id="patch_57">
    <path d="M 257.846079 395.28 
L 261.396989 395.28 
L 261.396989 395.28 
L 257.846079 395.28 
z
" clip-path="url(#p38aadcd7df)" style="fill: #4c72b0; opacity: 0.3"/>
   </g>
   <g id="patch_58">
    <path d="M 261.396989 395.28 
L 264.947898 395.28 
L 264.947898 395.28 
L 261.396989 395.28 
z
" clip-path="url(#p38aadcd7df)" style="fill: #4c72b0; opacity: 0.3"/>
   </g>
   <g id="patch_59">
    <path d="M 264.947898 395.28 
L 268.498807 395.28 
L 268.498807 395.28 
L 264.947898 395.28 
z
" clip-path="url(#p38aadcd7df)" style="fill: #4c72b0; opacity: 0.3"/>
   </g>
   <g id="patch_60">
    <path d="M 268.498807 395.28 
L 272.049716 395.28 
L 272.049716 395.28 
L 268.498807 395.28 
z
" clip-path="url(#p38aadcd7df)" style="fill: #4c72b0; opacity: 0.3"/>
   </g>
   <g id="patch_61">
    <path d="M 272.049716 395.28 
L 275.600625 395.28 
L 275.600625 395.28 
L 272.049716 395.28 
z
" clip-path="url(#p38aadcd7df)" style="fill: #4c72b0; opacity: 0.3"/>
   </g>
   <g id="patch_62">
    <path d="M 275.600625 395.28 
L 279.151534 395.28 
L 279.151534 395.28 
L 275.600625 395.28 
z
" clip-path="url(#p38aadcd7df)" style="fill: #4c72b0; opacity: 0.3"/>
   </g>
   <g id="patch_63">
    <path d="M 279.151534 395.28 
L 282.702443 395.28 
L 282.702443 395.28 
L 279.151534 395.28 
z
" clip-path="url(#p38aadcd7df)" style="fill: #4c72b0; opacity: 0.3"/>
   </g>
   <g id="patch_64">
    <path d="M 282.702443 395.28 
L 286.253352 395.28 
L 286.253352 395.28 
L 282.702443 395.28 
z
" clip-path="url(#p38aadcd7df)" style="fill: #4c72b0; opacity: 0.3"/>
   </g>
   <g id="patch_65">
    <path d="M 286.253352 395.28 
L 289.804261 395.28 
L 289.804261 395.28 
L 286.253352 395.28 
z
" clip-path="url(#p38aadcd7df)" style="fill: #4c72b0; opacity: 0.3"/>
   </g>
   <g id="patch_66">
    <path d="M 289.804261 395.28 
L 293.35517 395.28 
L 293.35517 395.28 
L 289.804261 395.28 
z
" clip-path="url(#p38aadcd7df)" style="fill: #4c72b0; opacity: 0.3"/>
   </g>
   <g id="patch_67">
    <path d="M 293.35517 395.28 
L 296.906079 395.28 
L 296.906079 395.28 
L 293.35517 395.28 
z
" clip-path="url(#p38aadcd7df)" style="fill: #4c72b0; opacity: 0.3"/>
   </g>
   <g id="patch_68">
    <path d="M 296.906079 395.28 
L 300.456989 395.28 
L 300.456989 395.28 
L 296.906079 395.28 
z
" clip-path="url(#p38aadcd7df)" style="fill: #4c72b0; opacity: 0.3"/>
   </g>
   <g id="patch_69">
    <path d="M 300.456989 395.28 
L 304.007898 395.28 
L 304.007898 395.28 
L 300.456989 395.28 
z
" clip-path="url(#p38aadcd7df)" style="fill: #4c72b0; opacity: 0.3"/>
   </g>
   <g id="patch_70">
    <path d="M 304.007898 395.28 
L 307.558807 395.28 
L 307.558807 395.28 
L 304.007898 395.28 
z
" clip-path="url(#p38aadcd7df)" style="fill: #4c72b0; opacity: 0.3"/>
   </g>
   <g id="patch_71">
    <path d="M 307.558807 395.28 
L 311.109716 395.28 
L 311.109716 395.28 
L 307.558807 395.28 
z
" clip-path="url(#p38aadcd7df)" style="fill: #4c72b0; opacity: 0.3"/>
   </g>
   <g id="patch_72">
    <path d="M 311.109716 395.28 
L 314.660625 395.28 
L 314.660625 395.28 
L 311.109716 395.28 
z
" clip-path="url(#p38aadcd7df)" style="fill: #4c72b0; opacity: 0.3"/>
   </g>
   <g id="patch_73">
    <path d="M 314.660625 395.28 
L 318.211534 395.28 
L 318.211534 395.28 
L 314.660625 395.28 
z
" clip-path="url(#p38aadcd7df)" style="fill: #4c72b0; opacity: 0.3"/>
   </g>
   <g id="patch_74">
    <path d="M 318.211534 395.28 
L 321.762443 395.28 
L 321.762443 395.28 
L 318.211534 395.28 
z
" clip-path="url(#p38aadcd7df)" style="fill: #4c72b0; opacity: 0.3"/>
   </g>
   <g id="patch_75">
    <path d="M 321.762443 395.28 
L 325.313352 395.28 
L 325.313352 395.28 
L 321.762443 395.28 
z
" clip-path="url(#p38aadcd7df)" style="fill: #4c72b0; opacity: 0.3"/>
   </g>
   <g id="patch_76">
    <path d="M 325.313352 395.28 
L 328.864261 395.28 
L 328.864261 395.28 
L 325.313352 395.28 
z
" clip-path="url(#p38aadcd7df)" style="fill: #4c72b0; opacity: 0.3"/>
   </g>
   <g id="patch_77">
    <path d="M 328.864261 395.28 
L 332.41517 395.28 
L 332.41517 395.28 
L 328.864261 395.28 
z
" clip-path="url(#p38aadcd7df)" style="fill: #4c72b0; opacity: 0.3"/>
   </g>
   <g id="patch_78">
    <path d="M 332.41517 395.28 
L 335.966079 395.28 
L 335.966079 395.28 
L 332.41517 395.28 
z
" clip-path="url(#p38aadcd7df)" style="fill: #4c72b0; opacity: 0.3"/>
   </g>
   <g id="patch_79">
    <path d="M 335.966079 395.28 
L 339.516989 395.28 
L 339.516989 395.28 
L 335.966079 395.28 
z
" clip-path="url(#p38aadcd7df)" style="fill: #4c72b0; opacity: 0.3"/>
   </g>
   <g id="patch_80">
    <path d="M 339.516989 395.28 
L 343.067898 395.28 
L 343.067898 395.28 
L 339.516989 395.28 
z
" clip-path="url(#p38aadcd7df)" style="fill: #4c72b0; opacity: 0.3"/>
   </g>
   <g id="patch_81">
    <path d="M 343.067898 395.28 
L 346.618807 395.28 
L 346.618807 395.28 
L 343.067898 395.28 
z
" clip-path="url(#p38aadcd7df)" style="fill: #4c72b0; opacity: 0.3"/>
   </g>
   <g id="patch_82">
    <path d="M 346.618807 395.28 
L 350.169716 395.28 
L 350.169716 395.28 
L 346.618807 395.28 
z
" clip-path="url(#p38aadcd7df)" style="fill: #4c72b0; opacity: 0.3"/>
   </g>
   <g id="patch_83">
    <path d="M 350.169716 395.28 
L 353.720625 395.28 
L 353.720625 395.28 
L 350.169716 395.28 
z
" clip-path="url(#p38aadcd7df)" style="fill: #4c72b0; opacity: 0.3"/>
   </g>
   <g id="patch_84">
    <path d="M 353.720625 395.28 
L 357.271534 395.28 
L 357.271534 395.28 
L 353.720625 395.28 
z
" clip-path="url(#p38aadcd7df)" style="fill: #4c72b0; opacity: 0.3"/>
   </g>
   <g id="patch_85">
    <path d="M 357.271534 395.28 
L 360.822443 395.28 
L 360.822443 395.28 
L 357.271534 395.28 
z
" clip-path="url(#p38aadcd7df)" style="fill: #4c72b0; opacity: 0.3"/>
   </g>
   <g id="patch_86">
    <path d="M 360.822443 395.28 
L 364.373352 395.28 
L 364.373352 395.28 
L 360.822443 395.28 
z
" clip-path="url(#p38aadcd7df)" style="fill: #4c72b0; opacity: 0.3"/>
   </g>
   <g id="patch_87">
    <path d="M 364.373352 395.28 
L 367.924261 395.28 
L 367.924261 395.28 
L 364.373352 395.28 
z
" clip-path="url(#p38aadcd7df)" style="fill: #4c72b0; opacity: 0.3"/>
   </g>
   <g id="patch_88">
    <path d="M 367.924261 395.28 
L 371.47517 395.28 
L 371.47517 395.28 
L 367.924261 395.28 
z
" clip-path="url(#p38aadcd7df)" style="fill: #4c72b0; opacity: 0.3"/>
   </g>
   <g id="patch_89">
    <path d="M 371.47517 395.28 
L 375.026079 395.28 
L 375.026079 395.28 
L 371.47517 395.28 
z
" clip-path="url(#p38aadcd7df)" style="fill: #4c72b0; opacity: 0.3"/>
   </g>
   <g id="patch_90">
    <path d="M 375.026079 395.28 
L 378.576989 395.28 
L 378.576989 395.28 
L 375.026079 395.28 
z
" clip-path="url(#p38aadcd7df)" style="fill: #4c72b0; opacity: 0.3"/>
   </g>
   <g id="patch_91">
    <path d="M 378.576989 395.28 
L 382.127898 395.28 
L 382.127898 395.28 
L 378.576989 395.28 
z
" clip-path="url(#p38aadcd7df)" style="fill: #4c72b0; opacity: 0.3"/>
   </g>
   <g id="patch_92">
    <path d="M 382.127898 395.28 
L 385.678807 395.28 
L 385.678807 395.28 
L 382.127898 395.28 
z
" clip-path="url(#p38aadcd7df)" style="fill: #4c72b0; opacity: 0.3"/>
   </g>
   <g id="patch_93">
    <path d="M 385.678807 395.28 
L 389.229716 395.28 
L 389.229716 395.28 
L 385.678807 395.28 
z
" clip-path="url(#p38aadcd7df)" style="fill: #4c72b0; opacity: 0.3"/>
   </g>
   <g id="patch_94">
    <path d="M 389.229716 395.28 
L 392.780625 395.28 
L 392.780625 395.28 
L 389.229716 395.28 
z
" clip-path="url(#p38aadcd7df)" style="fill: #4c72b0; opacity: 0.3"/>
   </g>
   <g id="patch_95">
    <path d="M 392.780625 395.28 
L 396.331534 395.28 
L 396.331534 395.28 
L 392.780625 395.28 
z
" clip-path="url(#p38aadcd7df)" style="fill: #4c72b0; opacity: 0.3"/>
   </g>
   <g id="patch_96">
    <path d="M 396.331534 395.28 
L 399.882443 395.28 
L 399.882443 395.28 
L 396.331534 395.28 
z
" clip-path="url(#p38aadcd7df)" style="fill: #4c72b0; opacity: 0.3"/>
   </g>
   <g id="patch_97">
    <path d="M 399.882443 395.28 
L 403.433352 395.28 
L 403.433352 395.28 
L 399.882443 395.28 
z
" clip-path="url(#p38aadcd7df)" style="fill: #4c72b0; opacity: 0.3"/>
   </g>
   <g id="patch_98">
    <path d="M 403.433352 395.28 
L 406.984261 395.28 
L 406.984261 395.28 
L 403.433352 395.28 
z
" clip-path="url(#p38aadcd7df)" style="fill: #4c72b0; opacity: 0.3"/>
   </g>
   <g id="patch_99">
    <path d="M 406.984261 395.28 
L 410.53517 395.28 
L 410.53517 395.28 
L 406.984261 395.28 
z
" clip-path="url(#p38aadcd7df)" style="fill: #4c72b0; opacity: 0.3"/>
   </g>
   <g id="patch_100">
    <path d="M 410.53517 395.28 
L 414.086079 395.28 
L 414.086079 395.28 
L 410.53517 395.28 
z
" clip-path="url(#p38aadcd7df)" style="fill: #4c72b0; opacity: 0.3"/>
   </g>
   <g id="patch_101">
    <path d="M 414.086079 395.28 
L 417.636989 395.28 
L 417.636989 395.28 
L 414.086079 395.28 
z
" clip-path="url(#p38aadcd7df)" style="fill: #4c72b0; opacity: 0.3"/>
   </g>
   <g id="patch_102">
    <path d="M 417.636989 395.28 
L 421.187898 395.28 
L 421.187898 395.168987 
L 417.636989 395.168987 
z
" clip-path="url(#p38aadcd7df)" style="fill: #4c72b0; opacity: 0.3"/>
   </g>
   <g id="matplotlib.axis_1">
    <g id="xtick_1">
     <g id="line2d_1">
      <defs>
       <path id="ma3399684cb" d="M 0 0 
L 0 3.5 
" style="stroke: #000000; stroke-width: 0.8"/>
      </defs>
      <g>
       <use xlink:href="#ma3399684cb" x="66.096989" y="395.28" style="stroke: #000000; stroke-width: 0.8"/>
      </g>
     </g>
     <g id="text_1">
      <!-- $\mathdefault{0.0}$ -->
      <g transform="translate(57.371698 411.965876)scale(0.14 -0.14)">
       <defs>
        <path id="CMR17-30" d="M 2688 2038 
C 2688 2430 2682 3099 2413 3613 
C 2176 4063 1798 4224 1466 4224 
C 1158 4224 768 4082 525 3620 
C 269 3137 243 2539 243 2038 
C 243 1671 250 1112 448 623 
C 723 -39 1216 -128 1466 -128 
C 1760 -128 2208 -7 2470 604 
C 2662 1048 2688 1568 2688 2038 
z
M 1466 -26 
C 1056 -26 813 328 723 816 
C 653 1196 653 1749 653 2109 
C 653 2604 653 3015 736 3407 
C 858 3954 1216 4121 1466 4121 
C 1728 4121 2067 3947 2189 3420 
C 2272 3054 2278 2623 2278 2109 
C 2278 1691 2278 1176 2202 797 
C 2067 96 1690 -26 1466 -26 
z
" transform="scale(0.015625)"/>
        <path id="CMMI12-3a" d="M 1178 307 
C 1178 492 1024 620 870 620 
C 685 620 557 467 557 313 
C 557 128 710 0 864 0 
C 1050 0 1178 153 1178 307 
z
" transform="scale(0.015625)"/>
       </defs>
       <use xlink:href="#CMR17-30" transform="scale(0.996264)"/>
       <use xlink:href="#CMMI12-3a" transform="translate(45.690477 0)scale(0.996264)"/>
       <use xlink:href="#CMR17-30" transform="translate(72.787654 0)scale(0.996264)"/>
      </g>
     </g>
    </g>
    <g id="xtick_2">
     <g id="line2d_2">
      <g>
       <use xlink:href="#ma3399684cb" x="127.125709" y="395.28" style="stroke: #000000; stroke-width: 0.8"/>
      </g>
     </g>
     <g id="text_2">
      <!-- $\mathdefault{0.2}$ -->
      <g transform="translate(118.400418 411.965876)scale(0.14 -0.14)">
       <defs>
        <path id="CMR17-32" d="M 2669 990 
L 2554 990 
C 2490 537 2438 460 2413 422 
C 2381 371 1920 371 1830 371 
L 602 371 
C 832 620 1280 1073 1824 1596 
C 2214 1966 2669 2400 2669 3033 
C 2669 3788 2067 4224 1395 4224 
C 691 4224 262 3603 262 3027 
C 262 2777 448 2745 525 2745 
C 589 2745 781 2783 781 3007 
C 781 3206 614 3264 525 3264 
C 486 3264 448 3257 422 3244 
C 544 3788 915 4057 1306 4057 
C 1862 4057 2227 3616 2227 3033 
C 2227 2477 1901 1998 1536 1583 
L 262 147 
L 262 0 
L 2515 0 
L 2669 990 
z
" transform="scale(0.015625)"/>
       </defs>
       <use xlink:href="#CMR17-30" transform="scale(0.996264)"/>
       <use xlink:href="#CMMI12-3a" transform="translate(45.690477 0)scale(0.996264)"/>
       <use xlink:href="#CMR17-32" transform="translate(72.787654 0)scale(0.996264)"/>
      </g>
     </g>
    </g>
    <g id="xtick_3">
     <g id="line2d_3">
      <g>
       <use xlink:href="#ma3399684cb" x="188.154429" y="395.28" style="stroke: #000000; stroke-width: 0.8"/>
      </g>
     </g>
     <g id="text_3">
      <!-- $\mathdefault{0.4}$ -->
      <g transform="translate(179.429138 411.965876)scale(0.14 -0.14)">
       <defs>
        <path id="CMR17-34" d="M 2150 4147 
C 2150 4281 2144 4288 2029 4288 
L 128 1254 
L 128 1088 
L 1779 1088 
L 1779 460 
C 1779 230 1766 166 1318 166 
L 1197 166 
L 1197 0 
C 1402 12 1747 12 1965 12 
C 2182 12 2528 12 2733 0 
L 2733 166 
L 2611 166 
C 2163 166 2150 230 2150 460 
L 2150 1088 
L 2803 1088 
L 2803 1254 
L 2150 1254 
L 2150 4147 
z
M 1798 3723 
L 1798 1254 
L 256 1254 
L 1798 3723 
z
" transform="scale(0.015625)"/>
       </defs>
       <use xlink:href="#CMR17-30" transform="scale(0.996264)"/>
       <use xlink:href="#CMMI12-3a" transform="translate(45.690477 0)scale(0.996264)"/>
       <use xlink:href="#CMR17-34" transform="translate(72.787654 0)scale(0.996264)"/>
      </g>
     </g>
    </g>
    <g id="xtick_4">
     <g id="line2d_4">
      <g>
       <use xlink:href="#ma3399684cb" x="249.183149" y="395.28" style="stroke: #000000; stroke-width: 0.8"/>
      </g>
     </g>
     <g id="text_4">
      <!-- $\mathdefault{0.6}$ -->
      <g transform="translate(240.457858 411.965876)scale(0.14 -0.14)">
       <defs>
        <path id="CMR17-36" d="M 678 2198 
C 678 3712 1395 4076 1811 4076 
C 1946 4076 2272 4049 2400 3782 
C 2298 3782 2106 3782 2106 3558 
C 2106 3385 2246 3328 2336 3328 
C 2394 3328 2566 3353 2566 3571 
C 2566 3987 2246 4224 1805 4224 
C 1043 4224 243 3411 243 2011 
C 243 257 966 -128 1478 -128 
C 2099 -128 2688 431 2688 1295 
C 2688 2101 2170 2688 1517 2688 
C 1126 2688 838 2430 678 1979 
L 678 2198 
z
M 1478 25 
C 691 25 691 1212 691 1450 
C 691 1914 909 2585 1504 2585 
C 1613 2585 1926 2585 2138 2140 
C 2253 1889 2253 1624 2253 1302 
C 2253 954 2253 696 2118 438 
C 1978 173 1773 25 1478 25 
z
" transform="scale(0.015625)"/>
       </defs>
       <use xlink:href="#CMR17-30" transform="scale(0.996264)"/>
       <use xlink:href="#CMMI12-3a" transform="translate(45.690477 0)scale(0.996264)"/>
       <use xlink:href="#CMR17-36" transform="translate(72.787654 0)scale(0.996264)"/>
      </g>
     </g>
    </g>
    <g id="xtick_5">
     <g id="line2d_5">
      <g>
       <use xlink:href="#ma3399684cb" x="310.211869" y="395.28" style="stroke: #000000; stroke-width: 0.8"/>
      </g>
     </g>
     <g id="text_5">
      <!-- $\mathdefault{0.8}$ -->
      <g transform="translate(301.486578 411.965876)scale(0.14 -0.14)">
       <defs>
        <path id="CMR17-38" d="M 1741 2289 
C 2144 2494 2554 2803 2554 3298 
C 2554 3884 1990 4224 1472 4224 
C 890 4224 378 3800 378 3215 
C 378 3054 416 2777 666 2533 
C 730 2469 998 2276 1171 2154 
C 883 2006 211 1652 211 945 
C 211 282 838 -128 1459 -128 
C 2144 -128 2720 366 2720 1022 
C 2720 1607 2330 1877 2074 2051 
L 1741 2289 
z
M 902 2855 
C 851 2887 595 3086 595 3388 
C 595 3781 998 4076 1459 4076 
C 1965 4076 2336 3716 2336 3298 
C 2336 2700 1670 2359 1638 2359 
C 1632 2359 1626 2359 1574 2398 
L 902 2855 
z
M 2080 1536 
C 2176 1466 2483 1253 2483 861 
C 2483 385 2010 25 1472 25 
C 890 25 448 443 448 951 
C 448 1459 838 1884 1280 2083 
L 2080 1536 
z
" transform="scale(0.015625)"/>
       </defs>
       <use xlink:href="#CMR17-30" transform="scale(0.996264)"/>
       <use xlink:href="#CMMI12-3a" transform="translate(45.690477 0)scale(0.996264)"/>
       <use xlink:href="#CMR17-38" transform="translate(72.787654 0)scale(0.996264)"/>
      </g>
     </g>
    </g>
    <g id="xtick_6">
     <g id="line2d_6">
      <g>
       <use xlink:href="#ma3399684cb" x="371.240589" y="395.28" style="stroke: #000000; stroke-width: 0.8"/>
      </g>
     </g>
     <g id="text_6">
      <!-- $\mathdefault{1.0}$ -->
      <g transform="translate(362.515298 411.965876)scale(0.14 -0.14)">
       <defs>
        <path id="CMR17-31" d="M 1702 4083 
C 1702 4217 1696 4224 1606 4224 
C 1357 3927 979 3833 621 3820 
C 602 3820 570 3820 563 3808 
C 557 3795 557 3782 557 3648 
C 755 3648 1088 3686 1344 3839 
L 1344 467 
C 1344 243 1331 166 781 166 
L 589 166 
L 589 0 
C 896 6 1216 12 1523 12 
C 1830 12 2150 6 2458 0 
L 2458 166 
L 2266 166 
C 1715 166 1702 236 1702 467 
L 1702 4083 
z
" transform="scale(0.015625)"/>
       </defs>
       <use xlink:href="#CMR17-31" transform="scale(0.996264)"/>
       <use xlink:href="#CMMI12-3a" transform="translate(45.690477 0)scale(0.996264)"/>
       <use xlink:href="#CMR17-30" transform="translate(72.787654 0)scale(0.996264)"/>
      </g>
     </g>
    </g>
    <g id="xtick_7">
     <g id="line2d_7">
      <g>
       <use xlink:href="#ma3399684cb" x="432.26931" y="395.28" style="stroke: #000000; stroke-width: 0.8"/>
      </g>
     </g>
     <g id="text_7">
      <!-- $\mathdefault{1.2}$ -->
      <g transform="translate(423.544019 411.965876)scale(0.14 -0.14)">
       <use xlink:href="#CMR17-31" transform="scale(0.996264)"/>
       <use xlink:href="#CMMI12-3a" transform="translate(45.690477 0)scale(0.996264)"/>
       <use xlink:href="#CMR17-32" transform="translate(72.787654 0)scale(0.996264)"/>
      </g>
     </g>
    </g>
    <g id="text_8">
     <!-- $\times\mathdefault{10^{15}}\mathdefault{}$ -->
     <g transform="translate(404.402777 427.481625)scale(0.14 -0.14)">
      <defs>
       <path id="CMSY10-2" d="M 2490 1775 
L 1210 3046 
C 1133 3123 1120 3136 1069 3136 
C 1005 3136 941 3078 941 3008 
C 941 2963 954 2950 1024 2880 
L 2304 1596 
L 1024 313 
C 954 243 941 230 941 185 
C 941 115 1005 57 1069 57 
C 1120 57 1133 70 1210 147 
L 2483 1418 
L 3808 95 
C 3821 89 3866 57 3904 57 
C 3981 57 4032 115 4032 185 
C 4032 198 4032 223 4013 255 
C 4006 268 2989 1271 2669 1596 
L 3840 2765 
C 3872 2803 3968 2886 4000 2925 
C 4006 2937 4032 2963 4032 3008 
C 4032 3078 3981 3136 3904 3136 
C 3853 3136 3827 3110 3757 3040 
L 2490 1775 
z
" transform="scale(0.015625)"/>
       <path id="CMR17-35" d="M 730 3750 
C 794 3724 1056 3641 1325 3641 
C 1920 3641 2246 3961 2432 4140 
C 2432 4191 2432 4224 2394 4224 
C 2387 4224 2374 4224 2323 4198 
C 2099 4102 1837 4032 1517 4032 
C 1325 4032 1037 4055 723 4191 
C 653 4224 640 4224 634 4224 
C 602 4224 595 4217 595 4090 
L 595 2231 
C 595 2113 595 2080 659 2080 
C 691 2080 704 2093 736 2139 
C 941 2435 1222 2560 1542 2560 
C 1766 2560 2246 2415 2246 1293 
C 2246 1087 2246 716 2054 422 
C 1894 159 1645 25 1370 25 
C 947 25 518 319 403 812 
C 429 806 480 793 506 793 
C 589 793 749 838 749 1036 
C 749 1209 627 1280 506 1280 
C 358 1280 262 1190 262 1011 
C 262 454 704 -128 1382 -128 
C 2042 -128 2669 441 2669 1267 
C 2669 2054 2170 2662 1549 2662 
C 1222 2662 947 2540 730 2304 
L 730 3750 
z
" transform="scale(0.015625)"/>
      </defs>
      <use xlink:href="#CMSY10-2" transform="scale(0.996264)"/>
      <use xlink:href="#CMR17-31" transform="translate(77.487468 0)scale(0.996264)"/>
      <use xlink:href="#CMR17-30" transform="translate(123.177945 0)scale(0.996264)"/>
      <use xlink:href="#CMR17-31" transform="translate(168.868422 36.153639)scale(0.697382)"/>
      <use xlink:href="#CMR17-35" transform="translate(200.851604 36.153639)scale(0.697382)"/>
     </g>
    </g>
   </g>
   <g id="matplotlib.axis_2">
    <g id="ytick_1">
     <g id="line2d_8">
      <defs>
       <path id="m0f141a1a8c" d="M 0 0 
L -3.5 0 
" style="stroke: #000000; stroke-width: 0.8"/>
      </defs>
      <g>
       <use xlink:href="#m0f141a1a8c" x="48.342443" y="395.28" style="stroke: #000000; stroke-width: 0.8"/>
      </g>
     </g>
     <g id="text_9">
      <!-- $\mathdefault{0}$ -->
      <g transform="translate(34.513955 400.122938)scale(0.14 -0.14)">
       <use xlink:href="#CMR17-30" transform="scale(0.996264)"/>
      </g>
     </g>
    </g>
    <g id="ytick_2">
     <g id="line2d_9">
      <g>
       <use xlink:href="#m0f141a1a8c" x="48.342443" y="321.271189" style="stroke: #000000; stroke-width: 0.8"/>
      </g>
     </g>
     <g id="text_10">
      <!-- $\mathdefault{2000}$ -->
      <g transform="translate(14.028489 326.114128)scale(0.14 -0.14)">
       <use xlink:href="#CMR17-32" transform="scale(0.996264)"/>
       <use xlink:href="#CMR17-30" transform="translate(45.690477 0)scale(0.996264)"/>
       <use xlink:href="#CMR17-30" transform="translate(91.380954 0)scale(0.996264)"/>
       <use xlink:href="#CMR17-30" transform="translate(137.071431 0)scale(0.996264)"/>
      </g>
     </g>
    </g>
    <g id="ytick_3">
     <g id="line2d_10">
      <g>
       <use xlink:href="#m0f141a1a8c" x="48.342443" y="247.262379" style="stroke: #000000; stroke-width: 0.8"/>
      </g>
     </g>
     <g id="text_11">
      <!-- $\mathdefault{4000}$ -->
      <g transform="translate(14.028489 252.105317)scale(0.14 -0.14)">
       <use xlink:href="#CMR17-34" transform="scale(0.996264)"/>
       <use xlink:href="#CMR17-30" transform="translate(45.690477 0)scale(0.996264)"/>
       <use xlink:href="#CMR17-30" transform="translate(91.380954 0)scale(0.996264)"/>
       <use xlink:href="#CMR17-30" transform="translate(137.071431 0)scale(0.996264)"/>
      </g>
     </g>
    </g>
    <g id="ytick_4">
     <g id="line2d_11">
      <g>
       <use xlink:href="#m0f141a1a8c" x="48.342443" y="173.253568" style="stroke: #000000; stroke-width: 0.8"/>
      </g>
     </g>
     <g id="text_12">
      <!-- $\mathdefault{6000}$ -->
      <g transform="translate(14.028489 178.096507)scale(0.14 -0.14)">
       <use xlink:href="#CMR17-36" transform="scale(0.996264)"/>
       <use xlink:href="#CMR17-30" transform="translate(45.690477 0)scale(0.996264)"/>
       <use xlink:href="#CMR17-30" transform="translate(91.380954 0)scale(0.996264)"/>
       <use xlink:href="#CMR17-30" transform="translate(137.071431 0)scale(0.996264)"/>
      </g>
     </g>
    </g>
    <g id="ytick_5">
     <g id="line2d_12">
      <g>
       <use xlink:href="#m0f141a1a8c" x="48.342443" y="99.244758" style="stroke: #000000; stroke-width: 0.8"/>
      </g>
     </g>
     <g id="text_13">
      <!-- $\mathdefault{8000}$ -->
      <g transform="translate(14.028489 104.087696)scale(0.14 -0.14)">
       <use xlink:href="#CMR17-38" transform="scale(0.996264)"/>
       <use xlink:href="#CMR17-30" transform="translate(45.690477 0)scale(0.996264)"/>
       <use xlink:href="#CMR17-30" transform="translate(91.380954 0)scale(0.996264)"/>
       <use xlink:href="#CMR17-30" transform="translate(137.071431 0)scale(0.996264)"/>
      </g>
     </g>
    </g>
    <g id="ytick_6">
     <g id="line2d_13">
      <g>
       <use xlink:href="#m0f141a1a8c" x="48.342443" y="25.235947" style="stroke: #000000; stroke-width: 0.8"/>
      </g>
     </g>
     <g id="text_14">
      <!-- $\mathdefault{10000}$ -->
      <g transform="translate(7.2 30.078885)scale(0.14 -0.14)">
       <use xlink:href="#CMR17-31" transform="scale(0.996264)"/>
       <use xlink:href="#CMR17-30" transform="translate(45.690477 0)scale(0.996264)"/>
       <use xlink:href="#CMR17-30" transform="translate(91.380954 0)scale(0.996264)"/>
       <use xlink:href="#CMR17-30" transform="translate(137.071431 0)scale(0.996264)"/>
       <use xlink:href="#CMR17-30" transform="translate(182.761908 0)scale(0.996264)"/>
      </g>
     </g>
    </g>
   </g>
   <g id="patch_103">
    <path d="M 48.342443 395.28 
L 48.342443 7.2 
" style="fill: none; stroke: #000000; stroke-width: 0.8; stroke-linejoin: miter; stroke-linecap: square"/>
   </g>
   <g id="patch_104">
    <path d="M 438.942443 395.28 
L 438.942443 7.2 
" style="fill: none; stroke: #000000; stroke-width: 0.8; stroke-linejoin: miter; stroke-linecap: square"/>
   </g>
   <g id="patch_105">
    <path d="M 48.342443 395.28 
L 438.942443 395.28 
" style="fill: none; stroke: #000000; stroke-width: 0.8; stroke-linejoin: miter; stroke-linecap: square"/>
   </g>
   <g id="patch_106">
    <path d="M 48.342443 7.2 
L 438.942443 7.2 
" style="fill: none; stroke: #000000; stroke-width: 0.8; stroke-linejoin: miter; stroke-linecap: square"/>
   </g>
   <g id="legend_1">
    <g id="patch_107">
     <path d="M 311.429359 37.912028 
L 429.142443 37.912028 
Q 431.942443 37.912028 431.942443 35.112028 
L 431.942443 17 
Q 431.942443 14.2 429.142443 14.2 
L 311.429359 14.2 
Q 308.629359 14.2 308.629359 17 
L 308.629359 35.112028 
Q 308.629359 37.912028 311.429359 37.912028 
z
" style="fill: #ffffff; opacity: 0.8; stroke: #cccccc; stroke-linejoin: miter"/>
    </g>
    <g id="patch_108">
     <path d="M 314.229359 29.6 
L 342.229359 29.6 
L 342.229359 19.8 
L 314.229359 19.8 
z
" style="fill: #4c72b0; opacity: 0.3"/>
    </g>
    <g id="text_15">
     <!-- pT unscaled -->
     <g transform="translate(353.429359 29.6)scale(0.14 -0.14)">
      <defs>
       <path id="CMR17-70" d="M 1408 -1114 
C 998 -1114 973 -1088 973 -834 
L 973 380 
C 1158 109 1427 -64 1766 -64 
C 2406 -64 3053 503 3053 1382 
C 3053 2196 2496 2816 1837 2816 
C 1453 2816 1139 2603 960 2345 
L 960 2816 
L 198 2745 
L 198 2577 
C 576 2577 634 2539 634 2228 
L 634 -834 
C 634 -1081 608 -1114 198 -1114 
L 198 -1280 
C 352 -1268 634 -1268 800 -1268 
C 966 -1268 1254 -1268 1408 -1280 
L 1408 -1114 
z
M 973 2015 
C 973 2106 973 2241 1222 2481 
C 1254 2506 1472 2700 1792 2700 
C 2259 2700 2643 2112 2643 1376 
C 2643 639 2234 38 1728 38 
C 1498 38 1248 148 1056 451 
C 973 594 973 632 973 736 
L 973 2015 
z
" transform="scale(0.015625)"/>
       <path id="CMR17-54" d="M 3981 4332 
L 288 4332 
L 179 2924 
L 294 2924 
C 378 3981 467 4166 1453 4166 
C 1568 4166 1754 4166 1805 4159 
C 1926 4140 1926 4064 1926 3917 
L 1926 465 
C 1926 236 1907 166 1376 166 
L 1197 166 
L 1197 0 
C 1504 6 1824 12 2138 12 
C 2451 12 2771 6 3078 0 
L 3078 166 
L 2899 166 
C 2368 166 2349 236 2349 465 
L 2349 3917 
C 2349 4057 2349 4134 2464 4159 
C 2515 4166 2701 4166 2816 4166 
C 3795 4166 3891 3981 3974 2924 
L 4090 2924 
L 3981 4332 
z
" transform="scale(0.015625)"/>
       <path id="CMR17-75" d="M 1882 2745 
L 1882 2579 
C 2259 2579 2317 2540 2317 2229 
L 2317 1053 
C 2317 510 2029 38 1555 38 
C 1030 38 986 355 986 691 
L 986 2816 
L 211 2745 
L 211 2579 
C 467 2579 640 2579 646 2320 
L 646 1079 
C 646 646 646 368 813 187 
C 896 103 1056 -64 1517 -64 
C 2061 -64 2272 400 2323 536 
L 2330 536 
L 2330 -64 
L 3091 -13 
L 3091 154 
C 2714 154 2656 193 2656 503 
L 2656 2816 
L 1882 2745 
z
" transform="scale(0.015625)"/>
       <path id="CMR17-6e" d="M 2656 1954 
C 2656 2282 2592 2816 1837 2816 
C 1331 2816 1069 2424 973 2166 
L 966 2166 
L 966 2816 
L 211 2745 
L 211 2578 
C 589 2578 646 2540 646 2231 
L 646 443 
C 646 198 621 166 211 166 
L 211 0 
C 365 12 646 12 813 12 
C 979 12 1267 12 1421 0 
L 1421 166 
C 1011 166 986 192 986 443 
L 986 1678 
C 986 2269 1344 2713 1792 2713 
C 2266 2713 2317 2289 2317 1980 
L 2317 443 
C 2317 198 2291 166 1882 166 
L 1882 0 
C 2035 12 2317 12 2483 12 
C 2650 12 2938 12 3091 0 
L 3091 166 
C 2682 166 2656 192 2656 443 
L 2656 1954 
z
" transform="scale(0.015625)"/>
       <path id="CMR17-73" d="M 1978 2688 
C 1978 2803 1971 2809 1933 2809 
C 1907 2809 1901 2803 1824 2707 
C 1805 2681 1747 2617 1728 2592 
C 1523 2809 1235 2816 1126 2816 
C 416 2816 160 2444 160 2073 
C 160 1497 813 1363 998 1324 
C 1402 1241 1542 1216 1677 1100 
C 1760 1024 1901 883 1901 652 
C 1901 384 1747 38 1158 38 
C 602 38 403 460 288 1024 
C 269 1113 269 1120 218 1120 
C 166 1120 160 1113 160 985 
L 160 64 
C 160 -52 166 -58 205 -58 
C 237 -58 243 -52 275 0 
C 314 57 410 211 448 275 
C 576 102 800 -64 1158 -64 
C 1792 -64 2131 281 2131 780 
C 2131 1107 1958 1280 1875 1356 
C 1683 1555 1459 1600 1190 1651 
C 838 1728 390 1817 390 2208 
C 390 2374 480 2726 1126 2726 
C 1811 2726 1850 2086 1862 1881 
C 1869 1849 1901 1843 1920 1843 
C 1978 1843 1978 1862 1978 1971 
L 1978 2688 
z
" transform="scale(0.015625)"/>
       <path id="CMR17-63" d="M 2234 2240 
C 2112 2240 1933 2240 1933 2015 
C 1933 1836 2080 1785 2163 1785 
C 2208 1785 2394 1804 2394 2028 
C 2394 2476 1958 2816 1466 2816 
C 787 2816 211 2201 211 1379 
C 211 521 813 -64 1466 -64 
C 2259 -64 2458 676 2458 747 
C 2458 773 2451 792 2406 792 
C 2362 792 2355 786 2330 702 
C 2163 180 1798 51 1523 51 
C 1114 51 621 431 621 1385 
C 621 2358 1094 2700 1472 2700 
C 1722 2700 2093 2582 2234 2240 
z
" transform="scale(0.015625)"/>
       <path id="CMR17-61" d="M 2304 1656 
C 2304 2048 2304 2275 2035 2534 
C 1798 2751 1523 2816 1306 2816 
C 800 2816 435 2408 435 1977 
C 435 1740 627 1728 666 1728 
C 749 1728 896 1779 896 1958 
C 896 2118 774 2188 666 2188 
C 640 2188 608 2182 589 2176 
C 723 2594 1069 2713 1293 2713 
C 1613 2713 1965 2421 1965 1875 
L 1965 1632 
C 1587 1619 1133 1568 774 1373 
C 371 1147 256 822 256 576 
C 256 77 832 -64 1171 -64 
C 1523 -64 1850 135 1990 505 
C 2003 219 2182 -39 2464 -39 
C 2598 -39 2938 51 2938 563 
L 2938 926 
L 2822 926 
L 2822 557 
C 2822 161 2650 109 2566 109 
C 2304 109 2304 446 2304 732 
L 2304 1656 
z
M 1965 887 
C 1965 323 1568 38 1216 38 
C 896 38 646 278 646 576 
C 646 771 730 1114 1101 1322 
C 1408 1497 1760 1523 1965 1536 
L 1965 887 
z
" transform="scale(0.015625)"/>
       <path id="CMR17-6c" d="M 979 4416 
L 218 4345 
L 218 4179 
C 595 4179 653 4141 653 3835 
L 653 439 
C 653 198 627 166 218 166 
L 218 0 
C 371 12 653 12 813 12 
C 979 12 1261 12 1414 0 
L 1414 166 
C 1005 166 979 191 979 439 
L 979 4416 
z
" transform="scale(0.015625)"/>
       <path id="CMR17-65" d="M 2438 1503 
C 2464 1529 2464 1542 2464 1606 
C 2464 2251 2118 2816 1389 2816 
C 710 2816 173 2175 173 1394 
C 173 554 781 -64 1459 -64 
C 2176 -64 2458 619 2458 755 
C 2458 800 2419 800 2406 800 
C 2362 800 2355 787 2330 709 
C 2189 270 1837 51 1504 51 
C 1229 51 954 206 781 490 
C 582 819 582 1200 582 1503 
L 2438 1503 
z
M 589 1600 
C 634 2511 1126 2713 1382 2713 
C 1818 2713 2112 2308 2118 1600 
L 589 1600 
z
" transform="scale(0.015625)"/>
       <path id="CMR17-64" d="M 1869 4345 
L 1869 4179 
C 2246 4179 2304 4141 2304 3843 
L 2304 2371 
C 2278 2403 2016 2816 1498 2816 
C 845 2816 211 2228 211 1376 
C 211 529 806 -64 1434 -64 
C 1978 -64 2259 361 2291 406 
L 2291 -64 
L 3066 -13 
L 3066 154 
C 2688 154 2630 193 2630 503 
L 2630 4416 
L 1869 4345 
z
M 2291 762 
C 2291 568 2176 393 2029 264 
C 1811 70 1594 38 1472 38 
C 1286 38 621 135 621 1369 
C 621 2636 1363 2713 1530 2713 
C 1824 2713 2061 2545 2208 2313 
C 2291 2177 2291 2157 2291 2041 
L 2291 762 
z
" transform="scale(0.015625)"/>
      </defs>
      <use xlink:href="#CMR17-70" transform="scale(0.996264)"/>
      <use xlink:href="#CMR17-54" transform="translate(50.89537 0)scale(0.996264)"/>
      <use xlink:href="#CMR17-75" transform="translate(147.481217 0)scale(0.996264)"/>
      <use xlink:href="#CMR17-6e" transform="translate(198.376586 0)scale(0.996264)"/>
      <use xlink:href="#CMR17-73" transform="translate(249.271956 0)scale(0.996264)"/>
      <use xlink:href="#CMR17-63" transform="translate(285.073294 0)scale(0.996264)"/>
      <use xlink:href="#CMR17-61" transform="translate(325.558954 0)scale(0.996264)"/>
      <use xlink:href="#CMR17-6c" transform="translate(371.249431 0)scale(0.996264)"/>
      <use xlink:href="#CMR17-65" transform="translate(396.12049 0)scale(0.996264)"/>
      <use xlink:href="#CMR17-64" transform="translate(436.60615 0)scale(0.996264)"/>
     </g>
    </g>
   </g>
  </g>
 </g>
 <defs>
  <clipPath id="p38aadcd7df">
   <rect x="48.342443" y="7.2" width="390.6" height="388.08"/>
  </clipPath>
 </defs>
</svg>
