<?xml version="1.0" encoding="utf-8" standalone="no"?>
<!DOCTYPE svg PUBLIC "-//W3C//DTD SVG 1.1//EN"
  "http://www.w3.org/Graphics/SVG/1.1/DTD/svg11.dtd">
<svg xmlns:xlink="http://www.w3.org/1999/xlink" width="443.379498pt" height="329.76pt" viewBox="0 0 443.379498 329.76" xmlns="http://www.w3.org/2000/svg" version="1.1">
 <metadata>
  <rdf:RDF xmlns:dc="http://purl.org/dc/elements/1.1/" xmlns:cc="http://creativecommons.org/ns#" xmlns:rdf="http://www.w3.org/1999/02/22-rdf-syntax-ns#">
   <cc:Work>
    <dc:type rdf:resource="http://purl.org/dc/dcmitype/StillImage"/>
    <dc:date>2022-12-18T13:11:02.011619</dc:date>
    <dc:format>image/svg+xml</dc:format>
    <dc:creator>
     <cc:Agent>
      <dc:title>Matplotlib v3.5.1, https://matplotlib.org/</dc:title>
     </cc:Agent>
    </dc:creator>
   </cc:Work>
  </rdf:RDF>
 </metadata>
 <defs>
  <style type="text/css">*{stroke-linejoin: round; stroke-linecap: butt}</style>
 </defs>
 <g id="figure_1">
  <g id="patch_1">
   <path d="M 0 329.76 
L 443.379498 329.76 
L 443.379498 0 
L 0 0 
z
" style="fill: #ffffff"/>
  </g>
  <g id="axes_1">
   <g id="patch_2">
    <path d="M 21.028489 285.878626 
L 435.467596 285.878626 
L 435.467596 20.003721 
L 21.028489 20.003721 
z
" style="fill: #ffffff"/>
   </g>
   <g id="patch_3">
    <path d="M 72.729084 285.878626 
L 107.119121 285.878626 
L 107.119121 285.876961 
L 72.729084 285.876961 
z
" clip-path="url(#p41a3db3723)" style="fill: #4c72b0; opacity: 0.4"/>
   </g>
   <g id="patch_4">
    <path d="M 107.119121 285.878626 
L 141.509158 285.878626 
L 141.509158 285.840564 
L 107.119121 285.840564 
z
" clip-path="url(#p41a3db3723)" style="fill: #4c72b0; opacity: 0.4"/>
   </g>
   <g id="patch_5">
    <path d="M 141.509158 285.878626 
L 175.899195 285.878626 
L 175.899195 285.387234 
L 141.509158 285.387234 
z
" clip-path="url(#p41a3db3723)" style="fill: #4c72b0; opacity: 0.4"/>
   </g>
   <g id="patch_6">
    <path d="M 175.899195 285.878626 
L 210.289232 285.878626 
L 210.289232 280.616704 
L 175.899195 280.616704 
z
" clip-path="url(#p41a3db3723)" style="fill: #4c72b0; opacity: 0.4"/>
   </g>
   <g id="patch_7">
    <path d="M 210.289232 285.878626 
L 244.679269 285.878626 
L 244.679269 228.385747 
L 210.289232 228.385747 
z
" clip-path="url(#p41a3db3723)" style="fill: #4c72b0; opacity: 0.4"/>
   </g>
   <g id="patch_8">
    <path d="M 244.679269 285.878626 
L 279.069307 285.878626 
L 279.069307 59.741203 
L 244.679269 59.741203 
z
" clip-path="url(#p41a3db3723)" style="fill: #4c72b0; opacity: 0.4"/>
   </g>
   <g id="patch_9">
    <path d="M 279.069307 285.878626 
L 313.459344 285.878626 
L 313.459344 272.879776 
L 279.069307 272.879776 
z
" clip-path="url(#p41a3db3723)" style="fill: #4c72b0; opacity: 0.4"/>
   </g>
   <g id="patch_10">
    <path d="M 313.459344 285.878626 
L 347.849381 285.878626 
L 347.849381 285.630735 
L 313.459344 285.630735 
z
" clip-path="url(#p41a3db3723)" style="fill: #4c72b0; opacity: 0.4"/>
   </g>
   <g id="patch_11">
    <path d="M 347.849381 285.878626 
L 382.239418 285.878626 
L 382.239418 285.87435 
L 347.849381 285.87435 
z
" clip-path="url(#p41a3db3723)" style="fill: #4c72b0; opacity: 0.4"/>
   </g>
   <g id="patch_12">
    <path d="M 382.239418 285.878626 
L 416.629455 285.878626 
L 416.629455 285.878437 
L 382.239418 285.878437 
z
" clip-path="url(#p41a3db3723)" style="fill: #4c72b0; opacity: 0.4"/>
   </g>
   <g id="patch_13">
    <path d="M 181.763388 285.878626 
L 197.205884 285.878626 
L 197.205884 285.870681 
L 181.763388 285.870681 
z
" clip-path="url(#p41a3db3723)" style="fill: #55a868; opacity: 0.4"/>
   </g>
   <g id="patch_14">
    <path d="M 197.205884 285.878626 
L 212.64838 285.878626 
L 212.64838 285.775149 
L 197.205884 285.775149 
z
" clip-path="url(#p41a3db3723)" style="fill: #55a868; opacity: 0.4"/>
   </g>
   <g id="patch_15">
    <path d="M 212.64838 285.878626 
L 228.090876 285.878626 
L 228.090876 285.226286 
L 212.64838 285.226286 
z
" clip-path="url(#p41a3db3723)" style="fill: #55a868; opacity: 0.4"/>
   </g>
   <g id="patch_16">
    <path d="M 228.090876 285.878626 
L 243.533372 285.878626 
L 243.533372 278.800733 
L 228.090876 278.800733 
z
" clip-path="url(#p41a3db3723)" style="fill: #55a868; opacity: 0.4"/>
   </g>
   <g id="patch_17">
    <path d="M 243.533372 285.878626 
L 258.975868 285.878626 
L 258.975868 32.66443 
L 243.533372 32.66443 
z
" clip-path="url(#p41a3db3723)" style="fill: #55a868; opacity: 0.4"/>
   </g>
   <g id="patch_18">
    <path d="M 258.975868 285.878626 
L 274.418364 285.878626 
L 274.418364 247.389395 
L 258.975868 247.389395 
z
" clip-path="url(#p41a3db3723)" style="fill: #55a868; opacity: 0.4"/>
   </g>
   <g id="patch_19">
    <path d="M 274.418364 285.878626 
L 289.86086 285.878626 
L 289.86086 283.313194 
L 274.418364 283.313194 
z
" clip-path="url(#p41a3db3723)" style="fill: #55a868; opacity: 0.4"/>
   </g>
   <g id="patch_20">
    <path d="M 289.86086 285.878626 
L 305.303356 285.878626 
L 305.303356 285.424009 
L 289.86086 285.424009 
z
" clip-path="url(#p41a3db3723)" style="fill: #55a868; opacity: 0.4"/>
   </g>
   <g id="patch_21">
    <path d="M 305.303356 285.878626 
L 320.745852 285.878626 
L 320.745852 285.783662 
L 305.303356 285.783662 
z
" clip-path="url(#p41a3db3723)" style="fill: #55a868; opacity: 0.4"/>
   </g>
   <g id="patch_22">
    <path d="M 320.745852 285.878626 
L 336.188348 285.878626 
L 336.188348 285.864173 
L 320.745852 285.864173 
z
" clip-path="url(#p41a3db3723)" style="fill: #55a868; opacity: 0.4"/>
   </g>
   <g id="patch_23">
    <path d="M 198.175238 285.878626 
L 209.482412 285.878626 
L 209.482412 285.835305 
L 198.175238 285.835305 
z
" clip-path="url(#p41a3db3723)" style="fill: #c44e52; opacity: 0.4"/>
   </g>
   <g id="patch_24">
    <path d="M 209.482412 285.878626 
L 220.789586 285.878626 
L 220.789586 285.591652 
L 209.482412 285.591652 
z
" clip-path="url(#p41a3db3723)" style="fill: #c44e52; opacity: 0.4"/>
   </g>
   <g id="patch_25">
    <path d="M 220.789586 285.878626 
L 232.09676 285.878626 
L 232.09676 284.569483 
L 220.789586 284.569483 
z
" clip-path="url(#p41a3db3723)" style="fill: #c44e52; opacity: 0.4"/>
   </g>
   <g id="patch_26">
    <path d="M 232.09676 285.878626 
L 243.403934 285.878626 
L 243.403934 278.143021 
L 232.09676 278.143021 
z
" clip-path="url(#p41a3db3723)" style="fill: #c44e52; opacity: 0.4"/>
   </g>
   <g id="patch_27">
    <path d="M 243.403934 285.878626 
L 254.711108 285.878626 
L 254.711108 147.004696 
L 243.403934 147.004696 
z
" clip-path="url(#p41a3db3723)" style="fill: #c44e52; opacity: 0.4"/>
   </g>
   <g id="patch_28">
    <path d="M 254.711108 285.878626 
L 266.018282 285.878626 
L 266.018282 141.018853 
L 254.711108 141.018853 
z
" clip-path="url(#p41a3db3723)" style="fill: #c44e52; opacity: 0.4"/>
   </g>
   <g id="patch_29">
    <path d="M 266.018282 285.878626 
L 277.325456 285.878626 
L 277.325456 277.984268 
L 266.018282 277.984268 
z
" clip-path="url(#p41a3db3723)" style="fill: #c44e52; opacity: 0.4"/>
   </g>
   <g id="patch_30">
    <path d="M 277.325456 285.878626 
L 288.63263 285.878626 
L 288.63263 284.557073 
L 277.325456 284.557073 
z
" clip-path="url(#p41a3db3723)" style="fill: #c44e52; opacity: 0.4"/>
   </g>
   <g id="patch_31">
    <path d="M 288.63263 285.878626 
L 299.939804 285.878626 
L 299.939804 285.573568 
L 288.63263 285.573568 
z
" clip-path="url(#p41a3db3723)" style="fill: #c44e52; opacity: 0.4"/>
   </g>
   <g id="patch_32">
    <path d="M 299.939804 285.878626 
L 311.246978 285.878626 
L 311.246978 285.833792 
L 299.939804 285.833792 
z
" clip-path="url(#p41a3db3723)" style="fill: #c44e52; opacity: 0.4"/>
   </g>
   <g id="patch_33">
    <path d="M 39.86663 285.878626 
L 76.09796 285.878626 
L 76.09796 285.873896 
L 39.86663 285.873896 
z
" clip-path="url(#p41a3db3723)" style="fill: #8172b2; opacity: 0.4"/>
   </g>
   <g id="patch_34">
    <path d="M 76.09796 285.878626 
L 112.32929 285.878626 
L 112.32929 285.796487 
L 76.09796 285.796487 
z
" clip-path="url(#p41a3db3723)" style="fill: #8172b2; opacity: 0.4"/>
   </g>
   <g id="patch_35">
    <path d="M 112.32929 285.878626 
L 148.560621 285.878626 
L 148.560621 285.087472 
L 112.32929 285.087472 
z
" clip-path="url(#p41a3db3723)" style="fill: #8172b2; opacity: 0.4"/>
   </g>
   <g id="patch_36">
    <path d="M 148.560621 285.878626 
L 184.791951 285.878626 
L 184.791951 278.44982 
L 148.560621 278.44982 
z
" clip-path="url(#p41a3db3723)" style="fill: #8172b2; opacity: 0.4"/>
   </g>
   <g id="patch_37">
    <path d="M 184.791951 285.878626 
L 221.023281 285.878626 
L 221.023281 230.293429 
L 184.791951 230.293429 
z
" clip-path="url(#p41a3db3723)" style="fill: #8172b2; opacity: 0.4"/>
   </g>
   <g id="patch_38">
    <path d="M 221.023281 285.878626 
L 257.254611 285.878626 
L 257.254611 104.157671 
L 221.023281 104.157671 
z
" clip-path="url(#p41a3db3723)" style="fill: #8172b2; opacity: 0.4"/>
   </g>
   <g id="patch_39">
    <path d="M 257.254611 285.878626 
L 293.485941 285.878626 
L 293.485941 230.611616 
L 257.254611 230.611616 
z
" clip-path="url(#p41a3db3723)" style="fill: #8172b2; opacity: 0.4"/>
   </g>
   <g id="patch_40">
    <path d="M 293.485941 285.878626 
L 329.717272 285.878626 
L 329.717272 284.150468 
L 293.485941 284.150468 
z
" clip-path="url(#p41a3db3723)" style="fill: #8172b2; opacity: 0.4"/>
   </g>
   <g id="patch_41">
    <path d="M 329.717272 285.878626 
L 365.948602 285.878626 
L 365.948602 285.81654 
L 329.717272 285.81654 
z
" clip-path="url(#p41a3db3723)" style="fill: #8172b2; opacity: 0.4"/>
   </g>
   <g id="patch_42">
    <path d="M 365.948602 285.878626 
L 402.179932 285.878626 
L 402.179932 285.874313 
L 365.948602 285.874313 
z
" clip-path="url(#p41a3db3723)" style="fill: #8172b2; opacity: 0.4"/>
   </g>
   <g id="matplotlib.axis_1">
    <g id="xtick_1">
     <g id="line2d_1">
      <defs>
       <path id="m02c715564d" d="M 0 0 
L 0 3.5 
" style="stroke: #000000; stroke-width: 0.8"/>
      </defs>
      <g>
       <use xlink:href="#m02c715564d" x="29.108628" y="285.878626" style="stroke: #000000; stroke-width: 0.8"/>
      </g>
     </g>
     <g id="text_1">
      <!-- $\mathdefault{0.80}$ -->
      <g transform="translate(16.969093 302.564502)scale(0.14 -0.14)">
       <defs>
        <path id="CMR17-30" d="M 2688 2038 
C 2688 2430 2682 3099 2413 3613 
C 2176 4063 1798 4224 1466 4224 
C 1158 4224 768 4082 525 3620 
C 269 3137 243 2539 243 2038 
C 243 1671 250 1112 448 623 
C 723 -39 1216 -128 1466 -128 
C 1760 -128 2208 -7 2470 604 
C 2662 1048 2688 1568 2688 2038 
z
M 1466 -26 
C 1056 -26 813 328 723 816 
C 653 1196 653 1749 653 2109 
C 653 2604 653 3015 736 3407 
C 858 3954 1216 4121 1466 4121 
C 1728 4121 2067 3947 2189 3420 
C 2272 3054 2278 2623 2278 2109 
C 2278 1691 2278 1176 2202 797 
C 2067 96 1690 -26 1466 -26 
z
" transform="scale(0.015625)"/>
        <path id="CMMI12-3a" d="M 1178 307 
C 1178 492 1024 620 870 620 
C 685 620 557 467 557 313 
C 557 128 710 0 864 0 
C 1050 0 1178 153 1178 307 
z
" transform="scale(0.015625)"/>
        <path id="CMR17-38" d="M 1741 2289 
C 2144 2494 2554 2803 2554 3298 
C 2554 3884 1990 4224 1472 4224 
C 890 4224 378 3800 378 3215 
C 378 3054 416 2777 666 2533 
C 730 2469 998 2276 1171 2154 
C 883 2006 211 1652 211 945 
C 211 282 838 -128 1459 -128 
C 2144 -128 2720 366 2720 1022 
C 2720 1607 2330 1877 2074 2051 
L 1741 2289 
z
M 902 2855 
C 851 2887 595 3086 595 3388 
C 595 3781 998 4076 1459 4076 
C 1965 4076 2336 3716 2336 3298 
C 2336 2700 1670 2359 1638 2359 
C 1632 2359 1626 2359 1574 2398 
L 902 2855 
z
M 2080 1536 
C 2176 1466 2483 1253 2483 861 
C 2483 385 2010 25 1472 25 
C 890 25 448 443 448 951 
C 448 1459 838 1884 1280 2083 
L 2080 1536 
z
" transform="scale(0.015625)"/>
       </defs>
       <use xlink:href="#CMR17-30" transform="scale(0.996264)"/>
       <use xlink:href="#CMMI12-3a" transform="translate(45.690477 0)scale(0.996264)"/>
       <use xlink:href="#CMR17-38" transform="translate(72.787654 0)scale(0.996264)"/>
       <use xlink:href="#CMR17-30" transform="translate(118.478131 0)scale(0.996264)"/>
      </g>
     </g>
    </g>
    <g id="xtick_2">
     <g id="line2d_2">
      <g>
       <use xlink:href="#m02c715564d" x="85.52739" y="285.878626" style="stroke: #000000; stroke-width: 0.8"/>
      </g>
     </g>
     <g id="text_2">
      <!-- $\mathdefault{0.85}$ -->
      <g transform="translate(73.387855 302.564502)scale(0.14 -0.14)">
       <defs>
        <path id="CMR17-35" d="M 730 3750 
C 794 3724 1056 3641 1325 3641 
C 1920 3641 2246 3961 2432 4140 
C 2432 4191 2432 4224 2394 4224 
C 2387 4224 2374 4224 2323 4198 
C 2099 4102 1837 4032 1517 4032 
C 1325 4032 1037 4055 723 4191 
C 653 4224 640 4224 634 4224 
C 602 4224 595 4217 595 4090 
L 595 2231 
C 595 2113 595 2080 659 2080 
C 691 2080 704 2093 736 2139 
C 941 2435 1222 2560 1542 2560 
C 1766 2560 2246 2415 2246 1293 
C 2246 1087 2246 716 2054 422 
C 1894 159 1645 25 1370 25 
C 947 25 518 319 403 812 
C 429 806 480 793 506 793 
C 589 793 749 838 749 1036 
C 749 1209 627 1280 506 1280 
C 358 1280 262 1190 262 1011 
C 262 454 704 -128 1382 -128 
C 2042 -128 2669 441 2669 1267 
C 2669 2054 2170 2662 1549 2662 
C 1222 2662 947 2540 730 2304 
L 730 3750 
z
" transform="scale(0.015625)"/>
       </defs>
       <use xlink:href="#CMR17-30" transform="scale(0.996264)"/>
       <use xlink:href="#CMMI12-3a" transform="translate(45.690477 0)scale(0.996264)"/>
       <use xlink:href="#CMR17-38" transform="translate(72.787654 0)scale(0.996264)"/>
       <use xlink:href="#CMR17-35" transform="translate(118.478131 0)scale(0.996264)"/>
      </g>
     </g>
    </g>
    <g id="xtick_3">
     <g id="line2d_3">
      <g>
       <use xlink:href="#m02c715564d" x="141.946153" y="285.878626" style="stroke: #000000; stroke-width: 0.8"/>
      </g>
     </g>
     <g id="text_3">
      <!-- $\mathdefault{0.90}$ -->
      <g transform="translate(129.806617 302.564502)scale(0.14 -0.14)">
       <defs>
        <path id="CMR17-39" d="M 2253 1871 
C 2253 448 1670 25 1190 25 
C 1043 25 685 43 538 281 
C 704 256 826 345 826 505 
C 826 678 685 736 595 736 
C 538 736 365 710 365 492 
C 365 68 742 -128 1203 -128 
C 1939 -128 2688 665 2688 2090 
C 2688 3857 1971 4224 1485 4224 
C 851 4224 243 3664 243 2800 
C 243 2000 762 1408 1414 1408 
C 1952 1408 2189 1910 2253 2122 
L 2253 1871 
z
M 1427 1510 
C 1254 1510 1011 1542 813 1929 
C 678 2181 678 2477 678 2793 
C 678 3174 678 3438 858 3722 
C 947 3857 1114 4076 1485 4076 
C 2240 4076 2240 2909 2240 2651 
C 2240 2193 2035 1510 1427 1510 
z
" transform="scale(0.015625)"/>
       </defs>
       <use xlink:href="#CMR17-30" transform="scale(0.996264)"/>
       <use xlink:href="#CMMI12-3a" transform="translate(45.690477 0)scale(0.996264)"/>
       <use xlink:href="#CMR17-39" transform="translate(72.787654 0)scale(0.996264)"/>
       <use xlink:href="#CMR17-30" transform="translate(118.478131 0)scale(0.996264)"/>
      </g>
     </g>
    </g>
    <g id="xtick_4">
     <g id="line2d_4">
      <g>
       <use xlink:href="#m02c715564d" x="198.364915" y="285.878626" style="stroke: #000000; stroke-width: 0.8"/>
      </g>
     </g>
     <g id="text_4">
      <!-- $\mathdefault{0.95}$ -->
      <g transform="translate(186.225379 302.564502)scale(0.14 -0.14)">
       <use xlink:href="#CMR17-30" transform="scale(0.996264)"/>
       <use xlink:href="#CMMI12-3a" transform="translate(45.690477 0)scale(0.996264)"/>
       <use xlink:href="#CMR17-39" transform="translate(72.787654 0)scale(0.996264)"/>
       <use xlink:href="#CMR17-35" transform="translate(118.478131 0)scale(0.996264)"/>
      </g>
     </g>
    </g>
    <g id="xtick_5">
     <g id="line2d_5">
      <g>
       <use xlink:href="#m02c715564d" x="254.783677" y="285.878626" style="stroke: #000000; stroke-width: 0.8"/>
      </g>
     </g>
     <g id="text_5">
      <!-- $\mathdefault{1.00}$ -->
      <g transform="translate(242.644141 302.564502)scale(0.14 -0.14)">
       <defs>
        <path id="CMR17-31" d="M 1702 4083 
C 1702 4217 1696 4224 1606 4224 
C 1357 3927 979 3833 621 3820 
C 602 3820 570 3820 563 3808 
C 557 3795 557 3782 557 3648 
C 755 3648 1088 3686 1344 3839 
L 1344 467 
C 1344 243 1331 166 781 166 
L 589 166 
L 589 0 
C 896 6 1216 12 1523 12 
C 1830 12 2150 6 2458 0 
L 2458 166 
L 2266 166 
C 1715 166 1702 236 1702 467 
L 1702 4083 
z
" transform="scale(0.015625)"/>
       </defs>
       <use xlink:href="#CMR17-31" transform="scale(0.996264)"/>
       <use xlink:href="#CMMI12-3a" transform="translate(45.690477 0)scale(0.996264)"/>
       <use xlink:href="#CMR17-30" transform="translate(72.787654 0)scale(0.996264)"/>
       <use xlink:href="#CMR17-30" transform="translate(118.478131 0)scale(0.996264)"/>
      </g>
     </g>
    </g>
    <g id="xtick_6">
     <g id="line2d_6">
      <g>
       <use xlink:href="#m02c715564d" x="311.202439" y="285.878626" style="stroke: #000000; stroke-width: 0.8"/>
      </g>
     </g>
     <g id="text_6">
      <!-- $\mathdefault{1.05}$ -->
      <g transform="translate(299.062903 302.564502)scale(0.14 -0.14)">
       <use xlink:href="#CMR17-31" transform="scale(0.996264)"/>
       <use xlink:href="#CMMI12-3a" transform="translate(45.690477 0)scale(0.996264)"/>
       <use xlink:href="#CMR17-30" transform="translate(72.787654 0)scale(0.996264)"/>
       <use xlink:href="#CMR17-35" transform="translate(118.478131 0)scale(0.996264)"/>
      </g>
     </g>
    </g>
    <g id="xtick_7">
     <g id="line2d_7">
      <g>
       <use xlink:href="#m02c715564d" x="367.621201" y="285.878626" style="stroke: #000000; stroke-width: 0.8"/>
      </g>
     </g>
     <g id="text_7">
      <!-- $\mathdefault{1.10}$ -->
      <g transform="translate(355.481665 302.564502)scale(0.14 -0.14)">
       <use xlink:href="#CMR17-31" transform="scale(0.996264)"/>
       <use xlink:href="#CMMI12-3a" transform="translate(45.690477 0)scale(0.996264)"/>
       <use xlink:href="#CMR17-31" transform="translate(72.787654 0)scale(0.996264)"/>
       <use xlink:href="#CMR17-30" transform="translate(118.478131 0)scale(0.996264)"/>
      </g>
     </g>
    </g>
    <g id="xtick_8">
     <g id="line2d_8">
      <g>
       <use xlink:href="#m02c715564d" x="424.039963" y="285.878626" style="stroke: #000000; stroke-width: 0.8"/>
      </g>
     </g>
     <g id="text_8">
      <!-- $\mathdefault{1.15}$ -->
      <g transform="translate(411.900428 302.564502)scale(0.14 -0.14)">
       <use xlink:href="#CMR17-31" transform="scale(0.996264)"/>
       <use xlink:href="#CMMI12-3a" transform="translate(45.690477 0)scale(0.996264)"/>
       <use xlink:href="#CMR17-31" transform="translate(72.787654 0)scale(0.996264)"/>
       <use xlink:href="#CMR17-35" transform="translate(118.478131 0)scale(0.996264)"/>
      </g>
     </g>
    </g>
    <g id="text_9">
     <!-- pre-z ratio targets T -->
     <g transform="translate(162.767718 319.654255)scale(0.15 -0.15)">
      <defs>
       <path id="CMR17-70" d="M 1408 -1114 
C 998 -1114 973 -1088 973 -834 
L 973 380 
C 1158 109 1427 -64 1766 -64 
C 2406 -64 3053 503 3053 1382 
C 3053 2196 2496 2816 1837 2816 
C 1453 2816 1139 2603 960 2345 
L 960 2816 
L 198 2745 
L 198 2577 
C 576 2577 634 2539 634 2228 
L 634 -834 
C 634 -1081 608 -1114 198 -1114 
L 198 -1280 
C 352 -1268 634 -1268 800 -1268 
C 966 -1268 1254 -1268 1408 -1280 
L 1408 -1114 
z
M 973 2015 
C 973 2106 973 2241 1222 2481 
C 1254 2506 1472 2700 1792 2700 
C 2259 2700 2643 2112 2643 1376 
C 2643 639 2234 38 1728 38 
C 1498 38 1248 148 1056 451 
C 973 594 973 632 973 736 
L 973 2015 
z
" transform="scale(0.015625)"/>
       <path id="CMR17-72" d="M 960 1517 
C 960 2134 1222 2713 1702 2713 
C 1747 2713 1792 2707 1837 2687 
C 1837 2687 1696 2642 1696 2475 
C 1696 2321 1818 2257 1914 2257 
C 1990 2257 2131 2302 2131 2482 
C 2131 2687 1926 2816 1709 2816 
C 1222 2816 1011 2340 947 2115 
L 941 2115 
L 941 2816 
L 198 2745 
L 198 2578 
C 576 2578 634 2540 634 2231 
L 634 443 
C 634 198 608 166 198 166 
L 198 0 
C 352 12 646 12 813 12 
C 998 12 1325 12 1498 0 
L 1498 166 
C 1037 166 960 166 960 455 
L 960 1517 
z
" transform="scale(0.015625)"/>
       <path id="CMR17-65" d="M 2438 1503 
C 2464 1529 2464 1542 2464 1606 
C 2464 2251 2118 2816 1389 2816 
C 710 2816 173 2175 173 1394 
C 173 554 781 -64 1459 -64 
C 2176 -64 2458 619 2458 755 
C 2458 800 2419 800 2406 800 
C 2362 800 2355 787 2330 709 
C 2189 270 1837 51 1504 51 
C 1229 51 954 206 781 490 
C 582 819 582 1200 582 1503 
L 2438 1503 
z
M 589 1600 
C 634 2511 1126 2713 1382 2713 
C 1818 2713 2112 2308 2118 1600 
L 589 1600 
z
" transform="scale(0.015625)"/>
       <path id="CMR17-2d" d="M 1632 1254 
L 1632 1536 
L 26 1536 
L 26 1254 
L 1632 1254 
z
" transform="scale(0.015625)"/>
       <path id="CMR17-7a" d="M 2310 2604 
C 2362 2668 2362 2681 2362 2694 
C 2362 2752 2336 2752 2221 2752 
L 275 2752 
L 211 1760 
L 326 1760 
C 371 2380 442 2649 1178 2649 
L 1958 2649 
L 128 96 
C 128 6 134 0 269 0 
L 2291 0 
L 2381 1152 
L 2266 1152 
C 2214 441 2131 115 1350 115 
L 531 115 
L 2310 2604 
z
" transform="scale(0.015625)"/>
       <path id="CMR17-61" d="M 2304 1656 
C 2304 2048 2304 2275 2035 2534 
C 1798 2751 1523 2816 1306 2816 
C 800 2816 435 2408 435 1977 
C 435 1740 627 1728 666 1728 
C 749 1728 896 1779 896 1958 
C 896 2118 774 2188 666 2188 
C 640 2188 608 2182 589 2176 
C 723 2594 1069 2713 1293 2713 
C 1613 2713 1965 2421 1965 1875 
L 1965 1632 
C 1587 1619 1133 1568 774 1373 
C 371 1147 256 822 256 576 
C 256 77 832 -64 1171 -64 
C 1523 -64 1850 135 1990 505 
C 2003 219 2182 -39 2464 -39 
C 2598 -39 2938 51 2938 563 
L 2938 926 
L 2822 926 
L 2822 557 
C 2822 161 2650 109 2566 109 
C 2304 109 2304 446 2304 732 
L 2304 1656 
z
M 1965 887 
C 1965 323 1568 38 1216 38 
C 896 38 646 278 646 576 
C 646 771 730 1114 1101 1322 
C 1408 1497 1760 1523 1965 1536 
L 1965 887 
z
" transform="scale(0.015625)"/>
       <path id="CMR17-74" d="M 966 2585 
L 1862 2585 
L 1862 2752 
L 966 2752 
L 966 3968 
L 851 3968 
C 838 3292 614 2700 70 2687 
L 70 2585 
L 627 2585 
L 627 778 
C 627 655 627 -64 1370 -64 
C 1747 -64 1965 308 1965 784 
L 1965 1151 
L 1850 1151 
L 1850 790 
C 1850 347 1677 51 1408 51 
C 1222 51 966 179 966 765 
L 966 2585 
z
" transform="scale(0.015625)"/>
       <path id="CMR17-69" d="M 992 3961 
C 992 4102 877 4224 730 4224 
C 589 4224 467 4108 467 3961 
C 467 3820 582 3699 730 3699 
C 870 3699 992 3814 992 3961 
z
M 243 2745 
L 243 2579 
C 602 2579 653 2540 653 2231 
L 653 443 
C 653 198 627 166 218 166 
L 218 0 
C 371 12 646 12 806 12 
C 960 12 1222 12 1370 0 
L 1370 166 
C 992 166 979 205 979 436 
L 979 2816 
L 243 2745 
z
" transform="scale(0.015625)"/>
       <path id="CMR17-6f" d="M 2758 1356 
C 2758 2176 2163 2816 1466 2816 
C 768 2816 173 2176 173 1356 
C 173 550 768 -64 1466 -64 
C 2163 -64 2758 550 2758 1356 
z
M 1466 51 
C 1165 51 909 230 762 480 
C 602 768 582 1126 582 1408 
C 582 1676 595 2009 762 2297 
C 890 2508 1139 2713 1466 2713 
C 1754 2713 1997 2553 2150 2329 
C 2349 2028 2349 1606 2349 1408 
C 2349 1158 2336 774 2163 467 
C 1984 172 1709 51 1466 51 
z
" transform="scale(0.015625)"/>
       <path id="CMR17-67" d="M 710 1165 
C 832 1068 1043 960 1299 960 
C 1805 960 2240 1359 2240 1895 
C 2240 2063 2189 2321 1997 2521 
C 2176 2713 2438 2777 2586 2777 
C 2611 2777 2650 2777 2682 2758 
C 2656 2751 2598 2726 2598 2623 
C 2598 2540 2656 2483 2739 2483 
C 2835 2483 2886 2547 2886 2630 
C 2886 2751 2790 2880 2586 2880 
C 2330 2880 2106 2758 1926 2591 
C 1734 2764 1504 2828 1299 2828 
C 794 2828 358 2431 358 1895 
C 358 1527 570 1294 634 1230 
C 442 1004 442 742 442 710 
C 442 544 506 300 723 166 
C 390 82 128 -184 128 -517 
C 128 -996 736 -1344 1466 -1344 
C 2170 -1344 2803 -1009 2803 -510 
C 2803 384 1856 384 1363 384 
C 1216 384 954 384 922 390 
C 723 422 589 601 589 825 
C 589 883 589 1024 710 1165 
z
M 1299 1068 
C 736 1068 736 1766 736 1895 
C 736 2024 736 2719 1299 2719 
C 1862 2719 1862 2024 1862 1895 
C 1862 1766 1862 1068 1299 1068 
z
M 1466 -1236 
C 826 -1236 384 -883 384 -517 
C 384 -311 493 -118 634 -11 
C 794 102 858 102 1293 102 
C 1818 102 2547 102 2547 -517 
C 2547 -883 2106 -1236 1466 -1236 
z
" transform="scale(0.015625)"/>
       <path id="CMR17-73" d="M 1978 2688 
C 1978 2803 1971 2809 1933 2809 
C 1907 2809 1901 2803 1824 2707 
C 1805 2681 1747 2617 1728 2592 
C 1523 2809 1235 2816 1126 2816 
C 416 2816 160 2444 160 2073 
C 160 1497 813 1363 998 1324 
C 1402 1241 1542 1216 1677 1100 
C 1760 1024 1901 883 1901 652 
C 1901 384 1747 38 1158 38 
C 602 38 403 460 288 1024 
C 269 1113 269 1120 218 1120 
C 166 1120 160 1113 160 985 
L 160 64 
C 160 -52 166 -58 205 -58 
C 237 -58 243 -52 275 0 
C 314 57 410 211 448 275 
C 576 102 800 -64 1158 -64 
C 1792 -64 2131 281 2131 780 
C 2131 1107 1958 1280 1875 1356 
C 1683 1555 1459 1600 1190 1651 
C 838 1728 390 1817 390 2208 
C 390 2374 480 2726 1126 2726 
C 1811 2726 1850 2086 1862 1881 
C 1869 1849 1901 1843 1920 1843 
C 1978 1843 1978 1862 1978 1971 
L 1978 2688 
z
" transform="scale(0.015625)"/>
       <path id="CMR17-54" d="M 3981 4332 
L 288 4332 
L 179 2924 
L 294 2924 
C 378 3981 467 4166 1453 4166 
C 1568 4166 1754 4166 1805 4159 
C 1926 4140 1926 4064 1926 3917 
L 1926 465 
C 1926 236 1907 166 1376 166 
L 1197 166 
L 1197 0 
C 1504 6 1824 12 2138 12 
C 2451 12 2771 6 3078 0 
L 3078 166 
L 2899 166 
C 2368 166 2349 236 2349 465 
L 2349 3917 
C 2349 4057 2349 4134 2464 4159 
C 2515 4166 2701 4166 2816 4166 
C 3795 4166 3891 3981 3974 2924 
L 4090 2924 
L 3981 4332 
z
" transform="scale(0.015625)"/>
      </defs>
      <use xlink:href="#CMR17-70" transform="scale(0.996264)"/>
      <use xlink:href="#CMR17-72" transform="translate(50.89537 0)scale(0.996264)"/>
      <use xlink:href="#CMR17-65" transform="translate(86.176138 0)scale(0.996264)"/>
      <use xlink:href="#CMR17-2d" transform="translate(126.661798 0)scale(0.996264)"/>
      <use xlink:href="#CMR17-7a" transform="translate(156.737764 0)scale(0.996264)"/>
      <use xlink:href="#CMR17-72" transform="translate(227.299391 0)scale(0.996264)"/>
      <use xlink:href="#CMR17-61" transform="translate(262.580159 0)scale(0.996264)"/>
      <use xlink:href="#CMR17-74" transform="translate(308.270636 0)scale(0.996264)"/>
      <use xlink:href="#CMR17-69" transform="translate(343.551404 0)scale(0.996264)"/>
      <use xlink:href="#CMR17-6f" transform="translate(368.422462 0)scale(0.996264)"/>
      <use xlink:href="#CMR17-74" transform="translate(444.188906 0)scale(0.996264)"/>
      <use xlink:href="#CMR17-61" transform="translate(479.469674 0)scale(0.996264)"/>
      <use xlink:href="#CMR17-72" transform="translate(525.160151 0)scale(0.996264)"/>
      <use xlink:href="#CMR17-67" transform="translate(560.440919 0)scale(0.996264)"/>
      <use xlink:href="#CMR17-65" transform="translate(606.131396 0)scale(0.996264)"/>
      <use xlink:href="#CMR17-74" transform="translate(646.617056 0)scale(0.996264)"/>
      <use xlink:href="#CMR17-73" transform="translate(681.897824 0)scale(0.996264)"/>
      <use xlink:href="#CMR17-54" transform="translate(747.775128 0)scale(0.996264)"/>
     </g>
    </g>
   </g>
   <g id="matplotlib.axis_2">
    <g id="ytick_1">
     <g id="line2d_9">
      <defs>
       <path id="m66384e89e6" d="M 0 0 
L -3.5 0 
" style="stroke: #000000; stroke-width: 0.8"/>
      </defs>
      <g>
       <use xlink:href="#m66384e89e6" x="21.028489" y="285.878626" style="stroke: #000000; stroke-width: 0.8"/>
      </g>
     </g>
     <g id="text_10">
      <!-- $\mathdefault{0}$ -->
      <g transform="translate(7.2 290.721564)scale(0.14 -0.14)">
       <use xlink:href="#CMR17-30" transform="scale(0.996264)"/>
      </g>
     </g>
    </g>
    <g id="ytick_2">
     <g id="line2d_10">
      <g>
       <use xlink:href="#m66384e89e6" x="21.028489" y="248.044308" style="stroke: #000000; stroke-width: 0.8"/>
      </g>
     </g>
     <g id="text_11">
      <!-- $\mathdefault{1}$ -->
      <g transform="translate(7.2 252.887246)scale(0.14 -0.14)">
       <use xlink:href="#CMR17-31" transform="scale(0.996264)"/>
      </g>
     </g>
    </g>
    <g id="ytick_3">
     <g id="line2d_11">
      <g>
       <use xlink:href="#m66384e89e6" x="21.028489" y="210.209989" style="stroke: #000000; stroke-width: 0.8"/>
      </g>
     </g>
     <g id="text_12">
      <!-- $\mathdefault{2}$ -->
      <g transform="translate(7.2 215.052928)scale(0.14 -0.14)">
       <defs>
        <path id="CMR17-32" d="M 2669 990 
L 2554 990 
C 2490 537 2438 460 2413 422 
C 2381 371 1920 371 1830 371 
L 602 371 
C 832 620 1280 1073 1824 1596 
C 2214 1966 2669 2400 2669 3033 
C 2669 3788 2067 4224 1395 4224 
C 691 4224 262 3603 262 3027 
C 262 2777 448 2745 525 2745 
C 589 2745 781 2783 781 3007 
C 781 3206 614 3264 525 3264 
C 486 3264 448 3257 422 3244 
C 544 3788 915 4057 1306 4057 
C 1862 4057 2227 3616 2227 3033 
C 2227 2477 1901 1998 1536 1583 
L 262 147 
L 262 0 
L 2515 0 
L 2669 990 
z
" transform="scale(0.015625)"/>
       </defs>
       <use xlink:href="#CMR17-32" transform="scale(0.996264)"/>
      </g>
     </g>
    </g>
    <g id="ytick_4">
     <g id="line2d_12">
      <g>
       <use xlink:href="#m66384e89e6" x="21.028489" y="172.375671" style="stroke: #000000; stroke-width: 0.8"/>
      </g>
     </g>
     <g id="text_13">
      <!-- $\mathdefault{3}$ -->
      <g transform="translate(7.2 177.218609)scale(0.14 -0.14)">
       <defs>
        <path id="CMR17-33" d="M 1414 2176 
C 1984 2176 2234 1673 2234 1094 
C 2234 322 1824 25 1453 25 
C 1114 25 563 193 390 691 
C 422 678 454 678 486 678 
C 640 678 755 780 755 947 
C 755 1132 614 1216 486 1216 
C 378 1216 211 1164 211 927 
C 211 335 787 -128 1466 -128 
C 2176 -128 2720 432 2720 1087 
C 2720 1718 2208 2176 1600 2246 
C 2086 2347 2554 2776 2554 3353 
C 2554 3856 2048 4224 1472 4224 
C 890 4224 378 3862 378 3347 
C 378 3123 544 3084 627 3084 
C 762 3084 877 3167 877 3334 
C 877 3500 762 3584 627 3584 
C 602 3584 570 3584 544 3571 
C 730 3999 1235 4076 1459 4076 
C 1683 4076 2106 3966 2106 3347 
C 2106 3167 2080 2851 1862 2574 
C 1670 2329 1453 2316 1242 2297 
C 1210 2297 1062 2284 1037 2284 
C 992 2278 966 2272 966 2227 
C 966 2182 973 2176 1101 2176 
L 1414 2176 
z
" transform="scale(0.015625)"/>
       </defs>
       <use xlink:href="#CMR17-33" transform="scale(0.996264)"/>
      </g>
     </g>
    </g>
    <g id="ytick_5">
     <g id="line2d_13">
      <g>
       <use xlink:href="#m66384e89e6" x="21.028489" y="134.541353" style="stroke: #000000; stroke-width: 0.8"/>
      </g>
     </g>
     <g id="text_14">
      <!-- $\mathdefault{4}$ -->
      <g transform="translate(7.2 139.384291)scale(0.14 -0.14)">
       <defs>
        <path id="CMR17-34" d="M 2150 4147 
C 2150 4281 2144 4288 2029 4288 
L 128 1254 
L 128 1088 
L 1779 1088 
L 1779 460 
C 1779 230 1766 166 1318 166 
L 1197 166 
L 1197 0 
C 1402 12 1747 12 1965 12 
C 2182 12 2528 12 2733 0 
L 2733 166 
L 2611 166 
C 2163 166 2150 230 2150 460 
L 2150 1088 
L 2803 1088 
L 2803 1254 
L 2150 1254 
L 2150 4147 
z
M 1798 3723 
L 1798 1254 
L 256 1254 
L 1798 3723 
z
" transform="scale(0.015625)"/>
       </defs>
       <use xlink:href="#CMR17-34" transform="scale(0.996264)"/>
      </g>
     </g>
    </g>
    <g id="ytick_6">
     <g id="line2d_14">
      <g>
       <use xlink:href="#m66384e89e6" x="21.028489" y="96.707035" style="stroke: #000000; stroke-width: 0.8"/>
      </g>
     </g>
     <g id="text_15">
      <!-- $\mathdefault{5}$ -->
      <g transform="translate(7.2 101.549973)scale(0.14 -0.14)">
       <use xlink:href="#CMR17-35" transform="scale(0.996264)"/>
      </g>
     </g>
    </g>
    <g id="ytick_7">
     <g id="line2d_15">
      <g>
       <use xlink:href="#m66384e89e6" x="21.028489" y="58.872717" style="stroke: #000000; stroke-width: 0.8"/>
      </g>
     </g>
     <g id="text_16">
      <!-- $\mathdefault{6}$ -->
      <g transform="translate(7.2 63.715655)scale(0.14 -0.14)">
       <defs>
        <path id="CMR17-36" d="M 678 2198 
C 678 3712 1395 4076 1811 4076 
C 1946 4076 2272 4049 2400 3782 
C 2298 3782 2106 3782 2106 3558 
C 2106 3385 2246 3328 2336 3328 
C 2394 3328 2566 3353 2566 3571 
C 2566 3987 2246 4224 1805 4224 
C 1043 4224 243 3411 243 2011 
C 243 257 966 -128 1478 -128 
C 2099 -128 2688 431 2688 1295 
C 2688 2101 2170 2688 1517 2688 
C 1126 2688 838 2430 678 1979 
L 678 2198 
z
M 1478 25 
C 691 25 691 1212 691 1450 
C 691 1914 909 2585 1504 2585 
C 1613 2585 1926 2585 2138 2140 
C 2253 1889 2253 1624 2253 1302 
C 2253 954 2253 696 2118 438 
C 1978 173 1773 25 1478 25 
z
" transform="scale(0.015625)"/>
       </defs>
       <use xlink:href="#CMR17-36" transform="scale(0.996264)"/>
      </g>
     </g>
    </g>
    <g id="ytick_8">
     <g id="line2d_16">
      <g>
       <use xlink:href="#m66384e89e6" x="21.028489" y="21.038398" style="stroke: #000000; stroke-width: 0.8"/>
      </g>
     </g>
     <g id="text_17">
      <!-- $\mathdefault{7}$ -->
      <g transform="translate(7.2 25.881337)scale(0.14 -0.14)">
       <defs>
        <path id="CMR17-37" d="M 2886 3955 
L 2886 4096 
L 1382 4096 
C 634 4096 621 4166 595 4288 
L 480 4288 
L 294 3104 
L 410 3104 
C 429 3226 474 3552 550 3673 
C 589 3724 1062 3724 1171 3724 
L 2579 3724 
L 1869 2670 
C 1395 1961 1069 1003 1069 166 
C 1069 89 1069 -128 1299 -128 
C 1530 -128 1530 89 1530 172 
L 1530 466 
C 1530 1514 1709 2204 2003 2644 
L 2886 3955 
z
" transform="scale(0.015625)"/>
       </defs>
       <use xlink:href="#CMR17-37" transform="scale(0.996264)"/>
      </g>
     </g>
    </g>
    <g id="text_18">
     <!-- $\times\mathdefault{10^{6}}\mathdefault{}$ -->
     <g transform="translate(21.028489 17.003721)scale(0.14 -0.14)">
      <defs>
       <path id="CMSY10-2" d="M 2490 1775 
L 1210 3046 
C 1133 3123 1120 3136 1069 3136 
C 1005 3136 941 3078 941 3008 
C 941 2963 954 2950 1024 2880 
L 2304 1596 
L 1024 313 
C 954 243 941 230 941 185 
C 941 115 1005 57 1069 57 
C 1120 57 1133 70 1210 147 
L 2483 1418 
L 3808 95 
C 3821 89 3866 57 3904 57 
C 3981 57 4032 115 4032 185 
C 4032 198 4032 223 4013 255 
C 4006 268 2989 1271 2669 1596 
L 3840 2765 
C 3872 2803 3968 2886 4000 2925 
C 4006 2937 4032 2963 4032 3008 
C 4032 3078 3981 3136 3904 3136 
C 3853 3136 3827 3110 3757 3040 
L 2490 1775 
z
" transform="scale(0.015625)"/>
      </defs>
      <use xlink:href="#CMSY10-2" transform="scale(0.996264)"/>
      <use xlink:href="#CMR17-31" transform="translate(77.487468 0)scale(0.996264)"/>
      <use xlink:href="#CMR17-30" transform="translate(123.177945 0)scale(0.996264)"/>
      <use xlink:href="#CMR17-36" transform="translate(168.868422 36.153639)scale(0.697382)"/>
     </g>
    </g>
   </g>
   <g id="patch_43">
    <path d="M 21.028489 285.878626 
L 21.028489 20.003721 
" style="fill: none; stroke: #000000; stroke-width: 0.8; stroke-linejoin: miter; stroke-linecap: square"/>
   </g>
   <g id="patch_44">
    <path d="M 435.467596 285.878626 
L 435.467596 20.003721 
" style="fill: none; stroke: #000000; stroke-width: 0.8; stroke-linejoin: miter; stroke-linecap: square"/>
   </g>
   <g id="patch_45">
    <path d="M 21.028489 285.878626 
L 435.467596 285.878626 
" style="fill: none; stroke: #000000; stroke-width: 0.8; stroke-linejoin: miter; stroke-linecap: square"/>
   </g>
   <g id="patch_46">
    <path d="M 21.028489 20.003721 
L 435.467596 20.003721 
" style="fill: none; stroke: #000000; stroke-width: 0.8; stroke-linejoin: miter; stroke-linecap: square"/>
   </g>
   <g id="legend_1">
    <g id="patch_47">
     <path d="M 334.655366 121.779561 
L 424.967596 121.779561 
Q 427.967596 121.779561 427.967596 118.779561 
L 427.967596 30.503721 
Q 427.967596 27.503721 424.967596 27.503721 
L 334.655366 27.503721 
Q 331.655366 27.503721 331.655366 30.503721 
L 331.655366 118.779561 
Q 331.655366 121.779561 334.655366 121.779561 
z
" style="fill: #ffffff; opacity: 0.8; stroke: #cccccc; stroke-linejoin: miter"/>
    </g>
    <g id="patch_48">
     <path d="M 337.655366 44.711691 
L 367.655366 44.711691 
L 367.655366 34.211691 
L 337.655366 34.211691 
z
" style="fill: #4c72b0; opacity: 0.4"/>
    </g>
    <g id="text_19">
     <!-- $T($pT$)$ -->
     <g transform="translate(379.655366 44.711691)scale(0.15 -0.15)">
      <defs>
       <path id="CMMI12-54" d="M 2669 3886 
C 2707 4038 2720 4096 2816 4121 
C 2867 4134 3078 4134 3213 4134 
C 3853 4134 4154 4109 4154 3612 
C 4154 3516 4128 3274 4090 3038 
L 4083 2962 
C 4083 2937 4109 2898 4147 2898 
C 4211 2898 4211 2930 4230 3032 
L 4416 4159 
C 4429 4217 4429 4230 4429 4249 
C 4429 4319 4390 4319 4262 4319 
L 762 4319 
C 614 4319 608 4313 570 4198 
L 179 3051 
C 173 3038 154 2968 154 2962 
C 154 2930 179 2898 218 2898 
C 269 2898 282 2924 307 3007 
C 576 3777 710 4134 1562 4134 
L 1990 4134 
C 2144 4134 2208 4134 2208 4064 
C 2208 4045 2208 4032 2176 3917 
L 1318 497 
C 1254 249 1242 185 563 185 
C 403 185 358 185 358 64 
C 358 0 429 0 461 0 
C 621 0 787 12 947 12 
L 1946 12 
C 2106 12 2278 0 2438 0 
C 2509 0 2573 0 2573 121 
C 2573 185 2528 185 2362 185 
C 1786 185 1786 242 1786 338 
C 1786 344 1786 389 1811 491 
L 2669 3886 
z
" transform="scale(0.015625)"/>
       <path id="CMR17-28" d="M 1958 -1562 
C 1958 -1556 1958 -1543 1939 -1524 
C 1645 -1223 858 -403 858 1596 
C 858 3595 1632 4408 1946 4729 
C 1946 4735 1958 4748 1958 4767 
C 1958 4787 1939 4800 1914 4800 
C 1843 4800 1299 4325 986 3620 
C 666 2909 576 2218 576 1603 
C 576 1141 621 360 1005 -467 
C 1312 -1133 1837 -1600 1914 -1600 
C 1946 -1600 1958 -1588 1958 -1562 
z
" transform="scale(0.015625)"/>
       <path id="CMR17-29" d="M 1683 1596 
C 1683 2057 1638 2839 1254 3665 
C 947 4332 422 4800 346 4800 
C 326 4800 301 4793 301 4761 
C 301 4748 307 4742 314 4729 
C 621 4408 1402 3595 1402 1603 
C 1402 -396 627 -1210 314 -1530 
C 307 -1543 301 -1549 301 -1562 
C 301 -1594 326 -1600 346 -1600 
C 416 -1600 960 -1127 1274 -422 
C 1594 289 1683 981 1683 1596 
z
" transform="scale(0.015625)"/>
      </defs>
      <use xlink:href="#CMMI12-54" transform="scale(0.996264)"/>
      <use xlink:href="#CMR17-28" transform="translate(70.723632 0)scale(0.996264)"/>
      <use xlink:href="#CMR17-70" transform="translate(106.0044 0)scale(0.996264)"/>
      <use xlink:href="#CMR17-54" transform="translate(156.89977 0)scale(0.996264)"/>
      <use xlink:href="#CMR17-29" transform="translate(223.40965 0)scale(0.996264)"/>
     </g>
    </g>
    <g id="patch_49">
     <path d="M 337.655366 67.155651 
L 367.655366 67.155651 
L 367.655366 56.655651 
L 337.655366 56.655651 
z
" style="fill: #55a868; opacity: 0.4"/>
    </g>
    <g id="text_20">
     <!-- $T($eta$)$ -->
     <g transform="translate(379.655366 67.155651)scale(0.15 -0.15)">
      <use xlink:href="#CMMI12-54" transform="scale(0.996264)"/>
      <use xlink:href="#CMR17-28" transform="translate(70.723632 0)scale(0.996264)"/>
      <use xlink:href="#CMR17-65" transform="translate(106.0044 0)scale(0.996264)"/>
      <use xlink:href="#CMR17-74" transform="translate(146.49006 0)scale(0.996264)"/>
      <use xlink:href="#CMR17-61" transform="translate(181.770828 0)scale(0.996264)"/>
      <use xlink:href="#CMR17-29" transform="translate(227.461305 0)scale(0.996264)"/>
     </g>
    </g>
    <g id="patch_50">
     <path d="M 337.655366 89.599611 
L 367.655366 89.599611 
L 367.655366 79.099611 
L 337.655366 79.099611 
z
" style="fill: #c44e52; opacity: 0.4"/>
    </g>
    <g id="text_21">
     <!-- $T($phi$)$ -->
     <g transform="translate(379.655366 89.599611)scale(0.15 -0.15)">
      <defs>
       <path id="CMR17-68" d="M 2656 1954 
C 2656 2282 2592 2816 1837 2816 
C 1312 2816 1056 2392 979 2179 
L 973 2179 
L 973 4416 
L 211 4345 
L 211 4179 
C 589 4179 646 4141 646 3843 
L 646 443 
C 646 198 621 166 211 166 
L 211 0 
C 365 12 646 12 813 12 
C 979 12 1267 12 1421 0 
L 1421 166 
C 1011 166 986 192 986 443 
L 986 1678 
C 986 2269 1344 2713 1792 2713 
C 2266 2713 2317 2289 2317 1980 
L 2317 443 
C 2317 198 2291 166 1882 166 
L 1882 0 
C 2035 12 2317 12 2483 12 
C 2650 12 2938 12 3091 0 
L 3091 166 
C 2682 166 2656 192 2656 443 
L 2656 1954 
z
" transform="scale(0.015625)"/>
      </defs>
      <use xlink:href="#CMMI12-54" transform="scale(0.996264)"/>
      <use xlink:href="#CMR17-28" transform="translate(70.723632 0)scale(0.996264)"/>
      <use xlink:href="#CMR17-70" transform="translate(106.0044 0)scale(0.996264)"/>
      <use xlink:href="#CMR17-68" transform="translate(156.89977 0)scale(0.996264)"/>
      <use xlink:href="#CMR17-69" transform="translate(207.79514 0)scale(0.996264)"/>
      <use xlink:href="#CMR17-29" transform="translate(232.666198 0)scale(0.996264)"/>
     </g>
    </g>
    <g id="patch_51">
     <path d="M 337.655366 112.043571 
L 367.655366 112.043571 
L 367.655366 101.543571 
L 337.655366 101.543571 
z
" style="fill: #8172b2; opacity: 0.4"/>
    </g>
    <g id="text_22">
     <!-- $T($m$)$ -->
     <g transform="translate(379.655366 112.043571)scale(0.15 -0.15)">
      <defs>
       <path id="CMR17-6d" d="M 4326 1954 
C 4326 2276 4269 2816 3507 2816 
C 3072 2816 2771 2520 2656 2173 
L 2650 2173 
C 2573 2700 2195 2816 1837 2816 
C 1331 2816 1069 2424 973 2166 
L 966 2166 
L 966 2816 
L 211 2745 
L 211 2578 
C 589 2578 646 2540 646 2231 
L 646 443 
C 646 198 621 166 211 166 
L 211 0 
C 365 12 646 12 813 12 
C 979 12 1267 12 1421 0 
L 1421 166 
C 1011 166 986 192 986 443 
L 986 1678 
C 986 2269 1344 2713 1792 2713 
C 2266 2713 2317 2289 2317 1980 
L 2317 443 
C 2317 198 2291 166 1882 166 
L 1882 0 
C 2035 12 2317 12 2483 12 
C 2650 12 2938 12 3091 0 
L 3091 166 
C 2682 166 2656 192 2656 443 
L 2656 1678 
C 2656 2269 3014 2713 3462 2713 
C 3936 2713 3987 2289 3987 1980 
L 3987 443 
C 3987 198 3962 166 3552 166 
L 3552 0 
C 3706 12 3987 12 4154 12 
C 4320 12 4608 12 4762 0 
L 4762 166 
C 4352 166 4326 192 4326 443 
L 4326 1954 
z
" transform="scale(0.015625)"/>
      </defs>
      <use xlink:href="#CMMI12-54" transform="scale(0.996264)"/>
      <use xlink:href="#CMR17-28" transform="translate(70.723632 0)scale(0.996264)"/>
      <use xlink:href="#CMR17-6d" transform="translate(106.0044 0)scale(0.996264)"/>
      <use xlink:href="#CMR17-29" transform="translate(182.92399 0)scale(0.996264)"/>
     </g>
    </g>
   </g>
  </g>
 </g>
 <defs>
  <clipPath id="p41a3db3723">
   <rect x="21.028489" y="20.003721" width="414.439108" height="265.874905"/>
  </clipPath>
 </defs>
</svg>
