<?xml version="1.0" encoding="utf-8" standalone="no"?>
<!DOCTYPE svg PUBLIC "-//W3C//DTD SVG 1.1//EN"
  "http://www.w3.org/Graphics/SVG/1.1/DTD/svg11.dtd">
<svg xmlns:xlink="http://www.w3.org/1999/xlink" width="412.662443pt" height="318.462822pt" viewBox="0 0 412.662443 318.462822" xmlns="http://www.w3.org/2000/svg" version="1.1">
 <metadata>
  <rdf:RDF xmlns:dc="http://purl.org/dc/elements/1.1/" xmlns:cc="http://creativecommons.org/ns#" xmlns:rdf="http://www.w3.org/1999/02/22-rdf-syntax-ns#">
   <cc:Work>
    <dc:type rdf:resource="http://purl.org/dc/dcmitype/StillImage"/>
    <dc:date>2022-12-06T18:11:07.360322</dc:date>
    <dc:format>image/svg+xml</dc:format>
    <dc:creator>
     <cc:Agent>
      <dc:title>Matplotlib v3.5.1, https://matplotlib.org/</dc:title>
     </cc:Agent>
    </dc:creator>
   </cc:Work>
  </rdf:RDF>
 </metadata>
 <defs>
  <style type="text/css">*{stroke-linejoin: round; stroke-linecap: butt}</style>
 </defs>
 <g id="figure_1">
  <g id="patch_1">
   <path d="M 0 318.462822 
L 412.662443 318.462822 
L 412.662443 0 
L 0 0 
z
" style="fill: #ffffff"/>
  </g>
  <g id="axes_1">
   <g id="patch_2">
    <path d="M 48.342443 291.864917 
L 405.462443 291.864917 
L 405.462443 25.752917 
L 48.342443 25.752917 
z
" style="fill: #ffffff"/>
   </g>
   <g id="patch_3">
    <path d="M 163.768673 291.864917 
L 186.314777 291.864917 
L 186.314777 38.424917 
L 163.768673 38.424917 
z
" clip-path="url(#pefd0695565)" style="fill: #4c72b0; opacity: 0.35"/>
   </g>
   <g id="patch_4">
    <path d="M 186.314777 291.864917 
L 208.860881 291.864917 
L 208.860881 98.447142 
L 186.314777 98.447142 
z
" clip-path="url(#pefd0695565)" style="fill: #4c72b0; opacity: 0.35"/>
   </g>
   <g id="patch_5">
    <path d="M 208.860881 291.864917 
L 231.406986 291.864917 
L 231.406986 194.809642 
L 208.860881 194.809642 
z
" clip-path="url(#pefd0695565)" style="fill: #4c72b0; opacity: 0.35"/>
   </g>
   <g id="patch_6">
    <path d="M 231.406986 291.864917 
L 253.95309 291.864917 
L 253.95309 250.808914 
L 231.406986 250.808914 
z
" clip-path="url(#pefd0695565)" style="fill: #4c72b0; opacity: 0.35"/>
   </g>
   <g id="patch_7">
    <path d="M 253.95309 291.864917 
L 276.499194 291.864917 
L 276.499194 276.696802 
L 253.95309 276.696802 
z
" clip-path="url(#pefd0695565)" style="fill: #4c72b0; opacity: 0.35"/>
   </g>
   <g id="patch_8">
    <path d="M 276.499194 291.864917 
L 299.045299 291.864917 
L 299.045299 286.821033 
L 276.499194 286.821033 
z
" clip-path="url(#pefd0695565)" style="fill: #4c72b0; opacity: 0.35"/>
   </g>
   <g id="patch_9">
    <path d="M 299.045299 291.864917 
L 321.591403 291.864917 
L 321.591403 290.102596 
L 299.045299 290.102596 
z
" clip-path="url(#pefd0695565)" style="fill: #4c72b0; opacity: 0.35"/>
   </g>
   <g id="patch_10">
    <path d="M 321.591403 291.864917 
L 344.137507 291.864917 
L 344.137507 291.275451 
L 321.591403 291.275451 
z
" clip-path="url(#pefd0695565)" style="fill: #4c72b0; opacity: 0.35"/>
   </g>
   <g id="patch_11">
    <path d="M 344.137507 291.864917 
L 366.683612 291.864917 
L 366.683612 291.71907 
L 344.137507 291.71907 
z
" clip-path="url(#pefd0695565)" style="fill: #4c72b0; opacity: 0.35"/>
   </g>
   <g id="patch_12">
    <path d="M 366.683612 291.864917 
L 389.229716 291.864917 
L 389.229716 291.846686 
L 366.683612 291.846686 
z
" clip-path="url(#pefd0695565)" style="fill: #4c72b0; opacity: 0.35"/>
   </g>
   <g id="patch_13">
    <path d="M 136.629035 291.864917 
L 148.697481 291.864917 
L 148.697481 276.368646 
L 136.629035 276.368646 
z
" clip-path="url(#pefd0695565)" style="fill: #55a868; opacity: 0.35"/>
   </g>
   <g id="patch_14">
    <path d="M 148.697481 291.864917 
L 160.765928 291.864917 
L 160.765928 250.845375 
L 148.697481 250.845375 
z
" clip-path="url(#pefd0695565)" style="fill: #55a868; opacity: 0.35"/>
   </g>
   <g id="patch_15">
    <path d="M 160.765928 291.864917 
L 172.834375 291.864917 
L 172.834375 225.546953 
L 160.765928 225.546953 
z
" clip-path="url(#pefd0695565)" style="fill: #55a868; opacity: 0.35"/>
   </g>
   <g id="patch_16">
    <path d="M 172.834375 291.864917 
L 184.902821 291.864917 
L 184.902821 206.951427 
L 172.834375 206.951427 
z
" clip-path="url(#pefd0695565)" style="fill: #55a868; opacity: 0.35"/>
   </g>
   <g id="patch_17">
    <path d="M 184.902821 291.864917 
L 196.971268 291.864917 
L 196.971268 197.118891 
L 184.902821 197.118891 
z
" clip-path="url(#pefd0695565)" style="fill: #55a868; opacity: 0.35"/>
   </g>
   <g id="patch_18">
    <path d="M 196.971268 291.864917 
L 209.039715 291.864917 
L 209.039715 195.271492 
L 196.971268 195.271492 
z
" clip-path="url(#pefd0695565)" style="fill: #55a868; opacity: 0.35"/>
   </g>
   <g id="patch_19">
    <path d="M 209.039715 291.864917 
L 221.108162 291.864917 
L 221.108162 206.131036 
L 209.039715 206.131036 
z
" clip-path="url(#pefd0695565)" style="fill: #55a868; opacity: 0.35"/>
   </g>
   <g id="patch_20">
    <path d="M 221.108162 291.864917 
L 233.176608 291.864917 
L 233.176608 225.717108 
L 221.108162 225.717108 
z
" clip-path="url(#pefd0695565)" style="fill: #55a868; opacity: 0.35"/>
   </g>
   <g id="patch_21">
    <path d="M 233.176608 291.864917 
L 245.245055 291.864917 
L 245.245055 250.918299 
L 233.176608 250.918299 
z
" clip-path="url(#pefd0695565)" style="fill: #55a868; opacity: 0.35"/>
   </g>
   <g id="patch_22">
    <path d="M 245.245055 291.864917 
L 257.313502 291.864917 
L 257.313502 276.083028 
L 245.245055 276.083028 
z
" clip-path="url(#pefd0695565)" style="fill: #55a868; opacity: 0.35"/>
   </g>
   <g id="patch_23">
    <path d="M 151.554674 291.864917 
L 160.627651 291.864917 
L 160.627651 231.538844 
L 151.554674 231.538844 
z
" clip-path="url(#pefd0695565)" style="fill: #c44e52; opacity: 0.35"/>
   </g>
   <g id="patch_24">
    <path d="M 160.627651 291.864917 
L 169.700629 291.864917 
L 169.700629 232.772469 
L 160.627651 232.772469 
z
" clip-path="url(#pefd0695565)" style="fill: #c44e52; opacity: 0.35"/>
   </g>
   <g id="patch_25">
    <path d="M 169.700629 291.864917 
L 178.773606 291.864917 
L 178.773606 230.293066 
L 169.700629 230.293066 
z
" clip-path="url(#pefd0695565)" style="fill: #c44e52; opacity: 0.35"/>
   </g>
   <g id="patch_26">
    <path d="M 178.773606 291.864917 
L 187.846584 291.864917 
L 187.846584 230.700223 
L 178.773606 230.700223 
z
" clip-path="url(#pefd0695565)" style="fill: #c44e52; opacity: 0.35"/>
   </g>
   <g id="patch_27">
    <path d="M 187.846584 291.864917 
L 196.919562 291.864917 
L 196.919562 231.867001 
L 187.846584 231.867001 
z
" clip-path="url(#pefd0695565)" style="fill: #c44e52; opacity: 0.35"/>
   </g>
   <g id="patch_28">
    <path d="M 196.919562 291.864917 
L 205.992539 291.864917 
L 205.992539 230.329527 
L 196.919562 230.329527 
z
" clip-path="url(#pefd0695565)" style="fill: #c44e52; opacity: 0.35"/>
   </g>
   <g id="patch_29">
    <path d="M 205.992539 291.864917 
L 215.065517 291.864917 
L 215.065517 231.277535 
L 205.992539 231.277535 
z
" clip-path="url(#pefd0695565)" style="fill: #c44e52; opacity: 0.35"/>
   </g>
   <g id="patch_30">
    <path d="M 215.065517 291.864917 
L 224.138494 291.864917 
L 224.138494 229.697523 
L 215.065517 229.697523 
z
" clip-path="url(#pefd0695565)" style="fill: #c44e52; opacity: 0.35"/>
   </g>
   <g id="patch_31">
    <path d="M 224.138494 291.864917 
L 233.211472 291.864917 
L 233.211472 231.052687 
L 224.138494 231.052687 
z
" clip-path="url(#pefd0695565)" style="fill: #c44e52; opacity: 0.35"/>
   </g>
   <g id="patch_32">
    <path d="M 233.211472 291.864917 
L 242.284449 291.864917 
L 242.284449 231.423382 
L 233.211472 231.423382 
z
" clip-path="url(#pefd0695565)" style="fill: #c44e52; opacity: 0.35"/>
   </g>
   <g id="patch_33">
    <path d="M 64.57517 291.864917 
L 92.41816 291.864917 
L 92.41816 291.773763 
L 64.57517 291.773763 
z
" clip-path="url(#pefd0695565)" style="fill: #8172b2; opacity: 0.35"/>
   </g>
   <g id="patch_34">
    <path d="M 92.41816 291.864917 
L 120.261149 291.864917 
L 120.261149 291.001988 
L 92.41816 291.001988 
z
" clip-path="url(#pefd0695565)" style="fill: #8172b2; opacity: 0.35"/>
   </g>
   <g id="patch_35">
    <path d="M 120.261149 291.864917 
L 148.104138 291.864917 
L 148.104138 276.459801 
L 120.261149 276.459801 
z
" clip-path="url(#pefd0695565)" style="fill: #8172b2; opacity: 0.35"/>
   </g>
   <g id="patch_36">
    <path d="M 148.104138 291.864917 
L 175.947127 291.864917 
L 175.947127 185.700266 
L 148.104138 185.700266 
z
" clip-path="url(#pefd0695565)" style="fill: #8172b2; opacity: 0.35"/>
   </g>
   <g id="patch_37">
    <path d="M 175.947127 291.864917 
L 203.790117 291.864917 
L 203.790117 39.786159 
L 175.947127 39.786159 
z
" clip-path="url(#pefd0695565)" style="fill: #8172b2; opacity: 0.35"/>
   </g>
   <g id="patch_38">
    <path d="M 203.790117 291.864917 
L 231.633106 291.864917 
L 231.633106 112.709789 
L 203.790117 112.709789 
z
" clip-path="url(#pefd0695565)" style="fill: #8172b2; opacity: 0.35"/>
   </g>
   <g id="patch_39">
    <path d="M 231.633106 291.864917 
L 259.476095 291.864917 
L 259.476095 246.488188 
L 231.633106 246.488188 
z
" clip-path="url(#pefd0695565)" style="fill: #8172b2; opacity: 0.35"/>
   </g>
   <g id="patch_40">
    <path d="M 259.476095 291.864917 
L 287.319084 291.864917 
L 287.319084 284.688017 
L 259.476095 284.688017 
z
" clip-path="url(#pefd0695565)" style="fill: #8172b2; opacity: 0.35"/>
   </g>
   <g id="patch_41">
    <path d="M 287.319084 291.864917 
L 315.162074 291.864917 
L 315.162074 290.667754 
L 287.319084 290.667754 
z
" clip-path="url(#pefd0695565)" style="fill: #8172b2; opacity: 0.35"/>
   </g>
   <g id="patch_42">
    <path d="M 315.162074 291.864917 
L 343.005063 291.864917 
L 343.005063 291.676531 
L 315.162074 291.676531 
z
" clip-path="url(#pefd0695565)" style="fill: #8172b2; opacity: 0.35"/>
   </g>
   <g id="patch_43">
    <path d="M 151.682819 291.864917 
L 160.74376 291.864917 
L 160.74376 232.110079 
L 151.682819 232.110079 
z
" clip-path="url(#pefd0695565)" style="fill: #ccb974; opacity: 0.35"/>
   </g>
   <g id="patch_44">
    <path d="M 160.74376 291.864917 
L 169.8047 291.864917 
L 169.8047 230.493606 
L 160.74376 230.493606 
z
" clip-path="url(#pefd0695565)" style="fill: #ccb974; opacity: 0.35"/>
   </g>
   <g id="patch_45">
    <path d="M 169.8047 291.864917 
L 178.865641 291.864917 
L 178.865641 230.700223 
L 169.8047 230.700223 
z
" clip-path="url(#pefd0695565)" style="fill: #ccb974; opacity: 0.35"/>
   </g>
   <g id="patch_46">
    <path d="M 178.865641 291.864917 
L 187.926581 291.864917 
L 187.926581 232.031079 
L 178.865641 232.031079 
z
" clip-path="url(#pefd0695565)" style="fill: #ccb974; opacity: 0.35"/>
   </g>
   <g id="patch_47">
    <path d="M 187.926581 291.864917 
L 196.987522 291.864917 
L 196.987522 230.815685 
L 187.926581 230.815685 
z
" clip-path="url(#pefd0695565)" style="fill: #ccb974; opacity: 0.35"/>
   </g>
   <g id="patch_48">
    <path d="M 196.987522 291.864917 
L 206.048462 291.864917 
L 206.048462 230.554375 
L 196.987522 230.554375 
z
" clip-path="url(#pefd0695565)" style="fill: #ccb974; opacity: 0.35"/>
   </g>
   <g id="patch_49">
    <path d="M 206.048462 291.864917 
L 215.109403 291.864917 
L 215.109403 231.058764 
L 206.048462 231.058764 
z
" clip-path="url(#pefd0695565)" style="fill: #ccb974; opacity: 0.35"/>
   </g>
   <g id="patch_50">
    <path d="M 215.109403 291.864917 
L 224.170344 291.864917 
L 224.170344 231.04661 
L 215.109403 231.04661 
z
" clip-path="url(#pefd0695565)" style="fill: #ccb974; opacity: 0.35"/>
   </g>
   <g id="patch_51">
    <path d="M 224.170344 291.864917 
L 233.231284 291.864917 
L 233.231284 230.742761 
L 224.170344 230.742761 
z
" clip-path="url(#pefd0695565)" style="fill: #ccb974; opacity: 0.35"/>
   </g>
   <g id="patch_52">
    <path d="M 233.231284 291.864917 
L 242.292225 291.864917 
L 242.292225 231.399074 
L 233.231284 231.399074 
z
" clip-path="url(#pefd0695565)" style="fill: #ccb974; opacity: 0.35"/>
   </g>
   <g id="matplotlib.axis_1">
    <g id="xtick_1">
     <g id="line2d_1">
      <defs>
       <path id="mf39bbd904d" d="M 0 0 
L 0 3.5 
" style="stroke: #000000; stroke-width: 0.8"/>
      </defs>
      <g>
       <use xlink:href="#mf39bbd904d" x="92.542974" y="291.864917" style="stroke: #000000; stroke-width: 0.8"/>
      </g>
     </g>
     <g id="text_1">
      <!-- $\mathdefault{−4}$ -->
      <g transform="translate(83.704612 308.550794)scale(0.14 -0.14)">
       <defs>
        <path id="CMSY10-0" d="M 4218 1472 
C 4326 1472 4442 1472 4442 1600 
C 4442 1728 4326 1728 4218 1728 
L 755 1728 
C 646 1728 531 1728 531 1600 
C 531 1472 646 1472 755 1472 
L 4218 1472 
z
" transform="scale(0.015625)"/>
        <path id="CMR17-34" d="M 2150 4147 
C 2150 4281 2144 4288 2029 4288 
L 128 1254 
L 128 1088 
L 1779 1088 
L 1779 460 
C 1779 230 1766 166 1318 166 
L 1197 166 
L 1197 0 
C 1402 12 1747 12 1965 12 
C 2182 12 2528 12 2733 0 
L 2733 166 
L 2611 166 
C 2163 166 2150 230 2150 460 
L 2150 1088 
L 2803 1088 
L 2803 1254 
L 2150 1254 
L 2150 4147 
z
M 1798 3723 
L 1798 1254 
L 256 1254 
L 1798 3723 
z
" transform="scale(0.015625)"/>
       </defs>
       <use xlink:href="#CMSY10-0" transform="scale(0.996264)"/>
       <use xlink:href="#CMR17-34" transform="translate(77.487468 0)scale(0.996264)"/>
      </g>
     </g>
    </g>
    <g id="xtick_2">
     <g id="line2d_2">
      <g>
       <use xlink:href="#mf39bbd904d" x="144.784891" y="291.864917" style="stroke: #000000; stroke-width: 0.8"/>
      </g>
     </g>
     <g id="text_2">
      <!-- $\mathdefault{−2}$ -->
      <g transform="translate(135.946529 308.550794)scale(0.14 -0.14)">
       <defs>
        <path id="CMR17-32" d="M 2669 990 
L 2554 990 
C 2490 537 2438 460 2413 422 
C 2381 371 1920 371 1830 371 
L 602 371 
C 832 620 1280 1073 1824 1596 
C 2214 1966 2669 2400 2669 3033 
C 2669 3788 2067 4224 1395 4224 
C 691 4224 262 3603 262 3027 
C 262 2777 448 2745 525 2745 
C 589 2745 781 2783 781 3007 
C 781 3206 614 3264 525 3264 
C 486 3264 448 3257 422 3244 
C 544 3788 915 4057 1306 4057 
C 1862 4057 2227 3616 2227 3033 
C 2227 2477 1901 1998 1536 1583 
L 262 147 
L 262 0 
L 2515 0 
L 2669 990 
z
" transform="scale(0.015625)"/>
       </defs>
       <use xlink:href="#CMSY10-0" transform="scale(0.996264)"/>
       <use xlink:href="#CMR17-32" transform="translate(77.487468 0)scale(0.996264)"/>
      </g>
     </g>
    </g>
    <g id="xtick_3">
     <g id="line2d_3">
      <g>
       <use xlink:href="#mf39bbd904d" x="197.026809" y="291.864917" style="stroke: #000000; stroke-width: 0.8"/>
      </g>
     </g>
     <g id="text_3">
      <!-- $\mathdefault{0}$ -->
      <g transform="translate(193.612565 308.550794)scale(0.14 -0.14)">
       <defs>
        <path id="CMR17-30" d="M 2688 2038 
C 2688 2430 2682 3099 2413 3613 
C 2176 4063 1798 4224 1466 4224 
C 1158 4224 768 4082 525 3620 
C 269 3137 243 2539 243 2038 
C 243 1671 250 1112 448 623 
C 723 -39 1216 -128 1466 -128 
C 1760 -128 2208 -7 2470 604 
C 2662 1048 2688 1568 2688 2038 
z
M 1466 -26 
C 1056 -26 813 328 723 816 
C 653 1196 653 1749 653 2109 
C 653 2604 653 3015 736 3407 
C 858 3954 1216 4121 1466 4121 
C 1728 4121 2067 3947 2189 3420 
C 2272 3054 2278 2623 2278 2109 
C 2278 1691 2278 1176 2202 797 
C 2067 96 1690 -26 1466 -26 
z
" transform="scale(0.015625)"/>
       </defs>
       <use xlink:href="#CMR17-30" transform="scale(0.996264)"/>
      </g>
     </g>
    </g>
    <g id="xtick_4">
     <g id="line2d_4">
      <g>
       <use xlink:href="#mf39bbd904d" x="249.268727" y="291.864917" style="stroke: #000000; stroke-width: 0.8"/>
      </g>
     </g>
     <g id="text_4">
      <!-- $\mathdefault{2}$ -->
      <g transform="translate(245.854482 308.550794)scale(0.14 -0.14)">
       <use xlink:href="#CMR17-32" transform="scale(0.996264)"/>
      </g>
     </g>
    </g>
    <g id="xtick_5">
     <g id="line2d_5">
      <g>
       <use xlink:href="#mf39bbd904d" x="301.510644" y="291.864917" style="stroke: #000000; stroke-width: 0.8"/>
      </g>
     </g>
     <g id="text_5">
      <!-- $\mathdefault{4}$ -->
      <g transform="translate(298.0964 308.550794)scale(0.14 -0.14)">
       <use xlink:href="#CMR17-34" transform="scale(0.996264)"/>
      </g>
     </g>
    </g>
    <g id="xtick_6">
     <g id="line2d_6">
      <g>
       <use xlink:href="#mf39bbd904d" x="353.752562" y="291.864917" style="stroke: #000000; stroke-width: 0.8"/>
      </g>
     </g>
     <g id="text_6">
      <!-- $\mathdefault{6}$ -->
      <g transform="translate(350.338317 308.550794)scale(0.14 -0.14)">
       <defs>
        <path id="CMR17-36" d="M 678 2198 
C 678 3712 1395 4076 1811 4076 
C 1946 4076 2272 4049 2400 3782 
C 2298 3782 2106 3782 2106 3558 
C 2106 3385 2246 3328 2336 3328 
C 2394 3328 2566 3353 2566 3571 
C 2566 3987 2246 4224 1805 4224 
C 1043 4224 243 3411 243 2011 
C 243 257 966 -128 1478 -128 
C 2099 -128 2688 431 2688 1295 
C 2688 2101 2170 2688 1517 2688 
C 1126 2688 838 2430 678 1979 
L 678 2198 
z
M 1478 25 
C 691 25 691 1212 691 1450 
C 691 1914 909 2585 1504 2585 
C 1613 2585 1926 2585 2138 2140 
C 2253 1889 2253 1624 2253 1302 
C 2253 954 2253 696 2118 438 
C 1978 173 1773 25 1478 25 
z
" transform="scale(0.015625)"/>
       </defs>
       <use xlink:href="#CMR17-36" transform="scale(0.996264)"/>
      </g>
     </g>
    </g>
   </g>
   <g id="matplotlib.axis_2">
    <g id="ytick_1">
     <g id="line2d_7">
      <defs>
       <path id="m8cff260b0e" d="M 0 0 
L -3.5 0 
" style="stroke: #000000; stroke-width: 0.8"/>
      </defs>
      <g>
       <use xlink:href="#m8cff260b0e" x="48.342443" y="291.864917" style="stroke: #000000; stroke-width: 0.8"/>
      </g>
     </g>
     <g id="text_7">
      <!-- $\mathdefault{0}$ -->
      <g transform="translate(34.513955 296.707856)scale(0.14 -0.14)">
       <use xlink:href="#CMR17-30" transform="scale(0.996264)"/>
      </g>
     </g>
    </g>
    <g id="ytick_2">
     <g id="line2d_8">
      <g>
       <use xlink:href="#m8cff260b0e" x="48.342443" y="261.480071" style="stroke: #000000; stroke-width: 0.8"/>
      </g>
     </g>
     <g id="text_8">
      <!-- $\mathdefault{5000}$ -->
      <g transform="translate(14.028489 266.32301)scale(0.14 -0.14)">
       <defs>
        <path id="CMR17-35" d="M 730 3750 
C 794 3724 1056 3641 1325 3641 
C 1920 3641 2246 3961 2432 4140 
C 2432 4191 2432 4224 2394 4224 
C 2387 4224 2374 4224 2323 4198 
C 2099 4102 1837 4032 1517 4032 
C 1325 4032 1037 4055 723 4191 
C 653 4224 640 4224 634 4224 
C 602 4224 595 4217 595 4090 
L 595 2231 
C 595 2113 595 2080 659 2080 
C 691 2080 704 2093 736 2139 
C 941 2435 1222 2560 1542 2560 
C 1766 2560 2246 2415 2246 1293 
C 2246 1087 2246 716 2054 422 
C 1894 159 1645 25 1370 25 
C 947 25 518 319 403 812 
C 429 806 480 793 506 793 
C 589 793 749 838 749 1036 
C 749 1209 627 1280 506 1280 
C 358 1280 262 1190 262 1011 
C 262 454 704 -128 1382 -128 
C 2042 -128 2669 441 2669 1267 
C 2669 2054 2170 2662 1549 2662 
C 1222 2662 947 2540 730 2304 
L 730 3750 
z
" transform="scale(0.015625)"/>
       </defs>
       <use xlink:href="#CMR17-35" transform="scale(0.996264)"/>
       <use xlink:href="#CMR17-30" transform="translate(45.690477 0)scale(0.996264)"/>
       <use xlink:href="#CMR17-30" transform="translate(91.380954 0)scale(0.996264)"/>
       <use xlink:href="#CMR17-30" transform="translate(137.071431 0)scale(0.996264)"/>
      </g>
     </g>
    </g>
    <g id="ytick_3">
     <g id="line2d_9">
      <g>
       <use xlink:href="#m8cff260b0e" x="48.342443" y="231.095226" style="stroke: #000000; stroke-width: 0.8"/>
      </g>
     </g>
     <g id="text_9">
      <!-- $\mathdefault{10000}$ -->
      <g transform="translate(7.2 235.938164)scale(0.14 -0.14)">
       <defs>
        <path id="CMR17-31" d="M 1702 4083 
C 1702 4217 1696 4224 1606 4224 
C 1357 3927 979 3833 621 3820 
C 602 3820 570 3820 563 3808 
C 557 3795 557 3782 557 3648 
C 755 3648 1088 3686 1344 3839 
L 1344 467 
C 1344 243 1331 166 781 166 
L 589 166 
L 589 0 
C 896 6 1216 12 1523 12 
C 1830 12 2150 6 2458 0 
L 2458 166 
L 2266 166 
C 1715 166 1702 236 1702 467 
L 1702 4083 
z
" transform="scale(0.015625)"/>
       </defs>
       <use xlink:href="#CMR17-31" transform="scale(0.996264)"/>
       <use xlink:href="#CMR17-30" transform="translate(45.690477 0)scale(0.996264)"/>
       <use xlink:href="#CMR17-30" transform="translate(91.380954 0)scale(0.996264)"/>
       <use xlink:href="#CMR17-30" transform="translate(137.071431 0)scale(0.996264)"/>
       <use xlink:href="#CMR17-30" transform="translate(182.761908 0)scale(0.996264)"/>
      </g>
     </g>
    </g>
    <g id="ytick_4">
     <g id="line2d_10">
      <g>
       <use xlink:href="#m8cff260b0e" x="48.342443" y="200.71038" style="stroke: #000000; stroke-width: 0.8"/>
      </g>
     </g>
     <g id="text_10">
      <!-- $\mathdefault{15000}$ -->
      <g transform="translate(7.2 205.553318)scale(0.14 -0.14)">
       <use xlink:href="#CMR17-31" transform="scale(0.996264)"/>
       <use xlink:href="#CMR17-35" transform="translate(45.690477 0)scale(0.996264)"/>
       <use xlink:href="#CMR17-30" transform="translate(91.380954 0)scale(0.996264)"/>
       <use xlink:href="#CMR17-30" transform="translate(137.071431 0)scale(0.996264)"/>
       <use xlink:href="#CMR17-30" transform="translate(182.761908 0)scale(0.996264)"/>
      </g>
     </g>
    </g>
    <g id="ytick_5">
     <g id="line2d_11">
      <g>
       <use xlink:href="#m8cff260b0e" x="48.342443" y="170.325534" style="stroke: #000000; stroke-width: 0.8"/>
      </g>
     </g>
     <g id="text_11">
      <!-- $\mathdefault{20000}$ -->
      <g transform="translate(7.2 175.168472)scale(0.14 -0.14)">
       <use xlink:href="#CMR17-32" transform="scale(0.996264)"/>
       <use xlink:href="#CMR17-30" transform="translate(45.690477 0)scale(0.996264)"/>
       <use xlink:href="#CMR17-30" transform="translate(91.380954 0)scale(0.996264)"/>
       <use xlink:href="#CMR17-30" transform="translate(137.071431 0)scale(0.996264)"/>
       <use xlink:href="#CMR17-30" transform="translate(182.761908 0)scale(0.996264)"/>
      </g>
     </g>
    </g>
    <g id="ytick_6">
     <g id="line2d_12">
      <g>
       <use xlink:href="#m8cff260b0e" x="48.342443" y="139.940688" style="stroke: #000000; stroke-width: 0.8"/>
      </g>
     </g>
     <g id="text_12">
      <!-- $\mathdefault{25000}$ -->
      <g transform="translate(7.2 144.783626)scale(0.14 -0.14)">
       <use xlink:href="#CMR17-32" transform="scale(0.996264)"/>
       <use xlink:href="#CMR17-35" transform="translate(45.690477 0)scale(0.996264)"/>
       <use xlink:href="#CMR17-30" transform="translate(91.380954 0)scale(0.996264)"/>
       <use xlink:href="#CMR17-30" transform="translate(137.071431 0)scale(0.996264)"/>
       <use xlink:href="#CMR17-30" transform="translate(182.761908 0)scale(0.996264)"/>
      </g>
     </g>
    </g>
    <g id="ytick_7">
     <g id="line2d_13">
      <g>
       <use xlink:href="#m8cff260b0e" x="48.342443" y="109.555842" style="stroke: #000000; stroke-width: 0.8"/>
      </g>
     </g>
     <g id="text_13">
      <!-- $\mathdefault{30000}$ -->
      <g transform="translate(7.2 114.39878)scale(0.14 -0.14)">
       <defs>
        <path id="CMR17-33" d="M 1414 2176 
C 1984 2176 2234 1673 2234 1094 
C 2234 322 1824 25 1453 25 
C 1114 25 563 193 390 691 
C 422 678 454 678 486 678 
C 640 678 755 780 755 947 
C 755 1132 614 1216 486 1216 
C 378 1216 211 1164 211 927 
C 211 335 787 -128 1466 -128 
C 2176 -128 2720 432 2720 1087 
C 2720 1718 2208 2176 1600 2246 
C 2086 2347 2554 2776 2554 3353 
C 2554 3856 2048 4224 1472 4224 
C 890 4224 378 3862 378 3347 
C 378 3123 544 3084 627 3084 
C 762 3084 877 3167 877 3334 
C 877 3500 762 3584 627 3584 
C 602 3584 570 3584 544 3571 
C 730 3999 1235 4076 1459 4076 
C 1683 4076 2106 3966 2106 3347 
C 2106 3167 2080 2851 1862 2574 
C 1670 2329 1453 2316 1242 2297 
C 1210 2297 1062 2284 1037 2284 
C 992 2278 966 2272 966 2227 
C 966 2182 973 2176 1101 2176 
L 1414 2176 
z
" transform="scale(0.015625)"/>
       </defs>
       <use xlink:href="#CMR17-33" transform="scale(0.996264)"/>
       <use xlink:href="#CMR17-30" transform="translate(45.690477 0)scale(0.996264)"/>
       <use xlink:href="#CMR17-30" transform="translate(91.380954 0)scale(0.996264)"/>
       <use xlink:href="#CMR17-30" transform="translate(137.071431 0)scale(0.996264)"/>
       <use xlink:href="#CMR17-30" transform="translate(182.761908 0)scale(0.996264)"/>
      </g>
     </g>
    </g>
    <g id="ytick_8">
     <g id="line2d_14">
      <g>
       <use xlink:href="#m8cff260b0e" x="48.342443" y="79.170996" style="stroke: #000000; stroke-width: 0.8"/>
      </g>
     </g>
     <g id="text_14">
      <!-- $\mathdefault{35000}$ -->
      <g transform="translate(7.2 84.013934)scale(0.14 -0.14)">
       <use xlink:href="#CMR17-33" transform="scale(0.996264)"/>
       <use xlink:href="#CMR17-35" transform="translate(45.690477 0)scale(0.996264)"/>
       <use xlink:href="#CMR17-30" transform="translate(91.380954 0)scale(0.996264)"/>
       <use xlink:href="#CMR17-30" transform="translate(137.071431 0)scale(0.996264)"/>
       <use xlink:href="#CMR17-30" transform="translate(182.761908 0)scale(0.996264)"/>
      </g>
     </g>
    </g>
    <g id="ytick_9">
     <g id="line2d_15">
      <g>
       <use xlink:href="#m8cff260b0e" x="48.342443" y="48.78615" style="stroke: #000000; stroke-width: 0.8"/>
      </g>
     </g>
     <g id="text_15">
      <!-- $\mathdefault{40000}$ -->
      <g transform="translate(7.2 53.629088)scale(0.14 -0.14)">
       <use xlink:href="#CMR17-34" transform="scale(0.996264)"/>
       <use xlink:href="#CMR17-30" transform="translate(45.690477 0)scale(0.996264)"/>
       <use xlink:href="#CMR17-30" transform="translate(91.380954 0)scale(0.996264)"/>
       <use xlink:href="#CMR17-30" transform="translate(137.071431 0)scale(0.996264)"/>
       <use xlink:href="#CMR17-30" transform="translate(182.761908 0)scale(0.996264)"/>
      </g>
     </g>
    </g>
   </g>
   <g id="patch_53">
    <path d="M 48.342443 291.864917 
L 48.342443 25.752917 
" style="fill: none; stroke: #000000; stroke-width: 0.8; stroke-linejoin: miter; stroke-linecap: square"/>
   </g>
   <g id="patch_54">
    <path d="M 405.462443 291.864917 
L 405.462443 25.752917 
" style="fill: none; stroke: #000000; stroke-width: 0.8; stroke-linejoin: miter; stroke-linecap: square"/>
   </g>
   <g id="patch_55">
    <path d="M 48.342443 291.864917 
L 405.462443 291.864917 
" style="fill: none; stroke: #000000; stroke-width: 0.8; stroke-linejoin: miter; stroke-linecap: square"/>
   </g>
   <g id="patch_56">
    <path d="M 48.342443 25.752917 
L 405.462443 25.752917 
" style="fill: none; stroke: #000000; stroke-width: 0.8; stroke-linejoin: miter; stroke-linecap: square"/>
   </g>
   <g id="text_16">
    <!-- training features post-z score: X'=z(L(X)) -->
    <g transform="translate(74.611641 19.752917)scale(0.168 -0.168)">
     <defs>
      <path id="CMR17-74" d="M 966 2585 
L 1862 2585 
L 1862 2752 
L 966 2752 
L 966 3968 
L 851 3968 
C 838 3292 614 2700 70 2687 
L 70 2585 
L 627 2585 
L 627 778 
C 627 655 627 -64 1370 -64 
C 1747 -64 1965 308 1965 784 
L 1965 1151 
L 1850 1151 
L 1850 790 
C 1850 347 1677 51 1408 51 
C 1222 51 966 179 966 765 
L 966 2585 
z
" transform="scale(0.015625)"/>
      <path id="CMR17-72" d="M 960 1517 
C 960 2134 1222 2713 1702 2713 
C 1747 2713 1792 2707 1837 2687 
C 1837 2687 1696 2642 1696 2475 
C 1696 2321 1818 2257 1914 2257 
C 1990 2257 2131 2302 2131 2482 
C 2131 2687 1926 2816 1709 2816 
C 1222 2816 1011 2340 947 2115 
L 941 2115 
L 941 2816 
L 198 2745 
L 198 2578 
C 576 2578 634 2540 634 2231 
L 634 443 
C 634 198 608 166 198 166 
L 198 0 
C 352 12 646 12 813 12 
C 998 12 1325 12 1498 0 
L 1498 166 
C 1037 166 960 166 960 455 
L 960 1517 
z
" transform="scale(0.015625)"/>
      <path id="CMR17-61" d="M 2304 1656 
C 2304 2048 2304 2275 2035 2534 
C 1798 2751 1523 2816 1306 2816 
C 800 2816 435 2408 435 1977 
C 435 1740 627 1728 666 1728 
C 749 1728 896 1779 896 1958 
C 896 2118 774 2188 666 2188 
C 640 2188 608 2182 589 2176 
C 723 2594 1069 2713 1293 2713 
C 1613 2713 1965 2421 1965 1875 
L 1965 1632 
C 1587 1619 1133 1568 774 1373 
C 371 1147 256 822 256 576 
C 256 77 832 -64 1171 -64 
C 1523 -64 1850 135 1990 505 
C 2003 219 2182 -39 2464 -39 
C 2598 -39 2938 51 2938 563 
L 2938 926 
L 2822 926 
L 2822 557 
C 2822 161 2650 109 2566 109 
C 2304 109 2304 446 2304 732 
L 2304 1656 
z
M 1965 887 
C 1965 323 1568 38 1216 38 
C 896 38 646 278 646 576 
C 646 771 730 1114 1101 1322 
C 1408 1497 1760 1523 1965 1536 
L 1965 887 
z
" transform="scale(0.015625)"/>
      <path id="CMR17-69" d="M 992 3961 
C 992 4102 877 4224 730 4224 
C 589 4224 467 4108 467 3961 
C 467 3820 582 3699 730 3699 
C 870 3699 992 3814 992 3961 
z
M 243 2745 
L 243 2579 
C 602 2579 653 2540 653 2231 
L 653 443 
C 653 198 627 166 218 166 
L 218 0 
C 371 12 646 12 806 12 
C 960 12 1222 12 1370 0 
L 1370 166 
C 992 166 979 205 979 436 
L 979 2816 
L 243 2745 
z
" transform="scale(0.015625)"/>
      <path id="CMR17-6e" d="M 2656 1954 
C 2656 2282 2592 2816 1837 2816 
C 1331 2816 1069 2424 973 2166 
L 966 2166 
L 966 2816 
L 211 2745 
L 211 2578 
C 589 2578 646 2540 646 2231 
L 646 443 
C 646 198 621 166 211 166 
L 211 0 
C 365 12 646 12 813 12 
C 979 12 1267 12 1421 0 
L 1421 166 
C 1011 166 986 192 986 443 
L 986 1678 
C 986 2269 1344 2713 1792 2713 
C 2266 2713 2317 2289 2317 1980 
L 2317 443 
C 2317 198 2291 166 1882 166 
L 1882 0 
C 2035 12 2317 12 2483 12 
C 2650 12 2938 12 3091 0 
L 3091 166 
C 2682 166 2656 192 2656 443 
L 2656 1954 
z
" transform="scale(0.015625)"/>
      <path id="CMR17-67" d="M 710 1165 
C 832 1068 1043 960 1299 960 
C 1805 960 2240 1359 2240 1895 
C 2240 2063 2189 2321 1997 2521 
C 2176 2713 2438 2777 2586 2777 
C 2611 2777 2650 2777 2682 2758 
C 2656 2751 2598 2726 2598 2623 
C 2598 2540 2656 2483 2739 2483 
C 2835 2483 2886 2547 2886 2630 
C 2886 2751 2790 2880 2586 2880 
C 2330 2880 2106 2758 1926 2591 
C 1734 2764 1504 2828 1299 2828 
C 794 2828 358 2431 358 1895 
C 358 1527 570 1294 634 1230 
C 442 1004 442 742 442 710 
C 442 544 506 300 723 166 
C 390 82 128 -184 128 -517 
C 128 -996 736 -1344 1466 -1344 
C 2170 -1344 2803 -1009 2803 -510 
C 2803 384 1856 384 1363 384 
C 1216 384 954 384 922 390 
C 723 422 589 601 589 825 
C 589 883 589 1024 710 1165 
z
M 1299 1068 
C 736 1068 736 1766 736 1895 
C 736 2024 736 2719 1299 2719 
C 1862 2719 1862 2024 1862 1895 
C 1862 1766 1862 1068 1299 1068 
z
M 1466 -1236 
C 826 -1236 384 -883 384 -517 
C 384 -311 493 -118 634 -11 
C 794 102 858 102 1293 102 
C 1818 102 2547 102 2547 -517 
C 2547 -883 2106 -1236 1466 -1236 
z
" transform="scale(0.015625)"/>
      <path id="CMR17-66" d="M 979 2585 
L 1709 2585 
L 1709 2752 
L 966 2752 
L 966 3539 
C 966 4076 1235 4377 1510 4377 
C 1594 4377 1690 4363 1754 4339 
C 1702 4326 1568 4281 1568 4121 
C 1568 3955 1696 3904 1786 3904 
C 1875 3904 2003 3955 2003 4121 
C 2003 4353 1773 4480 1517 4480 
C 1152 4480 653 4211 653 3526 
L 653 2752 
L 141 2752 
L 141 2585 
L 653 2585 
L 653 441 
C 653 198 627 166 218 166 
L 218 0 
C 371 12 666 12 832 12 
C 1018 12 1344 12 1517 0 
L 1517 166 
C 1056 166 979 166 979 454 
L 979 2585 
z
" transform="scale(0.015625)"/>
      <path id="CMR17-65" d="M 2438 1503 
C 2464 1529 2464 1542 2464 1606 
C 2464 2251 2118 2816 1389 2816 
C 710 2816 173 2175 173 1394 
C 173 554 781 -64 1459 -64 
C 2176 -64 2458 619 2458 755 
C 2458 800 2419 800 2406 800 
C 2362 800 2355 787 2330 709 
C 2189 270 1837 51 1504 51 
C 1229 51 954 206 781 490 
C 582 819 582 1200 582 1503 
L 2438 1503 
z
M 589 1600 
C 634 2511 1126 2713 1382 2713 
C 1818 2713 2112 2308 2118 1600 
L 589 1600 
z
" transform="scale(0.015625)"/>
      <path id="CMR17-75" d="M 1882 2745 
L 1882 2579 
C 2259 2579 2317 2540 2317 2229 
L 2317 1053 
C 2317 510 2029 38 1555 38 
C 1030 38 986 355 986 691 
L 986 2816 
L 211 2745 
L 211 2579 
C 467 2579 640 2579 646 2320 
L 646 1079 
C 646 646 646 368 813 187 
C 896 103 1056 -64 1517 -64 
C 2061 -64 2272 400 2323 536 
L 2330 536 
L 2330 -64 
L 3091 -13 
L 3091 154 
C 2714 154 2656 193 2656 503 
L 2656 2816 
L 1882 2745 
z
" transform="scale(0.015625)"/>
      <path id="CMR17-73" d="M 1978 2688 
C 1978 2803 1971 2809 1933 2809 
C 1907 2809 1901 2803 1824 2707 
C 1805 2681 1747 2617 1728 2592 
C 1523 2809 1235 2816 1126 2816 
C 416 2816 160 2444 160 2073 
C 160 1497 813 1363 998 1324 
C 1402 1241 1542 1216 1677 1100 
C 1760 1024 1901 883 1901 652 
C 1901 384 1747 38 1158 38 
C 602 38 403 460 288 1024 
C 269 1113 269 1120 218 1120 
C 166 1120 160 1113 160 985 
L 160 64 
C 160 -52 166 -58 205 -58 
C 237 -58 243 -52 275 0 
C 314 57 410 211 448 275 
C 576 102 800 -64 1158 -64 
C 1792 -64 2131 281 2131 780 
C 2131 1107 1958 1280 1875 1356 
C 1683 1555 1459 1600 1190 1651 
C 838 1728 390 1817 390 2208 
C 390 2374 480 2726 1126 2726 
C 1811 2726 1850 2086 1862 1881 
C 1869 1849 1901 1843 1920 1843 
C 1978 1843 1978 1862 1978 1971 
L 1978 2688 
z
" transform="scale(0.015625)"/>
      <path id="CMR17-70" d="M 1408 -1114 
C 998 -1114 973 -1088 973 -834 
L 973 380 
C 1158 109 1427 -64 1766 -64 
C 2406 -64 3053 503 3053 1382 
C 3053 2196 2496 2816 1837 2816 
C 1453 2816 1139 2603 960 2345 
L 960 2816 
L 198 2745 
L 198 2577 
C 576 2577 634 2539 634 2228 
L 634 -834 
C 634 -1081 608 -1114 198 -1114 
L 198 -1280 
C 352 -1268 634 -1268 800 -1268 
C 966 -1268 1254 -1268 1408 -1280 
L 1408 -1114 
z
M 973 2015 
C 973 2106 973 2241 1222 2481 
C 1254 2506 1472 2700 1792 2700 
C 2259 2700 2643 2112 2643 1376 
C 2643 639 2234 38 1728 38 
C 1498 38 1248 148 1056 451 
C 973 594 973 632 973 736 
L 973 2015 
z
" transform="scale(0.015625)"/>
      <path id="CMR17-6f" d="M 2758 1356 
C 2758 2176 2163 2816 1466 2816 
C 768 2816 173 2176 173 1356 
C 173 550 768 -64 1466 -64 
C 2163 -64 2758 550 2758 1356 
z
M 1466 51 
C 1165 51 909 230 762 480 
C 602 768 582 1126 582 1408 
C 582 1676 595 2009 762 2297 
C 890 2508 1139 2713 1466 2713 
C 1754 2713 1997 2553 2150 2329 
C 2349 2028 2349 1606 2349 1408 
C 2349 1158 2336 774 2163 467 
C 1984 172 1709 51 1466 51 
z
" transform="scale(0.015625)"/>
      <path id="CMR17-2d" d="M 1632 1254 
L 1632 1536 
L 26 1536 
L 26 1254 
L 1632 1254 
z
" transform="scale(0.015625)"/>
      <path id="CMR17-7a" d="M 2310 2604 
C 2362 2668 2362 2681 2362 2694 
C 2362 2752 2336 2752 2221 2752 
L 275 2752 
L 211 1760 
L 326 1760 
C 371 2380 442 2649 1178 2649 
L 1958 2649 
L 128 96 
C 128 6 134 0 269 0 
L 2291 0 
L 2381 1152 
L 2266 1152 
C 2214 441 2131 115 1350 115 
L 531 115 
L 2310 2604 
z
" transform="scale(0.015625)"/>
      <path id="CMR17-63" d="M 2234 2240 
C 2112 2240 1933 2240 1933 2015 
C 1933 1836 2080 1785 2163 1785 
C 2208 1785 2394 1804 2394 2028 
C 2394 2476 1958 2816 1466 2816 
C 787 2816 211 2201 211 1379 
C 211 521 813 -64 1466 -64 
C 2259 -64 2458 676 2458 747 
C 2458 773 2451 792 2406 792 
C 2362 792 2355 786 2330 702 
C 2163 180 1798 51 1523 51 
C 1114 51 621 431 621 1385 
C 621 2358 1094 2700 1472 2700 
C 1722 2700 2093 2582 2234 2240 
z
" transform="scale(0.015625)"/>
      <path id="CMR17-3a" d="M 1062 2489 
C 1062 2649 934 2752 800 2752 
C 672 2752 538 2649 538 2489 
C 538 2329 666 2227 800 2227 
C 928 2227 1062 2329 1062 2489 
z
M 1062 262 
C 1062 422 934 524 800 524 
C 672 524 538 422 538 262 
C 538 102 666 0 800 0 
C 928 0 1062 102 1062 262 
z
" transform="scale(0.015625)"/>
      <path id="CMR17-58" d="M 2336 2414 
L 3283 3771 
C 3379 3905 3571 4178 4096 4185 
L 4096 4352 
C 3949 4339 3706 4339 3552 4339 
C 3341 4339 3078 4339 2918 4352 
L 2918 4185 
C 3123 4166 3174 4038 3174 3936 
C 3174 3860 3142 3809 3098 3745 
L 2253 2529 
L 1306 3905 
C 1261 3975 1254 3994 1254 4013 
C 1254 4070 1325 4178 1536 4185 
L 1536 4352 
C 1331 4339 1018 4339 806 4339 
C 640 4339 320 4339 166 4352 
L 166 4185 
C 518 4185 634 4172 774 3975 
L 2010 2179 
L 896 567 
C 621 172 205 166 83 166 
L 83 0 
C 230 12 474 12 627 12 
C 800 12 1101 12 1261 0 
L 1261 166 
C 1062 185 1005 312 1005 414 
C 1005 497 1037 542 1069 586 
L 2093 2064 
L 3206 446 
C 3258 376 3258 357 3258 338 
C 3258 287 3200 179 2976 166 
L 2976 0 
C 3181 12 3494 12 3706 12 
C 3872 12 4192 12 4346 0 
L 4346 166 
C 3936 166 3872 198 3744 376 
L 2336 2414 
z
" transform="scale(0.015625)"/>
      <path id="CMR17-27" d="M 1024 4012 
C 1037 3942 1043 3916 1043 3810 
C 1043 3418 883 3058 634 2803 
C 608 2777 595 2758 595 2732 
C 595 2707 621 2681 646 2681 
C 691 2681 1146 3120 1146 3804 
C 1146 3942 1133 4416 800 4416 
C 659 4416 538 4319 538 4153 
C 538 3987 659 3891 800 3891 
C 858 3891 966 3910 1024 4012 
z
" transform="scale(0.015625)"/>
      <path id="CMR17-3d" d="M 4115 2048 
C 4211 2048 4307 2048 4307 2156 
C 4307 2272 4198 2272 4090 2272 
L 512 2272 
C 403 2272 294 2272 294 2156 
C 294 2048 390 2048 486 2048 
L 4115 2048 
z
M 4090 927 
C 4198 927 4307 927 4307 1043 
C 4307 1152 4211 1152 4115 1152 
L 486 1152 
C 390 1152 294 1152 294 1043 
C 294 927 403 927 512 927 
L 4090 927 
z
" transform="scale(0.015625)"/>
      <path id="CMR17-28" d="M 1958 -1562 
C 1958 -1556 1958 -1543 1939 -1524 
C 1645 -1223 858 -403 858 1596 
C 858 3595 1632 4408 1946 4729 
C 1946 4735 1958 4748 1958 4767 
C 1958 4787 1939 4800 1914 4800 
C 1843 4800 1299 4325 986 3620 
C 666 2909 576 2218 576 1603 
C 576 1141 621 360 1005 -467 
C 1312 -1133 1837 -1600 1914 -1600 
C 1946 -1600 1958 -1588 1958 -1562 
z
" transform="scale(0.015625)"/>
      <path id="CMR17-4c" d="M 3469 1612 
L 3354 1612 
C 3302 981 3219 166 2125 166 
L 1530 166 
C 1274 166 1261 198 1261 414 
L 1261 3892 
C 1261 4121 1274 4185 1760 4185 
L 1901 4185 
L 1901 4352 
C 1638 4339 1331 4339 1069 4339 
C 870 4339 512 4339 326 4352 
L 326 4185 
C 768 4185 838 4185 838 3898 
L 838 453 
C 838 166 768 166 326 166 
L 326 0 
L 3315 0 
L 3469 1612 
z
" transform="scale(0.015625)"/>
      <path id="CMR17-29" d="M 1683 1596 
C 1683 2057 1638 2839 1254 3665 
C 947 4332 422 4800 346 4800 
C 326 4800 301 4793 301 4761 
C 301 4748 307 4742 314 4729 
C 621 4408 1402 3595 1402 1603 
C 1402 -396 627 -1210 314 -1530 
C 307 -1543 301 -1549 301 -1562 
C 301 -1594 326 -1600 346 -1600 
C 416 -1600 960 -1127 1274 -422 
C 1594 289 1683 981 1683 1596 
z
" transform="scale(0.015625)"/>
     </defs>
     <use xlink:href="#CMR17-74" transform="scale(0.996264)"/>
     <use xlink:href="#CMR17-72" transform="translate(35.280768 0)scale(0.996264)"/>
     <use xlink:href="#CMR17-61" transform="translate(70.561536 0)scale(0.996264)"/>
     <use xlink:href="#CMR17-69" transform="translate(116.252013 0)scale(0.996264)"/>
     <use xlink:href="#CMR17-6e" transform="translate(141.123071 0)scale(0.996264)"/>
     <use xlink:href="#CMR17-69" transform="translate(192.018441 0)scale(0.996264)"/>
     <use xlink:href="#CMR17-6e" transform="translate(216.889499 0)scale(0.996264)"/>
     <use xlink:href="#CMR17-67" transform="translate(267.784869 0)scale(0.996264)"/>
     <use xlink:href="#CMR17-66" transform="translate(343.551313 0)scale(0.996264)"/>
     <use xlink:href="#CMR17-65" transform="translate(371.024825 0)scale(0.996264)"/>
     <use xlink:href="#CMR17-61" transform="translate(411.510486 0)scale(0.996264)"/>
     <use xlink:href="#CMR17-74" transform="translate(457.200963 0)scale(0.996264)"/>
     <use xlink:href="#CMR17-75" transform="translate(492.48173 0)scale(0.996264)"/>
     <use xlink:href="#CMR17-72" transform="translate(543.3771 0)scale(0.996264)"/>
     <use xlink:href="#CMR17-65" transform="translate(578.657868 0)scale(0.996264)"/>
     <use xlink:href="#CMR17-73" transform="translate(619.143529 0)scale(0.996264)"/>
     <use xlink:href="#CMR17-70" transform="translate(685.020833 0)scale(0.996264)"/>
     <use xlink:href="#CMR17-6f" transform="translate(738.518641 0)scale(0.996264)"/>
     <use xlink:href="#CMR17-73" transform="translate(784.209118 0)scale(0.996264)"/>
     <use xlink:href="#CMR17-74" transform="translate(820.010456 0)scale(0.996264)"/>
     <use xlink:href="#CMR17-2d" transform="translate(855.291224 0)scale(0.996264)"/>
     <use xlink:href="#CMR17-7a" transform="translate(885.36719 0)scale(0.996264)"/>
     <use xlink:href="#CMR17-73" transform="translate(955.928817 0)scale(0.996264)"/>
     <use xlink:href="#CMR17-63" transform="translate(991.730154 0)scale(0.996264)"/>
     <use xlink:href="#CMR17-6f" transform="translate(1032.215815 0)scale(0.996264)"/>
     <use xlink:href="#CMR17-72" transform="translate(1077.906292 0)scale(0.996264)"/>
     <use xlink:href="#CMR17-65" transform="translate(1113.18706 0)scale(0.996264)"/>
     <use xlink:href="#CMR17-3a" transform="translate(1153.67272 0)scale(0.996264)"/>
     <use xlink:href="#CMR17-58" transform="translate(1219.029439 0)scale(0.996264)"/>
     <use xlink:href="#CMR17-27" transform="translate(1288.101869 0)scale(0.996264)"/>
     <use xlink:href="#CMR17-3d" transform="translate(1312.972927 0)scale(0.996264)"/>
     <use xlink:href="#CMR17-7a" transform="translate(1384.687716 0)scale(0.996264)"/>
     <use xlink:href="#CMR17-28" transform="translate(1425.173376 0)scale(0.996264)"/>
     <use xlink:href="#CMR17-4c" transform="translate(1460.454144 0)scale(0.996264)"/>
     <use xlink:href="#CMR17-28" transform="translate(1517.835552 0)scale(0.996264)"/>
     <use xlink:href="#CMR17-58" transform="translate(1553.11632 0)scale(0.996264)"/>
     <use xlink:href="#CMR17-29" transform="translate(1622.18875 0)scale(0.996264)"/>
     <use xlink:href="#CMR17-29" transform="translate(1657.469517 0)scale(0.996264)"/>
    </g>
   </g>
  </g>
 </g>
 <defs>
  <clipPath id="pefd0695565">
   <rect x="48.342443" y="25.752917" width="357.12" height="266.112"/>
  </clipPath>
 </defs>
</svg>
